<svg xmlns="http://www.w3.org/2000/svg" xmlns:xlink="http://www.w3.org/1999/xlink" fill="none" version="1.1" width="16" height="16" viewBox="0 0 16 16"><defs><clipPath id="master_svg0_69_06279"><rect x="0" y="0" width="16" height="16" rx="0"/></clipPath></defs><g clip-path="url(#master_svg0_69_06279)"><g><path d="M11.88908,4.11092Q12.4313,4.6531,13.6261,5.99866Q13.6973,6.07881,13.7951,6.12274Q13.8928,6.16667,14,6.16667Q14.0492,6.16667,14.0975,6.15706Q14.1458,6.14745,14.1913,6.12861Q14.2368,6.10976,14.2778,6.0824Q14.3187,6.05504,14.3536,6.02022Q14.3884,5.9854,14.4157,5.94445Q14.4431,5.9035,14.4619,5.85801Q14.4808,5.81251,14.4904,5.76421Q14.5,5.71591,14.5,5.66667Q14.5,5.57489,14.4674,5.48909Q14.4348,5.4033,14.3739,5.33467Q13.1594,3.96698,12.5962,3.40381Q10.69242,1.5,8,1.5Q5.30762,1.5,3.40381,3.40381Q1.4999989999999999,5.30762,1.4999989999999999,8Q1.5,10.69238,3.40381,12.5962Q5.30762,14.5,8,14.5Q10.69197,14.5,12.5955,12.5968L12.5962,12.5962Q12.6665,12.5259,12.7046,12.434Q12.7426,12.3421,12.7426,12.2426Q12.7426,12.1934,12.733,12.1451Q12.7234,12.0968,12.7046,12.0513Q12.6857,12.0058,12.6584,11.96485Q12.631,11.9239,12.5962,11.88908Q12.5614,11.85426,12.5204,11.8269Q12.4795,11.79954,12.434,11.78069Q12.3885,11.76185,12.3402,11.75224Q12.2919,11.74263,12.2426,11.74263Q12.1432,11.74263,12.0513,11.78069Q11.9594,11.81876,11.88907,11.88908Q10.27821,13.5,8,13.5Q5.721830000000001,13.5,4.11092,11.88908Q2.5,10.27817,2.499999,8Q2.5,5.721830000000001,4.11092,4.11092Q5.721830000000001,2.5,8,2.5Q10.2782,2.5,11.88908,4.11092Z" fill-rule="evenodd" fill="#5B9CF8" fill-opacity="1" style="mix-blend-mode:passthrough"/></g><g><path d="M13.5,2.6666667461395264Q13.5,2.617421046139526,13.50961,2.5691216461395263Q13.519210000000001,2.5208217461395264,13.53806,2.4753247461395262Q13.55691,2.4298277461395266,13.58426,2.388881746139526Q13.61162,2.3479357461395263,13.64645,2.3131137461395266Q13.68127,2.2782917461395265,13.72221,2.250931746139526Q13.76316,2.2235727461395265,13.80866,2.204726746139526Q13.85415,2.1858817461395263,13.90245,2.1762737461395263Q13.95075,2.1666667461395264,14,2.1666667461395264Q14.04925,2.1666667461395264,14.09754,2.1762737461395263Q14.14584,2.1858817461395263,14.19134,2.204726746139526Q14.23684,2.2235727461395265,14.27778,2.250931746139526Q14.31873,2.2782917461395265,14.35355,2.3131137461395266Q14.38837,2.3479357461395263,14.41573,2.388881746139526Q14.44309,2.4298277461395266,14.46194,2.4753247461395262Q14.48078,2.5208217461395264,14.49039,2.5691216461395263Q14.5,2.617421046139526,14.5,2.6666667461395264L14.5,5.666666746139526Q14.5,5.715916746139526,14.49039,5.764206746139527Q14.48078,5.812506746139526,14.46194,5.858006746139527Q14.44309,5.903506746139526,14.41573,5.944446746139526Q14.38837,5.985396746139527,14.35355,6.020216746139527Q14.31873,6.0550367461395265,14.27778,6.082396746139526Q14.23684,6.109756746139526,14.19134,6.128606746139527Q14.14584,6.147446746139527,14.09754,6.157056746139526Q14.04925,6.166666746139526,14,6.166666746139526L11,6.166666746139526Q10.9507543,6.166666746139526,10.9024549,6.157056746139526Q10.854155,6.147446746139527,10.808658,6.128606746139527Q10.763161,6.109756746139526,10.722215,6.082396746139526Q10.681269,6.0550367461395265,10.646447,6.020216746139527Q10.611625,5.985396746139527,10.584265,5.944446746139526Q10.556906,5.903506746139526,10.53806,5.858006746139527Q10.519214999999999,5.812506746139526,10.509607,5.764206746139527Q10.5,5.715916746139526,10.5,5.666666746139526Q10.5,5.617416746139527,10.509607,5.569116746139526Q10.519214999999999,5.520816746139527,10.53806,5.475326746139526Q10.556906,5.429826746139526,10.584265,5.388876746139527Q10.611625,5.347936746139526,10.646447,5.313116746139526Q10.681269,5.278286746139527,10.722215,5.250926746139527Q10.763161,5.223576746139527,10.808658,5.204726746139526Q10.854155,5.1858767461395265,10.9024549,5.176276746139527Q10.9507543,5.166666746139526,11,5.166666746139526L13.5,5.166666746139526L13.5,2.6666667461395264Z" fill-rule="evenodd" fill="#5B9CF8" fill-opacity="1" style="mix-blend-mode:passthrough"/></g></g></svg>
