<svg xmlns="http://www.w3.org/2000/svg" xmlns:xlink="http://www.w3.org/1999/xlink" fill="none" version="1.1" width="20" height="20" viewBox="0 0 20 20"><defs><clipPath id="master_svg0_77_06838"><rect x="0" y="0" width="20" height="20" rx="0"/></clipPath></defs><g clip-path="url(#master_svg0_77_06838)"><g><path d="M5.833104375,1.16650390625Q5.783864375,1.16650390625,5.735564375,1.17611090625Q5.687264375,1.18571890625,5.641764375,1.20456390625Q5.596274375,1.2234099062500001,5.555324375,1.25076890625Q5.514374375,1.27812890625,5.479554375,1.31295090625Q5.4447343749999995,1.34777290625,5.417374375,1.38871890625Q5.390014375,1.42966490625,5.371164375,1.4751619062499999Q5.352324375,1.52065890625,5.342714375,1.56895880625Q5.333104375,1.61725820625,5.333104375,1.66650390625L5.333104375,7.50693390625L3.099532375,8.692713906249999Q3.039393375,8.72464390625,2.989981375,8.771483906250001Q2.940570375,8.81832390625,2.905483375,8.876683906250001Q2.870396375,8.93503390625,2.852190375,9.00064390625Q2.833984375,9.066243906250001,2.833984375,9.13433390625L2.833984375,18.33320390625Q2.833984375,18.38240390625,2.843591375,18.43070390625Q2.853199375,18.47900390625,2.8720443749999998,18.52450390625Q2.890890375,18.57000390625,2.918249375,18.61090390625Q2.945609375,18.65190390625,2.980431375,18.68670390625Q3.015253375,18.72150390625,3.056199375,18.74890390625Q3.097145375,18.77630390625,3.142642375,18.79510390625Q3.188139375,18.81400390625,3.236439275,18.82360390625Q3.284738675,18.83320390625,3.333984375,18.83320390625L16.667284375,18.83320390625Q16.716584375,18.83320390625,16.764884375,18.82360390625Q16.813184375,18.81400390625,16.858684375,18.79510390625Q16.904184375,18.77630390625,16.945084375,18.74890390625Q16.986084375,18.72150390625,17.020884375,18.68670390625Q17.055684375,18.65190390625,17.083084375,18.61100390625Q17.110384375000002,18.57000390625,17.129284374999997,18.52450390625Q17.148084375,18.47900390625,17.157684375000002,18.43070390625Q17.167284375,18.38240390625,17.167284375,18.33320390625L17.167284375,1.66650390625Q17.167284375,1.61725820625,17.157684375000002,1.56895880625Q17.148084375,1.52065890625,17.129284374999997,1.4751619062499999Q17.110384375000002,1.42966490625,17.083084375,1.38871890625Q17.055684375,1.34777290625,17.020884375,1.31295090625Q16.986084375,1.27812890625,16.945084375,1.25076890625Q16.904184375,1.2234099062500001,16.858684375,1.20456390625Q16.813184375,1.18571890625,16.764884375,1.17611090625Q16.716584375,1.16650390625,16.667284375,1.16650390625L5.833104375,1.16650390625ZM6.333104375,2.16650390625L6.333104375,7.80758390625Q6.333114375,7.87567390625,6.314904374999999,7.94128390625Q6.2966943749999995,8.00689390625,6.261614375000001,8.06524390625Q6.226524375,8.12359390625,6.177114375,8.17044390625Q6.127704375,8.21728390625,6.067564375,8.249213906249999L3.833984375,9.43498390625L3.833984375,17.83320390625L16.167284375,17.83320390625L16.167284375,2.16650390625L6.333104375,2.16650390625Z" fill-rule="evenodd" fill="" fill-opacity="1" style="mix-blend-mode:passthrough"/></g><g><path d="M8.25,5Q8.25,4.9507543,8.259607,4.9024549Q8.269214999999999,4.854155,8.28806,4.808658Q8.306906,4.763161,8.334265,4.722215Q8.361625,4.681269,8.396447,4.646447Q8.431269,4.611625,8.472215,4.584265Q8.513161,4.556906,8.558658,4.53806Q8.604155,4.519215,8.6524549,4.509607Q8.7007543,4.5,8.75,4.5Q8.7992457,4.5,8.8475451,4.509607Q8.895845,4.519215,8.941342,4.53806Q8.986839,4.556906,9.027785,4.584265Q9.068731,4.611625,9.103553,4.646447Q9.138375,4.681269,9.165735,4.722215Q9.193094,4.763161,9.21194,4.808658Q9.230785000000001,4.854155,9.240393,4.9024549Q9.25,4.9507543,9.25,5L9.25,7.5Q9.25,7.54925,9.240393,7.59754Q9.230785000000001,7.64584,9.21194,7.69134Q9.193094,7.73684,9.165735,7.77778Q9.138375,7.81873,9.103553,7.85355Q9.068731,7.88837,9.027785,7.91573Q8.986839,7.94309,8.941342,7.96194Q8.895845,7.98078,8.8475451,7.99039Q8.7992457,8,8.75,8Q8.7007543,8,8.6524549,7.99039Q8.604155,7.98078,8.558658,7.96194Q8.513161,7.94309,8.472215,7.91573Q8.431269,7.88837,8.396447,7.85355Q8.361625,7.81873,8.334265,7.77778Q8.306906,7.73684,8.28806,7.69134Q8.269214999999999,7.64584,8.259607,7.59754Q8.25,7.54925,8.25,7.5L8.25,5Z" fill-rule="evenodd" fill="" fill-opacity="1" style="mix-blend-mode:passthrough"/></g><g><path d="M13.25,5Q13.25,4.9507543,13.259607,4.9024549Q13.269214999999999,4.854155,13.28806,4.808658Q13.306906,4.763161,13.334265,4.722215Q13.361625,4.681269,13.396447,4.646447Q13.431269,4.611625,13.472215,4.584265Q13.513161,4.556906,13.558658,4.53806Q13.604155,4.519215,13.6524549,4.509607Q13.7007543,4.5,13.75,4.5Q13.7992457,4.5,13.8475451,4.509607Q13.895845,4.519215,13.941342,4.53806Q13.986839,4.556906,14.027785,4.584265Q14.068731,4.611625,14.103553,4.646447Q14.138375,4.681269,14.165735,4.722215Q14.193094,4.763161,14.21194,4.808658Q14.230785000000001,4.854155,14.240393,4.9024549Q14.25,4.9507543,14.25,5L14.25,7.5Q14.25,7.54925,14.240393,7.59754Q14.230785000000001,7.64584,14.21194,7.69134Q14.193094,7.73684,14.165735,7.77778Q14.138375,7.81873,14.103553,7.85355Q14.068731,7.88837,14.027785,7.91573Q13.986839,7.94309,13.941342,7.96194Q13.895845,7.98078,13.8475451,7.99039Q13.7992457,8,13.75,8Q13.7007543,8,13.6524549,7.99039Q13.604155,7.98078,13.558658,7.96194Q13.513161,7.94309,13.472215,7.91573Q13.431269,7.88837,13.396447,7.85355Q13.361625,7.81873,13.334265,7.77778Q13.306906,7.73684,13.28806,7.69134Q13.269214999999999,7.64584,13.259607,7.59754Q13.25,7.54925,13.25,7.5L13.25,5Z" fill-rule="evenodd" fill="" fill-opacity="1" style="mix-blend-mode:passthrough"/></g><g><path d="M10.75,5Q10.75,4.9507543,10.759607,4.9024549Q10.769214999999999,4.854155,10.78806,4.808658Q10.806906,4.763161,10.834265,4.722215Q10.861625,4.681269,10.896447,4.646447Q10.931269,4.611625,10.972215,4.584265Q11.013161,4.556906,11.058658,4.53806Q11.104155,4.519215,11.1524549,4.509607Q11.2007543,4.5,11.25,4.5Q11.2992457,4.5,11.3475451,4.509607Q11.395845,4.519215,11.441342,4.53806Q11.486839,4.556906,11.527785,4.584265Q11.568731,4.611625,11.603553,4.646447Q11.638375,4.681269,11.665735,4.722215Q11.693094,4.763161,11.71194,4.808658Q11.730785000000001,4.854155,11.740393,4.9024549Q11.75,4.9507543,11.75,5L11.75,7.5Q11.75,7.54925,11.740393,7.59754Q11.730785000000001,7.64584,11.71194,7.69134Q11.693094,7.73684,11.665735,7.77778Q11.638375,7.81873,11.603553,7.85355Q11.568731,7.88837,11.527785,7.91573Q11.486839,7.94309,11.441342,7.96194Q11.395845,7.98078,11.3475451,7.99039Q11.2992457,8,11.25,8Q11.2007543,8,11.1524549,7.99039Q11.104155,7.98078,11.058658,7.96194Q11.013161,7.94309,10.972215,7.91573Q10.931269,7.88837,10.896447,7.85355Q10.861625,7.81873,10.834265,7.77778Q10.806906,7.73684,10.78806,7.69134Q10.769214999999999,7.64584,10.759607,7.59754Q10.75,7.54925,10.75,7.5L10.75,5Z" fill-rule="evenodd" fill="" fill-opacity="1" style="mix-blend-mode:passthrough"/></g></g></svg>
