<svg xmlns="http://www.w3.org/2000/svg" xmlns:xlink="http://www.w3.org/1999/xlink" fill="none" version="1.1" width="20" height="20" viewBox="0 0 20 20"><defs><clipPath id="master_svg0_77_06812"><rect x="0" y="0" width="20" height="20" rx="0"/></clipPath></defs><g clip-path="url(#master_svg0_77_06812)"><g><path d="M1.583984375,17.49983390625L1.583984375,11.66650390625Q1.583984375,11.61725820625,1.593591375,11.56895880625Q1.603199375,11.52065890625,1.622044375,11.47516190625Q1.6408903750000001,11.42966490625,1.668249375,11.38871890625Q1.695609375,11.34777290625,1.730431375,11.31295090625Q1.765253375,11.27812890625,1.806199375,11.25076890625Q1.847145375,11.22340990625,1.8926423749999999,11.20456390625Q1.938139375,11.185718906249999,1.986439275,11.17611090625Q2.034738675,11.16650390625,2.083984375,11.16650390625L17.917284375,11.16650390625Q17.966584375,11.16650390625,18.014884375,11.17611090625Q18.063184375,11.185718906249999,18.108684375,11.20456390625Q18.154184375,11.22340990625,18.195084375,11.25076890625Q18.236084375,11.27812890625,18.270884375,11.31295090625Q18.305684375,11.34777290625,18.333084375,11.38871890625Q18.360384375,11.42966490625,18.379284375,11.47516190625Q18.398084375,11.52065890625,18.407684375,11.56895880625Q18.417284375,11.61725820625,18.417284375,11.66650390625L18.417284375,17.49983390625Q18.417284375,17.54908390625,18.407684375,17.597383906250002Q18.398084375,17.64568390625,18.379284375,17.69117390625Q18.360384375,17.73667390625,18.333084375,17.77762390625Q18.305684375,17.81856390625,18.270884375,17.85339390625Q18.236084375,17.88821390625,18.195084375,17.91557390625Q18.154184375,17.94293390625,18.108684375,17.961773906250002Q18.063184375,17.98062390625,18.014884375,17.99023390625Q17.966584375,17.99983390625,17.917284375,17.99983390625L2.083984375,17.99983390625Q2.034738675,17.99983390625,1.986439275,17.99023390625Q1.938139375,17.98062390625,1.8926423749999999,17.961773906250002Q1.847145375,17.94293390625,1.806199375,17.91557390625Q1.765253375,17.88821390625,1.730431375,17.85339390625Q1.695609375,17.81856390625,1.668249375,17.77762390625Q1.6408903750000001,17.73667390625,1.622044375,17.69117390625Q1.603199375,17.64568390625,1.593591375,17.597383906250002Q1.583984375,17.54908390625,1.583984375,17.49983390625ZM2.583984375,12.16650390625L2.583984375,16.99983390625L17.417284375,16.99983390625L17.417284375,12.16650390625L2.583984375,12.16650390625Z" fill="" fill-opacity="1" style="mix-blend-mode:passthrough"/></g><g><path d="M1.583984375,8.33333L1.583984375,2.5Q1.583984375,2.4507543,1.593591375,2.4024549Q1.603199375,2.354155,1.622044375,2.308658Q1.6408903750000001,2.263161,1.668249375,2.222215Q1.695609375,2.181269,1.730431375,2.146447Q1.765253375,2.111625,1.806199375,2.084265Q1.847145375,2.056906,1.8926423749999999,2.0380599999999998Q1.938139375,2.019215,1.986439275,2.009607Q2.034738675,2,2.083984375,2L17.917284375,2Q17.966584375,2,18.014884375,2.009607Q18.063184375,2.019215,18.108684375,2.0380599999999998Q18.154184375,2.056906,18.195084375,2.084265Q18.236084375,2.111625,18.270884375,2.146447Q18.305684375,2.181269,18.333084375,2.222215Q18.360384375,2.263161,18.379284375,2.308658Q18.398084375,2.354155,18.407684375,2.4024549Q18.417284375,2.4507543,18.417284375,2.5L18.417284375,8.33333Q18.417284375,8.38258,18.407684375,8.43088Q18.398084375,8.47918,18.379284375,8.52467Q18.360384375,8.570170000000001,18.333084375,8.61112Q18.305684375,8.652059999999999,18.270884375,8.68689Q18.236084375,8.72171,18.195084375,8.74907Q18.154184375,8.776430000000001,18.108684375,8.79527Q18.063184375,8.814119999999999,18.014884375,8.823730000000001Q17.966584375,8.83333,17.917284375,8.83333L2.083984375,8.83333Q2.034738675,8.83333,1.986439275,8.823730000000001Q1.938139375,8.814119999999999,1.8926423749999999,8.79527Q1.847145375,8.776430000000001,1.806199375,8.74907Q1.765253375,8.72171,1.730431375,8.68689Q1.695609375,8.652059999999999,1.668249375,8.61112Q1.6408903750000001,8.570170000000001,1.622044375,8.52467Q1.603199375,8.47918,1.593591375,8.43088Q1.583984375,8.38258,1.583984375,8.33333ZM2.583984375,3L2.583984375,7.83333L17.417284375,7.83333L17.417284375,3L2.583984375,3Z" fill="" fill-opacity="1" style="mix-blend-mode:passthrough"/></g><g><rect x="4.583984375" y="4.58349609375" width="1.6666667461395264" height="1.6666667461395264" rx="0.8333333730697632" fill="" fill-opacity="1" style="mix-blend-mode:passthrough"/></g><g><rect x="4.583984375" y="13.75" width="1.6666667461395264" height="1.6666667461395264" rx="0.8333333730697632" fill="" fill-opacity="1" style="mix-blend-mode:passthrough"/></g><g><rect x="7.916015625" y="4.58349609375" width="1.6666667461395264" height="1.6666667461395264" rx="0.8333333730697632" fill="" fill-opacity="1" style="mix-blend-mode:passthrough"/></g><g><rect x="7.916015625" y="13.75" width="1.6666667461395264" height="1.6666667461395264" rx="0.8333333730697632" fill="" fill-opacity="1" style="mix-blend-mode:passthrough"/></g><g><path d="M12.916015625,4.91650390625L14.582685625,4.91650390625Q14.631925625000001,4.91650390625,14.680225625,4.92611090625Q14.728525625,4.93571890625,14.774025625,4.95456390625Q14.819525625,4.97340990625,14.860465625,5.00076890625Q14.901415625,5.02812890625,14.936235625,5.06295090625Q14.971055625,5.09777290625,14.998415625,5.13871890625Q15.025775625,5.17966490625,15.044625625,5.22516190625Q15.063465625,5.27065890625,15.073075625,5.31895880625Q15.082685625,5.36725820625,15.082685625,5.41650390625Q15.082685625,5.46574960625,15.073075625,5.51404900625Q15.063465625,5.56234890625,15.044625625,5.60784590625Q15.025775625,5.65334290625,14.998415625,5.69428890625Q14.971055625,5.73523490625,14.936235625,5.77005690625Q14.901415625,5.80487890625,14.860465625,5.83223890625Q14.819525625,5.85959790625,14.774025625,5.87844390625Q14.728525625,5.89728890625,14.680225625,5.90689690625Q14.631925625000001,5.91650390625,14.582685625,5.91650390625L12.916015625,5.91650390625Q12.866769925,5.91650390625,12.818470525,5.90689690625Q12.770170625,5.89728890625,12.724673625,5.87844390625Q12.679176625,5.85959790625,12.638230625,5.83223890625Q12.597284625,5.80487890625,12.562462625,5.77005690625Q12.527640625,5.73523490625,12.500280625,5.69428890625Q12.472921625,5.65334290625,12.454075625,5.60784590625Q12.435230624999999,5.56234890625,12.425622625,5.51404900625Q12.416015625,5.46574960625,12.416015625,5.41650390625Q12.416015625,5.36725820625,12.425622625,5.31895880625Q12.435230624999999,5.27065890625,12.454075625,5.22516190625Q12.472921625,5.17966490625,12.500280625,5.13871890625Q12.527640625,5.09777290625,12.562462625,5.06295090625Q12.597284625,5.02812890625,12.638230625,5.00076890625Q12.679176625,4.97340990625,12.724673625,4.95456390625Q12.770170625,4.93571890625,12.818470525,4.92611090625Q12.866769925,4.91650390625,12.916015625,4.91650390625Z" fill-rule="evenodd" fill="" fill-opacity="1" style="mix-blend-mode:passthrough"/></g><g><path d="M12.916015625,14.08349609375L14.582685625,14.08349609375Q14.631925625000001,14.08349609375,14.680225625,14.09310309375Q14.728525625,14.102711093749999,14.774025625,14.12155609375Q14.819525625,14.14040209375,14.860465625,14.16776109375Q14.901415625,14.19512109375,14.936235625,14.22994309375Q14.971055625,14.26476509375,14.998415625,14.30571109375Q15.025775625,14.34665709375,15.044625625,14.39215409375Q15.063465625,14.43765109375,15.073075625,14.48595099375Q15.082685625,14.53425039375,15.082685625,14.58349609375Q15.082685625,14.63274179375,15.073075625,14.68104119375Q15.063465625,14.72934109375,15.044625625,14.77483809375Q15.025775625,14.82033509375,14.998415625,14.86128109375Q14.971055625,14.90222709375,14.936235625,14.93704909375Q14.901415625,14.97187109375,14.860465625,14.99923109375Q14.819525625,15.02659009375,14.774025625,15.04543609375Q14.728525625,15.064281093750001,14.680225625,15.07388909375Q14.631925625000001,15.08349609375,14.582685625,15.08349609375L12.916015625,15.08349609375Q12.866769925,15.08349609375,12.818470525,15.07388909375Q12.770170625,15.064281093750001,12.724673625,15.04543609375Q12.679176625,15.02659009375,12.638230625,14.99923109375Q12.597284625,14.97187109375,12.562462625,14.93704909375Q12.527640625,14.90222709375,12.500280625,14.86128109375Q12.472921625,14.82033509375,12.454075625,14.77483809375Q12.435230624999999,14.72934109375,12.425622625,14.68104119375Q12.416015625,14.63274179375,12.416015625,14.58349609375Q12.416015625,14.53425039375,12.425622625,14.48595099375Q12.435230624999999,14.43765109375,12.454075625,14.39215409375Q12.472921625,14.34665709375,12.500280625,14.30571109375Q12.527640625,14.26476509375,12.562462625,14.22994309375Q12.597284625,14.19512109375,12.638230625,14.16776109375Q12.679176625,14.14040209375,12.724673625,14.12155609375Q12.770170625,14.102711093749999,12.818470525,14.09310309375Q12.866769925,14.08349609375,12.916015625,14.08349609375Z" fill-rule="evenodd" fill="" fill-opacity="1" style="mix-blend-mode:passthrough"/></g></g></svg>
