<?xml version="1.0" standalone="no"?><!DOCTYPE svg PUBLIC "-//W3C//DTD SVG 1.1//EN" "http://www.w3.org/Graphics/SVG/1.1/DTD/svg11.dtd"><svg t="1739870827224" class="icon" viewBox="0 0 1024 1024" version="1.1" xmlns="http://www.w3.org/2000/svg" p-id="4215" xmlns:xlink="http://www.w3.org/1999/xlink" width="200" height="200"><path d="M858.026667 146.56A85.333333 85.333333 0 0 0 770.773333 64H250.666667a87.253333 87.253333 0 0 0-87.04 82.56L64 664.746667v207.573333A88.533333 88.533333 0 0 0 151.04 960h721.92A88.533333 88.533333 0 0 0 960 872.32v-202.666667zM682.666667 400.853333H320l38.613333-254.933333h286.506667zM235.733333 149.333333a11.733333 11.733333 0 0 1 12.373334-12.586666h36.48l-39.466667 265.6a64 64 0 0 0 13.44 51.2 62.293333 62.293333 0 0 0 47.786667 21.333333h391.04a61.866667 61.866667 0 0 0 47.786666-21.333333 62.72 62.72 0 0 0 13.653334-50.133334L719.36 136.533333h51.413333a11.946667 11.946667 0 0 1 12.586667 12.586667L874.666667 632.106667H146.133333zM885.333333 872.32a15.786667 15.786667 0 0 1-14.933333 12.586667H151.04a11.733333 11.733333 0 0 1-12.373333-12.586667v-165.12h746.666666z" p-id="4216"></path><path d="M292.906667 839.893333a47.573333 47.573333 0 0 0 0-95.146666 47.36 47.36 0 0 0-47.146667 47.573333 45.866667 45.866667 0 0 0 47.146667 47.573333zM471.466667 313.386667h59.306666a37.546667 37.546667 0 0 0 0-75.093334H471.466667a37.546667 37.546667 0 0 0 0 75.093334z" p-id="4217"></path></svg>