<svg xmlns="http://www.w3.org/2000/svg" xmlns:xlink="http://www.w3.org/1999/xlink" fill="none" version="1.1" width="16" height="16" viewBox="0 0 16 16"><defs><clipPath id="master_svg0_69_06888"><rect x="0" y="0" width="16" height="16" rx="0"/></clipPath></defs><g clip-path="url(#master_svg0_69_06888)"><g><path d="M3.0202797461395265,2.3131727461395264L13.686866746139527,12.979766746139527Q13.757166746139527,13.050066746139526,13.795266746139527,13.141966746139527Q13.833366746139527,13.233866746139526,13.833366746139527,13.333366746139527Q13.833366746139527,13.382566746139526,13.823766746139526,13.430866746139527Q13.814066746139526,13.479166746139526,13.795266746139527,13.524666746139527Q13.776466746139526,13.570166746139526,13.749066746139526,13.611166746139526Q13.721666746139526,13.652066746139527,13.686866746139527,13.686866746139527Q13.652066746139527,13.721666746139526,13.611166746139526,13.749066746139526Q13.570166746139526,13.776466746139526,13.524666746139527,13.795266746139527Q13.479166746139526,13.814066746139526,13.430866746139527,13.823766746139526Q13.382566746139526,13.833366746139527,13.333366746139527,13.833366746139527Q13.233866746139526,13.833366746139527,13.141966746139527,13.795266746139527Q13.050066746139526,13.757166746139527,12.979766746139527,13.686866746139527L2.3131137461395266,3.020219746139526Q2.2427867461395263,2.9498937461395265,2.204726746139526,2.8580087461395265Q2.1666667461395264,2.7661229461395265,2.1666667461395264,2.6666667461395264Q2.1666667461395264,2.617421046139526,2.1762737461395263,2.5691216461395263Q2.1858817461395263,2.5208217461395264,2.204726746139526,2.4753247461395262Q2.2235727461395265,2.4298277461395266,2.250931746139526,2.388881746139526Q2.2782917461395265,2.3479357461395263,2.3131137461395266,2.3131137461395266Q2.3479357461395263,2.2782917461395265,2.388881746139526,2.250931746139526Q2.4298277461395266,2.2235727461395265,2.4753247461395262,2.204726746139526Q2.5208217461395264,2.1858817461395263,2.5691216461395263,2.1762737461395263Q2.617421046139526,2.1666667461395264,2.6666667461395264,2.1666667461395264Q2.7661229461395265,2.1666667461395264,2.8580087461395265,2.204726746139526Q2.9498937461395265,2.2427867461395263,3.020219746139526,2.3131137461395266L3.0202797461395265,2.3131727461395264Z" fill-rule="evenodd" fill="#5B9CF8" fill-opacity="1" style="mix-blend-mode:passthrough"/></g><g><path d="M13.686866746139527,3.020219746139526Q13.757166746139527,2.9498937461395265,13.795266746139527,2.8580087461395265Q13.833366746139527,2.766122846139526,13.833366746139527,2.6666667461395264Q13.833366746139527,2.617421046139526,13.823766746139526,2.5691216461395263Q13.814066746139526,2.5208217461395264,13.795266746139527,2.4753247461395262Q13.776466746139526,2.4298277461395266,13.749066746139526,2.388881746139526Q13.721666746139526,2.3479357461395263,13.686866746139527,2.3131137461395266Q13.652066746139527,2.2782917461395265,13.611166746139526,2.250931746139526Q13.570166746139526,2.2235727461395265,13.524666746139527,2.204726746139526Q13.479166746139526,2.1858817461395263,13.430866746139527,2.1762737461395263Q13.382566746139526,2.1666667461395264,13.333366746139527,2.1666667461395264Q13.233866746139526,2.1666667461395264,13.141966746139527,2.204726746139526Q13.050066746139526,2.2427867461395263,12.979766746139527,2.3131127461395264L12.979366746139526,2.3135647461395266L2.3135647461395266,12.979366746139526L2.3131137461395266,12.979766746139527Q2.2427867461395263,13.050066746139526,2.204726746139526,13.141966746139527Q2.1666667461395264,13.233866746139526,2.1666667461395264,13.333366746139527Q2.1666667461395264,13.382566746139526,2.1762737461395263,13.430866746139527Q2.1858817461395263,13.479166746139526,2.204726746139526,13.524666746139527Q2.2235727461395265,13.570166746139526,2.250931746139526,13.611166746139526Q2.2782917461395265,13.652066746139527,2.3131137461395266,13.686866746139527Q2.3479357461395263,13.721666746139526,2.388881746139526,13.749066746139526Q2.4298277461395266,13.776466746139526,2.4753247461395262,13.795266746139527Q2.5208217461395264,13.814066746139526,2.5691216461395263,13.823766746139526Q2.617421046139526,13.833366746139527,2.6666667461395264,13.833366746139527Q2.766122846139526,13.833366746139527,2.8580087461395265,13.795266746139527Q2.9498937461395265,13.757166746139527,3.020219746139526,13.686866746139527L13.686866746139527,3.020219746139526L13.686866746139527,3.020219746139526Z" fill-rule="evenodd" fill="#5B9CF8" fill-opacity="1" style="mix-blend-mode:passthrough"/></g></g></svg>