<svg xmlns="http://www.w3.org/2000/svg" xmlns:xlink="http://www.w3.org/1999/xlink" fill="none" version="1.1" width="20" height="20" viewBox="0 0 20 20"><defs><clipPath id="master_svg0_77_06845"><rect x="0" y="0" width="20" height="20" rx="0"/></clipPath></defs><g clip-path="url(#master_svg0_77_06845)"><g><path d="M8.687597375,6.3130099062500005L10.000654375,7.62606390625L11.313764375,6.31295090625Q11.384094375,6.24262390625,11.475974375,6.20456390625Q11.567864375,6.16650390625,11.667314375,6.16650390625Q11.716564375,6.16650390625,11.764864375,6.17611090625Q11.813164375,6.18571890625,11.858654375,6.20456390625Q11.904154375000001,6.22340990625,11.945104375,6.25076890625Q11.986044375,6.27812890625,12.020874375,6.31295090625Q12.055694375,6.34777290625,12.083054375,6.38871890625Q12.110414375,6.42966490625,12.129254375,6.47516190625Q12.148104374999999,6.52065890625,12.157714375,6.56895880625Q12.167314375,6.61725820625,12.167314375,6.66650390625Q12.167314375,6.76596000625,12.129254375,6.85784590625Q12.091194375,6.94973090625,12.020874375,7.02005690625L10.354204375,8.68672390625Q10.283874375,8.75705390625,10.191994375,8.79511390625Q10.100104375,8.83317390625,10.000654375,8.83317390625Q9.901194375,8.83317390625,9.809314375,8.79511390625Q9.717424375,8.75705390625,9.647094375,8.68672390625L7.9804903750000005,7.02011690625L7.980431375,7.02005690625Q7.910104375,6.94973090625,7.872044375,6.85784590625Q7.833984375,6.76596010625,7.833984375,6.66650390625Q7.833984375,6.61725820625,7.843591375,6.56895880625Q7.853199375,6.52065890625,7.872044375,6.47516190625Q7.890890375,6.42966490625,7.918249375,6.38871890625Q7.945609375,6.34777290625,7.980431375,6.31295090625Q8.015253375,6.27812890625,8.056199375,6.25076890625Q8.097145375,6.22340990625,8.142642375,6.20456390625Q8.188139375,6.18571890625,8.236439275,6.17611090625Q8.284738675,6.16650390625,8.333984375,6.16650390625Q8.433440575,6.16650390625,8.525326375,6.20456390625Q8.617211375,6.24262390625,8.687537375,6.31295090625L8.687597375,6.3130099062500005Z" fill-rule="evenodd" fill="" fill-opacity="1" style="mix-blend-mode:passthrough"/></g><g><path d="M13.687597375,11.73000209375L15.000654375,13.04305609375L16.313764374999998,11.72994309375Q16.384094375,11.65961609375,16.475974375,11.62155609375Q16.567864375,11.58349609375,16.667314375,11.58349609375Q16.716564375,11.58349609375,16.764864375000002,11.59310309375Q16.813164375,11.602711093749999,16.858654375,11.62155609375Q16.904154375,11.64040209375,16.945104375,11.66776109375Q16.986044375,11.69512109375,17.020874375,11.72994309375Q17.055694375,11.76476509375,17.083054375,11.80571109375Q17.110414375,11.84665709375,17.129254375,11.89215409375Q17.148104375,11.93765109375,17.157714375,11.98595099375Q17.167314375,12.03425039375,17.167314375,12.08349609375Q17.167314375,12.18295219375,17.129254375,12.27483809375Q17.091194375,12.36672309375,17.020874375,12.43704909375L15.354204375,14.10371609375Q15.283874375,14.17404609375,15.191994375,14.21210609375Q15.100104375,14.25016609375,15.000654375,14.25016609375Q14.901194375,14.25016609375,14.809314375,14.21210609375Q14.717424375,14.17404609375,14.647094375,14.10371609375L12.980490375,12.43710909375L12.980431375,12.43704909375Q12.910104375,12.36672309375,12.872044375,12.27483809375Q12.833984375,12.18295229375,12.833984375,12.08349609375Q12.833984375,12.03425039375,12.843591375,11.98595099375Q12.853199374999999,11.93765109375,12.872044375,11.89215409375Q12.890890375,11.84665709375,12.918249375,11.80571109375Q12.945609375,11.76476509375,12.980431375,11.72994309375Q13.015253375,11.69512109375,13.056199375,11.66776109375Q13.097145375,11.64040209375,13.142642375,11.62155609375Q13.188139375,11.602711093749999,13.236439275,11.59310309375Q13.284738675,11.58349609375,13.333984375,11.58349609375Q13.433440575,11.58349609375,13.525326375,11.62155609375Q13.617211375,11.65961609375,13.687537375,11.72994309375L13.687597375,11.73000209375Z" fill-rule="evenodd" fill="" fill-opacity="1" style="mix-blend-mode:passthrough"/></g><g><path d="M3.687597375,11.73000209375L5.000654375,13.04305609375L6.313764375,11.72994309375Q6.384094375,11.65961609375,6.475974375,11.62155609375Q6.567864375,11.58349609375,6.667314375,11.58349609375Q6.716564375,11.58349609375,6.764864375,11.59310309375Q6.8131643749999995,11.602711093749999,6.858654375,11.62155609375Q6.904154375,11.64040209375,6.945104375,11.66776109375Q6.9860443750000005,11.69512109375,7.020874375,11.72994309375Q7.055694375,11.76476509375,7.083054375,11.80571109375Q7.1104143749999995,11.84665709375,7.129254375,11.89215409375Q7.148104375,11.93765109375,7.157714374999999,11.98595099375Q7.167314375,12.03425039375,7.167314375,12.08349609375Q7.167314375,12.18295219375,7.129254375,12.27483809375Q7.091194375000001,12.36672309375,7.020874375,12.43704909375L5.354204375,14.10371609375Q5.283874375,14.17404609375,5.191994375,14.21210609375Q5.100104375,14.25016609375,5.000654375,14.25016609375Q4.901194375,14.25016609375,4.809314375,14.21210609375Q4.717424375,14.17404609375,4.647094375,14.10371609375L2.980490375,12.43710909375L2.980431375,12.43704909375Q2.910104375,12.36672309375,2.8720443749999998,12.27483809375Q2.833984375,12.18295229375,2.833984375,12.08349609375Q2.833984375,12.03425039375,2.843591375,11.98595099375Q2.853199375,11.93765109375,2.8720443749999998,11.89215409375Q2.890890375,11.84665709375,2.918249375,11.80571109375Q2.945609375,11.76476509375,2.980431375,11.72994309375Q3.015253375,11.69512109375,3.056199375,11.66776109375Q3.097145375,11.64040209375,3.142642375,11.62155609375Q3.188139375,11.602711093749999,3.236439275,11.59310309375Q3.284738675,11.58349609375,3.333984375,11.58349609375Q3.433440575,11.58349609375,3.525326375,11.62155609375Q3.617211375,11.65961609375,3.687537375,11.72994309375L3.687597375,11.73000209375Z" fill-rule="evenodd" fill="" fill-opacity="1" style="mix-blend-mode:passthrough"/></g><g><path d="M9.5,1.66650390625Q9.5,1.61725820625,9.509607,1.56895880625Q9.519214999999999,1.52065890625,9.53806,1.4751619062499999Q9.556906,1.42966490625,9.584265,1.38871890625Q9.611625,1.34777290625,9.646447,1.31295090625Q9.681269,1.27812890625,9.722215,1.25076890625Q9.763161,1.2234099062500001,9.808658,1.20456390625Q9.854155,1.18571890625,9.9024549,1.17611090625Q9.9507543,1.16650390625,10,1.16650390625Q10.0492457,1.16650390625,10.0975451,1.17611090625Q10.145845,1.18571890625,10.191342,1.20456390625Q10.236839,1.2234099062500001,10.277785,1.25076890625Q10.318731,1.27812890625,10.353553,1.31295090625Q10.388375,1.34777290625,10.415735,1.38871890625Q10.443094,1.42966490625,10.46194,1.4751619062499999Q10.480785000000001,1.52065890625,10.490393,1.56895880625Q10.5,1.61725820625,10.5,1.66650390625L10.5,8.33317390625Q10.5,8.382413906250001,10.490393,8.43071390625Q10.480785000000001,8.47901390625,10.46194,8.52451390625Q10.443094,8.570003906250001,10.415735,8.61095390625Q10.388375,8.65190390625,10.353553,8.68672390625Q10.318731,8.72154390625,10.277785,8.74890390625Q10.236839,8.77626390625,10.191342,8.795103906249999Q10.145845,8.81395390625,10.0975451,8.823563906250001Q10.0492457,8.83317390625,10,8.83317390625Q9.9507543,8.83317390625,9.9024549,8.823563906250001Q9.854155,8.81395390625,9.808658,8.795103906249999Q9.763161,8.77626390625,9.722215,8.74890390625Q9.681269,8.72154390625,9.646447,8.68672390625Q9.611625,8.65190390625,9.584265,8.61095390625Q9.556906,8.570003906250001,9.53806,8.52451390625Q9.519214999999999,8.47901390625,9.509607,8.43071390625Q9.5,8.382413906250001,9.5,8.33317390625L9.5,1.66650390625Z" fill-rule="evenodd" fill="" fill-opacity="1" style="mix-blend-mode:passthrough"/></g><g><path d="M16.66667,7.015625L18.33333,7.015625Q18.38258,7.015625,18.430880000000002,7.006018Q18.47918,6.99641,18.52467,6.977565Q18.57017,6.958719,18.61112,6.93136Q18.65206,6.904,18.68689,6.869178Q18.72171,6.834356,18.74907,6.79341Q18.77643,6.752464,18.79527,6.706967Q18.81412,6.66147,18.82373,6.6131701Q18.83333,6.5648707,18.83333,6.515625Q18.83333,6.4663793,18.82373,6.4180799Q18.81412,6.36978,18.79527,6.324283Q18.77643,6.278786,18.74907,6.23784Q18.72171,6.196894,18.68689,6.162072Q18.65206,6.12725,18.61112,6.09989Q18.57017,6.072531,18.52468,6.053685Q18.47918,6.03484,18.430880000000002,6.025232Q18.38258,6.015625,18.33333,6.015625L16.66667,6.015625Q15.769211,6.015625,15.134611,6.650214Q14.5,7.284815,14.5,8.182295L14.5,13.694745000000001Q14.5,13.743995,14.509607,13.792295Q14.519214999999999,13.840595,14.53806,13.886095000000001Q14.556906,13.931585,14.584265,13.972535Q14.611625,14.013485,14.646447,14.048305Q14.681269,14.083124999999999,14.722215,14.110485Q14.763161,14.137845,14.808658,14.156685Q14.854155,14.175535,14.9024549,14.185145Q14.9507543,14.194745000000001,15,14.194745000000001Q15.0492457,14.194745000000001,15.0975451,14.185145Q15.145845,14.175535,15.191342,14.156685Q15.236839,14.137845,15.277785,14.110485Q15.318731,14.083124999999999,15.353553,14.048305Q15.388375,14.013485,15.415735,13.972535Q15.443094,13.931585,15.46194,13.886095000000001Q15.480785000000001,13.840595,15.490393,13.792295Q15.5,13.743995,15.5,13.694745000000001L15.5,8.182295Q15.5,7.699035,15.841712,7.357327Q16.183419999999998,7.015625,16.66667,7.015625Z" fill-rule="evenodd" fill="" fill-opacity="1" style="mix-blend-mode:passthrough"/></g><g><path d="M1.666015625,6.015625L3.332685625,6.015625Q4.230135625,6.015625,4.864735625,6.650214Q5.499345625,7.284814,5.499345625,8.182295L5.499345625,13.694745000000001Q5.499345625,13.743995,5.489735625,13.792295Q5.480135625,13.840595,5.461285625,13.886095000000001Q5.4424456249999995,13.931585,5.415085625,13.972535Q5.387725625,14.013485,5.352905625,14.048305Q5.3180756250000005,14.083124999999999,5.277135625,14.110485Q5.236185625,14.137845,5.190685625,14.156685Q5.1451956249999995,14.175535,5.096895625,14.185145Q5.048595625,14.194745000000001,4.999345625,14.194745000000001Q4.950105625,14.194745000000001,4.901805625,14.185145Q4.853505625,14.175535,4.808005625,14.156685Q4.762505625,14.137845,4.721565625,14.110485Q4.680615625,14.083124999999999,4.645795625,14.048305Q4.610975625,14.013485,4.583615625,13.972535Q4.556255625,13.931585,4.537405625,13.886095000000001Q4.518565625,13.840595,4.5089556250000005,13.792295Q4.499345625,13.743995,4.499345625,13.694745000000001L4.499345625,8.182295Q4.499345625,7.699035,4.157635625,7.357327Q3.815925625,7.015625,3.332685625,7.015625L1.666015625,7.015625Q1.616769925,7.015625,1.568470525,7.006018Q1.520170625,6.99641,1.4746736249999999,6.977565Q1.429176625,6.958719,1.388230625,6.93136Q1.347284625,6.904,1.312462625,6.869178Q1.277640625,6.834356,1.250280625,6.79341Q1.2229216250000001,6.752464,1.204075625,6.706967Q1.185230625,6.66147,1.175622625,6.6131701Q1.166015625,6.5648707,1.166015625,6.515625Q1.166015625,6.4663793,1.175622625,6.4180799Q1.185230625,6.36978,1.204075625,6.324283Q1.2229216250000001,6.278786,1.250280625,6.23784Q1.277640625,6.196894,1.312462625,6.162072Q1.347284625,6.12725,1.388230625,6.09989Q1.429176625,6.072531,1.4746736249999999,6.053685Q1.520170625,6.03484,1.568470525,6.025232Q1.616769925,6.015625,1.666015625,6.015625Z" fill-rule="evenodd" fill="" fill-opacity="1" style="mix-blend-mode:passthrough"/></g><g><path d="M1.166015625,15Q1.166015625,14.9507543,1.175622625,14.9024549Q1.185230625,14.854155,1.204075625,14.808658Q1.2229216250000001,14.763161,1.250280625,14.722215Q1.277640625,14.681269,1.312462625,14.646447Q1.347284625,14.611625,1.388230625,14.584265Q1.429176625,14.556906,1.4746736249999999,14.53806Q1.520170625,14.519214999999999,1.568470525,14.509607Q1.616769925,14.5,1.666015625,14.5Q1.715261325,14.5,1.763560725,14.509607Q1.811860625,14.519214999999999,1.8573576250000001,14.53806Q1.902854625,14.556906,1.943800625,14.584265Q1.984746625,14.611625,2.019568625,14.646447Q2.054390625,14.681269,2.081750625,14.722215Q2.109109625,14.763161,2.1279556250000002,14.808658Q2.146800625,14.854155,2.156408625,14.9024549Q2.166015625,14.9507543,2.166015625,15L2.166015625,16.66667Q2.166015625,17.14991,2.507725625,17.49162Q2.849435625,17.83333,3.332685625,17.83333L16.666015625,17.83333Q17.149215625,17.83333,17.491015625,17.49162Q17.832715625,17.14991,17.832715625,16.66667L17.832715625,15Q17.832715625,14.9507543,17.842315625,14.9024549Q17.851915625,14.854155,17.870715625,14.808658Q17.889615625,14.763161,17.916915625,14.722215Q17.944315625,14.681269,17.979115625,14.646447Q18.013915625,14.611625,18.054915625,14.584265Q18.095815625,14.556906,18.141315625,14.53806Q18.186815625,14.519214999999999,18.235115625,14.509607Q18.283415625,14.5,18.332715625,14.5Q18.381915625,14.5,18.430215625,14.509607Q18.478515625,14.519214999999999,18.524015625,14.53806Q18.569515625,14.556906,18.610415625,14.584265Q18.651415625,14.611625,18.686215625,14.646447Q18.721015625,14.681269,18.748415625,14.722215Q18.775815625,14.763161,18.794615625,14.808658Q18.813515625,14.854155,18.823115625,14.9024549Q18.832715625,14.9507543,18.832715625,15L18.832715625,16.66667Q18.832715625,17.56412,18.198115625,18.19873Q17.563515625,18.83333,16.666015625,18.83333L3.332685625,18.83333Q2.435220625,18.83333,1.800616625,18.19872Q1.166015625,17.56412,1.166015625,16.66667L1.166015625,15Z" fill-rule="evenodd" fill="" fill-opacity="1" style="mix-blend-mode:passthrough"/></g></g></svg>
