<svg xmlns="http://www.w3.org/2000/svg" xmlns:xlink="http://www.w3.org/1999/xlink" fill="none" version="1.1" width="16" height="16" viewBox="0 0 16 16"><defs><clipPath id="master_svg0_69_06903"><rect x="0" y="0" width="16" height="16" rx="0"/></clipPath></defs><g clip-path="url(#master_svg0_69_06903)"><g><path d="M2.1666667461395264,12.666633373069763L2.1666667461395264,3.333333373069763Q2.1666667461395264,2.297799373069763,2.8988997461395263,1.565566373069763Q3.631132746139526,0.8333333730697632,4.666666746139526,0.8333333730697632L11.333336746139526,0.8333333730697632Q12.368866746139526,0.8333333730697632,13.101066746139526,1.565566373069763Q13.833366746139527,2.297800373069763,13.833366746139527,3.333333373069763L13.833366746139527,12.666633373069763Q13.833366746139527,13.702233373069763,13.101066746139526,14.434433373069764Q12.368866746139526,15.166633373069763,11.333336746139526,15.166633373069763L4.666666746139526,15.166633373069763Q3.6311317461395265,15.166633373069763,2.8988997461395263,14.434433373069764Q2.1666667461395264,13.702233373069763,2.1666667461395264,12.666633373069763ZM3.1666667461395264,12.666633373069763Q3.1666667461395264,13.288033373069764,3.6060067461395264,13.727333373069763Q4.0453467461395265,14.166633373069763,4.666666746139526,14.166633373069763L11.333336746139526,14.166633373069763Q11.954656746139527,14.166633373069763,12.393996746139527,13.727333373069763Q12.833366746139527,13.288033373069764,12.833366746139527,12.666633373069763L12.833366746139527,3.333333373069763Q12.833366746139527,2.7120133730697633,12.393996746139527,2.2726733730697632Q11.954656746139527,1.8333333730697632,11.333336746139526,1.8333333730697632L4.666666746139526,1.8333333730697632Q4.0453467461395265,1.8333333730697632,3.6060067461395264,2.2726733730697632Q3.1666667461395264,2.7120133730697633,3.1666667461395264,3.333333373069763L3.1666667461395264,12.666633373069763Z" fill="#5B9CF8" fill-opacity="1" style="mix-blend-mode:passthrough"/></g><g><path d="M7,4.166666507720947L11,4.166666507720947Q11.04925,4.166666507720947,11.09755,4.176273507720947Q11.14584,4.185881507720947,11.19134,4.204726507720947Q11.23684,4.223572507720947,11.27778,4.2509315077209475Q11.31873,4.278291507720947,11.35355,4.3131135077209475Q11.38837,4.347935507720948,11.41573,4.3888815077209475Q11.44309,4.4298275077209475,11.46194,4.475324507720948Q11.48078,4.520821507720948,11.49039,4.569121407720948Q11.5,4.617420807720947,11.5,4.666666507720947Q11.5,4.715912207720947,11.49039,4.764211607720947Q11.48078,4.812511507720947,11.46194,4.858008507720947Q11.44309,4.903505507720947,11.41573,4.944451507720947Q11.38837,4.985397507720947,11.35355,5.020219507720947Q11.31873,5.055041507720947,11.27778,5.082401507720947Q11.23684,5.109760507720948,11.19134,5.1286065077209475Q11.14584,5.147451507720947,11.09755,5.157059507720947Q11.04925,5.166666507720947,11,5.166666507720947L7,5.166666507720947Q6.9507543,5.166666507720947,6.9024549,5.157059507720947Q6.854155,5.147451507720947,6.808658,5.1286065077209475Q6.763161,5.109760507720948,6.722215,5.082401507720947Q6.681269,5.055041507720947,6.646447,5.020219507720947Q6.611625,4.985397507720947,6.584265,4.944451507720947Q6.556906,4.903505507720947,6.53806,4.858008507720947Q6.519215,4.812511507720947,6.509607,4.764211607720947Q6.5,4.715912207720947,6.5,4.666666507720947Q6.5,4.617420807720947,6.509607,4.569121407720948Q6.519215,4.520821507720948,6.53806,4.475324507720948Q6.556906,4.4298275077209475,6.584265,4.3888815077209475Q6.611625,4.347935507720948,6.646447,4.3131135077209475Q6.681269,4.278291507720947,6.722215,4.2509315077209475Q6.763161,4.223572507720947,6.808658,4.204726507720947Q6.854155,4.185881507720947,6.9024549,4.176273507720947Q6.9507543,4.166666507720947,7,4.166666507720947Z" fill-rule="evenodd" fill="#5B9CF8" fill-opacity="1" style="mix-blend-mode:passthrough"/></g><g><path d="M7,7.5L11,7.5Q11.04925,7.5,11.09755,7.509607Q11.14584,7.519215,11.19134,7.53806Q11.23684,7.556906,11.27778,7.584265Q11.31873,7.611625,11.35355,7.646447Q11.38837,7.681269,11.41573,7.722215Q11.44309,7.763161,11.46194,7.808658Q11.48078,7.854155,11.49039,7.9024549Q11.5,7.9507543,11.5,8Q11.5,8.0492457,11.49039,8.0975451Q11.48078,8.145845,11.46194,8.191342Q11.44309,8.236839,11.41573,8.277785Q11.38837,8.318731,11.35355,8.353553Q11.31873,8.388375,11.27778,8.415735Q11.23684,8.443094,11.19134,8.46194Q11.14584,8.480785000000001,11.09755,8.490393Q11.04925,8.5,11,8.5L7,8.5Q6.9507543,8.5,6.9024549,8.490393Q6.854155,8.480785000000001,6.808658,8.46194Q6.763161,8.443094,6.722215,8.415735Q6.681269,8.388375,6.646447,8.353553Q6.611625,8.318731,6.584265,8.277785Q6.556906,8.236839,6.53806,8.191342Q6.519215,8.145845,6.509607,8.0975451Q6.5,8.0492457,6.5,8Q6.5,7.9507543,6.509607,7.9024549Q6.519215,7.854155,6.53806,7.808658Q6.556906,7.763161,6.584265,7.722215Q6.611625,7.681269,6.646447,7.646447Q6.681269,7.611625,6.722215,7.584265Q6.763161,7.556906,6.808658,7.53806Q6.854155,7.519215,6.9024549,7.509607Q6.9507543,7.5,7,7.5Z" fill-rule="evenodd" fill="#5B9CF8" fill-opacity="1" style="mix-blend-mode:passthrough"/></g><g><path d="M7,10.833333015441895L11,10.833333015441895Q11.04925,10.833333015441895,11.09755,10.842940015441895Q11.14584,10.852548015441894,11.19134,10.871393015441894Q11.23684,10.890239015441894,11.27778,10.917598015441895Q11.31873,10.944958015441895,11.35355,10.979780015441895Q11.38837,11.014602015441895,11.41573,11.055548015441895Q11.44309,11.096494015441895,11.46194,11.141991015441894Q11.48078,11.187488015441895,11.49039,11.235787915441895Q11.5,11.284087315441894,11.5,11.333333015441895Q11.5,11.382578715441895,11.49039,11.430878115441894Q11.48078,11.479178015441894,11.46194,11.524675015441895Q11.44309,11.570172015441894,11.41573,11.611118015441894Q11.38837,11.652064015441894,11.35355,11.686886015441894Q11.31873,11.721708015441894,11.27778,11.749068015441894Q11.23684,11.776427015441895,11.19134,11.795273015441895Q11.14584,11.814118015441895,11.09755,11.823726015441894Q11.04925,11.833333015441895,11,11.833333015441895L7,11.833333015441895Q6.9507543,11.833333015441895,6.9024549,11.823726015441894Q6.854155,11.814118015441895,6.808658,11.795273015441895Q6.763161,11.776427015441895,6.722215,11.749068015441894Q6.681269,11.721708015441894,6.646447,11.686886015441894Q6.611625,11.652064015441894,6.584265,11.611118015441894Q6.556906,11.570172015441894,6.53806,11.524675015441895Q6.519215,11.479178015441894,6.509607,11.430878115441894Q6.5,11.382578715441895,6.5,11.333333015441895Q6.5,11.284087315441894,6.509607,11.235787915441895Q6.519215,11.187488015441895,6.53806,11.141991015441894Q6.556906,11.096494015441895,6.584265,11.055548015441895Q6.611625,11.014602015441895,6.646447,10.979780015441895Q6.681269,10.944958015441895,6.722215,10.917598015441895Q6.763161,10.890239015441894,6.808658,10.871393015441894Q6.854155,10.852548015441894,6.9024549,10.842940015441895Q6.9507543,10.833333015441895,7,10.833333015441895Z" fill-rule="evenodd" fill="#5B9CF8" fill-opacity="1" style="mix-blend-mode:passthrough"/></g><g><path d="M5.666663492279053,4.666667Q5.666663492279053,4.732328,5.653853492279053,4.796727Q5.641043492279053,4.861126,5.615923492279053,4.921789Q5.590793492279053,4.982452,5.554313492279053,5.03705Q5.517833492279053,5.09164,5.471403492279053,5.13807Q5.424973492279053,5.1845,5.3703834922790525,5.22098Q5.315785492279053,5.25746,5.255122492279053,5.28259Q5.194459492279052,5.30771,5.1300604922790525,5.32052Q5.065661492279053,5.33333,5.000000492279053,5.33333Q4.934339492279053,5.33333,4.869939492279053,5.32052Q4.805540492279053,5.30771,4.744877492279053,5.28259Q4.684214492279053,5.25746,4.629619492279053,5.22098Q4.575024492279053,5.1845,4.528595492279052,5.13807Q4.4821664922790525,5.09164,4.445687492279053,5.03705Q4.4092077922790525,4.982452,4.384080492279053,4.921789Q4.3589530922790525,4.861126,4.346143292279053,4.796727Q4.333333492279053,4.732328,4.333333492279053,4.666667Q4.333333492279053,4.601006,4.346143292279053,4.536606Q4.3589530922790525,4.472207,4.384080492279053,4.411544Q4.4092077922790525,4.350881,4.445687492279053,4.296286Q4.4821664922790525,4.241691,4.528595492279052,4.195262Q4.575024492279053,4.148833,4.629619492279053,4.112354Q4.684215492279053,4.0758743,4.744877492279053,4.050747Q4.805540492279053,4.0256196,4.869939492279053,4.0128098Q4.934339492279053,4,5.000000492279053,4Q5.065661492279053,4,5.1300604922790525,4.0128098Q5.194459492279052,4.0256196,5.255122492279053,4.050747Q5.315785492279053,4.0758743,5.3703834922790525,4.112354Q5.424973492279053,4.148833,5.471403492279053,4.195262Q5.517833492279053,4.241691,5.554313492279053,4.296286Q5.590793492279053,4.350882,5.615923492279053,4.411544Q5.641043492279053,4.472207,5.653853492279053,4.536606Q5.666663492279053,4.601006,5.666663492279053,4.666667Z" fill="#5B9CF8" fill-opacity="1" style="mix-blend-mode:passthrough"/></g><g><path d="M5.666663492279053,8.000000492279053Q5.666663492279053,8.065661492279053,5.653853492279053,8.130060492279053Q5.641043492279053,8.194459492279053,5.615923492279053,8.255122492279053Q5.590793492279053,8.315785492279053,5.554313492279053,8.370383492279053Q5.517833492279053,8.424973492279053,5.471403492279053,8.471403492279052Q5.424973492279053,8.517833492279053,5.3703834922790525,8.554313492279054Q5.315785492279053,8.590793492279053,5.255122492279053,8.615923492279052Q5.194459492279052,8.641043492279053,5.1300604922790525,8.653853492279053Q5.065661492279053,8.666663492279053,5.000000492279053,8.666663492279053Q4.934339492279053,8.666663492279053,4.869939492279053,8.653853492279053Q4.805540492279053,8.641043492279053,4.744877492279053,8.615923492279052Q4.684214492279053,8.590793492279053,4.629619492279053,8.554313492279054Q4.575024492279053,8.517833492279053,4.528595492279052,8.471403492279052Q4.4821664922790525,8.424973492279053,4.445687492279053,8.370383492279053Q4.4092077922790525,8.315785492279053,4.384080492279053,8.255122492279053Q4.3589530922790525,8.194459492279053,4.346143292279053,8.130060492279053Q4.333333492279053,8.065661492279053,4.333333492279053,8.000000492279053Q4.333333492279053,7.934339492279053,4.346143292279053,7.869939492279053Q4.3589530922790525,7.805540492279053,4.384080492279053,7.744877492279053Q4.4092077922790525,7.684214492279053,4.445687492279053,7.629619492279053Q4.4821664922790525,7.575024492279053,4.528595492279052,7.528595492279052Q4.575024492279053,7.4821664922790525,4.629619492279053,7.445687492279053Q4.684215492279053,7.4092077922790525,4.744877492279053,7.384080492279053Q4.805540492279053,7.3589530922790525,4.869939492279053,7.346143292279053Q4.934339492279053,7.333333492279053,5.000000492279053,7.333333492279053Q5.065661492279053,7.333333492279053,5.1300604922790525,7.346143292279053Q5.194459492279052,7.3589530922790525,5.255122492279053,7.384080492279053Q5.315785492279053,7.4092077922790525,5.3703834922790525,7.445687492279053Q5.424973492279053,7.4821664922790525,5.471403492279053,7.528595492279052Q5.517833492279053,7.575024492279053,5.554313492279053,7.629619492279053Q5.590793492279053,7.684215492279053,5.615923492279053,7.744877492279053Q5.641043492279053,7.805540492279053,5.653853492279053,7.869939492279053Q5.666663492279053,7.934339492279053,5.666663492279053,8.000000492279053Z" fill="#5B9CF8" fill-opacity="1" style="mix-blend-mode:passthrough"/></g><g><path d="M5.666663492279053,11.333333984558106Q5.666663492279053,11.398994984558106,5.653853492279053,11.463393984558106Q5.641043492279053,11.527792984558106,5.615923492279053,11.588455984558106Q5.590793492279053,11.649118984558106,5.554313492279053,11.703716984558106Q5.517833492279053,11.758306984558105,5.471403492279053,11.804736984558104Q5.424973492279053,11.851166984558105,5.3703834922790525,11.887646984558106Q5.315785492279053,11.924126984558105,5.255122492279053,11.949256984558104Q5.194459492279052,11.974376984558106,5.1300604922790525,11.987186984558106Q5.065661492279053,11.999996984558106,5.000000492279053,11.999996984558106Q4.934339492279053,11.999996984558106,4.869939492279053,11.987186984558106Q4.805540492279053,11.974376984558106,4.744877492279053,11.949256984558104Q4.684214492279053,11.924126984558105,4.629619492279053,11.887646984558106Q4.575024492279053,11.851166984558105,4.528595492279052,11.804736984558104Q4.4821664922790525,11.758306984558105,4.445687492279053,11.703716984558106Q4.4092077922790525,11.649118984558106,4.384080492279053,11.588455984558106Q4.3589530922790525,11.527792984558106,4.346143292279053,11.463393984558106Q4.333333492279053,11.398994984558106,4.333333492279053,11.333333984558106Q4.333333492279053,11.267672984558105,4.346143292279053,11.203272984558106Q4.3589530922790525,11.138873984558105,4.384080492279053,11.078210984558105Q4.4092077922790525,11.017547984558105,4.445687492279053,10.962952984558106Q4.4821664922790525,10.908357984558105,4.528595492279052,10.861928984558105Q4.575024492279053,10.815499984558105,4.629619492279053,10.779020984558105Q4.684215492279053,10.742541284558106,4.744877492279053,10.717413984558105Q4.805540492279053,10.692286584558106,4.869939492279053,10.679476784558105Q4.934339492279053,10.666666984558105,5.000000492279053,10.666666984558105Q5.065661492279053,10.666666984558105,5.1300604922790525,10.679476784558105Q5.194459492279052,10.692286584558106,5.255122492279053,10.717413984558105Q5.315785492279053,10.742541284558106,5.3703834922790525,10.779020984558105Q5.424973492279053,10.815499984558105,5.471403492279053,10.861928984558105Q5.517833492279053,10.908357984558105,5.554313492279053,10.962952984558106Q5.590793492279053,11.017548984558106,5.615923492279053,11.078210984558105Q5.641043492279053,11.138873984558105,5.653853492279053,11.203272984558106Q5.666663492279053,11.267672984558105,5.666663492279053,11.333333984558106Z" fill="#5B9CF8" fill-opacity="1" style="mix-blend-mode:passthrough"/></g></g></svg>