<svg xmlns="http://www.w3.org/2000/svg" xmlns:xlink="http://www.w3.org/1999/xlink" fill="none" version="1.1" width="16" height="16" viewBox="0 0 16 16"><defs><clipPath id="master_svg0_69_07252"><rect x="0" y="0" width="16" height="16" rx="0"/></clipPath></defs><g clip-path="url(#master_svg0_69_07252)"><g><path d="M9.523345625000001,15.6951875C9.370965625,15.6951875,9.294775625,15.6189875,9.142395624999999,15.6189875C8.990015625,15.5427875,8.913825625000001,15.3903875,8.913825625000001,15.3141875C8.837635625,15.1617875,8.837635625,15.0094875,8.913825625000001,14.8570875L9.447155625,12.5713875L8.837635625,12.5713875C8.609065625,12.5713875,8.456675624999999,12.4951875,8.304295625,12.2665875C8.151915625,12.1141875,8.151915625,11.8856875,8.228105625000001,11.7332875L8.456685625,10.7427875C8.304295625,10.7427875,8.228105625000001,10.8189875,8.075725625,10.8189875C7.999535625,10.8189875,7.770965625,10.8951875,7.542395625,10.8951875C6.856685625,10.9713875,6.094775625,10.5903875,5.332875625,9.9046875C5.104295625,9.6761175,4.418585625,9.0665875,4.5709656249999995,8.4570675L4.5709656249999995,8.2284975C3.6566856249999997,7.8475475,2.818585625,6.5523075,2.6662046249999998,5.4856375C2.5900146250000002,5.4094475,2.513823625,5.1046875,2.6662046249999998,4.7237375C2.742395625,4.7237375,2.818585625,4.6475475,2.8947756250000003,4.5713575C2.437633625,4.0380175000000005,1.751919125,2.2094475,1.828109625,1.0665925C1.904300125,0.6094495,2.209061625,0.3046875,2.6662046249999998,0.3046875L2.8947756250000003,0.3046875L3.0471556250000003,0.380878C3.123345625,0.380878,3.199535625,0.4570685,3.4281056249999997,0.5332585C4.5709656249999995,1.0665925,7.313825625,2.2856375,9.294775625,2.9713575C9.599535625,3.0475475,9.904305625,3.1999275,10.132875625,3.2761175L10.590015625,3.4284975C12.723365625,4.1142075,14.551965625,4.7237375,14.170965625,6.3237375C14.170965625,6.4761175,14.094765625,6.6284975,14.018565625,6.8570675L13.942365625,7.0094475C13.637665625,7.7713575,12.723365625,9.2189775,12.342365625,9.8284975L12.951965625,9.8284975C13.180465625,9.8284975,13.409065625,9.9808775,13.485265625,10.2094475C13.561465625,10.4379875,13.561465625,10.6665875,13.409065625,10.8189875L9.980485625,15.4665875C9.980485625,15.6189875,9.751915624999999,15.6951875,9.523345625000001,15.6951875ZM10.285255625,11.3522875C10.513825625,11.3522875,10.666205625,11.4284875,10.818585625,11.6570875C10.970965625,11.8094875,10.970965625,12.0379875,10.894775625,12.1903875L10.894775625,12.2665875L11.732875625,11.1236875L11.199535625,11.1236875C10.970965625,11.1236875,10.818585625,11.0475875,10.666205625,10.8189875C10.513825625,10.5903875,10.513825625,10.3617875,10.666205625,10.1332575L11.047155625,9.5237375Q11.123345625,9.4475475,11.123345625,9.3713575L11.123345625,9.2951575C11.504305625,8.6856375,12.342365625,7.2380175,12.723365625,6.3999275C12.799565625,6.2475475,12.799565625,6.1713575,12.799565625,6.0951675C12.951965625,5.6380175,11.275735625,5.0284975,10.056685625,4.6475475L9.675735625,4.5713575C9.370965625,4.4951675,9.066205625,4.3427775,8.761445625,4.2665875C7.466205625,3.7332575,5.561445625,2.9713575,3.123345625,1.8284975C3.2757356250000003,2.6665875,3.6566856249999997,3.6570675,3.885255625,3.8856375C4.037635625,3.9618275,6.094775625,4.7237375,8.990015625,5.6380175C9.294775625,5.7903975,9.523345625000001,6.0951675,9.447155625,6.3999275C9.294775625,6.6284975,9.066205625,6.8570675,8.761445625,6.8570675L8.685255625,6.8570675C8.456685625,6.8570675,5.332875625,6.1713575,4.1138256250000005,5.8665875C4.418585625,6.6284975,5.028105625,7.1618275,5.256685624999999,7.1618275C5.561445625,7.2380175,6.323345625,7.2380175,7.542395625,7.2380175L8.837635625,7.2380175C9.218585625,7.2380175,9.447155625,7.5427775,9.447155625,7.8475475C9.447155625,8.1523075,9.218585625,8.4570675,8.913825625000001,8.5332575Q7.999535625,8.6094475,7.313825625,8.7618275L7.009065625,8.7618275C6.704305625,8.7618275,6.399535625,8.8380175,6.094775625,8.9142075L6.170965625,8.9903975C7.009065625,9.7523075,7.466205625,9.7523075,7.542395625,9.7523075L7.618585625,9.7523075L7.770965625,9.6761175C8.151925625,9.5237375,8.685255625,9.3713475,9.218585625,9.2951575L9.370965625,9.2951575C9.599535625,9.2951575,9.751925625,9.3713475,9.828115625,9.5237375C9.904305625,9.6761175,9.980495625,9.8284975,9.980495625,9.9808775L9.675725625,11.4284875L10.285255625,11.4284875L10.285255625,11.3522875Z" fill="#5B9CF8" fill-opacity="1" style="mix-blend-mode:passthrough"/></g></g></svg>