<svg xmlns="http://www.w3.org/2000/svg" xmlns:xlink="http://www.w3.org/1999/xlink" fill="none" version="1.1" width="16" height="16" viewBox="0 0 16 16"><defs><clipPath id="master_svg0_69_06924"><rect x="0" y="0" width="16" height="16" rx="0"/></clipPath></defs><g clip-path="url(#master_svg0_69_06924)"><g><path d="M13.5,8Q13.5,7.9507543,13.5096,7.9024549Q13.5192,7.854155,13.5381,7.808658Q13.5569,7.763161,13.5843,7.722215Q13.6116,7.681269,13.6464,7.646447Q13.6813,7.611625,13.7222,7.584265Q13.7632,7.556906,13.8087,7.53806Q13.8542,7.519215,13.9025,7.509607Q13.9508,7.5,14,7.5Q14.0492,7.5,14.0975,7.509607Q14.1458,7.519215,14.1913,7.53806Q14.2368,7.556906,14.2778,7.584265Q14.3187,7.611625,14.3536,7.646447Q14.3884,7.681269,14.4157,7.722215Q14.4431,7.763161,14.4619,7.808658Q14.4808,7.854155,14.4904,7.9024549Q14.5,7.9507543,14.5,8L14.5,14Q14.5,14.04925,14.4904,14.09755Q14.4808,14.14584,14.4619,14.19134Q14.4431,14.23684,14.4157,14.27778Q14.3884,14.31873,14.3536,14.35355Q14.3187,14.38837,14.2778,14.41573Q14.2368,14.44309,14.1913,14.46194Q14.1458,14.48078,14.0975,14.49039Q14.0492,14.5,14,14.5L2,14.5Q1.9507543,14.5,1.9024549,14.49039Q1.854155,14.48078,1.8086579999999999,14.46194Q1.763161,14.44309,1.722215,14.41573Q1.681269,14.38837,1.646447,14.35355Q1.611625,14.31873,1.584265,14.27778Q1.5569060000000001,14.23684,1.53806,14.19134Q1.519215,14.14584,1.509607,14.09755Q1.5,14.04925,1.5,14L1.5,8.00276661Q1.5,7.9535209,1.509607,7.9052215Q1.519215,7.856922,1.53806,7.811425Q1.5569060000000001,7.765928,1.584265,7.724982Q1.611625,7.684035,1.646447,7.649213Q1.681269,7.614391,1.722215,7.587032Q1.763161,7.559672,1.8086579999999999,7.540827Q1.854155,7.521981,1.9024549,7.512374Q1.9507543,7.502767,2,7.502767Q2.0492457,7.502767,2.0975451,7.512374Q2.145845,7.521981,2.191342,7.540827Q2.236839,7.559672,2.277785,7.587032Q2.318731,7.614391,2.353553,7.649213Q2.388375,7.684035,2.415735,7.724982Q2.443094,7.765928,2.4619400000000002,7.811425Q2.480785,7.856922,2.490393,7.9052215Q2.5,7.9535209,2.5,8.00276661L2.5,13.5L13.5,13.5L13.5,8Z" fill-rule="evenodd" fill="#5B9CF8" fill-opacity="1" style="mix-blend-mode:passthrough"/></g><g><path d="M5.353613,7.313172507720948L8,9.959556507720947L10.64623,7.313326507720947L10.64645,7.3131135077209475Q10.71677,7.242787507720947,10.80866,7.204726507720947Q10.90054,7.166666507720947,11,7.166666507720947Q11.04925,7.166666507720947,11.09755,7.176273507720947Q11.14584,7.185881507720947,11.19134,7.204726507720947Q11.23684,7.223572507720947,11.27778,7.2509315077209475Q11.31873,7.278291507720947,11.35355,7.3131135077209475Q11.38837,7.347935507720948,11.41573,7.3888815077209475Q11.44309,7.4298275077209475,11.46194,7.475324507720948Q11.48078,7.520821507720948,11.49039,7.569121407720948Q11.5,7.617420807720947,11.5,7.666666507720947Q11.5,7.766122707720947,11.46194,7.858008507720947Q11.42388,7.949893507720947,11.35355,8.020219507720947L11.35334,8.020433507720947L8.35355,11.020216507720948Q8.31873,11.055046507720947,8.27779,11.082406507720947Q8.23684,11.109756507720947,8.19134,11.128606507720948Q8.14584,11.147456507720946,8.09754,11.157056507720947Q8.04925,11.166666507720947,8,11.166666507720947Q7.95075,11.166666507720947,7.90245,11.157056507720947Q7.854150000000001,11.147456507720946,7.80866,11.128606507720948Q7.76316,11.109756507720947,7.7222100000000005,11.082406507720947Q7.68127,11.055046507720947,7.64645,11.020216507720948L4.6465060000000005,8.020279507720947L4.646447,8.020219507720947Q4.57612,7.949893507720947,4.53806,7.858008507720947Q4.5,7.766122707720947,4.5,7.666666507720947Q4.5,7.617420807720947,4.509607,7.569121407720948Q4.519215,7.520821507720948,4.53806,7.475324507720948Q4.556906,7.4298275077209475,4.584265,7.3888815077209475Q4.611625,7.347935507720948,4.646447,7.3131135077209475Q4.681269,7.278291507720947,4.722215,7.2509315077209475Q4.763161,7.223572507720947,4.808658,7.204726507720947Q4.854155,7.185881507720947,4.9024549,7.176273507720947Q4.9507543,7.166666507720947,5,7.166666507720947Q5.0994562,7.166666507720947,5.191342,7.204726507720947Q5.283227,7.242786507720948,5.353553,7.3131135077209475L5.353613,7.313172507720948Z" fill-rule="evenodd" fill="#5B9CF8" fill-opacity="1" style="mix-blend-mode:passthrough"/></g><g><path d="M7.4970703125,2Q7.4970703125,1.9507543,7.5066773125,1.9024549Q7.5162853125,1.854155,7.5351303125,1.8086579999999999Q7.5539763125,1.763161,7.5813353125,1.722215Q7.6086953125,1.681269,7.6435173125,1.646447Q7.6783393125,1.611625,7.7192853125,1.584265Q7.7602313125,1.5569060000000001,7.8057283125,1.53806Q7.8512253125,1.519215,7.8995252125,1.509607Q7.9478246125,1.5,7.9970703125,1.5Q8.0463160125,1.5,8.0946154125,1.509607Q8.1429153125,1.519215,8.1884123125,1.53806Q8.2339093125,1.5569060000000001,8.2748553125,1.584265Q8.3158013125,1.611625,8.3506233125,1.646447Q8.3854453125,1.681269,8.4128053125,1.722215Q8.4401643125,1.763161,8.4590103125,1.8086579999999999Q8.477855312500001,1.854155,8.4874633125,1.9024549Q8.4970703125,1.9507543,8.4970703125,2L8.4970703125,10.66667Q8.4970703125,10.71591,8.4874633125,10.76421Q8.477855312500001,10.81251,8.4590103125,10.85801Q8.4401643125,10.9035,8.4128053125,10.94445Q8.3854453125,10.9854,8.3506233125,11.02022Q8.3158013125,11.05504,8.2748553125,11.0824Q8.2339093125,11.10976,8.1884123125,11.1286Q8.1429153125,11.14745,8.0946154125,11.15706Q8.0463160125,11.16667,7.9970703125,11.16667Q7.9478246125,11.16667,7.8995252125,11.15706Q7.8512253125,11.14745,7.8057283125,11.12861Q7.7602313125,11.10976,7.7192853125,11.0824Q7.6783393125,11.05504,7.6435173125,11.02022Q7.6086953125,10.9854,7.5813353125,10.94445Q7.5539763125,10.90351,7.5351303125,10.85801Q7.5162853125,10.81251,7.5066773125,10.76421Q7.4970703125,10.71591,7.4970703125,10.66667L7.4970703125,2Z" fill-rule="evenodd" fill="#5B9CF8" fill-opacity="1" style="mix-blend-mode:passthrough"/></g></g></svg>