<svg xmlns="http://www.w3.org/2000/svg" xmlns:xlink="http://www.w3.org/1999/xlink" fill="none" version="1.1" width="16" height="16" viewBox="0 0 16 16"><defs><clipPath id="master_svg0_69_07244"><rect x="0" y="0" width="16" height="16" rx="0"/></clipPath></defs><g clip-path="url(#master_svg0_69_07244)"><g><path d="M8.000003373069763,9.73699L14.394133373069764,5.5807780000000005Q14.435433373069763,5.55394,14.481233373069763,5.535672Q14.526933373069763,5.517405,14.575333373069764,5.508411Q14.623733373069763,5.499416,14.673033373069764,5.50004Q14.722233373069763,5.500664,14.770433373069762,5.510883Q14.818633373069764,5.521102,14.863833373069763,5.540522Q14.909133373069762,5.559943,14.949733373069764,5.587819Q14.990333373069763,5.615695,15.024633373069763,5.650956Q15.059033373069763,5.686216,15.085933373069762,5.727506Q15.166633373069763,5.85178,15.166633373069763,6L15.166633373069763,13.27273Q15.166633373069763,13.76848,14.840033373069764,14.12486Q14.496133373069764,14.5,14.000033373069764,14.5L2.000000373069763,14.5Q1.5039073730697632,14.5,1.1600213730697633,14.12486Q0.8333333730697632,13.76848,0.8333333730697632,13.27273L0.8333333730697632,6Q0.8333333730697632,5.9507543,0.8429403730697631,5.9024549Q0.8525483730697632,5.854155,0.8713933730697632,5.808658Q0.8902393730697632,5.763161,0.9175983730697632,5.722215Q0.9449583730697632,5.681269,0.9797803730697632,5.646447Q1.014602373069763,5.611625,1.0555483730697632,5.584265Q1.0964943730697632,5.556906,1.141991373069763,5.53806Q1.1874883730697632,5.519215,1.2357882730697631,5.509607Q1.2840876730697632,5.5,1.3333333730697632,5.5Q1.4815533730697632,5.5,1.6058273730697632,5.5807780000000005L8.000003373069763,9.73699ZM1.8333333730697632,6.921343L7.727503373069763,10.75255Q7.788333373069763,10.79209,7.857893373069763,10.81271Q7.927453373069763,10.83333,8.000003373069763,10.83333Q8.072553373069763,10.83333,8.142103373069762,10.81271Q8.211663373069763,10.79209,8.272493373069764,10.75255L14.166633373069763,6.921343L14.166633373069763,13.27273Q14.166633373069763,13.5,14.000033373069764,13.5L2.000000373069763,13.5Q1.8333333730697632,13.5,1.8333333730697632,13.27273L1.8333333730697632,6.921343Z" fill-rule="evenodd" fill="#5B9CF8" fill-opacity="1" style="mix-blend-mode:passthrough"/></g><g><path d="M8.000003373069763,1.9405793730697631L14.382933373069763,6.339663373069763Q14.511033373069763,6.427963373069764,14.666633373069763,6.427963373069764Q14.715933373069763,6.427963373069764,14.764233373069763,6.418363373069763Q14.812533373069764,6.4087533730697634,14.858033373069762,6.389903373069763Q14.903533373069763,6.371063373069763,14.944433373069764,6.343703373069763Q14.985433373069764,6.316343373069763,15.020233373069763,6.2815233730697635Q15.055033373069763,6.246693373069763,15.082433373069764,6.205753373069763Q15.109733373069764,6.164803373069764,15.128633373069762,6.119303373069763Q15.147433373069763,6.073813373069763,15.157033373069764,6.025513373069763Q15.166633373069763,5.977213373069763,15.166633373069763,5.927963373069764Q15.166633373069763,5.8046333730697635,15.109333373069763,5.695443373069764Q15.051933373069764,5.586263373069763,14.950433373069764,5.5162733730697635L8.283733373069763,0.9216383730697633Q8.221153373069763,0.8785063730697632,8.148583373069762,0.8559193730697632Q8.076003373069764,0.8333333730697632,8.000003373069763,0.8333333730697632Q7.923993373069763,0.8333333730697632,7.851423373069763,0.8559193730697632Q7.778843373069763,0.8785063730697632,7.716263373069763,0.9216383730697633L1.0495953730697631,5.5162733730697635Q0.9480433730697632,5.586263373069763,0.8906883730697632,5.695443373069764Q0.8333333730697632,5.8046333730697635,0.8333333730697632,5.927963373069764Q0.8333333730697632,5.977213373069763,0.8429403730697631,6.025513373069763Q0.8525483730697632,6.073813373069763,0.8713933730697632,6.119303373069763Q0.8902393730697632,6.164803373069764,0.9175983730697632,6.205753373069763Q0.9449583730697632,6.246693373069763,0.9797803730697632,6.2815233730697635Q1.014602373069763,6.316343373069763,1.0555483730697632,6.343703373069763Q1.0964943730697632,6.371063373069763,1.141991373069763,6.389903373069763Q1.1874883730697632,6.4087533730697634,1.2357882730697631,6.418363373069763Q1.2840876730697632,6.427963373069764,1.3333333730697632,6.427963373069764Q1.4889433730697632,6.427963373069764,1.6170713730697632,6.339663373069763L8.000003373069763,1.9405793730697631Z" fill-rule="evenodd" fill="#5B9CF8" fill-opacity="1" style="mix-blend-mode:passthrough"/></g></g></svg>