<svg xmlns="http://www.w3.org/2000/svg" xmlns:xlink="http://www.w3.org/1999/xlink" fill="" version="1.1" width="20" height="20" viewBox="0 0 20 20"><defs><clipPath id="master_svg0_69_06193"><rect x="0" y="0" width="20" height="20" rx="0"/></clipPath></defs><g clip-path="url(#master_svg0_69_06193)"><g><path d="M18.832715625,17.0836921875L18.832715625,2.9169921875Q18.832715625,2.1921181875,18.320115625,1.6795579875Q17.807615625,1.1669921875,17.082715625,1.1669921875L2.916015625,1.1669921875Q2.191142625,1.1669921875,1.678579325,1.6795559875Q1.166015625,2.1921201875,1.166015625,2.9169921875L1.166015625,17.0836921875Q1.166015625,17.8085921875,1.678581425,18.3210921875Q2.191141625,18.8336921875,2.916015625,18.8336921875L17.082715625,18.8336921875Q17.807615625,18.8336921875,18.320115625,18.3210921875Q18.832715625,17.8085921875,18.832715625,17.0836921875ZM17.613015625,2.3866611875Q17.832715625,2.6063271875,17.832715625,2.9169921875L17.832715625,17.0836921875Q17.832715625,17.3942921875,17.613015625,17.6139921875Q17.393315625,17.8336921875,17.082715625,17.8336921875L2.916015625,17.8336921875Q2.605350625,17.8336921875,2.385684625,17.6139921875Q2.166015625,17.3942921875,2.166015625,17.0836921875L2.166015625,2.9169921875Q2.166015625,2.1669921875,2.916015625,2.1669921875L17.082715625,2.1669921875Q17.393315625,2.1669921875,17.613015625,2.3866611875Z" fill-rule="evenodd" fill="" fill-opacity="1" style="mix-blend-mode:passthrough"/></g><g><path d="M1.666015625,12.8330078125L18.332715625,12.8330078125Q18.381915625,12.8330078125,18.430215625,12.8426148125Q18.478515625,12.852222812499999,18.524015625,12.8710678125Q18.569515625,12.8899138125,18.610415625,12.9172728125Q18.651415625,12.9446328125,18.686215625,12.9794548125Q18.721015625,13.0142768125,18.748415625,13.0552228125Q18.775815625,13.0961688125,18.794615625,13.1416658125Q18.813515625,13.1871628125,18.823115625,13.2354627125Q18.832715625,13.2837621125,18.832715625,13.3330078125Q18.832715625,13.3822535125,18.823115625,13.4305529125Q18.813515625,13.4788528125,18.794615625,13.5243498125Q18.775815625,13.5698468125,18.748415625,13.6107928125Q18.721015625,13.6517388125,18.686215625,13.6865608125Q18.651415625,13.7213828125,18.610515625,13.7487428125Q18.569515625,13.7761018125,18.524015625,13.7949478125Q18.478515625,13.813792812500001,18.430215625,13.8234008125Q18.381915625,13.8330078125,18.332715625,13.8330078125L1.666015625,13.8330078125Q1.616769925,13.8330078125,1.568470525,13.8234008125Q1.520170625,13.813792812500001,1.4746736249999999,13.7949478125Q1.429176625,13.7761018125,1.388230625,13.7487428125Q1.347284625,13.7213828125,1.312462625,13.6865608125Q1.277640625,13.6517388125,1.250280625,13.6107928125Q1.2229216250000001,13.5698468125,1.204075625,13.5243498125Q1.185230625,13.4788528125,1.175622625,13.4305529125Q1.166015625,13.3822535125,1.166015625,13.3330078125Q1.166015625,13.2837621125,1.175622625,13.2354627125Q1.185230625,13.1871628125,1.204075625,13.1416658125Q1.2229216250000001,13.0961688125,1.250280625,13.0552228125Q1.277640625,13.0142768125,1.312462625,12.9794548125Q1.347284625,12.9446328125,1.388230625,12.9172728125Q1.429176625,12.8899138125,1.4746736249999999,12.8710678125Q1.520170625,12.852222812499999,1.568470525,12.8426148125Q1.616769925,12.8330078125,1.666015625,12.8330078125Z" fill-rule="evenodd" fill="" fill-opacity="1" style="mix-blend-mode:passthrough"/></g><g><path d="M4.166015625,15.3330078125Q4.116769925,15.3330078125,4.068470525,15.3426148125Q4.020170625,15.352222812499999,3.974673625,15.3710678125Q3.929176625,15.3899138125,3.888230625,15.4172728125Q3.847284625,15.4446328125,3.812462625,15.4794548125Q3.777640625,15.5142768125,3.750280625,15.5552228125Q3.722921625,15.5961688125,3.7040756249999998,15.6416658125Q3.685230625,15.6871628125,3.675622625,15.7354627125Q3.666015625,15.7837621125,3.666015625,15.8330078125Q3.666015625,15.8822535125,3.675622625,15.9305529125Q3.685230625,15.9788528125,3.7040756249999998,16.0243498125Q3.722921625,16.0698468125,3.750280625,16.1107928125Q3.777640625,16.1517388125,3.812462625,16.1865608125Q3.847284625,16.2213828125,3.888230625,16.2487428125Q3.929176625,16.2761018125,3.974673625,16.2949478125Q4.020170625,16.3137928125,4.068470525,16.3234008125Q4.116769925,16.3330078125,4.166015625,16.3330078125L4.582682625,16.3330078125Q4.6319286250000005,16.3330078125,4.680227625,16.3234008125Q4.728526625,16.3137928125,4.774024625,16.2949478125Q4.819521625,16.2761018125,4.860467625,16.2487428125Q4.901413625,16.2213828125,4.936235625,16.1865608125Q4.971057625,16.1517388125,4.998417625,16.1107928125Q5.025776625,16.0698468125,5.044622625,16.0243498125Q5.063467625,15.9788528125,5.073074625,15.9305529125Q5.082682625,15.8822535125,5.082682625,15.8330078125Q5.082682625,15.7837621125,5.073074625,15.7354627125Q5.063467625,15.6871628125,5.044622625,15.6416658125Q5.025776625,15.5961688125,4.998417625,15.5552228125Q4.971057625,15.5142768125,4.936235625,15.4794548125Q4.901413625,15.4446328125,4.860467625,15.4172728125Q4.819521625,15.3899138125,4.774024625,15.3710678125Q4.728526625,15.352222812499999,4.680227625,15.3426148125Q4.6319286250000005,15.3330078125,4.582682625,15.3330078125L4.166015625,15.3330078125Z" fill-rule="evenodd" fill="" fill-opacity="1" style="mix-blend-mode:passthrough"/></g><g><path d="M10.833984375,15.3330078125L15.833984375,15.3330078125Q15.883234375,15.3330078125,15.931534375,15.3426148125Q15.979824375,15.352222812499999,16.025324375,15.3710678125Q16.070824375,15.3899138125,16.111764375,15.4172728125Q16.152714375000002,15.4446328125,16.187534375,15.4794548125Q16.222354375000002,15.5142768125,16.249714375,15.5552228125Q16.277074374999998,15.5961688125,16.295924375,15.6416658125Q16.314764375,15.6871628125,16.324374374999998,15.7354627125Q16.333984375,15.7837621125,16.333984375,15.8330078125Q16.333984375,15.8822535125,16.324374374999998,15.9305529125Q16.314764375,15.9788528125,16.295924375,16.0243498125Q16.277074374999998,16.0698468125,16.249714375,16.1107928125Q16.222354375000002,16.1517388125,16.187534375,16.1865608125Q16.152714375000002,16.2213828125,16.111764375,16.2487428125Q16.070824375,16.2761018125,16.025324375,16.2949478125Q15.979824375,16.3137928125,15.931534375,16.3234008125Q15.883234375,16.3330078125,15.833984375,16.3330078125L10.833984375,16.3330078125Q10.784738675,16.3330078125,10.736439275,16.3234008125Q10.688139375,16.3137928125,10.642642375,16.2949478125Q10.597145375,16.2761018125,10.556199375,16.2487428125Q10.515253375,16.2213828125,10.480431375,16.1865608125Q10.445609375,16.1517388125,10.418249375,16.1107928125Q10.390890375,16.0698468125,10.372044375,16.0243498125Q10.353199374999999,15.9788528125,10.343591375,15.9305529125Q10.333984375,15.8822535125,10.333984375,15.8330078125Q10.333984375,15.7837621125,10.343591375,15.7354627125Q10.353199374999999,15.6871628125,10.372044375,15.6416658125Q10.390890375,15.5961688125,10.418249375,15.5552228125Q10.445609375,15.5142768125,10.480431375,15.4794548125Q10.515253375,15.4446328125,10.556199375,15.4172728125Q10.597145375,15.3899138125,10.642642375,15.3710678125Q10.688139375,15.352222812499999,10.736439275,15.3426148125Q10.784738675,15.3330078125,10.833984375,15.3330078125Z" fill-rule="evenodd" fill="" fill-opacity="1" style="mix-blend-mode:passthrough"/></g><g><path d="M17.833984375,11.25Q17.833984375,11.2007543,17.843591375,11.1524549Q17.853199375,11.104155,17.872044375,11.058658Q17.890890375,11.013161,17.918249375,10.972215Q17.945609375,10.931269,17.980431375,10.896447Q18.015253375,10.861625,18.056199375,10.834265Q18.097145375,10.806906,18.142642375,10.78806Q18.188139375,10.769214999999999,18.236439275,10.759607Q18.284738675,10.75,18.333984375,10.75Q18.383230075,10.75,18.431529475,10.759607Q18.479829375,10.769214999999999,18.525326375,10.78806Q18.570823375,10.806906,18.611769375,10.834265Q18.652715375,10.861625,18.687537375,10.896447Q18.722359375,10.931269,18.749719375,10.972215Q18.777078375,11.013161,18.795924375,11.058658Q18.814769375,11.104155,18.824377375,11.1524549Q18.833984375,11.2007543,18.833984375,11.25L18.833984375,15.41667Q18.833984375,15.465910000000001,18.824377375,15.51421Q18.814769375,15.56251,18.795924375,15.60801Q18.777078375,15.653500000000001,18.749719375,15.69445Q18.722359375,15.7354,18.687537375,15.77022Q18.652715375,15.80504,18.611769375,15.8324Q18.570823375,15.85976,18.525326375,15.87861Q18.479829375,15.89745,18.431529475,15.907060000000001Q18.383230075,15.91667,18.333984375,15.91667Q18.284738675,15.91667,18.236439275,15.907060000000001Q18.188139375,15.89745,18.142642375,15.87861Q18.097145375,15.85976,18.056199375,15.8324Q18.015253375,15.80504,17.980431375,15.77022Q17.945609375,15.7354,17.918249375,15.69445Q17.890890375,15.653500000000001,17.872044375,15.60801Q17.853199375,15.56251,17.843591375,15.51421Q17.833984375,15.465910000000001,17.833984375,15.41667L17.833984375,11.25Z" fill-rule="evenodd" fill="" fill-opacity="1" style="mix-blend-mode:passthrough"/></g><g><path d="M1.166015625,11.25Q1.166015625,11.2007543,1.175622625,11.1524549Q1.185230625,11.104155,1.204075625,11.058658Q1.2229216250000001,11.013161,1.250280625,10.972215Q1.277640625,10.931269,1.312462625,10.896447Q1.347284625,10.861625,1.388230625,10.834265Q1.429176625,10.806906,1.4746736249999999,10.78806Q1.520170625,10.769214999999999,1.568470525,10.759607Q1.616769925,10.75,1.666015625,10.75Q1.715261325,10.75,1.763560725,10.759607Q1.811860625,10.769214999999999,1.8573576250000001,10.78806Q1.902854625,10.806906,1.943800625,10.834265Q1.984746625,10.861625,2.019568625,10.896447Q2.054390625,10.931269,2.081750625,10.972215Q2.109109625,11.013161,2.1279556250000002,11.058658Q2.146800625,11.104155,2.156408625,11.1524549Q2.166015625,11.2007543,2.166015625,11.25L2.166015625,15.41667Q2.166015625,15.465910000000001,2.156408625,15.51421Q2.146800625,15.56251,2.1279556250000002,15.60801Q2.109109625,15.653500000000001,2.081750625,15.69445Q2.054390625,15.7354,2.019568625,15.77022Q1.984746625,15.80504,1.943800625,15.8324Q1.902854625,15.85976,1.8573576250000001,15.87861Q1.811860625,15.89745,1.763560725,15.907060000000001Q1.715261325,15.91667,1.666015625,15.91667Q1.616769925,15.91667,1.568470525,15.907060000000001Q1.520170625,15.89745,1.4746736249999999,15.87861Q1.429176625,15.85976,1.388230625,15.8324Q1.347284625,15.80504,1.312462625,15.77022Q1.277640625,15.7354,1.250280625,15.69445Q1.2229216250000001,15.653500000000001,1.204075625,15.60801Q1.185230625,15.56251,1.175622625,15.51421Q1.166015625,15.465910000000001,1.166015625,15.41667L1.166015625,11.25Z" fill-rule="evenodd" fill="" fill-opacity="1" style="mix-blend-mode:passthrough"/></g></g></svg>
