<svg xmlns="http://www.w3.org/2000/svg" xmlns:xlink="http://www.w3.org/1999/xlink" fill="none" version="1.1" width="20" height="20" viewBox="0 0 20 20"><defs><clipPath id="master_svg0_77_06883"><rect x="0" y="0" width="20" height="20" rx="0"/></clipPath></defs><g clip-path="url(#master_svg0_77_06883)"><g><path d="M4.916015625,18.33320390625L4.916015625,4.16650390625Q4.916015625,4.11725820625,4.925622625,4.06895880625Q4.935230625,4.02065890625,4.954075625,3.97516190625Q4.972921625,3.92966490625,5.000280625,3.88871890625Q5.027640625,3.84777290625,5.062462625,3.81295090625Q5.097284625,3.77812890625,5.138230625,3.75076890625Q5.179176625,3.72340990625,5.224673625,3.7045639062499998Q5.270170625,3.68571890625,5.318470525,3.67611090625Q5.366769925,3.66650390625,5.416015625,3.66650390625L17.082715625,3.66650390625Q17.131915624999998,3.66650390625,17.180215625000002,3.67611090625Q17.228515625,3.68571890625,17.274015625,3.7045639062499998Q17.319515625,3.72340990625,17.360515624999998,3.75076890625Q17.401415625,3.77812890625,17.436215625000003,3.81295090625Q17.471015625,3.84777290625,17.498415625,3.88871890625Q17.525815625,3.92966490625,17.544615625,3.97516190625Q17.563515625,4.02065890625,17.573115625,4.06895880625Q17.582715625,4.11725820625,17.582715625,4.16650390625L17.582715625,18.33320390625Q17.582715625,18.382403906249998,17.573115625,18.430703906250002Q17.563415624999998,18.47900390625,17.544615625,18.52450390625Q17.525815625,18.57000390625,17.498415625,18.61090390625Q17.471015625,18.65190390625,17.436215625000003,18.686703906250003Q17.401415625,18.72150390625,17.360515624999998,18.74890390625Q17.319515625,18.77630390625,17.274015625,18.79510390625Q17.228515625,18.813903906249998,17.180215625000002,18.82360390625Q17.131915624999998,18.83320390625,17.082715625,18.83320390625L5.416015625,18.83320390625Q5.366769925,18.83320390625,5.318470525,18.82360390625Q5.270170625,18.813903906249998,5.224673625,18.79510390625Q5.179176625,18.77630390625,5.138230625,18.74890390625Q5.097284625,18.72150390625,5.062462625,18.686703906250003Q5.027640625,18.65190390625,5.000280625,18.61090390625Q4.972921625,18.57000390625,4.954075625,18.52450390625Q4.935230625,18.47900390625,4.925622625,18.430703906250002Q4.916015625,18.382403906249998,4.916015625,18.33320390625ZM5.916015625,4.66650390625L5.916015625,17.83320390625L16.582715625,17.83320390625L16.582715625,4.66650390625L5.916015625,4.66650390625Z" fill="" fill-opacity="1" style="mix-blend-mode:passthrough"/></g><g><path d="M2.916015625,16.33320390625L5.416015625,16.33320390625Q5.465265625,16.33320390625,5.513565625,16.32360390625Q5.561855625,16.31400390625,5.607355625,16.29510390625Q5.652855625,16.27630390625,5.6938056249999995,16.24890390625Q5.734745625,16.22150390625,5.769565625,16.186703906250003Q5.804395625,16.15190390625,5.831745625,16.111003906249998Q5.859105625,16.07000390625,5.877955625,16.02450390625Q5.896805625,15.97900390625,5.906405625,15.93070390625Q5.916015625,15.88240390625,5.916015625,15.83320390625Q5.916015625,15.78390390625,5.906405625,15.73560390625Q5.896805625,15.68730390625,5.877955625,15.64180390625Q5.859105625,15.59630390625,5.8317556249999996,15.55540390625Q5.804395625,15.51440390625,5.769565625,15.47960390625Q5.734745625,15.44480390625,5.6938056249999995,15.41740390625Q5.652855625,15.39010390625,5.607355625,15.37120390625Q5.561855625,15.35240390625,5.513565625,15.34280390625Q5.465265625,15.33320390625,5.416015625,15.33320390625L3.416015625,15.33320390625L3.416015625,2.16650390625L14.082715625,2.16650390625L14.082715625,4.16650390625Q14.082715625,4.21575390625,14.092315625,4.26404390625Q14.101915625,4.31234390625,14.120715625,4.35784390625Q14.139615625,4.40334390625,14.166915625,4.44428390625Q14.194315625,4.48523390625,14.229115625,4.52005390625Q14.263915625,4.55487390625,14.304915625,4.58223390625Q14.345815625,4.60959390625,14.391315625,4.62844390625Q14.436815625,4.64728390625,14.485115625,4.65689390625Q14.533415625,4.66650390625,14.582715625,4.66650390625Q14.631915625,4.66650390625,14.680215625,4.65689390625Q14.728515625,4.64728390625,14.774015625,4.62844390625Q14.819515625,4.60959390625,14.860515625,4.58223390625Q14.901415625,4.55487390625,14.936215625,4.52005390625Q14.971015625,4.48523390625,14.998415625,4.44428390625Q15.025815625,4.40334390625,15.044615625,4.35784390625Q15.063515625,4.31234390625,15.073115625,4.26404390625Q15.082715625,4.21575390625,15.082715625,4.16650390625L15.082715625,4.16552390625L15.082715625,1.66650390625Q15.082715625,1.61725820625,15.073115625,1.56895880625Q15.063515625,1.52065890625,15.044615625,1.4751619062499999Q15.025815625,1.42966490625,14.998415625,1.38871890625Q14.971015625,1.34777290625,14.936215625,1.31295090625Q14.901415625,1.27812890625,14.860515625,1.25076890625Q14.819515625,1.2234099062500001,14.774015625,1.20456390625Q14.728515625,1.18571890625,14.680215625,1.17611090625Q14.631915625,1.16650390625,14.582715625,1.16650390625L3.332682625,1.16650390625Q2.952988225,1.16650390625,2.6845016250000002,1.43498990625Q2.416015625,1.70347620625,2.416015625,2.08317090625L2.416015625,15.83320390625Q2.416015625,15.88240390625,2.425622625,15.93070390625Q2.435230625,15.97900390625,2.4540756249999998,16.02450390625Q2.472921625,16.07000390625,2.500280625,16.111003906249998Q2.527640625,16.15190390625,2.562462625,16.186703906250003Q2.597284625,16.22150390625,2.638230625,16.24890390625Q2.679176625,16.27630390625,2.724673625,16.29510390625Q2.770170625,16.31400390625,2.818470525,16.32360390625Q2.866769925,16.33320390625,2.916015625,16.33320390625Z" fill-rule="evenodd" fill="" fill-opacity="1" style="mix-blend-mode:passthrough"/></g><g><path d="M8.75,8.66650390625L13.75,8.66650390625Q13.79925,8.66650390625,13.84755,8.67611090625Q13.89584,8.685718906249999,13.94134,8.70456390625Q13.98684,8.72340990625,14.02778,8.75076890625Q14.06873,8.77812890625,14.10355,8.81295090625Q14.13837,8.84777290625,14.16573,8.88871890625Q14.19309,8.92966490625,14.21194,8.97516190625Q14.23078,9.02065890625,14.24039,9.06895880625Q14.25,9.11725820625,14.25,9.16650390625Q14.25,9.21574960625,14.24039,9.26404900625Q14.23078,9.31234890625,14.21194,9.35784590625Q14.19309,9.40334290625,14.16573,9.44428890625Q14.13837,9.48523490625,14.10355,9.52005690625Q14.06873,9.55487890625,14.02778,9.58223890625Q13.98684,9.60959790625,13.94134,9.62844390625Q13.89584,9.647288906250001,13.84755,9.65689690625Q13.79925,9.66650390625,13.75,9.66650390625L8.75,9.66650390625Q8.7007543,9.66650390625,8.6524549,9.65689690625Q8.604155,9.647288906250001,8.558658,9.62844390625Q8.513161,9.60959790625,8.472215,9.58223890625Q8.431269,9.55487890625,8.396447,9.52005690625Q8.361625,9.48523490625,8.334265,9.44428890625Q8.306906,9.40334290625,8.28806,9.35784590625Q8.269214999999999,9.31234890625,8.259607,9.26404900625Q8.25,9.21574960625,8.25,9.16650390625Q8.25,9.11725820625,8.259607,9.06895880625Q8.269214999999999,9.02065890625,8.28806,8.97516190625Q8.306906,8.92966490625,8.334265,8.88871890625Q8.361625,8.84777290625,8.396447,8.81295090625Q8.431269,8.77812890625,8.472215,8.75076890625Q8.513161,8.72340990625,8.558658,8.70456390625Q8.604155,8.685718906249999,8.6524549,8.67611090625Q8.7007543,8.66650390625,8.75,8.66650390625Z" fill-rule="evenodd" fill="" fill-opacity="1" style="mix-blend-mode:passthrough"/></g><g><path d="M8.75,12L13.75,12Q13.79925,12,13.84755,12.009607Q13.89584,12.019214999999999,13.94134,12.03806Q13.98684,12.056906,14.02778,12.084265Q14.06873,12.111625,14.10355,12.146447Q14.13837,12.181269,14.16573,12.222215Q14.19309,12.263161,14.21194,12.308658Q14.23078,12.354155,14.24039,12.4024549Q14.25,12.4507543,14.25,12.5Q14.25,12.5492457,14.24039,12.5975451Q14.23078,12.645845,14.21194,12.691342Q14.19309,12.736839,14.16573,12.777785Q14.13837,12.818731,14.10355,12.853553Q14.06873,12.888375,14.02778,12.915735Q13.98684,12.943094,13.94134,12.96194Q13.89584,12.980785000000001,13.84755,12.990393Q13.79925,13,13.75,13L8.75,13Q8.7007543,13,8.6524549,12.990393Q8.604155,12.980785000000001,8.558658,12.96194Q8.513161,12.943094,8.472215,12.915735Q8.431269,12.888375,8.396447,12.853553Q8.361625,12.818731,8.334265,12.777785Q8.306906,12.736839,8.28806,12.691342Q8.269214999999999,12.645845,8.259607,12.5975451Q8.25,12.5492457,8.25,12.5Q8.25,12.4507543,8.259607,12.4024549Q8.269214999999999,12.354155,8.28806,12.308658Q8.306906,12.263161,8.334265,12.222215Q8.361625,12.181269,8.396447,12.146447Q8.431269,12.111625,8.472215,12.084265Q8.513161,12.056906,8.558658,12.03806Q8.604155,12.019214999999999,8.6524549,12.009607Q8.7007543,12,8.75,12Z" fill-rule="evenodd" fill="" fill-opacity="1" style="mix-blend-mode:passthrough"/></g></g></svg>
