<svg xmlns="http://www.w3.org/2000/svg" xmlns:xlink="http://www.w3.org/1999/xlink" fill="none" version="1.1" width="20" height="20" viewBox="0 0 20 20"><defs><clipPath id="master_svg0_69_06245"><rect x="0" y="0" width="20" height="20" rx="0"/></clipPath></defs><g clip-path="url(#master_svg0_69_06245)"><rect x="0" y="0" width="20" height="20" rx="0" fill="#FFFFFF" fill-opacity="1"/><g><path d="M9.5,10Q9.5,9.9507543,9.509607,9.9024549Q9.519214999999999,9.854155,9.53806,9.808658Q9.556906,9.763161,9.584265,9.722215Q9.611625,9.681269,9.646447,9.646447Q9.681269,9.611625,9.722215,9.584265Q9.763161,9.556906,9.808658,9.53806Q9.854155,9.519214999999999,9.9024549,9.509607Q9.9507543,9.5,10,9.5Q10.0492457,9.5,10.0975451,9.509607Q10.145845,9.519214999999999,10.191342,9.53806Q10.236839,9.556906,10.277785,9.584265Q10.318731,9.611625,10.353553,9.646447Q10.388375,9.681269,10.415735,9.722215Q10.443094,9.763161,10.46194,9.808658Q10.480785000000001,9.854155,10.490393,9.9024549Q10.5,9.9507543,10.5,10L10.5,12.5Q10.5,12.54925,10.490393,12.59754Q10.480785000000001,12.64584,10.46194,12.69134Q10.443094,12.73684,10.415735,12.77778Q10.388375,12.81873,10.353553,12.85355Q10.318731,12.88837,10.277785,12.91573Q10.236839,12.94309,10.191342,12.96194Q10.145845,12.98078,10.0975451,12.99039Q10.0492457,13,10,13Q9.9507543,13,9.9024549,12.99039Q9.854155,12.98078,9.808658,12.96194Q9.763161,12.94309,9.722215,12.91573Q9.681269,12.88837,9.646447,12.85355Q9.611625,12.81873,9.584265,12.77778Q9.556906,12.73684,9.53806,12.69134Q9.519214999999999,12.64584,9.509607,12.59754Q9.5,12.54925,9.5,12.5L9.5,10Z" fill-rule="evenodd" fill="" fill-opacity="1" style="mix-blend-mode:passthrough"/></g><g><path d="M2,12.5L2,17.5Q2,17.54925,2.009607,17.59755Q2.019215,17.64584,2.0380599999999998,17.69134Q2.056906,17.73684,2.084265,17.77778Q2.111625,17.818730000000002,2.146447,17.85355Q2.181269,17.888370000000002,2.222215,17.91573Q2.263161,17.943089999999998,2.308658,17.96194Q2.354155,17.98078,2.4024549,17.990389999999998Q2.4507543,18,2.5,18L17.5,18Q17.5492,18,17.5975,17.990389999999998Q17.6458,17.98078,17.6913,17.96194Q17.736800000000002,17.943089999999998,17.7778,17.91573Q17.8187,17.888370000000002,17.8536,17.85355Q17.8884,17.818730000000002,17.9157,17.77778Q17.9431,17.73684,17.9619,17.69134Q17.980800000000002,17.64584,17.9904,17.59755Q18,17.54925,18,17.5L18,12.5Q18,12.4507543,17.9904,12.4024549Q17.980800000000002,12.354155,17.9619,12.308658Q17.9431,12.263161,17.9157,12.222215Q17.8884,12.181269,17.8536,12.146447Q17.8187,12.111625,17.7778,12.084265Q17.736800000000002,12.056906,17.6913,12.03806Q17.6458,12.019214999999999,17.5975,12.009607Q17.5492,12,17.5,12L2.5,12Q2.4507543,12,2.4024549,12.009607Q2.354155,12.019214999999999,2.308658,12.03806Q2.263161,12.056906,2.222215,12.084265Q2.181269,12.111625,2.146447,12.146447Q2.111625,12.181269,2.084265,12.222215Q2.056906,12.263161,2.0380599999999998,12.308658Q2.019215,12.354155,2.009607,12.4024549Q2,12.4507543,2,12.5ZM3,17L3,13L17,13L17,17L3,17Z" fill-rule="evenodd" fill="" fill-opacity="1" style="mix-blend-mode:passthrough"/></g><g transform="matrix(0,-1,1,0,-2.4990234375,7.9169921875)"><line x1="2.708984375" y1="4.7080078125" x2="3.1256510615348816" y2="4.7080078125" fill-opacity="0" stroke-opacity="1" stroke="#9A9CAC" fill="none" stroke-width="1" stroke-linecap="ROUND" stroke-linejoin="round" style="mix-blend-mode:passthrough"/></g><g transform="matrix(0,-1,1,0,-4.791015625,10.208984375)"><line x1="2.708984375" y1="7" x2="3.1256510615348816" y2="7" fill-opacity="0" stroke-opacity="1" stroke="#9A9CAC" fill="none" stroke-width="1" stroke-linecap="ROUND" stroke-linejoin="round" style="mix-blend-mode:passthrough"/></g><g transform="matrix(0,-1,1,0,-0.2080078125,5.6259765625)"><line x1="2.708984375" y1="2.4169921875" x2="3.1256510615348816" y2="2.4169921875" fill-opacity="0" stroke-opacity="1" stroke="#9A9CAC" fill="none" stroke-width="1" stroke-linecap="ROUND" stroke-linejoin="round" style="mix-blend-mode:passthrough"/></g><g transform="matrix(0,-1,1,0,12.5009765625,22.9169921875)"><line x1="17.708984375" y1="4.7080078125" x2="18.12565106153488" y2="4.7080078125" fill-opacity="0" stroke-opacity="1" stroke="#9A9CAC" fill="none" stroke-width="1" stroke-linecap="ROUND" stroke-linejoin="round" style="mix-blend-mode:passthrough"/></g><g transform="matrix(0,-1,1,0,10.208984375,25.208984375)"><line x1="17.708984375" y1="7" x2="18.12565106153488" y2="7" fill-opacity="0" stroke-opacity="1" stroke="#9A9CAC" fill="none" stroke-width="1" stroke-linecap="ROUND" stroke-linejoin="round" style="mix-blend-mode:passthrough"/></g><g transform="matrix(0,-1,1,0,14.7919921875,20.6259765625)"><line x1="17.708984375" y1="2.4169921875" x2="18.12565106153488" y2="2.4169921875" fill-opacity="0" stroke-opacity="1" stroke="#9A9CAC" fill="none" stroke-width="1" stroke-linecap="ROUND" stroke-linejoin="round" style="mix-blend-mode:passthrough"/></g><g transform="matrix(-1,1.2246468525851679e-16,-1.2246468525851679e-16,-1,35,14.583984374999998)"><line x1="17.5" y1="6.7919921875" x2="17.91666668653488" y2="6.7919921875" fill-opacity="0" stroke-opacity="1" stroke="#9A9CAC" fill="none" stroke-width="1" stroke-linecap="ROUND" stroke-linejoin="round" style="mix-blend-mode:passthrough"/></g><g transform="matrix(-1,1.2246468525851679e-16,-1.2246468525851679e-16,-1,5.832031250000001,14.583984375)"><line x1="2.916015625" y1="6.7919921875" x2="3.3326823115348816" y2="6.7919921875" fill-opacity="0" stroke-opacity="1" stroke="#9A9CAC" fill="none" stroke-width="1" stroke-linecap="ROUND" stroke-linejoin="round" style="mix-blend-mode:passthrough"/></g><g transform="matrix(-1,1.2246468525851679e-16,-1.2246468525851679e-16,-1,5.83203125,4.583984375)"><line x1="2.916015625" y1="1.7919921875" x2="3.3326823115348816" y2="1.7919921875" fill-opacity="0" stroke-opacity="1" stroke="#9A9CAC" fill="none" stroke-width="1" stroke-linecap="ROUND" stroke-linejoin="round" style="mix-blend-mode:passthrough"/></g><g transform="matrix(-1,1.2246468525851679e-16,-1.2246468525851679e-16,-1,11.66796875,4.583984374999999)"><line x1="5.833984375" y1="1.7919921875" x2="6.250651061534882" y2="1.7919921875" fill-opacity="0" stroke-opacity="1" stroke="#9A9CAC" fill="none" stroke-width="1" stroke-linecap="ROUND" stroke-linejoin="round" style="mix-blend-mode:passthrough"/></g><g transform="matrix(-1,1.2246468525851679e-16,-1.2246468525851679e-16,-1,17.5,4.583984374999999)"><line x1="8.75" y1="1.7919921875" x2="9.166666686534882" y2="1.7919921875" fill-opacity="0" stroke-opacity="1" stroke="#9A9CAC" fill="none" stroke-width="1" stroke-linecap="ROUND" stroke-linejoin="round" style="mix-blend-mode:passthrough"/></g><g transform="matrix(-1,1.2246468525851679e-16,-1.2246468525851679e-16,-1,17.5,14.583984375)"><line x1="8.75" y1="6.7919921875" x2="9.166666686534882" y2="6.7919921875" fill-opacity="0" stroke-opacity="1" stroke="#9A9CAC" fill="none" stroke-width="1" stroke-linecap="ROUND" stroke-linejoin="round" style="mix-blend-mode:passthrough"/></g><g transform="matrix(-1,1.2246468525851679e-16,-1.2246468525851679e-16,-1,23.33203125,4.583984374999998)"><line x1="11.666015625" y1="1.7919921875" x2="12.082682311534882" y2="1.7919921875" fill-opacity="0" stroke-opacity="1" stroke="#9A9CAC" fill="none" stroke-width="1" stroke-linecap="ROUND" stroke-linejoin="round" style="mix-blend-mode:passthrough"/></g><g transform="matrix(-1,1.2246468525851679e-16,-1.2246468525851679e-16,-1,11.66796875,14.583984375)"><line x1="5.833984375" y1="6.7919921875" x2="6.250651061534882" y2="6.7919921875" fill-opacity="0" stroke-opacity="1" stroke="#9A9CAC" fill="none" stroke-width="1" stroke-linecap="ROUND" stroke-linejoin="round" style="mix-blend-mode:passthrough"/></g><g transform="matrix(-1,1.2246468525851679e-16,-1.2246468525851679e-16,-1,23.33203125,14.583984374999998)"><line x1="11.666015625" y1="6.7919921875" x2="12.082682311534882" y2="6.7919921875" fill-opacity="0" stroke-opacity="1" stroke="#9A9CAC" fill="none" stroke-width="1" stroke-linecap="ROUND" stroke-linejoin="round" style="mix-blend-mode:passthrough"/></g><g transform="matrix(-1,1.2246468525851679e-16,-1.2246468525851679e-16,-1,29.16796875,4.583984374999998)"><line x1="14.583984375" y1="1.7919921875" x2="15.000651061534882" y2="1.7919921875" fill-opacity="0" stroke-opacity="1" stroke="#9A9CAC" fill="none" stroke-width="1" stroke-linecap="ROUND" stroke-linejoin="round" style="mix-blend-mode:passthrough"/></g><g transform="matrix(-1,1.2246468525851679e-16,-1.2246468525851679e-16,-1,29.16796875,14.583984374999998)"><line x1="14.583984375" y1="6.7919921875" x2="15.000651061534882" y2="6.7919921875" fill-opacity="0" stroke-opacity="1" stroke="#9A9CAC" fill="none" stroke-width="1" stroke-linecap="ROUND" stroke-linejoin="round" style="mix-blend-mode:passthrough"/></g><g transform="matrix(-1,1.2246468525851679e-16,-1.2246468525851679e-16,-1,35,4.583984374999998)"><line x1="17.5" y1="1.7919921875" x2="17.91666668653488" y2="1.7919921875" fill-opacity="0" stroke-opacity="1" stroke="#9A9CAC" fill="none" stroke-width="1" stroke-linecap="ROUND" stroke-linejoin="round" style="mix-blend-mode:passthrough"/></g></g></svg>
