<svg xmlns="http://www.w3.org/2000/svg" xmlns:xlink="http://www.w3.org/1999/xlink" fill="none" version="1.1" width="20" height="20" viewBox="0 0 20 20"><defs><clipPath id="master_svg0_77_06823"><rect x="0" y="0" width="20" height="20" rx="0"/></clipPath></defs><g clip-path="url(#master_svg0_77_06823)"><g><path d="M9.5,1.66650390625Q9.5,1.61725820625,9.509607,1.56895880625Q9.519214999999999,1.52065890625,9.53806,1.4751619062499999Q9.556906,1.42966490625,9.584265,1.38871890625Q9.611625,1.34777290625,9.646447,1.31295090625Q9.681269,1.27812890625,9.722215,1.25076890625Q9.763161,1.2234099062500001,9.808658,1.20456390625Q9.854155,1.18571890625,9.9024549,1.17611090625Q9.9507543,1.16650390625,10,1.16650390625Q10.0492457,1.16650390625,10.0975451,1.17611090625Q10.145845,1.18571890625,10.191342,1.20456390625Q10.236839,1.2234099062500001,10.277785,1.25076890625Q10.318731,1.27812890625,10.353553,1.31295090625Q10.388375,1.34777290625,10.415735,1.38871890625Q10.443094,1.42966490625,10.46194,1.4751619062499999Q10.480785000000001,1.52065890625,10.490393,1.56895880625Q10.5,1.61725820625,10.5,1.66650390625L10.5,3.33317390625Q10.5,3.38241390625,10.490393,3.4307139062500003Q10.480785000000001,3.47901390625,10.46194,3.52451390625Q10.443094,3.57000390625,10.415735,3.61095390625Q10.388375,3.6519039062500003,10.353553,3.68672390625Q10.318731,3.72154390625,10.277785,3.74890390625Q10.236839,3.77626390625,10.191342,3.79511390625Q10.145845,3.81395390625,10.0975451,3.82356390625Q10.0492457,3.83317390625,10,3.83317390625Q9.9507543,3.83317390625,9.9024549,3.82356390625Q9.854155,3.81395390625,9.808658,3.79511390625Q9.763161,3.77626390625,9.722215,3.74890390625Q9.681269,3.72154390625,9.646447,3.68672390625Q9.611625,3.6519039062500003,9.584265,3.61095390625Q9.556906,3.57000390625,9.53806,3.52451390625Q9.519214999999999,3.47901390625,9.509607,3.4307139062500003Q9.5,3.38241390625,9.5,3.33317390625L9.5,1.66650390625Z" fill-rule="evenodd" fill="" fill-opacity="1" style="mix-blend-mode:passthrough"/></g><g><path d="M14.600334375,3.033203125Q14.667314375,2.917178125,14.667314375,2.783203125Q14.667314375,2.733957425,14.657704375,2.685658025Q14.648104374999999,2.637358125,14.629254375,2.591861125Q14.610414375,2.546364125,14.583054375,2.505418125Q14.555694375,2.464472125,14.520874375,2.429650125Q14.486044375,2.394828125,14.445104375,2.367468125Q14.404154375000001,2.340109125,14.358654375,2.3212631249999998Q14.313161375,2.302418125,14.264862375,2.292810125Q14.216562375,2.283203125,14.167317375,2.283203125Q14.101490375000001,2.283203125,14.037907375,2.300240125Q13.974324375,2.317277125,13.917316375,2.350190125Q13.860309375,2.383103125,13.813763375,2.429650125Q13.767217375,2.476196125,13.734304375,2.533203125L13.734214375,2.533358125L12.900971375,3.9765831250000003Q12.833984375,4.092603125,12.833984375,4.226583125Q12.833984375,4.2758231250000005,12.843591375,4.324123125Q12.853199374999999,4.372423125,12.872044375,4.417923125Q12.890890375,4.463413125,12.918249375,4.504363125Q12.945609375,4.545313125,12.980431375,4.580133125Q13.015253375,4.6149531249999995,13.056199375,4.642313125Q13.097145375,4.669673125,13.142642375,4.688513125Q13.188139375,4.7073631250000005,13.236439275,4.716973125Q13.284738675,4.726573125,13.333984375,4.726583125Q13.399810675,4.726583125,13.463394375,4.709543125Q13.526977375,4.692503125,13.583984375,4.659593125Q13.640991375,4.626673125,13.687538375,4.580133125Q13.734084375,4.533583125,13.766997375,4.476573125L13.767154375,4.476303125L14.600244374999999,3.033358125L14.600334375,3.033203125L14.600334375,3.033203125Z" fill-rule="evenodd" fill="" fill-opacity="1" style="mix-blend-mode:passthrough"/></g><g><path d="M17.4668175,6.26650909375Q17.5238175,6.23359509375,17.5703675,6.18704909375Q17.6169175,6.14050309375,17.6498275,6.08349609375Q17.6827375,6.02648909375,17.6997775,5.96290509375Q17.7168175,5.89932229375,17.7168175,5.83349609375Q17.7168175,5.78425039375,17.7072075,5.73595099375Q17.6975975,5.68765109375,17.6787475,5.64215409375Q17.6599075,5.59665709375,17.6325475,5.55571109375Q17.6051875,5.51476509375,17.5703675,5.47994309375Q17.5355475,5.44512109375,17.4945975,5.41776109375Q17.4536475,5.39040209375,17.4081575,5.37155609375Q17.3626575,5.35271109375,17.3143575,5.34310309375Q17.2660575,5.33349609375,17.2168175,5.33349609375Q17.0828375,5.33349609375,16.9668175,5.40048309375L15.5234375,6.23381709375Q15.4664305,6.26673009375,15.4198845,6.31327609375Q15.3733375,6.35982309375,15.3404245,6.41683009375Q15.3075115,6.47383709375,15.2904745,6.53742009375Q15.2734375,6.60100309375,15.2734375,6.66683009375Q15.2734375,6.71607509375,15.2830445,6.76437509375Q15.292652499999999,6.81267409375,15.3114975,6.85817609375Q15.3303435,6.90366609375,15.3577025,6.94461609375Q15.3850625,6.9855560937500005,15.4198845,7.02038609375Q15.4547065,7.05520609375,15.4956525,7.08256609375Q15.5365985,7.1099260937499995,15.5820955,7.12876609375Q15.6275925,7.14761609375,15.6758924,7.15722609375Q15.7241918,7.16682609375,15.7734375,7.16682609375Q15.9074125,7.16682609375,16.0234375,7.09984609375L16.0235705,7.0997660937500005L17.4668175,6.26650909375L17.4668175,6.26650909375Z" fill-rule="evenodd" fill="" fill-opacity="1" style="mix-blend-mode:passthrough"/></g><g><path d="M16.666015625,9.5L18.332685625,9.5Q18.381925625,9.5,18.430225625,9.509607Q18.478525625,9.519214999999999,18.524025625,9.53806Q18.569525625,9.556906,18.610465625,9.584265Q18.651415625,9.611625,18.686235625000002,9.646447Q18.721055624999998,9.681269,18.748415625,9.722215Q18.775775625,9.763161,18.794625625000002,9.808658Q18.813465625,9.854155,18.823075625,9.9024549Q18.832685625,9.9507543,18.832685625,10Q18.832685625,10.0492457,18.823075625,10.0975451Q18.813465625,10.145845,18.794625625000002,10.191342Q18.775775625,10.236839,18.748415625,10.277785Q18.721055624999998,10.318731,18.686235625000002,10.353553Q18.651415625,10.388375,18.610465625,10.415735Q18.569525625,10.443094,18.524025625,10.46194Q18.478525625,10.480785000000001,18.430225625,10.490393Q18.381925625,10.5,18.332685625,10.5L16.666015625,10.5Q16.616769925,10.5,16.568470525,10.490393Q16.520170625,10.480785000000001,16.474673625,10.46194Q16.429176625,10.443094,16.388230625,10.415735Q16.347284625,10.388375,16.312462625,10.353553Q16.277640625,10.318731,16.250280625,10.277785Q16.222921625,10.236839,16.204075625,10.191342Q16.185230625,10.145845,16.175622625,10.0975451Q16.166015625,10.0492457,16.166015625,10Q16.166015625,9.9507543,16.175622625,9.9024549Q16.185230625,9.854155,16.204075625,9.808658Q16.222921625,9.763161,16.250280625,9.722215Q16.277640625,9.681269,16.312462625,9.646447Q16.347284625,9.611625,16.388230625,9.584265Q16.429176625,9.556906,16.474673625,9.53806Q16.520170625,9.519214999999999,16.568470525,9.509607Q16.616769925,9.5,16.666015625,9.5Z" fill-rule="evenodd" fill="" fill-opacity="1" style="mix-blend-mode:passthrough"/></g><g><path d="M16.0234375,12.90048309375L17.4668175,13.73381609375Q17.5238175,13.76672909375,17.5703675,13.81327509375Q17.6169075,13.85982109375,17.6498275,13.91682809375Q17.6827375,13.97383609375,17.6997775,14.03741909375Q17.7168175,14.101002093750001,17.7168175,14.16682909375Q17.7168175,14.21607409375,17.7072075,14.26437409375Q17.6975975,14.31267309375,17.6787475,14.35816609375Q17.6599075,14.403666093750001,17.6325475,14.44461609375Q17.6051875,14.48555609375,17.5703675,14.52038609375Q17.5355475,14.55520609375,17.4945975,14.58256609375Q17.4536475,14.60992609375,17.4081575,14.62876609375Q17.3626575,14.647616093749999,17.3143575,14.65721609375Q17.2660575,14.66682609375,17.2168175,14.66682609375Q17.0828375,14.66682609375,16.9668175,14.59984609375L15.5234375,13.76650909375Q15.4664305,13.73359609375,15.4198845,13.68704909375Q15.3733375,13.64050309375,15.3404245,13.58349609375Q15.3075115,13.52648909375,15.2904745,13.46290609375Q15.2734375,13.39932239375,15.2734375,13.33349609375Q15.2734375,13.28425039375,15.2830445,13.23595099375Q15.292652499999999,13.18765109375,15.3114975,13.14215409375Q15.3303435,13.09665709375,15.3577025,13.05571109375Q15.3850625,13.01476509375,15.4198845,12.97994309375Q15.4547065,12.94512109375,15.4956525,12.91776109375Q15.5365985,12.89040209375,15.5820955,12.87155609375Q15.6275925,12.852711093749999,15.6758924,12.84310309375Q15.7241918,12.83349609375,15.7734375,12.83349609375Q15.9074125,12.83349609375,16.0234375,12.90048309375Z" fill-rule="evenodd" fill="" fill-opacity="1" style="mix-blend-mode:passthrough"/></g><g><path d="M12.900971375,16.023681640625Q12.833984375,15.907656640625,12.833984375,15.773681640625Q12.833984375,15.724435940625,12.843591375,15.676136540625Q12.853199374999999,15.627836640625,12.872044375,15.582339640625Q12.890890375,15.536842640625,12.918249375,15.495896640625Q12.945609375,15.454950640625,12.980431375,15.420128640625Q13.015253375,15.385306640625,13.056199375,15.357946640625Q13.097145375,15.330587640625,13.142642375,15.311741640625Q13.188139375,15.292896640624999,13.236439275,15.283288640625Q13.284738675,15.273681640625,13.333984375,15.273681640625Q13.399810675,15.273681640625,13.463394375,15.290718640625Q13.526977375,15.307755640625,13.583984375,15.340668640625Q13.640991375,15.373581640625,13.687537375,15.420128640625Q13.734084375,15.466674640625,13.766997375,15.523681640625L14.600334375,16.967061640625Q14.667314375,17.083081640625,14.667314375,17.217061640625Q14.667314375,17.266301640625,14.657704375,17.314601640625Q14.648104374999999,17.362901640625,14.629254375,17.408401640625Q14.610414375,17.453891640625,14.583054375,17.494841640625Q14.555694375,17.535791640625,14.520874375,17.570611640625Q14.486044375,17.605431640625,14.445104375,17.632791640625Q14.404154375000001,17.660151640625,14.358654375,17.678991640625Q14.313161375,17.697841640625,14.264862375,17.707451640625Q14.216562375,17.717061640625,14.167317375,17.717061640625Q14.101490375000001,17.717061640625,14.037907375,17.700021640625Q13.974324375,17.682981640625,13.917316375,17.650071640625Q13.860309375,17.617151640625,13.813763375,17.570611640625Q13.767217375,17.524061640625,13.734304375,17.467061640625L12.900971375,16.023681640625Z" fill-rule="evenodd" fill="" fill-opacity="1" style="mix-blend-mode:passthrough"/></g><g><path d="M9.5,16.66650390625Q9.5,16.61725820625,9.509607,16.56895880625Q9.519214999999999,16.52065890625,9.53806,16.47516190625Q9.556906,16.42966490625,9.584265,16.38871890625Q9.611625,16.34777290625,9.646447,16.31295090625Q9.681269,16.27812890625,9.722215,16.25076890625Q9.763161,16.22340990625,9.808658,16.20456390625Q9.854155,16.18571890625,9.9024549,16.17611090625Q9.9507543,16.16650390625,10,16.16650390625Q10.0492457,16.16650390625,10.0975451,16.17611090625Q10.145845,16.18571890625,10.191342,16.20456390625Q10.236839,16.22340990625,10.277785,16.25076890625Q10.318731,16.27812890625,10.353553,16.31295090625Q10.388375,16.34777290625,10.415735,16.38871890625Q10.443094,16.42966490625,10.46194,16.47516190625Q10.480785000000001,16.52065890625,10.490393,16.56895880625Q10.5,16.61725820625,10.5,16.66650390625L10.5,18.33317390625Q10.5,18.38241390625,10.490393,18.43071390625Q10.480785000000001,18.47901390625,10.46194,18.52451390625Q10.443094,18.57001390625,10.415735,18.61095390625Q10.388375,18.65190390625,10.353553,18.686723906250002Q10.318731,18.721543906249998,10.277785,18.74890390625Q10.236839,18.77626390625,10.191342,18.795113906250002Q10.145845,18.81395390625,10.0975451,18.82356390625Q10.0492457,18.83317390625,10,18.83317390625Q9.9507543,18.83317390625,9.9024549,18.82356390625Q9.854155,18.81395390625,9.808658,18.795113906250002Q9.763161,18.77626390625,9.722215,18.74890390625Q9.681269,18.721543906249998,9.646447,18.686723906250002Q9.611625,18.65190390625,9.584265,18.61095390625Q9.556906,18.57001390625,9.53806,18.52451390625Q9.519214999999999,18.47901390625,9.509607,18.43071390625Q9.5,18.38241390625,9.5,18.33317390625L9.5,16.66650390625Z" fill-rule="evenodd" fill="" fill-opacity="1" style="mix-blend-mode:passthrough"/></g><g><path d="M7.100334375,16.023681640625Q7.167314375,15.907656640625,7.167314375,15.773681640625Q7.167314375,15.724435940625,7.157714375,15.676136540625Q7.148104375,15.627836640625,7.129254375,15.582339640625Q7.1104143749999995,15.536842640625,7.083054375,15.495896640625Q7.055694375,15.454950640625,7.020874375,15.420128640625Q6.9860443750000005,15.385306640625,6.945104375,15.357946640625Q6.904154375,15.330587640625,6.858664375,15.311741640625Q6.813162375,15.292896640624999,6.764863375,15.283288640625Q6.716563375,15.273681640625,6.667318375,15.273681640625Q6.601491375,15.273681640625,6.537908375,15.290718640625Q6.474325375,15.307755640625,6.417318375,15.340668640625Q6.360311375,15.373581640625,6.313764375,15.420128640625Q6.267218375,15.466674640625,6.234305375,15.523681640625L5.400971375,16.967061640625Q5.333984375,17.083081640625,5.333984375,17.217061640625Q5.333984375,17.266301640625,5.343591375,17.314601640625Q5.353199375,17.362901640625,5.372044375,17.408401640625Q5.390890375,17.453891640625,5.418249375,17.494841640625Q5.445609375,17.535791640625,5.480431375,17.570611640625Q5.515253375,17.605431640625,5.556199375,17.632791640625Q5.597145375,17.660151640625,5.642642375,17.678991640625Q5.688139375,17.697841640625,5.736439275,17.707451640625Q5.784738675,17.717061640625,5.833984375,17.717061640625Q5.899810575,17.717061640625,5.963393375,17.700021640625Q6.026977375,17.682981640625,6.083984375,17.650071640625Q6.140991375,17.617161640625,6.187537375,17.570611640625Q6.234084375,17.524061640625,6.266997375,17.467061640625L7.1002543750000005,16.023814640625L7.100334375,16.023681640625Z" fill-rule="evenodd" fill="" fill-opacity="1" style="mix-blend-mode:passthrough"/></g><g><path d="M4.476583125,13.76650909375Q4.5335931249999994,13.73359609375,4.580133125,13.68705009375Q4.626683125,13.64050409375,4.659593125,13.58349609375Q4.692503125,13.52648909375,4.709543125,13.46290609375Q4.726583125,13.39932239375,4.726583125,13.33349609375Q4.726583125,13.28425039375,4.716973125,13.23595099375Q4.7073631250000005,13.18765109375,4.688523125,13.14215409375Q4.669673125,13.09665709375,4.642313125,13.05571109375Q4.6149531249999995,13.01476509375,4.580133125,12.97994309375Q4.545313125,12.94512109375,4.504363125,12.91776109375Q4.463423125,12.89040209375,4.417923125,12.87155609375Q4.372423125,12.852711093749999,4.324123125,12.84310309375Q4.2758231250000005,12.83349609375,4.226583125,12.83349609375Q4.092603125,12.83349609375,3.9765831250000003,12.90048309375L3.976463125,12.90055309375L2.533365125,13.73372309375L2.533204125,13.73381609375Q2.476196125,13.76672909375,2.429650125,13.81327509375Q2.383104125,13.85982109375,2.350190125,13.91682809375Q2.317277125,13.97383509375,2.300240125,14.03741909375Q2.283203125,14.101002093750001,2.283203125,14.16682909375Q2.283203125,14.21607409375,2.292810125,14.26437409375Q2.302418125,14.31267309375,2.3212631249999998,14.35816609375Q2.340109125,14.403666093750001,2.367468125,14.44461609375Q2.394828125,14.48555609375,2.429650125,14.52038609375Q2.464472125,14.55520609375,2.505418125,14.58256609375Q2.546364125,14.60992609375,2.591861125,14.62876609375Q2.637358125,14.647616093749999,2.685658025,14.65721609375Q2.733957425,14.66682609375,2.783203125,14.66682609375Q2.917177125,14.66682609375,3.033202125,14.59984609375L4.476333125,13.76665009375L4.476583125,13.76650909375L4.476583125,13.76650909375Z" fill-rule="evenodd" fill="" fill-opacity="1" style="mix-blend-mode:passthrough"/></g><g><path d="M1.666015625,9.5L3.332685625,9.5Q3.381925625,9.5,3.4302256250000003,9.509607Q3.478525625,9.519214999999999,3.524025625,9.53806Q3.569525625,9.556906,3.610465625,9.584265Q3.6514156250000003,9.611625,3.686235625,9.646447Q3.721055625,9.681269,3.748415625,9.722215Q3.775775625,9.763161,3.794625625,9.808658Q3.813465625,9.854155,3.823075625,9.9024549Q3.832685625,9.9507543,3.832685625,10Q3.832685625,10.0492457,3.823075625,10.0975451Q3.813465625,10.145845,3.794625625,10.191342Q3.775775625,10.236839,3.748415625,10.277785Q3.721055625,10.318731,3.686235625,10.353553Q3.6514156250000003,10.388375,3.610465625,10.415735Q3.569525625,10.443094,3.524025625,10.46194Q3.478525625,10.480785000000001,3.4302256250000003,10.490393Q3.381925625,10.5,3.332685625,10.5L1.666015625,10.5Q1.616769925,10.5,1.568470525,10.490393Q1.520170625,10.480785000000001,1.4746736249999999,10.46194Q1.429176625,10.443094,1.388230625,10.415735Q1.347284625,10.388375,1.312462625,10.353553Q1.277640625,10.318731,1.250280625,10.277785Q1.2229216250000001,10.236839,1.204075625,10.191342Q1.185230625,10.145845,1.175622625,10.0975451Q1.166015625,10.0492457,1.166015625,10Q1.166015625,9.9507543,1.175622625,9.9024549Q1.185230625,9.854155,1.204075625,9.808658Q1.2229216250000001,9.763161,1.250280625,9.722215Q1.277640625,9.681269,1.312462625,9.646447Q1.347284625,9.611625,1.388230625,9.584265Q1.429176625,9.556906,1.4746736249999999,9.53806Q1.520170625,9.519214999999999,1.568470525,9.509607Q1.616769925,9.5,1.666015625,9.5Z" fill-rule="evenodd" fill="" fill-opacity="1" style="mix-blend-mode:passthrough"/></g><g><path d="M3.033294125,5.40053609375L4.476583125,6.23381709375Q4.5335931249999994,6.26673009375,4.580133125,6.31327609375Q4.626683125,6.35982209375,4.659593125,6.41683009375Q4.692513125,6.47383709375,4.709543125,6.53742009375Q4.726583125,6.60100309375,4.726583125,6.66683009375Q4.726583125,6.71607509375,4.716973125,6.76437509375Q4.7073631250000005,6.81267409375,4.688523125,6.85817609375Q4.669673125,6.90366609375,4.642313125,6.94461609375Q4.6149531249999995,6.9855560937500005,4.580133125,7.02038609375Q4.545313125,7.05520609375,4.504363125,7.08256609375Q4.463423125,7.1099260937499995,4.417923125,7.12876609375Q4.372423125,7.14761609375,4.324123125,7.15722609375Q4.2758231250000005,7.16682609375,4.226583125,7.16682609375Q4.092603125,7.16682609375,3.9765831250000003,7.09984609375L3.976383125,7.09972609375L2.533295125,6.26656209375L2.533203125,6.26650909375Q2.476196125,6.23359609375,2.429650125,6.18705009375Q2.383104125,6.14050309375,2.350190125,6.08349609375Q2.317277125,6.02648909375,2.300240125,5.96290609375Q2.283203125,5.89932239375,2.283203125,5.83349609375Q2.283203125,5.78425039375,2.292810125,5.73595099375Q2.302418125,5.68765109375,2.3212631249999998,5.64215409375Q2.340109125,5.59665709375,2.367468125,5.55571109375Q2.394828125,5.51476509375,2.429650125,5.47994309375Q2.464472125,5.44512109375,2.505418125,5.41776109375Q2.546364125,5.39040209375,2.591861125,5.37155609375Q2.637358125,5.35271109375,2.685658025,5.34310309375Q2.733957425,5.33349609375,2.783203125,5.33349609375Q2.917177125,5.33349609375,3.033203125,5.40048309375L3.033294125,5.40053609375Z" fill-rule="evenodd" fill="" fill-opacity="1" style="mix-blend-mode:passthrough"/></g><g><path d="M6.267043375,2.533283125L7.1002543750000005,3.9764431250000003L7.100334375,3.976573125Q7.167314375,4.092603125,7.167314375,4.226583125Q7.167314375,4.2758231250000005,7.157714375,4.324123125Q7.148104375,4.372423125,7.129254375,4.417923125Q7.1104143749999995,4.463413125,7.083054375,4.504363125Q7.055694375,4.545313125,7.020874375,4.580133125Q6.9860443750000005,4.6149531249999995,6.945104375,4.642313125Q6.904154375,4.669673125,6.858664375,4.688513125Q6.813162375,4.7073631250000005,6.764863375,4.716973125Q6.716563375,4.726573125,6.667318375,4.726583125Q6.601492375,4.726583125,6.537908375,4.709543125Q6.474325375,4.692503125,6.417318375,4.659593125Q6.360311375,4.626673125,6.313765375,4.580133125Q6.267218375,4.533583125,6.234305375,4.476583125L5.401017375,3.033283125L5.400971375,3.033203125Q5.333984375,2.917178125,5.333984375,2.783203125Q5.333984375,2.733957425,5.343591375,2.685658025Q5.353199375,2.637358125,5.372044375,2.591861125Q5.390890375,2.546364125,5.418249375,2.505418125Q5.445609375,2.464472125,5.480431375,2.429650125Q5.515253375,2.394828125,5.556199375,2.367468125Q5.597145375,2.340109125,5.642642375,2.3212631249999998Q5.688139375,2.302418125,5.736439275,2.292810125Q5.784738675,2.283203125,5.833984375,2.283203125Q5.899810575,2.283203125,5.963393375,2.300240125Q6.026977375,2.317277125,6.083984375,2.350190125Q6.140991375,2.383103125,6.187537375,2.429650125Q6.234083375,2.476196125,6.266997375,2.533203125L6.267043375,2.533283125Z" fill-rule="evenodd" fill="" fill-opacity="1" style="mix-blend-mode:passthrough"/></g></g></svg>
