<svg xmlns="http://www.w3.org/2000/svg" xmlns:xlink="http://www.w3.org/1999/xlink" fill="" version="1.1" width="20" height="20" viewBox="0 0 20 20"><defs><clipPath id="master_svg0_69_06234"><rect x="0" y="0" width="20" height="20" rx="0"/></clipPath></defs><g clip-path="url(#master_svg0_69_06234)"><g><path d="M19.667284375,17.9163078125Q19.667284375,17.782007812499998,19.599984375,17.6658078125L10.433364375,1.8324898125Q10.408694375,1.7898708125,10.376174375,1.7528848125Q10.343664375,1.7158988124999999,10.304554375,1.6859668125Q10.265454375,1.6560348125,10.221254375,1.6343068125Q10.177064375,1.6125788125,10.129484375,1.5998908125Q10.081894375,1.5872018125,10.032754375,1.5840398125Q9.983614375,1.5808778125,9.934794375,1.5873638125Q9.885974375,1.5938498125,9.839364375,1.6097358124999999Q9.792754375,1.6256208125,9.750134375,1.6502948124999999Q9.634744375,1.7170998124999999,9.567934375,1.8324898125L0.401271375,17.6658078125Q0.351440375,17.7519078125,0.338340375,17.8505078125Q0.325240375,17.9491078125,0.350866375,18.0452078125Q0.376492375,18.1413078125,0.436943375,18.2202078125Q0.497394375,18.2992078125,0.583466375,18.3490078125Q0.699689375,18.4163078125,0.833984375,18.4163078125L19.167284375,18.4163078125Q19.216584375,18.4163078125,19.264884375,18.4067078125Q19.313184375,18.3971078125,19.358684375,18.3783078125Q19.404184375,18.3594078125,19.445084375,18.3321078125Q19.486084375,18.3047078125,19.520884375,18.2699078125Q19.555684375,18.2351078125,19.583084375,18.1941078125Q19.610384375,18.1532078125,19.629284375,18.1077078125Q19.648084375,18.0622078125,19.657684375,18.0139078125Q19.667284375,17.9656078125,19.667284375,17.9163078125ZM18.300084375,17.4163078125L10.000654375,3.0809398125L1.701207375,17.4163078125L18.300084375,17.4163078125Z" fill-rule="evenodd" fill="" fill-opacity="1" style="mix-blend-mode:passthrough"/></g><g><path d="M10.5,14.5830078125L10.5,14.9996738125Q10.5,15.0489198125,10.490393,15.0972188125Q10.480785000000001,15.1455188125,10.46194,15.1910158125Q10.443094,15.2365128125,10.415735,15.2774588125Q10.388375,15.3184058125,10.353553,15.3532278125Q10.318731,15.3880498125,10.277785,15.4154088125Q10.236839,15.4427678125,10.191342,15.4616138125Q10.145845,15.4804588125,10.0975451,15.4900668125Q10.0492457,15.4996738125,10,15.4996738125Q9.9507543,15.4996738125,9.9024549,15.4900668125Q9.854155,15.4804588125,9.808658,15.4616138125Q9.763161,15.4427678125,9.722215,15.4154088125Q9.681269,15.3880498125,9.646447,15.3532278125Q9.611625,15.3184058125,9.584265,15.2774588125Q9.556906,15.2365128125,9.53806,15.1910158125Q9.519214999999999,15.1455188125,9.509607,15.0972188125Q9.5,15.0489198125,9.5,14.9996738125L9.5,14.5830078125Q9.5,14.5337621125,9.509607,14.4854627125Q9.519214999999999,14.4371628125,9.53806,14.3916658125Q9.556906,14.3461688125,9.584265,14.3052228125Q9.611625,14.2642768125,9.646447,14.2294548125Q9.681269,14.1946328125,9.722215,14.1672728125Q9.763161,14.1399138125,9.808658,14.1210678125Q9.854155,14.102222812499999,9.9024549,14.0926148125Q9.9507543,14.0830078125,10,14.0830078125Q10.0492457,14.0830078125,10.0975451,14.0926148125Q10.145845,14.102222812499999,10.191342,14.1210678125Q10.236839,14.1399138125,10.277785,14.1672728125Q10.318731,14.1946328125,10.353553,14.2294548125Q10.388375,14.2642768125,10.415735,14.3052228125Q10.443094,14.3461688125,10.46194,14.3916658125Q10.480785000000001,14.4371628125,10.490393,14.4854627125Q10.5,14.5337621125,10.5,14.5830078125Z" fill-rule="evenodd" fill="" fill-opacity="1" style="mix-blend-mode:passthrough"/></g><g><path d="M10.5,7.916992187362502L10.503458,12.0829521875L10.503458,12.083032187499999L10.503458,12.0834521875Q10.503458,12.1326921875,10.493851,12.1809921875Q10.484243,12.2292921875,10.465398,12.274792187500001Q10.446552,12.3202921875,10.419193,12.3612321875Q10.391834,12.4021821875,10.357012,12.4370021875Q10.322189999999999,12.471822187499999,10.281243,12.4991821875Q10.240297,12.526542187499999,10.1948,12.5453921875Q10.149303,12.5642321875,10.101003,12.5738421875Q10.052704,12.5834521875,10.00345826,12.5834521875Q9.9542387,12.5834521875,9.905964,12.5738521875Q9.857689,12.5642521875,9.812212,12.545432187500001Q9.766736,12.5266021875,9.725802,12.4992721875Q9.684869,12.4719421875,9.650052,12.4371521875Q9.615234,12.4023621875,9.587868,12.3614521875Q9.560501,12.3205421875,9.541638,12.2750821875Q9.522774,12.2296221875,9.513137,12.1813521875Q9.503499,12.133082187500001,9.503458,12.0838621875L9.503458,12.0834521875L9.5,7.9174883105L9.5,7.9174071995L9.5,7.9169921875Q9.5,7.8677464875,9.509607,7.8194470875Q9.519214999999999,7.7711471875,9.53806,7.7256501875Q9.556906,7.6801531875,9.584265,7.6392071875Q9.611625,7.5982611875,9.646447,7.5634391875Q9.681269,7.5286171875,9.722215,7.5012571875Q9.763161,7.4738981875,9.808658,7.4550521875Q9.854155,7.4362071875,9.9024549,7.4265991875Q9.9507543,7.4169921875,10,7.4169921875Q10.0492195,7.4169921875,10.0974943,7.4265891875Q10.145769,7.4361871875,10.191246,7.4550131875Q10.236723,7.4738391875,10.277656,7.5011711875Q10.318589,7.5285031875,10.353407,7.5632921875Q10.388225,7.5980811875,10.415591,7.6389911875Q10.442957,7.6799021875,10.461821,7.7253631875Q10.480684,7.7708241875,10.490322,7.8190908875Q10.499959,7.8673576875,10.5,7.9165771755L10.5,7.916992187362502Z" fill-rule="evenodd" fill="" fill-opacity="1" style="mix-blend-mode:passthrough"/></g></g></svg>
