<svg xmlns="http://www.w3.org/2000/svg" xmlns:xlink="http://www.w3.org/1999/xlink" fill="" version="1.1" width="20" height="20" viewBox="0 0 20 20"><defs><clipPath id="master_svg0_69_06268"><rect x="0" y="0" width="20" height="20" rx="0"/></clipPath></defs><g clip-path="url(#master_svg0_69_06268)"><g><path d="M11.999315625,7.382302187500001L11.999315625,12.0836621875Q11.999315625,12.132902187500001,12.008915625,12.1812021875Q12.018515625,12.2295021875,12.037415625,12.2750021875Q12.056215625,12.3205021875,12.083615625,12.3614421875Q12.111015625,12.4023921875,12.145815625,12.4372121875Q12.180615625,12.4720321875,12.221515625,12.4993921875Q12.262515625,12.5267521875,12.308015625,12.5456021875Q12.353515625,12.5644421875,12.401815625,12.5740521875Q12.450115625,12.5836621875,12.499315625,12.5836621875Q12.548615625,12.5836621875,12.596915625,12.5740521875Q12.645215625,12.5644421875,12.690715625,12.5456021875Q12.736215625,12.5267521875,12.777115625,12.4993921875Q12.818115625,12.4720321875,12.852915625,12.4372121875Q12.887715625,12.4023921875,12.915115625,12.3614421875Q12.942415625,12.3205021875,12.961315625,12.2750021875Q12.980115625,12.2295021875,12.989715625,12.1812021875Q12.999315625,12.132902187500001,12.999315625,12.0836621875L12.999315625,12.0826821875L12.999315625,7.0836621875Q12.999315625,7.0159421875,12.981315625,6.9506721875Q12.963315625,6.8854021875,12.928615625,6.827262187500001Q12.893915625,6.7691321875,12.844915625,6.7223321875Q12.796015625,6.6755221875,12.736415625,6.643422187500001L7.319735625,3.7267561875Q7.265095625,3.6973341875,7.204915625,3.6821631875Q7.144735625,3.6669921875,7.082685625,3.6669921875Q7.020625625,3.6669921875,6.960445625,3.6821631875Q6.900275625,3.6973341875,6.845635625,3.7267561875L1.428965625,6.643422187500001Q1.369346625,6.6755221875,1.320413625,6.7223321875Q1.271479625,6.7691321875,1.236757625,6.827262187500001Q1.202035625,6.8854021875,1.184025625,6.9506721875Q1.166015625,7.0159421875,1.166015625,7.0836621875L1.166015625,13.7503221875Q1.166015625,13.8180421875,1.184025625,13.8833121875Q1.202035625,13.9485821875,1.236757625,14.0067221875Q1.271479625,14.0648521875,1.320413625,14.1116521875Q1.369346625,14.1584621875,1.428965625,14.1905921875L6.845155625,17.106992187499998L6.845635625,17.1071921875Q6.956625625,17.1669921875,7.082685625,17.1669921875Q7.131925625,17.1669921875,7.180225625,17.1573921875Q7.228525625,17.147792187500002,7.274025625,17.1288921875Q7.319515625,17.1100921875,7.360465625,17.0826921875Q7.401415625,17.0553921875,7.436235625,17.0205921875Q7.471055625,16.9856921875,7.498415625,16.9447921875Q7.525775625,16.903792187500002,7.544615625,16.8582921875Q7.563465625,16.8127921875,7.573075625,16.7644921875Q7.582685625,16.7161921875,7.582685625,16.6669921875Q7.582685625,16.599292187499998,7.564675625,16.5339921875Q7.546665625,16.4686921875,7.511935625,16.4105921875Q7.477215625,16.352492187499998,7.428285625,16.3056921875Q7.379355625,16.258892187500003,7.319735625,16.2267921875L2.166015625,13.4516821875L2.166015625,7.382302187500001L7.082685625,4.7348701875L11.999315625,7.382302187500001Z" fill-rule="evenodd" fill="" fill-opacity="1" style="mix-blend-mode:passthrough"/></g><g><path d="M12.738094375,2.8929868125000002L18.154384375,5.809437812500001Q18.213984375000003,5.8415378125,18.262884375,5.8883478125Q18.311884374999998,5.9351478125,18.346584375,5.993277812500001Q18.381284375,6.0514178125,18.399284375,6.1166878125Q18.417284375,6.1819578125,18.417284375,6.2496778125L18.417284375,12.9163378125Q18.417284375,12.9840478125,18.399284375,13.0493278125Q18.381284375,13.1145978125,18.346584375,13.1727378125Q18.311884374999998,13.2308678125,18.262884375,13.2776678125Q18.213984375000003,13.3244678125,18.154384375,13.3566078125L12.737704375,16.2732078125Q12.683064375,16.3027078125,12.622884375,16.3178078125Q12.562704375,16.3330078125,12.500654375,16.3330078125Q12.438594375000001,16.3330078125,12.378414375,16.3178078125Q12.318244374999999,16.3027078125,12.263604375,16.2732078125L6.846934375,13.3566078125Q6.787315375,13.3244678125,6.738382375,13.2776678125Q6.689448375,13.2308678125,6.654726375,13.1727378125Q6.620004375,13.1145978125,6.601994375,13.0493278125Q6.583984375,12.9840478125,6.583984375,12.9163378125L6.583984375,7.9163378125Q6.583984375,7.8670978125,6.593591375,7.8187978125Q6.603199375,7.7704978125,6.622044375,7.7249978125Q6.640890375,7.6794978125,6.668249375,7.6385578125Q6.695609375,7.5976078125,6.730431375,7.5627878125Q6.765253375,7.5279678125,6.806199375,7.5006078125Q6.847145375,7.4732478125,6.892642375,7.4543978125Q6.938139375,7.4355578125,6.986439275,7.4259478125Q7.034738675,7.4163378125,7.083984375,7.4163378125Q7.133230075,7.4163378125,7.181529475,7.4259478125Q7.229829375,7.4355578125,7.275326375,7.4543978125Q7.320823375,7.4732478125,7.361769375,7.5006078125Q7.402715375,7.5279678125,7.437537375,7.5627878125Q7.472359375,7.5976078125,7.499719375,7.6385578125Q7.527078375,7.6794978125,7.545924375,7.7249978125Q7.564769375,7.7704978125,7.574377375,7.8187978125Q7.583984375,7.8670978125,7.583984375,7.9163378125L7.583984375,12.6176878125L12.500654375,15.2651078125L17.417284375,12.6176878125L17.417284375,6.548317812500001L12.263604375,3.7732428125Q12.203984375000001,3.7411408125,12.155044375,3.6943368125Q12.106114375,3.6475338125,12.071394375,3.5894008125Q12.036674375,3.5312688125,12.018664375,3.4659948125Q12.000654375,3.4007207125,12.000654375,3.3330078125Q12.000654375,3.2837621125,12.010254374999999,3.2354627125Q12.019864375000001,3.1871628125,12.038714375,3.1416658125Q12.057554374999999,3.0961688125,12.084914375,3.0552228125Q12.112274375,3.0142768125,12.147094375,2.9794548125Q12.181924375000001,2.9446328125,12.222864375,2.9172728125Q12.263814374999999,2.8899138125,12.309314375,2.8710678124999998Q12.354804375,2.8522228125,12.403104375,2.8426148125Q12.451404375,2.8330078125,12.500654375,2.8330078125Q12.626714374999999,2.8330078125,12.737704375,2.8927718125L12.738094375,2.8929868125000002Z" fill-rule="evenodd" fill="" fill-opacity="1" style="mix-blend-mode:passthrough"/></g></g></svg>
