<svg xmlns="http://www.w3.org/2000/svg" xmlns:xlink="http://www.w3.org/1999/xlink" fill="" version="1.1" width="20" height="20" viewBox="0 0 20 20"><g><g><rect x="0" y="0" width="20" height="20" rx="0" fill="#D8D8D8" fill-opacity="0"/></g><g><g><rect x="2.859570324420929" y="3.940527379512787" width="3.3000000715255737" height="3.3000000715255737" rx="0" fill-opacity="0" stroke-opacity="1" stroke="#9A9CAC" fill="none" stroke-width="1.100000023841858"/></g><g><rect x="12.759569942951202" y="13.840527355670929" width="3.3000000715255737" height="3.3000000715255737" rx="0" fill-opacity="0" stroke-opacity="1" stroke="#9A9CAC" fill="none" stroke-width="1.100000023841858"/></g><g transform="matrix(0.7025984525680542,0.7115865349769592,-0.7115865349769592,0.7025984525680542,5.92124719946878,-9.586591225277516)"><rect x="14.979443371295929" y="2.840527355670929" width="3.2999991178512573" height="3.2999991178512573" rx="0" fill-opacity="0" stroke-opacity="1" stroke="#9A9CAC" fill="none" stroke-width="1.100000023841858"/></g><g><path d="M7.1451703125,15.490529110717773Q7.1451703125,15.609309110717774,7.1335203125,15.727509110717774Q7.1218803125,15.845719110717774,7.0987103125,15.962219110717774Q7.0755303125,16.078709110717774,7.0410603125,16.192379110717773Q7.0065803125,16.306039110717773,6.9611203125,16.41577911071777Q6.9156703125,16.525519110717774,6.8596703125,16.630269110717773Q6.8036803125,16.735019110717772,6.7376903125,16.833779110717774Q6.6717003125,16.932539110717773,6.5963503125,17.024359110717775Q6.5210003125,17.116179110717773,6.4370103125,17.200169110717773Q6.3530203125,17.284159110717773,6.2612003125,17.359509110717774Q6.1693803124999995,17.434859110717774,6.0706203125,17.500849110717773Q5.9718603125000005,17.566839110717773,5.8671103124999995,17.622829110717774Q5.7623603125,17.67882911071777,5.6526203125,17.724279110717774Q5.5428803124999995,17.769739110717772,5.4292203125,17.804219110717774Q5.3155503125,17.838699110717773,5.1990603125,17.861869110717773Q5.0825603125,17.885039110717774,4.964350312500001,17.896679110717773Q4.8461503125,17.908329110717773,4.7273703125,17.908329110717773Q4.6085903125000005,17.908329110717773,4.4903803125,17.896679110717773Q4.3721703125,17.885039110717774,4.2556803125,17.861869110717773Q4.1391803125,17.838689110717773,4.0255203125,17.804219110717774Q3.9118503125,17.769739110717772,3.8021203125,17.724279110717774Q3.6923803125,17.67882911071777,3.5876303125,17.622829110717774Q3.4828703125000002,17.566839110717773,3.3841103125,17.500849110717773Q3.2853503125,17.434859110717774,3.1935333125,17.359509110717774Q3.1017163125,17.284159110717773,3.0177263125,17.200169110717773Q2.9337373125,17.116179110717773,2.8583853125000003,17.024359110717775Q2.7830323125,16.932539110717773,2.7170423125,16.833779110717774Q2.6510523125,16.735019110717772,2.5950603125000002,16.630269110717773Q2.5390693125,16.525519110717774,2.4936143125,16.41577911071777Q2.4481593125,16.306039110717773,2.4136803125,16.192379110717773Q2.3792002125,16.078709110717774,2.3560276125,15.962219110717774Q2.3328550125,15.845719110717774,2.3212127125,15.727509110717774Q2.3095703125,15.609309110717774,2.3095703125,15.490529110717773Q2.3095703125,15.371749110717774,2.3212127125,15.253539110717774Q2.3328550125,15.135329110717773,2.3560276125,15.018839110717774Q2.3792002125,14.902339110717774,2.4136803125,14.788679110717773Q2.4481593125,14.675009110717774,2.4936143125,14.565279110717773Q2.5390693125,14.455539110717773,2.5950603125000002,14.350789110717773Q2.6510523125,14.246029110717773,2.7170423125,14.147269110717774Q2.7830323125,14.048509110717774,2.8583853125000003,13.956692110717773Q2.9337373125,13.864875110717774,3.0177263125,13.780885110717774Q3.1017163125,13.696896110717773,3.1935333125,13.621544110717773Q3.2853503125,13.546191110717773,3.3841103125,13.480201110717774Q3.4828703125000002,13.414211110717773,3.5876303125,13.358219110717773Q3.6923803125,13.302228110717774,3.8021203125,13.256773110717774Q3.9118503125,13.211318110717773,4.0255203125,13.176839110717774Q4.1391803125,13.142359010717774,4.2556803125,13.119186410717774Q4.372180312499999,13.096013810717773,4.4903803125,13.084371510717773Q4.6085903125000005,13.072729110717773,4.7273703125,13.072729110717773Q4.8461503125,13.072729110717773,4.964350312500001,13.084371510717773Q5.0825603125,13.096013810717773,5.1990603125,13.119186410717774Q5.3155503125,13.142359010717774,5.4292203125,13.176839110717774Q5.5428803124999995,13.211318110717773,5.6526203125,13.256773110717774Q5.7623603125,13.302228110717774,5.8671103124999995,13.358219110717773Q5.9718603125000005,13.414211110717773,6.0706203125,13.480201110717774Q6.1693803124999995,13.546191110717773,6.2612003125,13.621544110717773Q6.3530203125,13.696896110717773,6.4370103125,13.780885110717774Q6.5210003125,13.864875110717774,6.5963503125,13.956692110717773Q6.6717003125,14.048509110717774,6.7376903125,14.147269110717774Q6.8036803125,14.246029110717773,6.8596703125,14.350789110717773Q6.9156703125,14.455539110717773,6.9611203125,14.565279110717773Q7.0065803125,14.675009110717774,7.0410603125,14.788679110717773Q7.0755403125,14.902339110717774,7.0987103125,15.018839110717774Q7.1218803125,15.135339110717773,7.1335203125,15.253539110717774Q7.1451703125,15.371749110717774,7.1451703125,15.490529110717773ZM6.0451703125,15.490529110717773Q6.0451703125,15.425789110717773,6.0388203125,15.361359110717773Q6.0324703125,15.296929110717773,6.0198403124999995,15.233439110717773Q6.0072103125,15.169939110717774,5.988420312500001,15.107989110717774Q5.9696303125,15.046039110717773,5.9448503125,14.986229110717773Q5.9200803125,14.926419110717774,5.8895603125000004,14.869319110717774Q5.8590403124999995,14.812229110717773,5.8230803125,14.758399110717773Q5.787110312499999,14.704569110717774,5.7460403125,14.654529110717773Q5.7049703125,14.604479110717774,5.6591903125,14.558699110717773Q5.6134103125,14.512929110717774,5.5633703125,14.471859110717773Q5.5133303125,14.430789110717773,5.4595003124999995,14.394819110717773Q5.4056703125,14.358849110717774,5.3485703125,14.328329110717773Q5.2914803125,14.297819110717773,5.2316703125,14.273039110717773Q5.1718603125,14.248269110717773,5.109900312500001,14.229469110717773Q5.047950312499999,14.210679110717773,4.9844603124999995,14.198049110717774Q4.9209603125,14.185419110717774,4.8565303125,14.179079110717772Q4.7921103125,14.172729110717773,4.7273703125,14.172729110717773Q4.6626303125,14.172729110717773,4.5982003124999995,14.179079110717772Q4.5337703125,14.185419110717774,4.4702803125,14.198049110717774Q4.4067803125000005,14.210679110717773,4.3448303125,14.229469110717773Q4.2828803125,14.248269110717773,4.2230703125,14.273039110717773Q4.1632603125,14.297819110717773,4.1061603125,14.328329110717773Q4.0490703125,14.358849110717774,3.9952403125,14.394819110717773Q3.9414103125,14.430789110717773,3.8913703125000003,14.471859110717773Q3.8413203124999997,14.512929110717774,3.7955403125,14.558699110717773Q3.7497703125,14.604479110717774,3.7087003125,14.654529110717773Q3.6676303125,14.704569110717774,3.6316603125,14.758399110717773Q3.5956903125,14.812229110717773,3.5651703125000003,14.869319110717774Q3.5346603125,14.926419110717774,3.5098803125,14.986229110717773Q3.4851103125,15.046039110717773,3.4663103125,15.107989110717774Q3.4475203125,15.169939110717774,3.4348903125000003,15.233439110717773Q3.4222603124999997,15.296929110717773,3.4159203125,15.361359110717773Q3.4095703125,15.425789110717773,3.4095703125,15.490529110717773Q3.4095703125,15.555269110717774,3.4159203125,15.619689110717774Q3.4222603124999997,15.684119110717774,3.4348903125000003,15.747619110717773Q3.4475203125,15.811109110717773,3.4663103125,15.873059110717774Q3.4851103125,15.935019110717773,3.5098803125,15.994829110717774Q3.5346603125,16.054639110717773,3.5651703125000003,16.111729110717775Q3.5956903125,16.168829110717773,3.6316603125,16.222659110717775Q3.6676303125,16.276489110717772,3.7087003125,16.32652911071777Q3.7497703125,16.376569110717774,3.7955403125,16.422349110717775Q3.8413203124999997,16.468129110717772,3.8913703125000003,16.509199110717773Q3.9414103125,16.550269110717775,3.9952403125,16.586239110717774Q4.0490703125,16.622199110717773,4.1061603125,16.652719110717772Q4.1632603125,16.683239110717775,4.2230703125,16.708009110717775Q4.2828803125,16.732789110717775,4.3448303125,16.751579110717774Q4.4067803125000005,16.770369110717773,4.4702803125,16.782999110717775Q4.5337703125,16.795629110717773,4.5982003124999995,16.801979110717774Q4.6626303125,16.80832911071777,4.7273703125,16.80832911071777Q4.7921103125,16.80832911071777,4.8565303125,16.801979110717774Q4.9209603125,16.795629110717773,4.9844603124999995,16.782999110717775Q5.047950312499999,16.770369110717773,5.109900312500001,16.751579110717774Q5.1718603125,16.732789110717775,5.2316703125,16.708009110717775Q5.2914803125,16.683239110717775,5.3485703125,16.652719110717772Q5.4056703125,16.622199110717773,5.4595003124999995,16.586239110717774Q5.5133303125,16.550269110717775,5.5633703125,16.509199110717773Q5.6134103125,16.468129110717772,5.6591903125,16.422349110717775Q5.7049703125,16.376569110717774,5.7460403125,16.32652911071777Q5.787110312499999,16.276489110717772,5.8230803125,16.222659110717775Q5.8590403124999995,16.168829110717773,5.8895603125000004,16.111729110717775Q5.9200803125,16.054639110717773,5.9448503125,15.994829110717774Q5.9696303125,15.935019110717773,5.988420312500001,15.873059110717774Q6.0072103125,15.811109110717773,6.0198403124999995,15.747619110717773Q6.0324703125,15.684119110717774,6.0388203125,15.619689110717774Q6.0451703125,15.555269110717774,6.0451703125,15.490529110717773Z" fill="" fill-opacity="1"/></g><g><rect x="6.709570407867432" y="4.930420160293579" width="5.5" height="1.100000023841858" rx="0" fill="" fill-opacity="1"/></g><g><rect x="6.500634670257568" y="14.830418586730957" width="6.163330554962158" height="1.100000023841858" rx="0" fill="" fill-opacity="1"/></g><g transform="matrix(0,1,-1,0,22.477783203125,-7.66157341003418)"><rect x="15.06967830657959" y="7.40810489654541" width="6.392139911651611" height="1.100000023841858" rx="0" fill="" fill-opacity="1"/></g></g></g></svg>
