<svg xmlns="http://www.w3.org/2000/svg" xmlns:xlink="http://www.w3.org/1999/xlink" fill="" version="1.1" width="20" height="20" viewBox="0 0 20 20"><defs><clipPath id="master_svg0_69_06180"><rect x="0" y="0" width="20" height="20" rx="0"/></clipPath></defs><g clip-path="url(#master_svg0_69_06180)"><g><path d="M9.5,12.5Q9.5,12.4507543,9.509607,12.4024549Q9.519214999999999,12.354155,9.53806,12.308658Q9.556906,12.263161,9.584265,12.222215Q9.611625,12.181269,9.646447,12.146447Q9.681269,12.111625,9.722215,12.084265Q9.763161,12.056906,9.808658,12.03806Q9.854155,12.019214999999999,9.9024549,12.009607Q9.9507543,12,10,12Q10.0492457,12,10.0975451,12.009607Q10.145845,12.019214999999999,10.191342,12.03806Q10.236839,12.056906,10.277785,12.084265Q10.318731,12.111625,10.353553,12.146447Q10.388375,12.181269,10.415735,12.222215Q10.443094,12.263161,10.46194,12.308658Q10.480785000000001,12.354155,10.490393,12.4024549Q10.5,12.4507543,10.5,12.5L10.5,15Q10.5,15.04925,10.490393,15.09754Q10.480785000000001,15.14584,10.46194,15.19134Q10.443094,15.23684,10.415735,15.27778Q10.388375,15.31873,10.353553,15.35355Q10.318731,15.38837,10.277785,15.41573Q10.236839,15.44309,10.191342,15.46194Q10.145845,15.48078,10.0975451,15.49039Q10.0492457,15.5,10,15.5Q9.9507543,15.5,9.9024549,15.49039Q9.854155,15.48078,9.808658,15.46194Q9.763161,15.44309,9.722215,15.41573Q9.681269,15.38837,9.646447,15.35355Q9.611625,15.31873,9.584265,15.27778Q9.556906,15.23684,9.53806,15.19134Q9.519214999999999,15.14584,9.509607,15.09754Q9.5,15.04925,9.5,15L9.5,12.5Z" fill-rule="evenodd" fill="" fill-opacity="1" style="mix-blend-mode:passthrough"/></g><g><path d="M2.5,16.1669921875L8.33333,16.1669921875Q8.38258,16.1669921875,8.43088,16.1765991875Q8.47918,16.1862071875,8.52467,16.2050521875Q8.570170000000001,16.2238981875,8.61112,16.2512571875Q8.652059999999999,16.2786171875,8.68689,16.3134391875Q8.72171,16.3482611875,8.74907,16.3892071875Q8.776430000000001,16.4301531875,8.79527,16.4756501875Q8.814119999999999,16.5211471875,8.823730000000001,16.5694470875Q8.83333,16.6177464875,8.83333,16.6669921875Q8.83333,16.7162378875,8.823730000000001,16.7645372875Q8.814119999999999,16.8128371875,8.79527,16.8583341875Q8.776430000000001,16.9038311875,8.74907,16.9447771875Q8.72171,16.9857231875,8.68689,17.0205451875Q8.652059999999999,17.0553671875,8.61112,17.0827271875Q8.570170000000001,17.1100861875,8.52467,17.1289321875Q8.47918,17.1477771875,8.43088,17.1573851875Q8.38258,17.1669921875,8.33333,17.1669921875L2.5,17.1669921875Q2.4507543,17.1669921875,2.4024549,17.1573851875Q2.354155,17.1477771875,2.308658,17.1289321875Q2.263161,17.1100861875,2.222215,17.0827271875Q2.181269,17.0553671875,2.146447,17.0205451875Q2.111625,16.9857231875,2.084265,16.9447771875Q2.056906,16.9038311875,2.0380599999999998,16.8583341875Q2.019215,16.8128371875,2.009607,16.7645372875Q2,16.7162378875,2,16.6669921875Q2,16.6177464875,2.009607,16.5694470875Q2.019215,16.5211471875,2.0380599999999998,16.4756501875Q2.056906,16.4301531875,2.084265,16.3892071875Q2.111625,16.3482611875,2.146447,16.3134391875Q2.181269,16.2786171875,2.222215,16.2512571875Q2.263161,16.2238981875,2.308658,16.2050521875Q2.354155,16.1862071875,2.4024549,16.1765991875Q2.4507543,16.1669921875,2.5,16.1669921875Z" fill-rule="evenodd" fill="" fill-opacity="1" style="mix-blend-mode:passthrough"/></g><g><path d="M11.666015625,16.1669921875L17.499345625,16.1669921875Q17.548595625,16.1669921875,17.596895625000002,16.1765991875Q17.645195625,16.1862071875,17.690685625,16.2050521875Q17.736185625,16.2238981875,17.777135625,16.2512571875Q17.818075625,16.2786171875,17.852905625,16.3134391875Q17.887725625,16.3482611875,17.915085625,16.3892071875Q17.942445625,16.4301531875,17.961285625000002,16.4756501875Q17.980135625,16.5211471875,17.989745625,16.5694470875Q17.999345625,16.6177464875,17.999345625,16.6669921875Q17.999345625,16.7162378875,17.989745625,16.7645372875Q17.980135625,16.8128371875,17.961285625000002,16.8583341875Q17.942445625,16.9038311875,17.915085625,16.9447771875Q17.887725625,16.9857231875,17.852905625,17.0205451875Q17.818075625,17.0553671875,17.777135625,17.0827271875Q17.736185625,17.1100861875,17.690685625,17.1289321875Q17.645195625,17.1477771875,17.596895625000002,17.1573851875Q17.548595625,17.1669921875,17.499345625,17.1669921875L11.666015625,17.1669921875Q11.616769925,17.1669921875,11.568470525,17.1573851875Q11.520170625,17.1477771875,11.474673625,17.1289321875Q11.429176625,17.1100861875,11.388230625,17.0827271875Q11.347284625,17.0553671875,11.312462625,17.0205451875Q11.277640625,16.9857231875,11.250280625,16.9447771875Q11.222921625,16.9038311875,11.204075625,16.8583341875Q11.185230624999999,16.8128371875,11.175622625,16.7645372875Q11.166015625,16.7162378875,11.166015625,16.6669921875Q11.166015625,16.6177464875,11.175622625,16.5694470875Q11.185230624999999,16.5211471875,11.204075625,16.4756501875Q11.222921625,16.4301531875,11.250280625,16.3892071875Q11.277640625,16.3482611875,11.312462625,16.3134391875Q11.347284625,16.2786171875,11.388230625,16.2512571875Q11.429176625,16.2238981875,11.474673625,16.2050521875Q11.520170625,16.1862071875,11.568470525,16.1765991875Q11.616769925,16.1669921875,11.666015625,16.1669921875Z" fill-rule="evenodd" fill="" fill-opacity="1" style="mix-blend-mode:passthrough"/></g><g><path d="M11.532714375,15.134608Q10.898104374999999,14.5,10.000654375,14.5Q9.103200375,14.5,8.468592375,15.134608Q7.833984375,15.769216,7.833984375,16.66667Q7.833984375,17.56412,8.468592375,18.19873Q9.103200375,18.83333,10.000654375,18.83333Q10.898104374999999,18.83333,11.532714375,18.19873Q12.167314375,17.56412,12.167314375,16.66667Q12.167314375,15.769216,11.532714375,15.134608ZM9.175699375,15.841715Q9.517414375,15.5,10.000654375,15.5Q10.483884375,15.5,10.825604375000001,15.841715Q11.167314375,16.18343,11.167314375,16.66667Q11.167314375,17.1499,10.825604375000001,17.49162Q10.483884375,17.83333,10.000654375,17.83333Q9.517414375,17.83333,9.175699375,17.49162Q8.833984375,17.1499,8.833984375,16.66667Q8.833984375,16.18343,9.175699375,15.841715Z" fill-rule="evenodd" fill="" fill-opacity="1" style="mix-blend-mode:passthrough"/></g><g><path d="M3.25,3.75Q3.25,3.7007543,3.259607,3.6524549Q3.269215,3.604155,3.2880599999999998,3.558658Q3.306906,3.513161,3.334265,3.472215Q3.361625,3.431269,3.396447,3.396447Q3.431269,3.361625,3.472215,3.334265Q3.513161,3.306906,3.558658,3.2880599999999998Q3.604155,3.269215,3.6524549,3.259607Q3.7007543,3.25,3.75,3.25Q3.7992457,3.25,3.8475451,3.259607Q3.895845,3.269215,3.941342,3.2880599999999998Q3.986839,3.306906,4.027785,3.334265Q4.068731,3.361625,4.103553,3.396447Q4.138375,3.431269,4.165735,3.472215Q4.193094,3.513161,4.21194,3.558658Q4.230785,3.604155,4.240393,3.6524549Q4.25,3.7007543,4.25,3.75L4.25,10.41667Q4.25,10.919229999999999,5.73869,11.41546Q7.4923,12,10,12Q12.5077,12,14.2613,11.41546Q15.75,10.919229999999999,15.75,10.41666L15.75,3.75Q15.75,3.7007543,15.7596,3.6524549Q15.7692,3.604155,15.7881,3.558658Q15.8069,3.513161,15.8343,3.472215Q15.8616,3.431269,15.8964,3.396447Q15.9313,3.361625,15.9722,3.334265Q16.013199999999998,3.306906,16.0587,3.2880599999999998Q16.1042,3.269215,16.1525,3.259607Q16.2008,3.25,16.25,3.25Q16.2992,3.25,16.3475,3.259607Q16.3958,3.269215,16.4413,3.2880599999999998Q16.486800000000002,3.306906,16.5278,3.334265Q16.5687,3.361625,16.6036,3.396447Q16.6384,3.431269,16.6657,3.472215Q16.6931,3.513161,16.7119,3.558658Q16.730800000000002,3.604155,16.7404,3.6524549Q16.75,3.7007543,16.75,3.75L16.75,10.41666Q16.75,11.639980000000001,14.5775,12.36414Q12.66997,13,10,13Q7.33002,13,5.42246,12.36414Q3.25,11.639980000000001,3.25,10.41667L3.25,3.75Z" fill-rule="evenodd" fill="" fill-opacity="1" style="mix-blend-mode:passthrough"/></g><g><path d="M3.25,7.0830078125Q3.25,7.0337621125,3.259607,6.9854627125Q3.269215,6.9371628125,3.2880599999999998,6.8916658125Q3.306906,6.8461688125,3.334265,6.8052228125Q3.361625,6.7642768125,3.396447,6.7294548125Q3.431269,6.6946328125,3.472215,6.6672728125Q3.513161,6.6399138125,3.558658,6.6210678125Q3.604155,6.6022228125,3.6524549,6.5926148125Q3.7007543,6.5830078125,3.75,6.5830078125Q3.7992457,6.5830078125,3.8475451,6.5926148125Q3.895845,6.6022228125,3.941342,6.6210678125Q3.986839,6.6399138125,4.027785,6.6672728125Q4.068731,6.6946328125,4.103553,6.7294548125Q4.138375,6.7642768125,4.165735,6.8052228125Q4.193094,6.8461688125,4.21194,6.8916658125Q4.230785,6.9371628125,4.240393,6.9854627125Q4.25,7.0337621125,4.25,7.0830078125Q4.25,7.2642928125,4.550642,7.5012258124999995Q4.95648,7.8210638125,5.73869,8.0818018125Q7.4923,8.6663378125,10,8.6663378125Q12.5077,8.6663378125,14.2613,8.0818018125Q15.0435,7.8210638125,15.4494,7.5012258124999995Q15.7496,7.2646448125,15.75,7.0835465425L15.75,7.0830078125Q15.75,7.0337621125,15.7596,6.9854627125Q15.7692,6.9371628125,15.7881,6.8916658125Q15.8069,6.8461688125,15.8343,6.8052228125Q15.8616,6.7642768125,15.8964,6.7294548125Q15.9313,6.6946328125,15.9722,6.6672728125Q16.013199999999998,6.6399138125,16.0587,6.6210678125Q16.1042,6.6022228125,16.1525,6.5926148125Q16.2008,6.5830078125,16.25,6.5830078125Q16.2992,6.5830078125,16.3475,6.5926148125Q16.3958,6.6022228125,16.4413,6.6210678125Q16.486800000000002,6.6399138125,16.5278,6.6672728125Q16.5687,6.6946328125,16.6036,6.7294548125Q16.6384,6.7642768125,16.6657,6.8052228125Q16.6931,6.8461688125,16.7119,6.8916658125Q16.730800000000002,6.9371628125,16.7404,6.9854627125Q16.75,7.0337621125,16.75,7.0830078125Q16.75,7.7494218125,16.0683,8.2866378125Q15.5254,8.7145378125,14.5775,9.0304878125Q12.66997,9.6663378125,10,9.6663378125Q7.33002,9.6663378125,5.42246,9.0304878125Q4.474627,8.7145378125,3.931667,8.2866378125Q3.25,7.7494218125,3.25,7.0830078125Z" fill-rule="evenodd" fill="" fill-opacity="1" style="mix-blend-mode:passthrough"/></g><g></g><g></g><g><path d="M14.5775,1.8028451875Q12.66998,1.1669921875,10,1.1669921875Q7.33002,1.1669921875,5.42246,1.8028451875Q3.25,2.5270011875,3.25,3.7503221875Q3.250001,4.973642187499999,5.42246,5.6978021875Q7.33003,6.3336621875,10,6.3336621875Q12.66998,6.3336621875,14.5775,5.6978021875Q16.75,4.973642187499999,16.75,3.7503221875Q16.75,2.5270011875,14.5775,1.8028451875ZM5.73869,2.7515321875Q7.4923,2.1669921875,10,2.1669921875Q12.5077,2.1669921875,14.2613,2.7515321875Q15.0435,3.0122621875,15.4494,3.3321021875000003Q15.75,3.5690321875,15.75,3.7503221875Q15.75,3.9316121875,15.4494,4.1685421875Q15.0435,4.4883821875,14.2613,4.749122187499999Q12.5077,5.3336621875,10,5.3336621875Q7.4923,5.3336621875,5.73869,4.749122187499999Q4.95648,4.4883821875,4.550641,4.1685421875Q4.25,3.9316121875,4.25,3.7503221875Q4.25,3.5690321875,4.550642,3.3321021875000003Q4.95648,3.0122621875,5.73869,2.7515321875Z" fill-rule="evenodd" fill="" fill-opacity="1" style="mix-blend-mode:passthrough"/></g><g><path d="M14.5775,1.8028451875Q12.66998,1.1669921875,10,1.1669921875Q7.33002,1.1669921875,5.42246,1.8028451875Q3.25,2.5270011875,3.25,3.7503221875Q3.250001,4.973642187499999,5.42246,5.6978021875Q7.33003,6.3336621875,10,6.3336621875Q12.66998,6.3336621875,14.5775,5.6978021875Q16.75,4.973642187499999,16.75,3.7503221875Q16.75,2.5270011875,14.5775,1.8028451875ZM5.73869,2.7515321875Q7.4923,2.1669921875,10,2.1669921875Q12.5077,2.1669921875,14.2613,2.7515321875Q15.0435,3.0122621875,15.4494,3.3321021875000003Q15.75,3.5690321875,15.75,3.7503221875Q15.75,3.9316121875,15.4494,4.1685421875Q15.0435,4.4883821875,14.2613,4.749122187499999Q12.5077,5.3336621875,10,5.3336621875Q7.4923,5.3336621875,5.73869,4.749122187499999Q4.95648,4.4883821875,4.550641,4.1685421875Q4.25,3.9316121875,4.25,3.7503221875Q4.25,3.5690321875,4.550642,3.3321021875000003Q4.95648,3.0122621875,5.73869,2.7515321875Z" fill-rule="evenodd" fill="" fill-opacity="1" style="mix-blend-mode:passthrough"/></g></g></svg>
