<?xml version="1.0" standalone="no"?><!DOCTYPE svg PUBLIC "-//W3C//DTD SVG 1.1//EN" "http://www.w3.org/Graphics/SVG/1.1/DTD/svg11.dtd"><svg t="1739871118925" class="icon" viewBox="0 0 1024 1024" version="1.1" xmlns="http://www.w3.org/2000/svg" p-id="11114" xmlns:xlink="http://www.w3.org/1999/xlink" width="200" height="200"><path d="M512.256 0c141.376 0 269.568 57.28 361.728 149.952C966.72 242.752 1024 370.944 1024 512.256c0 141.44-57.28 268.992-150.016 361.728C781.824 966.72 653.632 1024 512.256 1024s-269.568-57.28-362.24-150.016C57.216 781.248 0 653.632 0 512.256c0-83.008 19.776-161.6 54.72-230.528C80.576 226.496 116.48 178.368 162.624 136.832c12.672-11.648 26.304-22.848 40.512-32.96 32.896-25.344 68.928-46.08 107.392-62.784 5.568-2.56 11.648-5.12 17.216-7.68 1.024-0.448 1.984-0.96 2.56-0.96 2.56-1.024 4.608-1.536 6.592-1.536C391.68 11.2 450.432 0 512.256 0L512.256 0zM838.528 185.472c-83.584-83.648-199.104-135.232-326.272-135.232-48.64 0-95.744 7.616-139.84 21.76 8.64 21.312 17.728 43.072 27.328 64.832 12.16 28.864 24.832 57.792 36.48 89.088 0 0.512 0.512 1.024 0.512 1.6C441.792 240.704 435.776 255.424 423.04 260.48l0 0C388.096 274.112 360.256 292.416 337.472 313.664 315.648 334.4 298.944 358.72 285.248 385.088c0 0.448-0.512 1.472-0.512 1.984C278.656 399.296 263.424 404.864 250.816 398.784L250.816 398.272C221.44 384.064 190.528 370.368 160.128 357.248 136.32 347.072 112.448 336.96 89.216 326.272c-24.832 56.768-39.04 119.616-39.04 185.984 0 127.232 51.648 242.752 135.296 326.272 83.584 83.648 199.104 135.296 326.784 135.296 127.168 0 242.688-51.648 326.272-135.296 83.648-83.52 135.296-199.04 135.296-326.272C973.824 384.512 922.176 268.992 838.528 185.472L838.528 185.472zM185.472 185.472c-28.416 28.416-53.248 60.8-73.472 95.808C134.272 291.84 157.056 301.504 179.84 311.616 203.712 321.792 227.456 332.352 251.328 343.04c14.208-23.808 30.912-46.144 51.648-65.856C324.8 256.384 350.592 238.592 381.568 224 372.416 201.216 362.752 178.88 353.152 156.096 344 134.336 334.4 112.512 325.76 89.728 292.864 104.896 263.424 122.112 236.608 141.44 218.368 155.072 201.664 169.792 185.472 185.472L185.472 185.472zM512.256 448.896c17.216 0 32.96 7.104 44.544 18.752L539.072 485.376 556.8 467.648c0.512 0.512 1.024 1.024 1.472 1.536 10.688 11.136 16.768 26.368 16.768 43.072 0 17.28-7.104 32.96-18.24 44.608C556.352 557.376 555.776 557.824 554.816 558.336 543.616 568.512 528.448 575.104 512.256 575.104c-17.216 0-32.96-7.104-44.608-18.304l17.792-17.728L467.648 556.8l0 0C456 545.152 448.96 529.472 448.96 512.256c0-17.728 7.104-33.408 18.752-44.544C478.784 456.064 494.528 448.896 512.256 448.896L512.256 448.896zM512.256 335.424c48.64 0 92.736 19.712 124.672 51.648 31.872 32 51.648 76.032 51.648 125.184 0 48.64-19.776 92.736-51.648 124.608-31.936 32-76.032 51.712-124.672 51.712-48.64 0-93.248-19.712-125.184-51.712C355.2 604.928 335.424 560.896 335.424 512.256c0-49.152 19.776-93.184 51.648-125.184C419.008 355.136 463.552 335.424 512.256 335.424L512.256 335.424zM601.408 422.592C578.624 399.744 547.2 385.536 512.256 385.536c-35.008 0-66.432 14.144-89.728 36.992C399.744 445.376 385.6 477.312 385.6 512.256c0 35.008 14.144 66.368 36.992 89.216 23.296 22.848 54.72 36.992 89.728 36.992 34.944 0 66.368-14.144 89.152-36.992C624.192 578.56 638.4 547.264 638.4 512.256 638.4 477.312 624.192 445.376 601.408 422.592L601.408 422.592z" p-id="11115"></path></svg>