<svg xmlns="http://www.w3.org/2000/svg" xmlns:xlink="http://www.w3.org/1999/xlink" fill="none" version="1.1" width="20" height="20" viewBox="0 0 20 20"><defs><clipPath id="master_svg0_69_06202"><rect x="0" y="0" width="20" height="20" rx="0"/></clipPath></defs><g clip-path="url(#master_svg0_69_06202)"><g><path d="M8.468592375,8.4676158125Q7.833984375,9.1022238125,7.833984375,9.9996778125Q7.833984375,10.897127812499999,8.468592375,11.5317278125Q9.103200375,12.1663378125,10.000654375,12.1663378125Q10.898104374999999,12.1663378125,11.532704375,11.5317278125Q12.167314375,10.897127812499999,12.167314375,9.9996778125Q12.167314375,9.1022238125,11.532704375,8.4676158125Q10.898104374999999,7.8330078125,10.000654375,7.8330078125Q9.103200375,7.8330078125,8.468592375,8.4676158125ZM9.175699375,10.824627812500001Q8.833984375,10.4829078125,8.833984375,9.9996778125Q8.833984375,9.5164378125,9.175699375,9.1747228125Q9.517414375,8.8330078125,10.000654375,8.8330078125Q10.483884375,8.8330078125,10.825604375000001,9.1747228125Q11.167314375,9.5164378125,11.167314375,9.9996778125Q11.167314375,10.4829078125,10.825604375000001,10.824627812500001Q10.483884375,11.1663378125,10.000654375,11.1663378125Q9.517414375,11.1663378125,9.175699375,10.824627812500001Z" fill-rule="evenodd" fill="" fill-opacity="1" style="mix-blend-mode:passthrough"/></g><g><path d="M7.5115984375,6.2493848125Q7.5630684375,6.2151608125,7.6046684375,6.1694308125Q7.6462584375,6.1236998125,7.6754584375,6.0692168125Q7.7046584375,6.0147338125,7.7197184375,5.9547788125Q7.7347684375,5.8948239125,7.7347684375,5.8330078125Q7.7347684375,5.7837621125,7.7251684375,5.7354627125Q7.7155584375,5.6871628125,7.6967084375,5.6416658125Q7.6778684375,5.5961688125,7.6505084375,5.5552228125Q7.6231484375,5.5142768125,7.5883284374999995,5.4794548125Q7.5535084375,5.4446328125,7.5125584375,5.4172728125Q7.4716084375000005,5.3899138125,7.4261184375,5.3710678125Q7.3806184375,5.3522228125,7.3323184375,5.3426148125Q7.2840184375,5.3330078125,7.2347684375,5.3330078125Q7.0837284375,5.3330078125,6.9579484375,5.4166308125Q6.4957954375,5.7238878125,6.1037944375,6.1173388125Q5.6918364375,6.5306808125,5.3758344375,7.0201478125Q5.2958984375,7.1439678125,5.2958984375,7.2913378125Q5.2958984375,7.3405878125,5.3055054375,7.3888878125Q5.3151134375,7.4371878124999995,5.3339584375,7.4826878125Q5.3528044375,7.5281778125,5.3801634375,7.5691278125Q5.4075234375,7.6100778125,5.4423454375,7.6448978125Q5.4771674375,7.6797178125,5.5181134375,7.7070778125Q5.5590594375,7.7344378124999995,5.6045564375,7.7532778125Q5.6500534375,7.7721278125,5.6983533375,7.7817378125Q5.7466527375,7.7913378125,5.7958984375,7.7913378125Q5.8585684375,7.7913378125,5.9192994375,7.7758778125Q5.9800314375,7.7604078125000004,6.0350664375,7.7304278125Q6.0901014374999995,7.7004578125,6.1360364375,7.6578178125Q6.1819704375,7.6151878125,6.2159624375,7.5625378125000005Q6.4746804375,7.1617978125,6.8120884375,6.8232598125Q7.1330484375,6.5011088125,7.5112184375,6.2496338125L7.5115984375,6.2493848125L7.5115984375,6.2493848125Z" fill-rule="evenodd" fill="" fill-opacity="1" style="mix-blend-mode:passthrough"/></g><g><path d="M5.574083,9.182029375Q5.582292,9.137286575,5.582292,9.091796875Q5.582292,9.042551175,5.572685,8.994251775Q5.563077,8.945951875,5.544232,8.900454875Q5.525386,8.854957875,5.498027,8.814011875Q5.470667,8.773065875,5.435845,8.738243875Q5.401023,8.703421875,5.360077,8.676061875Q5.319131,8.648702875,5.273634,8.629856875Q5.228137,8.611011874999999,5.179837,8.601403875Q5.131538,8.591796875,5.082292,8.591796875Q5.0387657,8.591796875,4.99589422,8.599317875Q4.9530227,8.606838875,4.9120957,8.621654875Q4.871169,8.636470875,4.833417,8.658135875Q4.795666,8.679801875,4.762227,8.707663875Q4.728787,8.735526875,4.700665,8.768747875Q4.672542,8.801969875,4.650584,8.839550875Q4.6286249999999995,8.877131875,4.613491,8.917942875Q4.598356,8.958752875,4.590501,9.001564375Q4.5,9.494819875,4.5,10.000088875Q4.5,10.505056875,4.590401,10.998106875L4.590499,10.998646875Q4.598353,11.041456875,4.613487,11.082266875Q4.628621,11.123076875,4.6505790000000005,11.160656875Q4.672537,11.198246875,4.70066,11.231466875Q4.728782,11.264686875,4.762222,11.292546875Q4.795662,11.320416875,4.833413,11.342076875Q4.871165,11.363746875,4.9120928,11.378566875Q4.9530204,11.393376875,4.99589267,11.400896875Q5.0387649,11.408416875,5.082292,11.408426875Q5.131538,11.408416875,5.179837,11.398816875Q5.228137,11.389206875,5.273634,11.370356875Q5.319131,11.351516875,5.360077,11.324156875Q5.401023,11.296796875,5.435845,11.261976875Q5.470667,11.227156875,5.498027,11.186206875Q5.525386,11.145256875,5.544232,11.099766875Q5.563077,11.054266875,5.572685,11.005966875Q5.582292,10.957666875,5.582292,10.908426875Q5.582292,10.862936874999999,5.574085,10.818196875Q5.5,10.414366875,5.5,10.000088875Q5.5,9.585799875,5.574083,9.182029375Z" fill-rule="evenodd" fill="" fill-opacity="1" style="mix-blend-mode:passthrough"/></g><g><path d="M5.3758344375,12.9792028125Q5.2958984375,12.8553858125,5.2958984375,12.7080078125Q5.2958984375,12.6587621125,5.3055054375,12.6104627125Q5.3151134375,12.5621628125,5.3339584375,12.5166658125Q5.3528044375,12.4711688125,5.3801634375,12.4302228125Q5.4075234375,12.3892768125,5.4423454375,12.3544548125Q5.4771674375,12.3196328125,5.5181134375,12.2922728125Q5.5590594375,12.2649138125,5.6045564375,12.2460678125Q5.6500534375,12.227222812499999,5.6983533375,12.2176148125Q5.7466527375,12.2080078125,5.7958984375,12.2080078125Q5.8585684375,12.2080078125,5.9192994375,12.2234748125Q5.9800314375,12.2389418125,6.0350664375,12.2689198125Q6.0901014374999995,12.2988968125,6.1360364375,12.3415298125Q6.1819704375,12.3841618125,6.2159624375,12.4368128125Q6.4746794375,12.8375508125,6.8120884375,13.1760878125Q7.1332084375,13.4983978125,7.5115984375,13.7499678125Q7.5630684375,13.7841878125,7.6046684375,13.8299178125Q7.6462584375,13.8756478125,7.6754584375,13.9301278125Q7.7046584375,13.9846178125,7.7197184375,14.0445678125Q7.7347684375,14.1045278125,7.7347684375,14.1663378125Q7.7347684375,14.2155878125,7.7251684375,14.2638878125Q7.7155584375,14.3121878125,7.6967084375,14.3576778125Q7.6778684375,14.403177812500001,7.6505084375,14.4441278125Q7.6231484375,14.4850678125,7.5883284374999995,14.5198978125Q7.5535084375,14.5547178125,7.5125584375,14.5820778125Q7.4716084375000005,14.6094378125,7.4261184375,14.6282778125Q7.3806184375,14.647127812499999,7.3323184375,14.6567378125Q7.2840184375,14.6663378125,7.2347684375,14.6663378125Q7.0837284375,14.6663378125,6.9579484375,14.5827178125L6.9575584374999995,14.5824578125Q6.4956254375,14.2752878125,6.1037944375,13.8820078125Q5.6918354375,13.4686668125,5.3758344375,12.9792028125Z" fill-rule="evenodd" fill="" fill-opacity="1" style="mix-blend-mode:passthrough"/></g><g><path d="M9.1133744,14.4129683125Q9.549688,14.4999453125,9.998917,14.4999453125Q10.448105,14.4999453125,10.884415,14.4129683125Q10.932815,14.4033203125,10.982165,14.4033203125Q11.031414999999999,14.4033203125,11.079715,14.4129273125Q11.128015,14.422535312499999,11.173505,14.4413803125Q11.219005,14.4602263125,11.259955,14.4875853125Q11.300895,14.5149453125,11.335725,14.5497673125Q11.370545,14.5845893125,11.397905,14.6255353125Q11.425265,14.6664813125,11.444105,14.7119783125Q11.462955000000001,14.7574753125,11.472555,14.8057752125Q11.482165,14.8540746125,11.482165,14.9033203125Q11.482165,14.9463646125,11.474815,14.9887756125Q11.467455000000001,15.0311863125,11.452955,15.0717163125Q11.438455,15.1122463125,11.417245,15.1497013125Q11.396035,15.1871573125,11.368735000000001,15.2204363125Q11.341435,15.2537163125,11.308855,15.2818393125Q11.276265,15.3099633125,11.239355,15.3321043125Q11.202435,15.3542453125,11.162285,15.3697513125Q11.122135,15.3852573125,11.079915,15.3936723125Q10.546804999999999,15.4999453125,9.998917,15.4999453125Q9.451054,15.4999453125,8.9180067,15.3936983125L8.9178756,15.3936723125Q8.875662,15.3852573125,8.835508,15.3697523125Q8.795353,15.3542463125,8.75844,15.3321063125Q8.721527,15.3099653125,8.68894,15.2818413125Q8.656354,15.2537183125,8.629054,15.2204383125Q8.601754,15.1871593125,8.580543,15.1497033125Q8.559333,15.1122473125,8.544836,15.0717173125Q8.530339,15.0311873125,8.522982,14.9887764125Q8.515625,14.9463650125,8.515625,14.9033203125Q8.515625,14.8540746125,8.525232,14.8057752125Q8.534839999999999,14.7574753125,8.553685,14.7119783125Q8.572531,14.6664813125,8.59989,14.6255353125Q8.62725,14.5845893125,8.662072,14.5497673125Q8.696894,14.5149453125,8.73784,14.4875853125Q8.778786,14.4602263125,8.824283,14.4413803125Q8.86978,14.422535312499999,8.9180799,14.4129273125Q8.9663793,14.4033203125,9.015625,14.4033203125Q9.0649758,14.4033203125,9.1133744,14.4129683125Z" fill-rule="evenodd" fill="" fill-opacity="1" style="mix-blend-mode:passthrough"/></g><g><path d="M14.6235884375,12.9792028125Q14.7035284375,12.8553868125,14.7035284375,12.7080078125Q14.7035184375,12.6587621125,14.6939184375,12.6104627125Q14.6843084375,12.5621628125,14.6654584375,12.5166658125Q14.646618437499999,12.4711688125,14.619258437500001,12.4302228125Q14.5918984375,12.3892768125,14.5570784375,12.3544548125Q14.5222584375,12.3196328125,14.481308437500001,12.2922728125Q14.4403584375,12.2649138125,14.3948684375,12.2460678125Q14.3493684375,12.227222812499999,14.3010684375,12.2176148125Q14.2527684375,12.2080078125,14.2035284375,12.2080078125Q14.1408584375,12.2080078125,14.0801184375,12.2234748125Q14.0193884375,12.2389418125,13.9643584375,12.2689188125Q13.9093184375,12.2988968125,13.8633884375,12.3415288125Q13.8174484375,12.3841618125,13.7834584375,12.4368128125L13.7834484375,12.4368358125L13.7832784375,12.4370878125Q13.5246534375,12.8376248125,13.1873484375,13.1761178125Q12.8661724375,13.4984268125,12.4878274375,13.7499678125Q12.4363494375,13.7841878125,12.3947564375,13.8299178125Q12.3531644375,13.8756478125,12.3239614375,13.9301278125Q12.2947584375,13.9846178125,12.2797034375,14.0445678125Q12.2646484375,14.1045278125,12.2646484375,14.1663378125Q12.2646484375,14.2155878125,12.2742554375,14.2638878125Q12.283863437499999,14.3121878125,12.3027084375,14.3576778125Q12.3215544375,14.403177812500001,12.3489134375,14.4441278125Q12.3762734375,14.4850678125,12.4110954375,14.5198978125Q12.4459174375,14.5547178125,12.4868634375,14.5820778125Q12.5278094375,14.6094378125,12.5733064375,14.6282778125Q12.6188034375,14.647127812499999,12.6671033375,14.6567378125Q12.7154027375,14.6663378125,12.7646484375,14.6663378125Q12.9156894375,14.6663378125,13.0414694375,14.5827178125Q13.5035494375,14.275507812499999,13.8956984375,13.8819778125Q14.3074084375,13.4688168125,14.6232384375,12.9797378125L14.6235884375,12.9792028125L14.6235884375,12.9792028125Z" fill-rule="evenodd" fill="" fill-opacity="1" style="mix-blend-mode:passthrough"/></g><g><path d="M14.42618975,9.182095775Q14.41796875,9.137320575,14.41796875,9.091796875Q14.41796875,9.042551175,14.42757575,8.994251775Q14.437183749999999,8.945951875,14.45602875,8.900454875Q14.47487475,8.854957875,14.50223375,8.814011875Q14.52959375,8.773065875,14.56441575,8.738243875Q14.59923775,8.703421875,14.64018375,8.676061875Q14.68112975,8.648702875,14.72662675,8.629856875Q14.77212375,8.611011874999999,14.82042365,8.601403875Q14.86872305,8.591796875,14.91796875,8.591796875Q14.96149075,8.591796875,15.00435815,8.599316875Q15.04722575,8.606835875,15.08814875,8.621649875Q15.12907275,8.636462875,15.16682175,8.658123875Q15.20456975,8.679784875,15.23800875,8.707641875Q15.27144675,8.735499875,15.29956875,8.768715875Q15.32769075,8.801931875,15.34965175,8.839506875Q15.37161175,8.877082875,15.38674975,8.917886875Q15.40188775,8.958691875,15.40974775,9.001497975Q15.50030175,9.494668875,15.50030175,10.000088875Q15.50030175,10.505476875,15.40974975,10.998706875Q15.40189075,11.041516875,15.38675375,11.082316875Q15.37161575,11.123126875,15.34965575,11.160706874999999Q15.32769575,11.198276875,15.29957375,11.231496875Q15.27145175,11.264716875,15.23801275,11.292576875Q15.20457475,11.320426874999999,15.16682575,11.342096875Q15.12907575,11.363756875,15.08815175,11.378566875Q15.04722775,11.393386875000001,15.00435975,11.400906875Q14.96149155,11.408426875,14.91796875,11.408426875Q14.86872305,11.408416875,14.82042365,11.398816875Q14.77212375,11.389206875,14.72662675,11.370356875Q14.68112975,11.351516875,14.64018375,11.324156875Q14.59923775,11.296796875,14.56441575,11.261976875Q14.52959375,11.227156875,14.50223375,11.186206875Q14.47487475,11.145256875,14.45602875,11.099766875Q14.437183749999999,11.054266875,14.42757575,11.005966875Q14.41796875,10.957666875,14.41796875,10.908426875Q14.41796875,10.862906875,14.42618775,10.818136875Q14.50030175,10.414446875,14.50030175,10.000088875Q14.50030175,9.585715875,14.42618975,9.182095775Z" fill-rule="evenodd" fill="" fill-opacity="1" style="mix-blend-mode:passthrough"/></g><g><path d="M13.0418664375,5.4168938125Q13.5037144375,5.7240028125,13.8956984375,6.1173688125Q14.3076384375,6.5307578125,14.6235884375,7.0201478125Q14.7035284375,7.1439678125,14.7035284375,7.2913378125Q14.7035184375,7.3405878125,14.6939184375,7.3888878125Q14.6843084375,7.4371878124999995,14.6654584375,7.4826878125Q14.646618437499999,7.5281778125,14.619258437500001,7.5691278125Q14.5918984375,7.6100778125,14.5570784375,7.6448978125Q14.5222584375,7.6797178125,14.481308437500001,7.7070778125Q14.4403584375,7.7344378124999995,14.3948684375,7.7532778125Q14.3493684375,7.7721278125,14.3010684375,7.7817378125Q14.2527684375,7.7913378125,14.2035284375,7.7913378125Q14.1408584375,7.7913378125,14.0801184375,7.7758778125Q14.0193884375,7.7604078125000004,13.9643584375,7.7304278125Q13.9093184375,7.7004478125,13.8633884375,7.6578178125Q13.8174484375,7.6151878125,13.7834584375,7.5625378125000005Q13.5247684375,7.1618378125,13.1873484375,6.8232298125Q12.8661704375,6.5009198125,12.4878274375,6.2493848125Q12.4363494375,6.2151608125,12.3947574375,6.1694308125Q12.3531644375,6.1236998125,12.3239614375,6.0692168125Q12.2947584375,6.0147338125,12.2797034375,5.9547788125Q12.2646484375,5.8948239125,12.2646484375,5.8330078125Q12.2646484375,5.7837621125,12.2742554375,5.7354627125Q12.283863437499999,5.6871628125,12.3027084375,5.6416658125Q12.3215544375,5.5961688125,12.3489134375,5.5552228125Q12.3762734375,5.5142768125,12.4110954375,5.4794548125Q12.4459174375,5.4446328125,12.4868634375,5.4172728125Q12.5278094375,5.3899138125,12.5733064375,5.3710678125Q12.6188034375,5.3522228125,12.6671033375,5.3426148125Q12.7154027375,5.3330078125,12.7646484375,5.3330078125Q12.9156894375,5.3330078125,13.0414694375,5.4166308125L13.0418664375,5.4168938125Z" fill-rule="evenodd" fill="" fill-opacity="1" style="mix-blend-mode:passthrough"/></g><g><path d="M9.998875,5.5Q10.448185,5.5,10.884355,5.587006Q10.932784999999999,5.596667,10.982165,5.596667Q11.031414999999999,5.596667,11.079715,5.587059Q11.128015,5.577452,11.173505,5.558607Q11.219005,5.539761,11.259955,5.512402Q11.300895,5.485042,11.335725,5.45022Q11.370545,5.415398,11.397905,5.374452Q11.425265,5.333506,11.444105,5.288009Q11.462955000000001,5.242511,11.472555,5.194212Q11.482165,5.145913,11.482165,5.0966668Q11.482165,5.0536265,11.474815,5.0112193Q11.467455000000001,4.9688121,11.452964999999999,4.9282857Q11.438465,4.887759,11.417265,4.850306Q11.396055,4.812853,11.368755,4.779575Q11.341465,4.746297,11.308885,4.718173Q11.276305,4.690049,11.239395,4.667907Q11.202485,4.645765,11.162335,4.630256Q11.122185,4.614747,11.079975000000001,4.606327L11.079955,4.606323L11.079725,4.606277Q10.546815,4.5,9.998875,4.5Q9.450897,4.5,8.9179159,4.606307L8.9178365,4.606323L8.9178138,4.606327Q8.875605,4.614747,8.835456,4.630256Q8.795307,4.645765,8.758399,4.667907Q8.721491,4.690049,8.68891,4.718173Q8.656329,4.746297,8.629034,4.779575Q8.601738,4.812853,8.580531,4.850306Q8.559325,4.887759,8.54483,4.9282858Q8.530336,4.9688121,8.52298,5.0112193Q8.515625,5.0536265,8.515625,5.0966668Q8.515625,5.145913,8.525232,5.194212Q8.534839999999999,5.242511,8.553685,5.288009Q8.572531,5.333506,8.59989,5.374452Q8.62725,5.415398,8.662072,5.45022Q8.696894,5.485042,8.73784,5.512402Q8.778786,5.539761,8.824283,5.558607Q8.86978,5.577452,8.9180799,5.587059Q8.9663793,5.596667,9.015625,5.596667Q9.0650077,5.596667,9.1134362,5.587006Q9.54961,5.5,9.998875,5.5Z" fill-rule="evenodd" fill="" fill-opacity="1" style="mix-blend-mode:passthrough"/></g><g><path d="M9.008785625,1.2219601875000001L9.007755625,1.2220751875Q8.962305624999999,1.2271571875,8.918525625000001,1.2404001875Q8.874755624999999,1.2536431875,8.834105625,1.2746081875Q8.793455625,1.2955731875,8.757285625,1.3235651875Q8.721115625,1.3515561875,8.690625625,1.3856451875Q8.660135624999999,1.4197341875,8.636335625000001,1.4587891875Q8.612545625,1.4978431875,8.596225624999999,1.5405681875Q8.579905625,1.5832922875,8.571605625,1.6282684875Q8.563305625,1.6732445675,8.563305625,1.7189796875Q8.563305625,1.7682251875,8.572915625,1.8165251875Q8.582525624999999,1.8648241875,8.601365625,1.9103211875Q8.620215625,1.9558181875,8.647575625,1.9967651874999999Q8.674935625,2.0377111875000002,8.709755625,2.0725331875Q8.744575625,2.1073551875,8.785525625,2.1347141875Q8.826465625,2.1620741875,8.871965625,2.1809191875Q8.917465625,2.1997651875,8.965765625,2.2093721875Q9.014065625,2.2189791875,9.063305625,2.2189791875Q9.091165625,2.2189791875,9.118855625,2.2158841875Q9.556185625000001,2.1669921875,9.999345625,2.1669921875Q10.442105625,2.1669921875,10.879035625,2.2157941875000002L10.879835625,2.2158841875Q10.907525625,2.2189791875,10.935385625,2.2189791875Q10.984635625,2.2189791875,11.032935625,2.2093721875Q11.081235625,2.1997651875,11.126735625,2.1809191875Q11.172225625,2.1620741875,11.213175625,2.1347141875Q11.254125625,2.1073551875,11.288945625,2.0725331875Q11.323765625,2.0377111875000002,11.351125625,1.9967651874999999Q11.378485625,1.9558181875,11.397325625,1.9103211875Q11.416175625,1.8648241875,11.425785625,1.8165251875Q11.435385625,1.7682251875,11.435385625,1.7189796875Q11.435385625,1.6732446275,11.427095625,1.6282685875Q11.418795625,1.5832924875,11.402475625,1.5405681875Q11.386155625,1.4978441875,11.362355625,1.4587891875Q11.338555625,1.4197341875,11.308065625,1.3856451875Q11.277575625,1.3515571875,11.241405625,1.3235651875Q11.205235625,1.2955731875,11.164595625,1.2746081875Q11.123945625,1.2536431875,11.080175625,1.2404001875Q11.036395625,1.2271571875,10.990945625,1.2220751875Q10.498245625,1.1669921875,9.999345625,1.1669921875Q9.500975624999999,1.1669921875,9.008785625,1.2219601875000001ZM6.753605625,2.8688321875Q6.819055625,2.8389921874999997,6.873435625,2.7919121875Q6.927815625,2.7448321875,6.966725625,2.6843421875Q7.005635625,2.6238401875,7.025905625,2.5548281875Q7.046185625,2.4858161875,7.046185625,2.4138881875Q7.046185625,2.3646421875,7.036575625,2.3163431875000002Q7.026965625,2.2680431875,7.008125625,2.2225461875Q6.989275625,2.1770491874999998,6.961915625,2.1361031875Q6.934555625,2.0951561874999998,6.899735625,2.0603341875Q6.864915625,2.0255121875,6.823965625,1.9981531875Q6.783015625,1.9707941875000001,6.737525625,1.9519481875Q6.692025625,1.9331031875,6.643725625,1.9234951875Q6.595425625,1.9138881875,6.546185625,1.9138881875Q6.437575625,1.9138881875,6.338755625,1.9589441875L6.338645625,1.9589951875L6.337395625,1.9595641875Q5.905165625,2.1567251875,5.496195625,2.3995221875Q5.1191756250000005,2.6233421875,4.765645624999999,2.8837421875L4.765385625,2.8839421874999998Q4.669435625,2.9546221875,4.615685624999999,3.0609721875Q4.561935625,3.1673321875,4.561935625,3.2865021875Q4.561935625,3.3357521875,4.571535625,3.3840521875Q4.5811456249999996,3.4323521875000003,4.599995625,3.4778421875000003Q4.618835625,3.5233421875,4.646195625,3.5642921875Q4.6735556250000005,3.6052321875,4.708375625,3.6400621875Q4.743195625,3.6748821875,4.784145625,3.7022421875Q4.825095624999999,3.7296021875,4.870585625,3.7484421875Q4.916085625,3.7672921875,4.964385625,3.7769021875Q5.012685625,3.7865021875,5.061935625,3.7865021875Q5.226215625,3.7865021875,5.3584756250000005,3.6890721875Q5.672175625,3.4579921875,6.006675625,3.2594121874999997Q6.369655625,3.0439221874999998,6.753225625,2.8690021875L6.753605625,2.8688321875L6.753605625,2.8688321875ZM3.793135625,5.2201021875Q3.897245625,5.0851421875,3.897245625,4.9147021875Q3.897245625,4.8654521875,3.887635625,4.8171521875Q3.878025625,4.7688521875,3.859185625,4.723362187499999Q3.840335625,4.677862187500001,3.812975625,4.6369121875Q3.785615625,4.5959721875,3.750795625,4.5611421875Q3.715975625,4.5263221875,3.675025625,4.4989621875Q3.634085625,4.4716021875,3.588585625,4.452762187499999Q3.543085625,4.4339121875,3.494785625,4.4243121875Q3.446485625,4.4147021875,3.397245625,4.4147021875Q3.280995625,4.4147021875,3.1766756249999997,4.4659821875Q3.072355625,4.5172621875,3.001355625,4.6093021875L3.001205625,4.609482187499999Q2.749845625,4.9353521874999995,2.529886625,5.2829221875000005Q2.330701625,5.5976921875,2.159036625,5.9275321875L2.158897625,5.9278021875Q2.102432625,6.0363021875,2.102432625,6.1586121875Q2.102431625,6.2078621875,2.112039625,6.2561621875Q2.121646625,6.3044621875,2.140492625,6.3499621875Q2.159337625,6.3954521875,2.186697625,6.4364021875Q2.214056625,6.4773521875,2.248878625,6.5121721875Q2.283700625,6.5469921875,2.3246466249999997,6.5743521875Q2.365593625,6.6017121875,2.411090625,6.6205521875Q2.456587625,6.6394021875,2.504886625,6.6490121875Q2.553186625,6.6586121875,2.602432625,6.6586121875Q2.671045625,6.6586121875,2.737115625,6.6401321875Q2.803195625,6.6216521875,2.861845625,6.5860521875Q2.920495625,6.5504621875,2.967395625,6.5003821875Q3.014295625,6.4503021875,3.045965625,6.3894321875Q3.198205625,6.0968921875,3.374915625,5.8176421875Q3.570065625,5.5092621875,3.793135625,5.2201021875ZM16.205615625,5.2201321875Q16.101515624999998,5.0851621875,16.101515624999998,4.9147021875Q16.101515624999998,4.8654521875,16.111115625,4.8171521875Q16.120715625000003,4.7688521875,16.139515625,4.723362187499999Q16.158415625,4.677862187500001,16.185715625,4.6369121875Q16.213115625,4.5959721875,16.247915624999997,4.5611421875Q16.282715625,4.5263221875,16.323715625,4.4989621875Q16.364615625,4.4716021875,16.410115625,4.452762187499999Q16.455615625,4.4339121875,16.503915624999998,4.4243121875Q16.552215625000002,4.4147021875,16.601515624999998,4.4147021875Q16.717715625,4.4147021875,16.822115625000002,4.4659921874999995Q16.926415625,4.5172821875,16.997415625000002,4.6093521875Q17.248915625000002,4.9354221875,17.468815624999998,5.2829121875Q17.668015625,5.5976221875,17.839815625,5.9277921875Q17.896215625,6.0363021875,17.896215625,6.1586121875Q17.896215625,6.2078621875,17.886615625,6.2561621875Q17.877015625,6.3044621875,17.858215625,6.3499621875Q17.839315625,6.3954521875,17.812015625,6.4364021875Q17.784615625,6.4773521875,17.749815625,6.5121721875Q17.715015625,6.5469921875,17.674015625,6.5743521875Q17.633115625000002,6.6017121875,17.587615624999998,6.6205521875Q17.542115625,6.6394021875,17.493815625,6.6490121875Q17.445515625,6.6586121875,17.396215625,6.6586121875Q17.327615625,6.6586121875,17.261615624999997,6.6401321875Q17.195515625,6.6216521875,17.136815625,6.5860521875Q17.078215625,6.5504621875,17.031315624999998,6.5003821875Q16.984415625,6.4503021875,16.952715625,6.3894321875L16.952115624999998,6.3882621875Q16.800015625,6.0961321875,16.623815625,5.8176521875Q16.429015624999998,5.5099021875,16.206315625000002,5.2210021875L16.205615625,5.2201321875L16.205615625,5.2201321875ZM2.322717625,8.4331221875Q2.332711625,8.383892187499999,2.332711625,8.3336621875Q2.332711625,8.2844121875,2.323103625,8.2361121875Q2.313496625,8.1878121875,2.294650625,8.1423121875Q2.2758056250000003,8.096822187499999,2.248445625,8.0558721875Q2.221086625,8.0149221875,2.1862646249999997,7.9801021875Q2.151442625,7.9452821875,2.110496625,7.9179221875Q2.0695506249999998,7.8905621875,2.024052625,7.8717221875Q1.978555625,7.8528721875,1.930256625,7.8432621875Q1.881956625,7.8336621875,1.832711625,7.8336621875Q1.789777625,7.8336621875,1.747471625,7.8409821875Q1.705166025,7.8482921875,1.664727525,7.8627221875Q1.624289025,7.8771421875,1.586901525,7.8982521875Q1.549513625,7.9193621875,1.516272625,7.9465321875Q1.483030625,7.9737021875,1.454907625,8.0061421875Q1.426784625,8.038582187500001,1.404603625,8.0753521875Q1.382423625,8.1121121875,1.366834625,8.1521121875Q1.351245625,8.192112187500001,1.342704625,8.2341921875L1.3426776249999999,8.2343221875L1.342419625,8.2355921875Q1.253782625,8.6726221875,1.209607625,9.1175921875Q1.166083625,9.5559721875,1.166015625,9.9989421875L1.166015625,10.0003221875Q1.166015625,10.0495721875,1.175622625,10.0978721875Q1.185230625,10.1461721875,1.204075625,10.1916621875Q1.2229216250000001,10.2371621875,1.250280625,10.2781121875Q1.277640625,10.3190521875,1.312462625,10.3538821875Q1.347284625,10.3887021875,1.388230625,10.4160621875Q1.429176625,10.4434221875,1.4746736249999999,10.4622621875Q1.520170625,10.4811121875,1.568470525,10.4907121875Q1.616769925,10.5003221875,1.666015625,10.5003221875Q1.715261325,10.5003221875,1.763560725,10.4907121875Q1.811860625,10.4811121875,1.8573576250000001,10.4622621875Q1.902854625,10.4434221875,1.943800625,10.4160621875Q1.984746625,10.3887021875,2.019568625,10.3538821875Q2.054390625,10.3190521875,2.081750625,10.2781121875Q2.109109625,10.2371621875,2.1279556250000002,10.1916621875Q2.146800625,10.1461721875,2.156408625,10.0978721875Q2.166015625,10.0495721875,2.166015625,10.0003221875Q2.166015625,9.6061721875,2.204715625,9.2163921875Q2.243953625,8.821152187500001,2.322717625,8.4331221875ZM1.549733625,12.5830921875Q1.527944625,12.5116921875,1.527944625,12.4370921875Q1.527944625,12.3878921875,1.537551625,12.3395921875Q1.547159625,12.2912921875,1.566004625,12.2457921875Q1.584850525,12.2002921875,1.612209925,12.1592921875Q1.639569325,12.1183921875,1.674391315,12.0835921875Q1.709213325,12.0486921875,1.750159625,12.0213921875Q1.791105625,11.9939921875,1.836602625,11.9751921875Q1.882099625,11.9562921875,1.930399625,11.9466921875Q1.978698625,11.9370921875,2.027944625,11.9370921875Q2.108281625,11.9370921875,2.1845746249999998,11.9622921875Q2.260867625,11.9874921875,2.325437625,12.0352921875Q2.390006625,12.0830921875,2.436352625,12.1486921875Q2.482699625,12.2142921875,2.506156625,12.2910921875Q2.6063386250000002,12.6192921875,2.735235625,12.9376921875Q2.874375625,13.2814921875,3.045695625,13.6106921875L3.045955625,13.6111921875Q3.102435625,13.7196921875,3.102435625,13.8419921875Q3.102435625,13.8912921875,3.0928256249999997,13.9395921875Q3.0832156250000002,13.9878921875,3.0643756250000003,14.0333921875Q3.045525625,14.0788921875,3.018165625,14.1197921875Q2.990805625,14.1607921875,2.9559856250000003,14.1955921875Q2.921165625,14.2303921875,2.880215625,14.2577921875Q2.839275625,14.2850921875,2.7937756250000003,14.3039921875Q2.7482756249999998,14.3227921875,2.699975625,14.3323921875Q2.651677625,14.3419921875,2.602432625,14.3419921875Q2.5338246250000003,14.3419921875,2.467752625,14.3235921875Q2.401681625,14.3050921875,2.343029625,14.2694921875Q2.284377625,14.2338921875,2.237480625,14.1837921875Q2.190583625,14.1336921875,2.158908625,14.0728921875Q1.965426625,13.7010921875,1.808288625,13.3128921875Q1.662852435,12.9535921875,1.549788625,12.5832921875L1.549736625,12.5830921875L1.549733625,12.5830921875ZM18.449015625,12.5830921875Q18.470815625,12.5116921875,18.470815625,12.4370921875Q18.470715625,12.3878921875,18.461115625,12.3395921875Q18.451515625,12.2912921875,18.432715625,12.2457921875Q18.413815625,12.2002921875,18.386515625,12.1592921875Q18.359115625,12.1183921875,18.324315625,12.0835921875Q18.289515625,12.0486921875,18.248515625,12.0213921875Q18.207615625,11.9939921875,18.162115625,11.9751921875Q18.116615625,11.9562921875,18.068315625,11.9466921875Q18.020015625,11.9370921875,17.970815625,11.9370921875Q17.890415625,11.9370921875,17.814115625,11.9622921875Q17.737815625,11.9874921875,17.673315625,12.0352921875Q17.608715625000002,12.0830921875,17.562315625,12.1486921875Q17.516015625,12.2142921875,17.492515625,12.2910921875L17.492215625,12.2922921875Q17.392215625,12.6195921875,17.263415625,12.9376921875Q17.124515625,13.2810921875,16.953115625000002,13.6104921875L16.952715625,13.6111921875Q16.896215625,13.7196921875,16.896215625,13.8419921875Q16.896215625,13.8912921875,16.905915625,13.9395921875Q16.915515624999998,13.9878921875,16.934315625,14.0333921875Q16.953215625,14.0788921875,16.980515625000002,14.1197921875Q17.007915625000003,14.1607921875,17.042715625,14.1955921875Q17.077515625,14.2303921875,17.118515625,14.2577921875Q17.159415625,14.2850921875,17.204915624999998,14.3039921875Q17.250415625000002,14.3227921875,17.298715625,14.3323921875Q17.347015624999997,14.3419921875,17.396215625,14.3419921875Q17.464915625,14.3419921875,17.530915625,14.3235921875Q17.597015624999997,14.3050921875,17.655715625,14.2694921875Q17.714315625,14.2338921875,17.761215625,14.1837921875Q17.808115625,14.1336921875,17.839815625,14.0728921875Q18.033415625,13.7007921875,18.190415625,13.3128921875Q18.336015625,12.9532921875,18.449015625,12.5830921875ZM16.467915625,16.0157921875Q16.532515625000002,15.9463921875,16.567115625,15.8581921875Q16.601815625,15.7699921875,16.601815625,15.6752921875Q16.601815625,15.6259921875,16.592215625,15.5776921875Q16.582615625000003,15.5293921875,16.563815625,15.4838921875Q16.544915625,15.4383921875,16.517615624999998,15.3974921875Q16.490215624999998,15.3564921875,16.455415625,15.3216921875Q16.420615625,15.2868921875,16.379615625,15.2594921875Q16.338715625,15.2321921875,16.293215625000002,15.2132921875Q16.247715624999998,15.1944921875,16.199415625,15.1848921875Q16.151115625,15.1752921875,16.101815625,15.1752921875Q15.997715625,15.1752921875,15.902215625,15.2167921875Q15.806715625,15.2583921875,15.735815625,15.3346921875L15.735015625,15.3354921875Q15.470915625,15.6191921875,15.180615625,15.8754921875Q14.920015625,16.105492187499998,14.640215625,16.3115921875Q14.544315625,16.3822921875,14.490515625,16.4885921875Q14.436815625,16.5949921875,14.436815625,16.7141921875Q14.436715625,16.7633921875,14.446415625,16.8116921875Q14.456015625,16.859992187499998,14.474815625,16.905492187500002Q14.493715625,16.9509921875,14.521015625,16.9919921875Q14.548415625,17.0328921875,14.583215625,17.0676921875Q14.618015625,17.102492187499998,14.659015625,17.129892187499998Q14.699915625,17.157292187499998,14.745415625,17.1760921875Q14.790915625,17.1949921875,14.839215625,17.204592187499998Q14.887515625,17.2141921875,14.936815625,17.2141921875Q15.101015625,17.2141921875,15.233315625,17.1166921875Q15.548615625,16.8844921875,15.842415625,16.625192187499998Q16.169815625,16.3361921875,16.467615625,16.0161921875L16.467915625,16.0158921875L16.467915625,16.0157921875ZM7.453485625,17.4107921875Q7.845615625,17.545492187500003,8.250565625,17.6377921875Q8.679545625,17.7356921875,9.118845624999999,17.7847921875Q9.164295625000001,17.7897921875,9.208075625,17.8030921875Q9.251845625,17.8162921875,9.292495625,17.8372921875Q9.333145625,17.8582921875,9.369315624999999,17.8861921875Q9.405485625,17.9141921875,9.435975625000001,17.9482921875Q9.466465625,17.9823921875,9.490265625,18.0214921875Q9.514075625,18.0604921875,9.530395625,18.1032921875Q9.546715625000001,18.1459921875,9.555005625,18.1909921875Q9.563305625,18.2358921875,9.563305625,18.2816921875Q9.563305625,18.3308921875,9.553695625,18.3791921875Q9.544095625,18.4274921875,9.525245625,18.4729921875Q9.506395625,18.5184921875,9.479035625,18.5594921875Q9.451685625,18.6003921875,9.416855625,18.6351921875Q9.382035625,18.6699921875,9.341095625000001,18.6973921875Q9.300145624999999,18.7247921875,9.254645625,18.7435921875Q9.209155625000001,18.7624921875,9.160855625,18.7720921875Q9.112555624999999,18.7816921875,9.063305625,18.7816921875Q9.035455625,18.7816921875,9.007775625,18.7785921875L9.007665625,18.7785921875L9.007035625,18.7784921875Q8.511965625,18.7230921875,8.028305625,18.6127921875Q7.571225625,18.5085921875,7.128545625,18.3564921875Q7.054665625,18.3311921875,6.992055625,18.2843921875Q6.929435625,18.2376921875,6.884055625,18.1741921875Q6.838665625,18.1105921875,6.814845625,18.0361921875Q6.791015625,17.9617921875,6.791015625,17.8836921875Q6.791015625,17.8343921875,6.800625625,17.7860921875Q6.810225625,17.7377921875,6.829075625,17.6922921875Q6.847925625,17.646792187499997,6.875275625,17.6058921875Q6.902635625,17.5648921875,6.937465625,17.5300921875Q6.972285625,17.4952921875,7.013225625,17.4678921875Q7.054175625,17.440592187500002,7.099675625,17.4216921875Q7.145165625,17.4028921875,7.193465625,17.393292187500002Q7.241765625,17.3836921875,7.291015625,17.3836921875Q7.374515625,17.3836921875,7.453485625,17.4107921875ZM12.870115625,18.3564921875Q12.944015625,18.3311921875,13.006615625,18.2843921875Q13.069215625,18.2376921875,13.114615625,18.1741921875Q13.160015625,18.1105921875,13.183815625,18.0361921875Q13.207715625,17.9617921875,13.207715625,17.8836921875Q13.207715625,17.8343921875,13.198115625,17.7860921875Q13.188515625,17.7377921875,13.169615625,17.6922921875Q13.150815625,17.646792187499997,13.123415625,17.6058921875Q13.096015625,17.5648921875,13.061215625,17.5300921875Q13.026415625,17.4952921875,12.985515625,17.4678921875Q12.944515625,17.440592187500002,12.899015625,17.4216921875Q12.853515625,17.4028921875,12.805215625,17.393292187500002Q12.756915625,17.3836921875,12.707715625,17.3836921875Q12.624215625,17.3836921875,12.545215625,17.4107921875Q12.153115625,17.545492187500003,11.748115625,17.6377921875Q11.320835625,17.7352921875,10.883325625,17.7843921875L10.881895625,17.7844921875L10.879855625,17.7847921875Q10.834405625,17.7897921875,10.790625625,17.8030921875Q10.746845625,17.8162921875,10.706195625,17.8372921875Q10.665555625,17.8582921875,10.629385625,17.8861921875Q10.593215625,17.9141921875,10.562715625,17.9482921875Q10.532225625,17.9823921875,10.508425625,18.0214921875Q10.484625625,18.0604921875,10.468305625,18.1032921875Q10.451985625,18.1459921875,10.443685625,18.1909921875Q10.435385625,18.2358921875,10.435385625,18.2816921875Q10.435385625,18.3308921875,10.444995625,18.3791921875Q10.454605625,18.4274921875,10.473445625,18.4729921875Q10.492295625,18.5184921875,10.519655625,18.5594921875Q10.547015625,18.6003921875,10.581835625,18.6351921875Q10.616655625,18.6699921875,10.657605625,18.6973921875Q10.698545625,18.7247921875,10.744045625,18.7435921875Q10.789545625,18.7624921875,10.837845625,18.7720921875Q10.886145625,18.7816921875,10.935385625,18.7816921875Q10.963245625,18.7816921875,10.990925625,18.7785921875Q11.486365625,18.7231921875,11.970415625,18.6127921875Q12.427415625,18.5085921875,12.870115625,18.3564921875ZM13.660815625,1.9593601875Q14.093315625,2.1566001875,14.502515625,2.3995221875Q14.878915625,2.6229761875,15.231915625,2.8828921875L15.233115625,2.8837921875L15.233315625,2.8839421874999998L14.640215625,3.6890721875Q14.326515625,3.4579821875,13.992015625,3.2594121874999997Q13.629115625,3.0439621875,13.245615625,2.8690821875L13.245115625,2.8688321875Q13.179615625,2.8389921874999997,13.125215625,2.7919121875Q13.070915625,2.7448321875,13.032015625,2.6843421875Q12.993115625,2.6238401875,12.972815625,2.5548281875Q12.952515625,2.4858161875,12.952515625,2.4138881875Q12.952515625,2.3646421875,12.962115625,2.3163431875000002Q12.971715625,2.2680431875,12.990615625,2.2225461875Q13.009415625,2.1770491874999998,13.036815625,2.1361031875Q13.064115625,2.0951561874999998,13.098915625,2.0603341875Q13.133815625,2.0255121875,13.174715625,1.9981531875Q13.215715625,1.9707941875000001,13.261215625,1.9519481875Q13.306715625,1.9331031875,13.355015625,1.9234951875Q13.403315625,1.9138881875,13.452515625,1.9138881875Q13.561115625,1.9138881875,13.659915625,1.9589441875L13.660015625,1.9589951875L13.660815625,1.9593601875ZM18.656515625,8.236872187500001Q18.745015625,8.673252187500001,18.789115625,9.1176121875Q18.832715625,9.5562421875,18.832715625,10.0003221875Q18.832715625,10.0495721875,18.823115625,10.0978721875Q18.813515625,10.1461721875,18.794615625,10.1916621875Q18.775815625,10.2371621875,18.748415625,10.2781121875Q18.721015625,10.3190521875,18.686215625,10.3538821875Q18.651415625,10.3887021875,18.610515625,10.4160621875Q18.569515625,10.4434221875,18.524015625,10.4622621875Q18.478515625,10.4811121875,18.430215625,10.4907121875Q18.381915625,10.5003221875,18.332715625,10.5003221875Q18.283415625,10.5003221875,18.235115625,10.4907121875Q18.186815625,10.4811121875,18.141315625,10.4622621875Q18.095815625,10.4434221875,18.054915625,10.4160621875Q18.013915625,10.3887021875,17.979115625,10.3538821875Q17.944315625,10.3190521875,17.916915625,10.2781121875Q17.889615625,10.2371621875,17.870715625,10.1916621875Q17.851915625,10.1461721875,17.842315625,10.0978721875Q17.832715625,10.0495721875,17.832715625,10.0003221875Q17.832715625,9.6058421875,17.793915625,9.2163721875Q17.754715625,8.8211321875,17.676015625,8.4331321875Q17.666015625,8.3839021875,17.666015625,8.3336621875Q17.666015625,8.2844121875,17.675615625,8.2361121875Q17.685215625,8.1878121875,17.704015625,8.1423121875Q17.722915625,8.096822187499999,17.750215625,8.0558721875Q17.777615625,8.0149221875,17.812415625,7.9801021875Q17.847215625,7.9452821875,17.888215625,7.9179221875Q17.929115625,7.8905621875,17.974615625,7.8717221875Q18.020115625,7.8528721875,18.068415625,7.8432621875Q18.116715625,7.8336621875,18.166015625,7.8336621875Q18.208915625,7.8336621875,18.251315625,7.8409921875Q18.293615625,7.8483221875,18.334115625,7.8627621875Q18.374515625,7.8772121875,18.411915625,7.8983421875Q18.449315625,7.9194821875,18.482615625,7.9466921875Q18.515815625,7.9739021875,18.544015625,8.0063821875Q18.572115625,8.0388721875,18.594315625,8.0756721875Q18.616415625,8.1124821875,18.632015625,8.1525221875Q18.647615625,8.1925721875,18.656115625,8.2346921875L18.656515625,8.236872187500001ZM4.263875625,15.3356921875Q4.527835625,15.6192921875,4.818125625,15.8754921875Q5.0781656250000005,16.1050921875,5.357955625000001,16.311192187499998L5.358485625,16.3115921875L5.358495625,16.3115921875Q5.454435625,16.3822921875,5.508185624999999,16.4886921875Q5.561935625,16.5949921875,5.561935625,16.7141921875Q5.561935625,16.7633921875,5.552325625,16.8116921875Q5.542715625,16.859992187499998,5.5238756250000005,16.905492187500002Q5.505025625,16.9509921875,5.477665625,16.9919921875Q5.450305625,17.0328921875,5.4154856250000005,17.0676921875Q5.380665625,17.102492187499998,5.339715625,17.129892187499998Q5.298765625,17.157292187499998,5.253275625000001,17.1760921875Q5.207775625,17.1949921875,5.159475625,17.204592187499998Q5.111175625,17.2141921875,5.061935625,17.2141921875Q4.897565625,17.2141921875,4.765255625,17.1165921875L4.764615624999999,17.116192187499998Q4.449385625,16.883892187500003,4.156325625,16.625192187499998Q3.829405625,16.3366921875,3.532055625,16.0171921875Q3.6029456250000003,16.092792187500002,3.698075625,16.1339921875Q3.793195625,16.1752921875,3.896865625,16.1752921875Q3.946105625,16.175192187500002,3.994405625,16.1655921875Q4.042705625,16.1559921875,4.0882056250000005,16.1371921875Q4.133695625,16.1182921875,4.174645625,16.0909921875Q4.215595625000001,16.0635921875,4.2504156250000005,16.028792187500002Q4.285235625,15.9939921875,4.312595625,15.9529921875Q4.339955625,15.9120921875,4.3588056250000005,15.8665921875Q4.3776456249999995,15.8210921875,4.387255625,15.7727921875Q4.396865625,15.7244921875,4.396865625,15.6752921875Q4.396865625,15.5807921875,4.362425625,15.4928921875Q4.327995625,15.4049921875,4.263875625,15.3356921875L3.530955625,16.0159921875Q3.466315625,15.9465921875,3.4315856250000003,15.8582921875Q3.396865625,15.7700921875,3.396865625,15.6752921875Q3.396865625,15.6259921875,3.406465625,15.5776921875Q3.416075625,15.5293921875,3.434925625,15.4838921875Q3.453765625,15.4383921875,3.481125625,15.3974921875Q3.508485625,15.3564921875,3.543305625,15.3216921875Q3.578125625,15.2868921875,3.619075625,15.2594921875Q3.6600256250000003,15.2321921875,3.705515625,15.2132921875Q3.751015625,15.1944921875,3.799315625,15.1848921875Q3.847615625,15.1752921875,3.896865625,15.1752921875Q4.0010056249999995,15.1752921875,4.096495625,15.2167921875Q4.191985625,15.2583921875,4.262925624999999,15.3346921875L4.263875625,15.3356921875Z" fill-rule="evenodd" fill="" fill-opacity="1" style="mix-blend-mode:passthrough"/></g></g></svg>
