<svg xmlns="http://www.w3.org/2000/svg" xmlns:xlink="http://www.w3.org/1999/xlink" fill="none" version="1.1" width="16" height="16" viewBox="0 0 16 16"><defs><clipPath id="master_svg0_69_06913"><rect x="0" y="0" width="16" height="16" rx="0"/></clipPath></defs><g clip-path="url(#master_svg0_69_06913)"><g><path d="M6.570853373069763,14.542680040168761Q6.904173373069763,13.500080040168763,8.000003373069763,13.500080040168763Q9.095833373069762,13.500080040168763,9.429143373069763,14.542680040168761Q9.443943373069763,14.588980040168762,9.467393373069763,14.631580040168762Q9.490843373069763,14.674180040168762,9.522043373069764,14.711380040168763Q9.553253373069763,14.748680040168763,9.591063373069764,14.779280040168763Q9.628863373069763,14.809780040168762,9.671853373069764,14.832580040168763Q9.714833373069764,14.855280040168763,9.761383373069764,14.869280040168762Q9.807943373069763,14.883280040168762,9.856323373069763,14.887980040168761Q9.904693373069763,14.892780040168763,9.953093373069763,14.888180040168763Q10.001483373069764,14.883480040168763,10.048073373069764,14.869680040168761Q11.852133373069764,14.332480040168763,13.164333373069763,12.969080040168762Q13.196133373069763,12.935880040168762,13.221533373069763,12.897480040168762Q13.246833373069764,12.859180040168763,13.264633373069763,12.816780040168762Q13.282533373069763,12.774480040168763,13.292433373069763,12.729480040168761Q13.302233373069763,12.684580040168763,13.303733373069763,12.638680040168762Q13.305233373069763,12.592680040168762,13.298333373069763,12.547280040168761Q13.291433373069763,12.501780040168763,13.276433373069763,12.458380040168763Q13.261333373069764,12.414980040168762,13.238533373069764,12.374980040168762Q13.215833373069763,12.335080040168762,13.186233373069763,12.299880040168762Q12.833333373069763,11.881680040168762,12.833333373069763,11.333370040168763Q12.833333373069763,10.712050040168762,13.272633373069763,10.272710040168763Q13.712033373069763,9.833370040168763,14.333333373069763,9.833370040168763Q14.408133373069763,9.833370040168763,14.482433373069764,9.840670040168762Q14.528233373069764,9.845160040168762,14.574033373069764,9.841240040168762Q14.619833373069763,9.837320040168763,14.664133373069763,9.825110040168763Q14.708433373069763,9.812900040168762,14.749833373069762,9.792810040168762Q14.791133373069764,9.772730040168762,14.828133373069763,9.745440040168763Q14.865133373069764,9.718150040168762,14.896533373069763,9.684570040168762Q14.927933373069763,9.650990040168763,14.952733373069764,9.612250040168762Q14.977433373069763,9.573510040168763,14.994733373069764,9.530900040168763Q15.011933373069763,9.488300040168763,15.021233373069764,9.443260040168763Q15.166633373069763,8.732000040168762,15.166633373069763,8.000030040168763Q15.166633373069763,6.895030040168762,14.838433373069764,5.850000040168762Q14.814333373069763,5.773410040168762,14.767533373069764,5.708200040168762Q14.720733373069763,5.642990040168762,14.655833373069763,5.595720040168763Q14.590933373069763,5.548450040168762,14.514533373069764,5.523860040168762Q14.438133373069762,5.499270040168762,14.357833373069763,5.499850040168762L14.333333373069763,5.500030040168762Q13.712033373069763,5.500030040168762,13.272633373069763,5.060690040168762Q12.833333373069763,4.621350040168762,12.833333373069763,4.000030040168762Q12.833333373069763,3.649350040168762,12.986933373069764,3.337790040168762Q13.022633373069763,3.265430040168762,13.033733373069763,3.1855300401687625Q13.044833373069762,3.105620040168762,13.030233373069763,3.0262800401687624Q13.015633373069763,2.946930040168762,12.976833373069763,2.8762000401687624Q12.938033373069763,2.8054700401687622,12.878933373069763,2.7505400401687625Q11.595933373069764,1.5575185401687621,9.916023373069763,1.0925020401687622Q9.874693373069762,1.0810600401687622,9.832013373069763,1.0768240401687623Q9.789333373069763,1.0725890401687623,9.746553373069764,1.0756830401687623Q9.703773373069764,1.0787780401687623,9.662153373069764,1.0891130401687623Q9.620533373069764,1.0994480401687623,9.581273373069763,1.1167200401687623Q9.542013373069762,1.1339930401687623,9.506273373069764,1.1576990401687621Q9.470533373069763,1.1814050401687621,9.439343373069763,1.2108520401687621Q9.408163373069764,1.2402990401687621,9.382453373069763,1.2746260401687621Q9.356733373069764,1.3089530401687621,9.337243373069763,1.3471580401687622Q8.919133373069762,2.1667100401687622,8.000003373069763,2.1667100401687622Q7.080863373069763,2.1667100401687622,6.662753373069763,1.3471580401687622Q6.643263373069763,1.3089530401687621,6.6175533730697635,1.2746260401687621Q6.591843373069763,1.2402990401687621,6.560653373069763,1.2108520401687621Q6.529473373069763,1.1814050401687621,6.493733373069763,1.1576990401687621Q6.457993373069764,1.1339930401687623,6.418733373069763,1.1167200401687623Q6.3794733730697635,1.0994480401687623,6.3378533730697635,1.0891130401687623Q6.296223373069763,1.0787780401687623,6.253443373069763,1.0756830401687623Q6.210673373069763,1.0725880401687622,6.167993373069764,1.0768240401687623Q6.125313373069763,1.0810600401687622,6.083973373069763,1.0925020401687622Q4.404103373069763,1.5575178401687622,3.121063373069763,2.7505400401687625Q3.061983373069763,2.8054700401687622,3.0231733730697634,2.8762000401687624Q2.9843733730697632,2.946930040168762,2.969783373069763,3.0262800401687624Q2.9551833730697634,3.105620040168762,2.966293373069763,3.1855300401687625Q2.9773933730697633,3.2654400401687624,3.013073373069763,3.337790040168762Q3.1666633730697633,3.649350040168762,3.1666633730697633,4.000030040168762Q3.1666633730697633,4.621350040168762,2.7273233730697632,5.060690040168762Q2.287986373069763,5.500030040168762,1.670231373069763,5.500050040168762L1.6421613730697633,5.499850040168762Q1.5618853730697633,5.499270040168762,1.4854653730697631,5.523860040168762Q1.4090454730697632,5.548450040168762,1.3441626730697631,5.595720040168763Q1.2792798730697632,5.642990040168762,1.232456373069763,5.708200040168762Q1.1856333730697632,5.773410040168762,1.1615763730697632,5.850000040168762Q0.8333333730697632,6.8949900401687625,0.8333333730697632,8.000030040168763Q0.8333333730697632,8.732020040168763,0.9788043730697632,9.443260040168763Q0.9880163730697632,9.488300040168763,1.0052873730697631,9.530900040168763Q1.0225573730697632,9.573510040168763,1.047307373069763,9.612250040168762Q1.0720573730697631,9.650990040168763,1.103456373069763,9.684570040168762Q1.1348553730697633,9.718150040168762,1.1718503730697631,9.745440040168763Q1.2088463730697632,9.772730040168762,1.250197773069763,9.792810040168762Q1.291549273069763,9.812900040168762,1.335870283069763,9.825110040168763Q1.3801912730697632,9.837320040168763,1.4259954730697633,9.841240040168762Q1.4717993730697632,9.845160040168762,1.5175513730697632,9.840670040168762Q1.5918993730697633,9.833360040168762,1.6666673730697632,9.833370040168763Q2.287986373069763,9.833370040168763,2.7273233730697632,10.272710040168763Q3.1666633730697633,10.712050040168762,3.1666633730697633,11.333370040168763Q3.1666633730697633,11.881680040168762,2.813813373069763,12.299880040168762Q2.784163373069763,12.335080040168762,2.7614233730697633,12.374980040168762Q2.738673373069763,12.414980040168762,2.7236033730697633,12.458380040168763Q2.708523373069763,12.501780040168763,2.701623373069763,12.547280040168761Q2.6947233730697633,12.592680040168762,2.6962233730697633,12.638680040168762Q2.6977233730697634,12.684580040168763,2.707583373069763,12.729580040168763Q2.717443373069763,12.774480040168763,2.7353233730697633,12.816780040168762Q2.753203373069763,12.859180040168763,2.7785033730697632,12.897580040168762Q2.8038133730697634,12.935880040168762,2.835693373069763,12.969080040168762Q4.147863373069763,14.332580040168763,5.951923373069763,14.869680040168761Q5.998523373069763,14.883480040168763,6.0469133730697635,14.888180040168763Q6.095303373069763,14.892780040168763,6.143683373069763,14.887980040168761Q6.192063373069764,14.883280040168762,6.2386133730697635,14.869280040168762Q6.285163373069763,14.855280040168763,6.328153373069763,14.832580040168763Q6.371133373069763,14.809780040168762,6.408943373069763,14.779280040168763Q6.446743373069763,14.748680040168763,6.477953373069763,14.711480040168762Q6.509163373069764,14.674180040168762,6.532613373069763,14.631580040168762Q6.556053373069763,14.588980040168762,6.570853373069763,14.542680040168761ZM9.488453373069763,12.991280040168762Q8.826373373069764,12.500080040168763,8.000003373069763,12.500080040168763Q7.173633373069763,12.500080040168763,6.511543373069763,12.991280040168762Q6.073553373069763,13.316280040168762,5.819713373069763,13.771180040168762Q4.719473373069763,13.358980040168762,3.848233373069763,12.560680040168762Q4.166663373069763,12.005580040168763,4.166663373069763,11.333370040168763Q4.166663373069763,10.297830040168762,3.4344333730697634,9.565600040168762Q2.782543373069763,8.913710040168763,1.8902543730697632,8.842180040168763Q1.8333333730697632,8.425360040168762,1.8333333730697632,8.000030040168763Q1.8333333730697632,7.220700040168762,2.0226323730697633,6.476910040168762Q2.8322933730697635,6.369940040168762,3.4344333730697634,5.767800040168762Q4.166663373069763,5.035570040168762,4.166663373069763,4.000030040168762Q4.166663373069763,3.615910040168762,4.055543373069764,3.2591300401687624Q4.924633373069764,2.5319860401687624,5.990603373069763,2.167501040168762Q6.689653373069763,3.1667100401687622,8.000003373069763,3.1667100401687622Q9.310343373069763,3.1667100401687622,10.009393373069763,2.1675020401687624Q11.075363373069763,2.5319860401687624,11.944433373069764,3.259140040168762Q11.833333373069763,3.615910040168762,11.833333373069763,4.000030040168762Q11.833333373069763,5.035560040168763,12.565533373069764,5.767800040168762Q13.168633373069763,6.370870040168763,13.977433373069763,6.477250040168762Q14.166633373069763,7.220900040168762,14.166633373069763,8.000030040168763Q14.166633373069763,8.425350040168762,14.109733373069764,8.842180040168763Q13.217433373069763,8.913710040168763,12.565533373069764,9.565600040168762Q11.833333373069763,10.297830040168762,11.833333373069763,11.333370040168763Q11.833333373069763,12.005580040168763,12.151733373069764,12.560680040168762Q11.280533373069764,13.358980040168762,10.180283373069763,13.771180040168762Q9.926443373069763,13.316280040168762,9.488453373069763,12.991280040168762Z" fill-rule="evenodd" fill="#5B9CF8" fill-opacity="1" style="mix-blend-mode:passthrough"/></g><g><path d="M5.996529507720947,5.996529507720947Q5.166666507720947,6.826396507720947,5.166666507720947,7.999996507720947Q5.166666507720947,9.173606507720947,5.996529507720947,10.003466507720947Q6.826396507720947,10.833336507720947,7.999996507720947,10.833336507720947Q9.173606507720947,10.833336507720947,10.003466507720947,10.003466507720947Q10.833336507720947,9.173606507720947,10.833336507720947,7.999996507720947Q10.833336507720947,6.826396507720947,10.003466507720947,5.996529507720947Q9.173606507720947,5.166666507720947,7.999996507720947,5.166666507720947Q6.826396507720947,5.166666507720947,5.996529507720947,5.996529507720947ZM6.703636507720947,9.296366507720947Q6.166666507720947,8.759396507720947,6.166666507720947,7.999996507720947Q6.166666507720947,7.240606507720948,6.703636507720947,6.703636507720947Q7.240606507720948,6.166666507720947,7.999996507720947,6.166666507720947Q8.759396507720947,6.166666507720947,9.296366507720947,6.703636507720947Q9.833336507720947,7.240606507720948,9.833336507720947,7.999996507720947Q9.833336507720947,8.759396507720947,9.296366507720947,9.296366507720947Q8.759396507720947,9.833336507720947,7.999996507720947,9.833336507720947Q7.240606507720948,9.833336507720947,6.703636507720947,9.296366507720947Z" fill-rule="evenodd" fill="#5B9CF8" fill-opacity="1" style="mix-blend-mode:passthrough"/></g></g></svg>