<svg xmlns="http://www.w3.org/2000/svg" xmlns:xlink="http://www.w3.org/1999/xlink" fill="none" version="1.1" width="20" height="20" viewBox="0 0 20 20"><defs><clipPath id="master_svg0_77_06876"><rect x="0" y="0" width="20" height="20" rx="0"/></clipPath></defs><g clip-path="url(#master_svg0_77_06876)"><g><path d="M12.5,9.91650390625L17.5,9.91650390625Q17.54925,9.91650390625,17.59755,9.92611090625Q17.64584,9.935718906249999,17.69134,9.95456390625Q17.73684,9.97340990625,17.77778,10.00076890625Q17.818730000000002,10.02812890625,17.85355,10.06295090625Q17.888370000000002,10.09777290625,17.91573,10.13871890625Q17.943089999999998,10.17966490625,17.96194,10.22516190625Q17.98078,10.27065890625,17.990389999999998,10.31895880625Q18,10.36725820625,18,10.41650390625Q18,10.46574960625,17.990389999999998,10.51404900625Q17.98078,10.56234890625,17.96194,10.60784590625Q17.943089999999998,10.65334290625,17.91573,10.69428890625Q17.888370000000002,10.73523490625,17.85355,10.77005690625Q17.818730000000002,10.80487890625,17.77778,10.83223890625Q17.73684,10.85959790625,17.69134,10.87844390625Q17.64584,10.897288906250001,17.59755,10.90689690625Q17.54925,10.91650390625,17.5,10.91650390625L12.5,10.91650390625Q12.4507543,10.91650390625,12.4024549,10.90689690625Q12.354155,10.897288906250001,12.308658,10.87844390625Q12.263161,10.85959790625,12.222215,10.83223890625Q12.181269,10.80487890625,12.146447,10.77005690625Q12.111625,10.73523490625,12.084265,10.69428890625Q12.056906,10.65334290625,12.03806,10.60784590625Q12.019214999999999,10.56234890625,12.009607,10.51404900625Q12,10.46574960625,12,10.41650390625Q12,10.36725820625,12.009607,10.31895880625Q12.019214999999999,10.27065890625,12.03806,10.22516190625Q12.056906,10.17966490625,12.084265,10.13871890625Q12.111625,10.09777290625,12.146447,10.06295090625Q12.181269,10.02812890625,12.222215,10.00076890625Q12.263161,9.97340990625,12.308658,9.95456390625Q12.354155,9.935718906249999,12.4024549,9.92611090625Q12.4507543,9.91650390625,12.5,9.91650390625Z" fill-rule="evenodd" fill="" fill-opacity="1" style="mix-blend-mode:passthrough"/></g><g><path d="M15.35355,8.27005690625Q15.42388,8.19973090625,15.46194,8.10784590625Q15.5,8.01596010625,15.5,7.91650390625Q15.5,7.86725820625,15.49039,7.81895880625Q15.48078,7.77065890625,15.46194,7.72516190625Q15.44309,7.67966490625,15.41573,7.63871890625Q15.38837,7.59777290625,15.35355,7.56295090625Q15.31873,7.52812890625,15.27778,7.50076890625Q15.23684,7.47340990625,15.19134,7.45456390625Q15.14584,7.43571890625,15.09754,7.42611090625Q15.04925,7.41650390625,15,7.41650390625Q14.90054,7.41650390625,14.80866,7.45456390625Q14.71677,7.49262390625,14.64645,7.56295090625L14.64629,7.56310790625L12.146447,10.06295390625Q12.111625,10.09777390625,12.084265,10.13871390625Q12.056906,10.17966390625,12.03806,10.22516390625Q12.019214999999999,10.27065390625,12.009607,10.31895390625Q12,10.36725390625,12,10.41650390625Q12,10.46575390625,12.009607,10.51404390625Q12.019214999999999,10.56234390625,12.03806,10.60784390625Q12.056906,10.65334390625,12.084265,10.69428390625Q12.111625,10.73523390625,12.146447,10.77005390625L14.64645,13.27005390625Q14.71677,13.34038390625,14.80866,13.37844390625Q14.90054,13.41650390625,15,13.41650390625Q15.04925,13.41650390625,15.09754,13.40689390625Q15.14584,13.39728390625,15.19134,13.37844390625Q15.23684,13.35959390625,15.27778,13.33223390625Q15.31873,13.30487390625,15.35355,13.27005390625Q15.38837,13.23523390625,15.41573,13.19428390625Q15.44309,13.15334390625,15.46194,13.10784390625Q15.48078,13.06234390625,15.49039,13.01404390625Q15.5,12.965743906250001,15.5,12.91650390625Q15.5,12.81704390625,15.46194,12.72516390625Q15.42388,12.63327390625,15.35355,12.56295390625L15.35329,12.56269390625L13.207107,10.41650390625L15.3534,8.27021390625L15.35355,8.27005690625L15.35355,8.27005690625Z" fill-rule="evenodd" fill="" fill-opacity="1" style="mix-blend-mode:passthrough"/></g><g><path d="M8.25,2.5Q8.25,2.4507543,8.25961,2.4024549Q8.269210000000001,2.354155,8.28806,2.308658Q8.306899999999999,2.263161,8.33426,2.222215Q8.36162,2.181269,8.39645,2.146447Q8.43127,2.111625,8.47221,2.084265Q8.51316,2.056906,8.55866,2.0380599999999998Q8.60415,2.019215,8.65245,2.009607Q8.70075,2,8.75,2Q8.79925,2,8.84755,2.009607Q8.89584,2.019215,8.94134,2.0380599999999998Q8.98684,2.056906,9.02778,2.084265Q9.06873,2.111625,9.10355,2.146447Q9.13837,2.181269,9.16573,2.222215Q9.19309,2.263161,9.21194,2.308658Q9.23078,2.354155,9.24039,2.4024549Q9.25,2.4507543,9.25,2.5L9.25,10.83333Q9.25,13.0181,7.55293,15.1508Q5.99865,17.104,3.942445,17.9615Q3.850077,18,3.75,18Q3.7007543,18,3.6524549,17.9904Q3.604155,17.980800000000002,3.558658,17.9619Q3.513161,17.9431,3.472215,17.9157Q3.431269,17.8884,3.396447,17.8536Q3.361625,17.8187,3.334265,17.7778Q3.306906,17.736800000000002,3.2880599999999998,17.6913Q3.269215,17.6458,3.259607,17.5975Q3.25,17.5492,3.25,17.5Q3.25,17.426000000000002,3.271443,17.3551Q3.292886,17.2843,3.333934,17.2227Q3.374981,17.161099999999998,3.432112,17.1141Q3.489242,17.067,3.557556,17.0385Q5.37634,16.280099999999997,6.77044,14.5281Q8.25,12.6688,8.25,10.83333L8.25,2.5Z" fill-rule="evenodd" fill="" fill-opacity="1" style="mix-blend-mode:passthrough"/></g><g><path d="M18,16.25L18,14.7917Q18,14.7424,17.9904,14.6941Q17.980800000000002,14.6458,17.9619,14.6003Q17.9431,14.5548,17.9157,14.5139Q17.8884,14.4729,17.8536,14.4381Q17.8187,14.4033,17.7778,14.3759Q17.736800000000002,14.3486,17.6913,14.3297Q17.6458,14.3109,17.5975,14.3013Q17.5492,14.2917,17.5,14.2917Q17.4508,14.2917,17.4025,14.3013Q17.3542,14.3109,17.3087,14.3297Q17.263199999999998,14.3486,17.2222,14.3759Q17.1813,14.4033,17.1464,14.4381Q17.1116,14.4729,17.0843,14.5139Q17.0569,14.5548,17.0381,14.6003Q17.019199999999998,14.6458,17.0096,14.6941Q17,14.7424,17,14.7917L17,16.25Q17,17,16.25,17L3.75,17Q3,17,3,16.25L3,3.75Q3,3.4393409999999998,3.219671,3.219671Q3.4393409999999998,3,3.75,3L16.25,3Q17,3,17,3.75L17,5.83333Q17,5.88258,17.0096,5.93088Q17.019199999999998,5.9791799999999995,17.0381,6.02467Q17.0569,6.07017,17.0843,6.11112Q17.1116,6.1520600000000005,17.1464,6.18689Q17.1813,6.22171,17.2222,6.24907Q17.263199999999998,6.2764299999999995,17.3087,6.29527Q17.3542,6.31412,17.4025,6.323729999999999Q17.4508,6.33333,17.5,6.33333Q17.5492,6.33333,17.5975,6.323729999999999Q17.6458,6.31412,17.6913,6.29527Q17.736800000000002,6.2764299999999995,17.7778,6.24907Q17.8187,6.22171,17.8536,6.18689Q17.8884,6.1520600000000005,17.9157,6.11112Q17.9431,6.07017,17.9619,6.02467Q17.980800000000002,5.9791799999999995,17.9904,5.93088Q18,5.88258,18,5.83333L18,5.83195L18,3.75Q18,3.025125,17.4874,2.512566Q16.974899999999998,2,16.25,2L3.75,2Q3.025128,2,2.5125638,2.5125638Q2,3.025128,2,3.75L2,16.25Q2,16.974899999999998,2.5125663,17.4874Q3.025125,18,3.75,18L16.25,18Q16.974899999999998,18,17.4874,17.4874Q18,16.974899999999998,18,16.25Z" fill-rule="evenodd" fill="" fill-opacity="1" style="mix-blend-mode:passthrough"/></g></g></svg>
