<svg xmlns="http://www.w3.org/2000/svg" xmlns:xlink="http://www.w3.org/1999/xlink" fill="" version="1.1" width="20" height="20" viewBox="0 0 20 20"><defs><clipPath id="master_svg0_69_06215"><rect x="0" y="0" width="20" height="20" rx="0"/></clipPath></defs><g clip-path="url(#master_svg0_69_06215)"><g><path d="M1.166015625,17.4996778125L1.166015625,12.0830078125Q1.166015625,12.0337621125,1.175622625,11.9854627125Q1.185230625,11.9371628125,1.204075625,11.8916658125Q1.2229216250000001,11.8461688125,1.250280625,11.8052228125Q1.277640625,11.7642768125,1.312462625,11.7294548125Q1.347284625,11.6946328125,1.388230625,11.6672728125Q1.429176625,11.6399138125,1.4746736249999999,11.6210678125Q1.520170625,11.602222812499999,1.568470525,11.5926148125Q1.616769925,11.5830078125,1.666015625,11.5830078125L18.332715625,11.5830078125Q18.381915625,11.5830078125,18.430215625,11.5926148125Q18.478515625,11.602222812499999,18.524015625,11.6210678125Q18.569515625,11.6399138125,18.610415625,11.6672728125Q18.651415625,11.6946328125,18.686215625,11.7294548125Q18.721015625,11.7642768125,18.748415625,11.8052228125Q18.775815625,11.8461688125,18.794615625,11.8916658125Q18.813515625,11.9371628125,18.823115625,11.9854627125Q18.832715625,12.0337621125,18.832715625,12.0830078125L18.832715625,17.4996778125Q18.832715625,17.5489178125,18.823115625,17.5972178125Q18.813515625,17.6455178125,18.794615625,17.6910178125Q18.775815625,17.7365078125,18.748415625,17.7774578125Q18.721015625,17.8184078125,18.686215625,17.853227812500002Q18.651415625,17.888047812499998,18.610515625,17.9154078125Q18.569515625,17.9427678125,18.524015625,17.9616078125Q18.478515625,17.9804578125,18.430215625,17.9900678125Q18.381915625,17.9996778125,18.332715625,17.9996778125L1.666015625,17.9996778125Q1.616769925,17.9996778125,1.568470525,17.9900678125Q1.520170625,17.9804578125,1.4746736249999999,17.9616078125Q1.429176625,17.9427678125,1.388230625,17.9154078125Q1.347284625,17.888047812499998,1.312462625,17.853227812500002Q1.277640625,17.8184078125,1.250280625,17.7774578125Q1.2229216250000001,17.7365078125,1.204075625,17.6910178125Q1.185230625,17.6455178125,1.175622625,17.5972178125Q1.166015625,17.5489178125,1.166015625,17.4996778125ZM17.832715625,12.5830078125L2.166015625,12.5830078125L2.166015625,16.9996778125L17.832715625,16.9996778125L17.832715625,12.5830078125Z" fill-rule="evenodd" fill="" fill-opacity="1" style="mix-blend-mode:passthrough"/></g><g><path d="M15.83333,14.79167Q15.83333,14.84284,15.82832,14.89377Q15.8233,14.944700000000001,15.813320000000001,14.99489Q15.803329999999999,15.04508,15.78848,15.09405Q15.773620000000001,15.14302,15.75404,15.1903Q15.73446,15.23757,15.71034,15.2827Q15.686209999999999,15.32784,15.65778,15.37039Q15.62935,15.41294,15.59689,15.452490000000001Q15.56442,15.49205,15.52824,15.52824Q15.49205,15.56442,15.452490000000001,15.59689Q15.41294,15.62935,15.37039,15.65778Q15.32784,15.686209999999999,15.28271,15.710329999999999Q15.23757,15.73446,15.1903,15.75404Q15.14302,15.773620000000001,15.09405,15.78848Q15.04508,15.803329999999999,14.99489,15.813320000000001Q14.944700000000001,15.8233,14.89377,15.82832Q14.84284,15.83333,14.79167,15.83333Q14.740493,15.83333,14.689566,15.82832Q14.638638,15.8233,14.588448,15.813320000000001Q14.538257,15.803329999999999,14.489287000000001,15.78848Q14.440317,15.773620000000001,14.393038,15.75404Q14.34576,15.73446,14.300628,15.71034Q14.255497,15.686209999999999,14.212948,15.65778Q14.170398,15.62935,14.13084,15.59689Q14.091282,15.56442,14.055097,15.52824Q14.018912,15.49205,13.986447,15.452490000000001Q13.953983,15.41294,13.925553,15.37039Q13.897122,15.32784,13.872999,15.28271Q13.8488755,15.23757,13.8292922,15.1903Q13.8097088,15.14302,13.7948538,15.09405Q13.7799988,15.04508,13.7700153,14.99489Q13.7600318,14.944700000000001,13.75501591,14.89377Q13.75,14.84284,13.75,14.79167Q13.75,14.740493,13.75501591,14.689566Q13.7600318,14.638638,13.7700153,14.588448Q13.7799988,14.538257,13.7948538,14.489287000000001Q13.8097088,14.440317,13.8292922,14.393038Q13.8488755,14.34576,13.872999,14.300628Q13.897122,14.255497,13.925552,14.212948Q13.953983,14.170398,13.986447,14.13084Q14.018912,14.091282,14.055097,14.055097Q14.091282,14.018912,14.13084,13.986447Q14.170398,13.953983,14.212948,13.925553Q14.255497,13.897122,14.300628,13.872999Q14.34576,13.8488755,14.393038,13.8292922Q14.440317,13.8097088,14.489287000000001,13.7948538Q14.538257,13.7799988,14.588448,13.7700153Q14.638638,13.7600318,14.689566,13.75501591Q14.740493,13.75,14.79167,13.75Q14.84284,13.75,14.89377,13.75501591Q14.944700000000001,13.7600318,14.99489,13.7700153Q15.04508,13.7799988,15.09405,13.7948538Q15.14302,13.8097088,15.1903,13.8292922Q15.23757,13.8488755,15.2827,13.872999Q15.32784,13.897122,15.37039,13.925552Q15.41294,13.953983,15.452490000000001,13.986447Q15.49205,14.018912,15.52824,14.055097Q15.56442,14.091282,15.59689,14.13084Q15.62935,14.170398,15.65778,14.212948Q15.686209999999999,14.255497,15.710329999999999,14.300628Q15.73446,14.34576,15.75404,14.393038Q15.773620000000001,14.440317,15.78848,14.489287000000001Q15.803329999999999,14.538257,15.813320000000001,14.588448Q15.8233,14.638638,15.82832,14.689566Q15.83333,14.740493,15.83333,14.79167Z" fill="" fill-opacity="1" style="mix-blend-mode:passthrough"/></g><g><path d="M15.851015625,2.5830078125L17.843115625,12.1849078125L18.822215625,11.9817578125L16.747415625000002,1.9814348125Q16.738815625,1.9395288125,16.723115625,1.8997098125Q16.707415625,1.8598908125,16.685115625,1.8233168124999999Q16.662915625,1.7867438125,16.634815625,1.7544808125Q16.606715625,1.7222168125000001,16.573515625,1.6952018125000001Q16.540315624999998,1.6681868125000001,16.503015625,1.6472068125Q16.465715625,1.6262258125,16.425415625,1.6118908125Q16.385015625,1.5975548124999999,16.342915625,1.5902818125Q16.300715625000002,1.5830078125,16.257915625000003,1.5830078125L3.765335625,1.5830078125Q3.722615625,1.5830078125,3.680505625,1.5902568125Q3.638405625,1.5975048125,3.5981356250000003,1.6117918125Q3.5578756250000003,1.6260798125,3.520615625,1.6469908125Q3.4833556249999997,1.6679018125,3.450185625,1.6948318125Q3.417015625,1.7217608125,3.388895625,1.7539268125Q3.360775625,1.7860938124999999,3.338525625,1.8225648125Q3.3162656249999998,1.8590348125,3.3005256249999997,1.8987528125Q3.284775625,1.9384708125,3.276005625,1.9802838125L1.176681625,11.9806078125L2.155349625,12.1860078125L4.171275625,2.5830078125L15.851015625,2.5830078125Z" fill-rule="evenodd" fill="" fill-opacity="1" style="mix-blend-mode:passthrough"/></g><g><path d="M8.64846,10.08303609375L8.74033,10.08303609375Q8.78958,10.08303609375,8.83788,10.073426093750001Q8.88618,10.06382609375,8.93167,10.04497609375Q8.977170000000001,10.02613609375,9.01812,9.99877609375Q9.05906,9.97141609375,9.09389,9.93659609375Q9.12871,9.90176609375,9.15607,9.86082609375Q9.18343,9.81987609375,9.20227,9.77437609375Q9.221119999999999,9.728886093749999,9.23073,9.68058609375Q9.24033,9.63228609375,9.24033,9.58303609375Q9.24033,9.53379609375,9.23073,9.485496093750001Q9.221119999999999,9.43719609375,9.20227,9.39169609375Q9.18343,9.34619609375,9.15607,9.30525609375Q9.12871,9.264306093750001,9.09389,9.22948609375Q9.05906,9.19466609375,9.01812,9.16730609375Q8.977170000000001,9.13994609375,8.93167,9.12109609375Q8.88618,9.10225609375,8.83788,9.09264609375Q8.78958,9.08303609375,8.74033,9.08303609375L8.20721,9.08303609375Q6.75,9.08303609375,6.75,8.13012609375Q6.75,7.74632609375,7.07305,7.47259309375Q7.42161,7.17724609375,7.91917,7.17724609375Q7.96841,7.17724609375,8.01671,7.16763909375Q8.065010000000001,7.15803109375,8.11051,7.13918609375Q8.15601,7.12034009375,8.19695,7.09298109375Q8.2379,7.06562109375,8.27272,7.03079909375Q8.30754,6.99597709375,8.334900000000001,6.95503109375Q8.36226,6.91408509375,8.38111,6.86858809375Q8.39995,6.82309109375,8.409559999999999,6.77479119375Q8.41917,6.72649179375,8.41917,6.67724609375Q8.41917,6.62800039375,8.409559999999999,6.57970099375Q8.39995,6.53140109375,8.38111,6.48590409375Q8.36226,6.44040709375,8.334900000000001,6.39946109375Q8.30754,6.35851509375,8.27272,6.32369309375Q8.2379,6.28887109375,8.19695,6.26151109375Q8.15601,6.23415209375,8.11051,6.21530609375Q8.065010000000001,6.19646109375,8.01671,6.18685309375Q7.96841,6.17724609375,7.91917,6.17724609375Q7.054916,6.17724609375,6.426585,6.70964919375Q5.75,7.28294009375,5.75,8.13012609375Q5.75,9.13626609375,6.546344,9.66235609375Q7.183131,10.08303609375,8.20721,10.08303609375L8.64846,10.08303609375Z" fill-rule="evenodd" fill="" fill-opacity="1" style="mix-blend-mode:passthrough"/></g><g><path d="M12.0867421875,6.17724609375Q12.9736271875,6.17724609375,13.5481471875,6.61238509375Q14.2504971875,7.14434509375,14.2504971875,8.13012609375Q14.2504971875,9.13652609375,13.4501571875,9.662916093749999Q12.811397187499999,10.08303609375,11.7870341875,10.08303609375L11.2451171875,10.08303609375Q11.1958714875,10.08303609375,11.1475720875,10.073426093750001Q11.0992721875,10.06382609375,11.0537751875,10.04497609375Q11.0082781875,10.02613609375,10.9673321875,9.99877609375Q10.9263861875,9.97141609375,10.8915641875,9.93659609375Q10.8567421875,9.90176609375,10.8293821875,9.86082609375Q10.8020231875,9.81987609375,10.7831771875,9.77437609375Q10.764332187499999,9.728886093749999,10.7547241875,9.68058609375Q10.7451171875,9.63228609375,10.7451171875,9.58303609375Q10.7451171875,9.53379609375,10.7547241875,9.485496093750001Q10.764332187499999,9.43719609375,10.7831771875,9.39169609375Q10.8020231875,9.34619609375,10.8293821875,9.30525609375Q10.8567421875,9.264306093750001,10.8915641875,9.22948609375Q10.9263861875,9.19466609375,10.9673321875,9.16730609375Q11.0082781875,9.13994609375,11.0537751875,9.12109609375Q11.0992721875,9.10225609375,11.1475720875,9.09264609375Q11.1958714875,9.08303609375,11.2451171875,9.08303609375L11.7870341875,9.08303609375Q12.5120171875,9.08303609375,12.9006471875,8.82742609375Q13.2504971875,8.59733609375,13.2504971875,8.13012609375Q13.2504971875,7.64139909375,12.9443771875,7.40954509375Q12.6376671875,7.17724609375,12.0867421875,7.17724609375Q12.0374961875,7.17724609375,11.9891971875,7.16763909375Q11.9408971875,7.15803109375,11.8954001875,7.13918609375Q11.8499031875,7.12034009375,11.8089571875,7.09298109375Q11.7680101875,7.06562109375,11.7331891875,7.03079909375Q11.6983671875,6.99597709375,11.6710071875,6.95503109375Q11.6436481875,6.91408509375,11.6248021875,6.86858809375Q11.6059561875,6.82309109375,11.5963491875,6.77479119375Q11.5867421875,6.72649179375,11.5867421875,6.67724609375Q11.5867421875,6.62800039375,11.5963491875,6.57970099375Q11.6059561875,6.53140109375,11.6248021875,6.48590409375Q11.6436481875,6.44040709375,11.6710071875,6.39946109375Q11.6983671875,6.35851509375,11.7331891875,6.32369309375Q11.7680101875,6.28887109375,11.8089571875,6.26151109375Q11.8499031875,6.23415209375,11.8954001875,6.21530609375Q11.9408971875,6.19646109375,11.9891971875,6.18685409375Q12.0374961875,6.17724609375,12.0867421875,6.17724609375Z" fill-rule="evenodd" fill="" fill-opacity="1" style="mix-blend-mode:passthrough"/></g><g><path d="M8.1320453125,4.8039628125Q7.4189453125,5.5226118125,7.4189453125,6.6772178125Q7.4189453125,6.7264578125,7.4285523125,6.7747578125Q7.4381603125,6.8230578125,7.4570053125,6.868557812500001Q7.4758513125,6.914057812499999,7.5032103125,6.9549978125Q7.5305703125,6.9959478125,7.5653923125,7.030767812500001Q7.6002143125,7.0655878125000005,7.6411603125,7.0929478125Q7.6821063125,7.1203078125,7.7276033125,7.139157812500001Q7.7731003125,7.1579978125,7.8214002125,7.1676078125Q7.8696996125,7.1772178125,7.9189453125,7.1772178125Q7.9681910125,7.1772178125,8.0164904125,7.1676078125Q8.0647903125,7.1579978125,8.1102873125,7.139157812500001Q8.1557843125,7.1203078125,8.1967303125,7.0929478125Q8.2376763125,7.0655878125000005,8.2724983125,7.030767812500001Q8.3073203125,6.9959478125,8.3346803125,6.9549978125Q8.3620393125,6.914057812499999,8.3808853125,6.868557812500001Q8.399730312500001,6.8230578125,8.4093383125,6.7747578125Q8.4189453125,6.7264578125,8.4189453125,6.6772178125Q8.4189453125,5.9345578125,8.8418873125,5.5083238125000005Q9.2639153125,5.0830078125,9.9997353125,5.0830078125Q10.732035312499999,5.0830078125,11.159775312499999,5.5154928125Q11.5858953125,5.9463378124999995,11.5860253125,6.6767678125L11.5860253125,6.6772178125Q11.5860253125,6.7264578125,11.5956353125,6.7747578125Q11.6052453125,6.8230578125,11.6240853125,6.868557812500001Q11.6429353125,6.914057812499999,11.6702953125,6.9549978125Q11.6976553125,6.9959478125,11.7324753125,7.030767812500001Q11.7672953125,7.0655878125000005,11.8082453125,7.0929478125Q11.8491853125,7.1203078125,11.8946853125,7.139157812500001Q11.940185312499999,7.1579978125,11.9884853125,7.1676078125Q12.036785312500001,7.1772178125,12.0860253125,7.1772178125Q12.1352753125,7.1772178125,12.1835753125,7.1676078125Q12.2318753125,7.1579978125,12.277365312499999,7.139157812500001Q12.3228653125,7.1203078125,12.3638153125,7.0929478125Q12.4047553125,7.0655878125000005,12.4395853125,7.030767812500001Q12.4744053125,6.9959478125,12.5017653125,6.9549978125Q12.5291253125,6.914057812499999,12.5479653125,6.868557812500001Q12.566815312500001,6.8230578125,12.5764153125,6.7747578125Q12.5860253125,6.7264578125,12.5860253125,6.6772178125Q12.5860253125,5.5354818125000005,11.8707653125,4.8122938125Q11.1494853125,4.0830078125,9.9997353125,4.0830078125Q8.8474323125,4.0830078125,8.1320453125,4.8039628125Z" fill-rule="evenodd" fill="" fill-opacity="1" style="mix-blend-mode:passthrough"/></g><g><path d="M11.667314375,10.0830078125L8.333984375,10.0830078125L8.333984375,9.0830078125L11.667314375,9.0830078125L11.667314375,10.0830078125Z" fill-rule="evenodd" fill="" fill-opacity="1" style="mix-blend-mode:passthrough"/></g></g></svg>
