<svg xmlns="http://www.w3.org/2000/svg" xmlns:xlink="http://www.w3.org/1999/xlink" fill="none" version="1.1" width="20" height="20" viewBox="0 0 20 20"><defs><clipPath id="master_svg0_77_07072"><rect x="0" y="0" width="20" height="20" rx="0"/></clipPath></defs><g clip-path="url(#master_svg0_77_07072)"><g><path d="M4.517355625,3.61687390625L1.184019625,15.70020390625Q1.171110625,15.74700390625,1.167443625,15.79540390625Q1.163777625,15.84380390625,1.169490625,15.89200390625Q1.175202625,15.94020390625,1.190081625,15.98640390625Q1.204960625,16.03260390625,1.228449625,16.07510390625Q1.251937625,16.11760390625,1.2831596250000001,16.154803906250002Q1.314381625,16.191903906249998,1.352170625,16.22240390625Q1.389958625,16.252903906249998,1.432902625,16.27550390625Q1.475846625,16.29810390625,1.522341625,16.31210390625L9.855675625,18.81210390625Q9.999345625,18.85520390625,10.143025625,18.81210390625L18.476315625,16.31210390625Q18.522815625,16.29810390625,18.565815625,16.27550390625Q18.608715625,16.252903906249998,18.646515625,16.22240390625Q18.684315625,16.191903906249998,18.715515625,16.154803906250002Q18.746715625,16.11760390625,18.770215625,16.07510390625Q18.793715625,16.03260390625,18.808615625,15.98640390625Q18.823515625,15.94020390625,18.829215625,15.89200390625Q18.834915625,15.84380390625,18.831215625,15.79540390625Q18.827615625,15.74700390625,18.814715625,15.70020390625L15.481315625,3.61687390625Q15.450715625,3.50568390625,15.374415625,3.41917390625Q15.298115625,3.33266390625,15.191615625,3.28829390625L10.191655625,1.20496590625Q10.099345625,1.16650390625,9.999345625,1.16650390625Q9.899345625,1.16650390625,9.807045625,1.20496590625L4.807045625000001,3.28829390625Q4.700575625,3.33266390625,4.624295625,3.41917390625Q4.548025625,3.50568390625,4.517355625,3.61687390625ZM2.278045625,15.49480390625L9.999345625,17.81120390625L17.720615625,15.49480390625L14.582115625,4.11766390625L9.999345625,2.20817090625L5.416555625,4.11766390625L2.278045625,15.49480390625Z" fill-rule="evenodd" fill="" fill-opacity="1" style="mix-blend-mode:passthrough"/></g><g><path d="M9.5,5.83349609375Q9.5,5.78425039375,9.509607,5.73595099375Q9.519214999999999,5.68765109375,9.53806,5.64215409375Q9.556906,5.59665709375,9.584265,5.55571109375Q9.611625,5.51476509375,9.646447,5.47994309375Q9.681269,5.44512109375,9.722215,5.41776109375Q9.763161,5.39040209375,9.808658,5.37155609375Q9.854155,5.35271109375,9.9024549,5.34310309375Q9.9507543,5.33349609375,10,5.33349609375Q10.0492457,5.33349609375,10.0975451,5.34310309375Q10.145845,5.35271109375,10.191342,5.37155609375Q10.236839,5.39040209375,10.277785,5.41776109375Q10.318731,5.44512109375,10.353553,5.47994309375Q10.388375,5.51476509375,10.415735,5.55571109375Q10.443094,5.59665709375,10.46194,5.64215409375Q10.480785000000001,5.68765109375,10.490393,5.73595099375Q10.5,5.78425039375,10.5,5.83349609375L10.5,18.33349609375Q10.5,18.38269609375,10.490393,18.43099609375Q10.480785000000001,18.47929609375,10.46194,18.52479609375Q10.443094,18.570296093750002,10.415735,18.61129609375Q10.388375,18.65219609375,10.353553,18.68709609375Q10.318731,18.72189609375,10.277785,18.74919609375Q10.236839,18.77659609375,10.191342,18.79539609375Q10.145845,18.814296093750002,10.0975451,18.82389609375Q10.0492457,18.83349609375,10,18.83349609375Q9.9507543,18.83349609375,9.9024549,18.82389609375Q9.854155,18.814296093750002,9.808658,18.79539609375Q9.763161,18.77659609375,9.722215,18.74919609375Q9.681269,18.72189609375,9.646447,18.68709609375Q9.611625,18.65219609375,9.584265,18.61129609375Q9.556906,18.570296093750002,9.53806,18.52479609375Q9.519214999999999,18.47929609375,9.509607,18.43099609375Q9.5,18.38269609375,9.5,18.33349609375L9.5,5.83349609375Z" fill-rule="evenodd" fill="" fill-opacity="1" style="mix-blend-mode:passthrough"/></g><g><path d="M15.192309999999999,4.211538Q15.26065,4.183064,15.3178,4.136007Q15.37496,4.08895,15.41603,4.02735Q15.45709,3.96575,15.47855,3.894892Q15.5,3.8240343,15.5,3.75Q15.5,3.7007543,15.49039,3.6524549Q15.48078,3.604155,15.46194,3.558658Q15.44309,3.513161,15.41573,3.472215Q15.38837,3.431269,15.35355,3.396447Q15.31873,3.361625,15.27778,3.334265Q15.23684,3.306906,15.19134,3.2880599999999998Q15.14584,3.269215,15.09755,3.259607Q15.04925,3.25,15,3.25Q14.9,3.25,14.807690000000001,3.288462L9.807864,5.37172L9.807692,5.37179Q9.739353,5.40027,9.682197,5.44733Q9.625042,5.49438,9.583975,5.55598Q9.542908,5.61758,9.521454,5.68844Q9.5,5.7593,9.5,5.83333Q9.5,5.88258,9.509607,5.93088Q9.519214999999999,5.9791799999999995,9.53806,6.02467Q9.556906,6.07017,9.584265,6.11112Q9.611625,6.1520600000000005,9.646447,6.18689Q9.681269,6.22171,9.722215,6.24907Q9.763161,6.2764299999999995,9.808658,6.29527Q9.854155,6.31412,9.9024549,6.323729999999999Q9.9507543,6.33333,10,6.33333Q10.1,6.33333,10.192308,6.2948699999999995L15.192309999999999,4.211538L15.192309999999999,4.211538Z" fill-rule="evenodd" fill="" fill-opacity="1" style="mix-blend-mode:passthrough"/></g><g><path d="M5.192386,3.288494L10.192309999999999,5.37179Q10.26065,5.40027,10.3178,5.44733Q10.37496,5.49438,10.41603,5.55598Q10.45709,5.61758,10.47855,5.68844Q10.5,5.7593,10.5,5.83333Q10.5,5.88258,10.49039,5.93088Q10.48078,5.9791799999999995,10.46194,6.02467Q10.44309,6.07017,10.41573,6.11112Q10.38837,6.1520600000000005,10.35355,6.18689Q10.31873,6.22171,10.27778,6.24907Q10.23684,6.2764299999999995,10.19134,6.29527Q10.14584,6.31412,10.09755,6.323729999999999Q10.04925,6.33333,10,6.33333Q9.9,6.33333,9.807690000000001,6.2948699999999995L4.807771,4.211571L4.807692,4.211538Q4.739353,4.183064,4.682197,4.136007Q4.625042,4.08895,4.583975,4.02735Q4.542908,3.96575,4.521454,3.894892Q4.5,3.8240344,4.5,3.75Q4.5,3.7007543,4.509607,3.6524549Q4.519215,3.604155,4.53806,3.558658Q4.556906,3.513161,4.584265,3.472215Q4.611625,3.431269,4.646447,3.396447Q4.681269,3.361625,4.722215,3.334265Q4.763161,3.306906,4.808658,3.2880599999999998Q4.854155,3.269215,4.9024549,3.259607Q4.9507543,3.25,5,3.25Q5.1,3.25,5.192308,3.288462L5.192386,3.288494Z" fill-rule="evenodd" fill="" fill-opacity="1" style="mix-blend-mode:passthrough"/></g><g><path d="M10.151214375,13.81028709375Q10.227234375,13.78628109375,10.292024375,13.73982209375Q10.356814375,13.69336409375,10.403944375,13.62906109375Q10.451064375,13.56475809375,10.475854375,13.48898909375Q10.500654375,13.41321899375,10.500654375,13.33349609375Q10.500654375,13.28425039375,10.491044375,13.23595099375Q10.481434375,13.18765109375,10.462594375,13.14215409375Q10.443744375,13.09665709375,10.416384375,13.05571109375Q10.389024375,13.01476509375,10.354204375,12.97994309375Q10.319384375,12.94512109375,10.278434375,12.91776109375Q10.237484375,12.89040209375,10.191994375,12.87155609375Q10.146494375,12.852711093749999,10.098194375,12.84310309375Q10.049894375000001,12.83349609375,10.000654375,12.83349609375Q9.923584375,12.83349609375,9.850084375,12.85670509375L9.849924375,12.85675409375L1.933418375,15.35670609375Q1.857396375,15.38071609375,1.792609375,15.42716609375Q1.7278223750000001,15.47362609375,1.6806963750000001,15.53793609375Q1.633569375,15.602236093750001,1.608777375,15.67800609375Q1.583984375,15.75377609375,1.583984375,15.83349609375Q1.583984375,15.88274609375,1.593591375,15.93103609375Q1.603199375,15.97933609375,1.622044375,16.02483609375Q1.6408903750000001,16.07033609375,1.668249375,16.11127609375Q1.695609375,16.15222609375,1.730431375,16.18704609375Q1.765253375,16.221866093750002,1.806199375,16.24922609375Q1.847145375,16.27658609375,1.8926423749999999,16.29543609375Q1.938139375,16.31427609375,1.986439275,16.32388609375Q2.034738675,16.33349609375,2.083984375,16.33349609375Q2.161055975,16.33349609375,2.234550375,16.31028609375L10.150824375,13.81041209375L10.151214375,13.81028709375L10.151214375,13.81028709375Z" fill-rule="evenodd" fill="" fill-opacity="1" style="mix-blend-mode:passthrough"/></g><g><path d="M10.143674,12.85458309375L18.47701,15.354586093750001Q18.55426,15.37775609375,18.6203,15.42404609375Q18.68634,15.47032609375,18.734479999999998,15.53502609375Q18.78262,15.59973609375,18.80798,15.67629609375Q18.83333,15.75284609375,18.83333,15.83349609375Q18.83333,15.88274609375,18.82372,15.93103609375Q18.814120000000003,15.97933609375,18.795270000000002,16.02483609375Q18.776429999999998,16.07033609375,18.74907,16.11127609375Q18.72171,16.15222609375,18.68689,16.18704609375Q18.65206,16.221866093750002,18.61112,16.24922609375Q18.570169999999997,16.27658609375,18.52467,16.29543609375Q18.47918,16.31427609375,18.430880000000002,16.32388609375Q18.38258,16.33349609375,18.33333,16.33349609375Q18.25995,16.33349609375,18.18966,16.31240609375L9.856326,13.81240909375Q9.77908,13.78923509375,9.713037,13.74295009375Q9.646994,13.69666409375,9.598854,13.63196109375Q9.550713,13.56725809375,9.525356,13.49070109375Q9.5,13.41414349375,9.5,13.33349609375Q9.5,13.28425039375,9.509607,13.23595099375Q9.519214999999999,13.18765109375,9.53806,13.14215409375Q9.556906,13.09665709375,9.584265,13.05571109375Q9.611625,13.01476509375,9.646447,12.97994309375Q9.681269,12.94512109375,9.722215,12.91776109375Q9.763161,12.89040209375,9.808658,12.87155609375Q9.854155,12.852711093749999,9.9024549,12.84310309375Q9.9507543,12.83349609375,10,12.83349609375Q10.0733844,12.83349609375,10.143674,12.85458309375Z" fill-rule="evenodd" fill="" fill-opacity="1" style="mix-blend-mode:passthrough"/></g></g></svg>
