<svg xmlns="http://www.w3.org/2000/svg" xmlns:xlink="http://www.w3.org/1999/xlink" fill="" version="1.1" width="20" height="20" viewBox="0 0 20 20"><defs><clipPath id="master_svg0_69_06225"><rect x="0" y="0" width="20" height="20" rx="0"/></clipPath></defs><g clip-path="url(#master_svg0_69_06225)"><g><path d="M6.187534375,3.2705451875Q6.257864375,3.2002191875,6.295924375,3.1083341875Q6.333984375,3.0164483875,6.333984375,2.9169921875Q6.333984375,2.8677464875,6.324374375,2.8194470875Q6.314764375,2.7711471875,6.295924375,2.7256501875Q6.277074375,2.6801531875,6.249714375,2.6392071875Q6.222354375,2.5982611875,6.187534375,2.5634391875Q6.152714375,2.5286171875,6.111764375,2.5012571875Q6.070824375,2.4738981875,6.025324375,2.4550521874999998Q5.979824375,2.4362071875,5.931524375,2.4265991875Q5.883234375,2.4169921875,5.833984375,2.4169921875Q5.7345243749999995,2.4169921875,5.642644375,2.4550521874999998Q5.550754375,2.4931121875,5.480434375,2.5634391875L5.480214375,2.5636521875L3.333984375,4.7098821875L2.437597375,3.8134981875L2.437537375,3.8134391875Q2.367211375,3.7431121875,2.275326375,3.7050521874999998Q2.183440575,3.6669921875,2.083984375,3.6669921875Q2.034738675,3.6669921875,1.986439275,3.6765991875Q1.938139375,3.6862071875,1.8926423749999999,3.7050521874999998Q1.847145375,3.7238981875,1.806199375,3.7512571875000003Q1.765253375,3.7786161875,1.730431375,3.8134391875Q1.695609375,3.8482601875,1.668249375,3.8892071875000003Q1.6408903750000001,3.9301521875,1.622044375,3.9756521874999997Q1.603199375,4.0211521875,1.593591375,4.0694421875Q1.583984375,4.1177421875,1.583984375,4.1669921875Q1.583984375,4.2664521875000005,1.622044375,4.3583321875Q1.660104375,4.4502221875,1.730431375,4.5205421875L2.980431375,5.7705421875Q3.015253375,5.8053721875,3.0561993750000003,5.8327221875Q3.097144375,5.8600821875,3.1426443749999997,5.8789321875Q3.1881443750000003,5.8977821875,3.236434375,5.9073821875Q3.284734375,5.9169921875,3.333984375,5.9169921875Q3.383234375,5.9169921875,3.431534375,5.9073821875Q3.4798243749999997,5.8977821875,3.5253243750000003,5.8789321875Q3.570824375,5.8600821875,3.611774375,5.8327321874999996Q3.652714375,5.8053721875,3.6875343750000003,5.7705421875L6.187324375,3.2707591875L6.187534375,3.2705451875L6.187534375,3.2705451875Z" fill-rule="evenodd" fill="" fill-opacity="1" style="mix-blend-mode:passthrough"/></g><g><path d="M6.187534375,9.103553Q6.257864375,9.033227,6.295924375,8.941342Q6.333984375,8.8494562,6.333984375,8.75Q6.333984375,8.7007543,6.324374375,8.6524549Q6.314764375,8.604155,6.295924375,8.558658Q6.277074375,8.513161,6.249714375,8.472215Q6.222354375,8.431269,6.187534375,8.396447Q6.152714375,8.361625,6.111764375,8.334265Q6.070824375,8.306906,6.025324375,8.28806Q5.979824375,8.269214999999999,5.931524375,8.259607Q5.883234375,8.25,5.833984375,8.25Q5.7345243749999995,8.25,5.642644375,8.28806Q5.550754375,8.32612,5.480434375,8.396447L5.480214375,8.39666L3.333984375,10.54289L2.437597375,9.646506L2.437537375,9.646447Q2.367211375,9.57612,2.275326375,9.53806Q2.183440575,9.5,2.083984375,9.5Q2.034738675,9.5,1.986439275,9.509607Q1.938139375,9.519214999999999,1.8926423749999999,9.53806Q1.847145375,9.556906,1.806199375,9.584265Q1.765253375,9.611623999999999,1.730431375,9.646447Q1.695609375,9.681268,1.668249375,9.722215Q1.6408903750000001,9.76316,1.622044375,9.80866Q1.603199375,9.85416,1.593591375,9.90245Q1.583984375,9.95075,1.583984375,10Q1.583984375,10.09946,1.622044375,10.19134Q1.660104375,10.28323,1.730431375,10.35355L2.980431375,11.60355Q3.015253375,11.63838,3.0561993750000003,11.66573Q3.097144375,11.69309,3.1426443749999997,11.71194Q3.1881443750000003,11.730789999999999,3.236434375,11.74039Q3.284734375,11.75,3.333984375,11.75Q3.383234375,11.75,3.431534375,11.74039Q3.4798243749999997,11.730789999999999,3.5253243750000003,11.71194Q3.570824375,11.69309,3.611774375,11.66574Q3.652714375,11.63838,3.6875343750000003,11.60355L6.187324375,9.103767L6.187534375,9.103553L6.187534375,9.103553Z" fill-rule="evenodd" fill="" fill-opacity="1" style="mix-blend-mode:passthrough"/></g><g><path d="M6.187534375,14.9365608125Q6.257864375,14.8662348125,6.295924375,14.7743498125Q6.333984375,14.6824640125,6.333984375,14.5830078125Q6.333984375,14.5337621125,6.324374375,14.4854627125Q6.314764375,14.4371628125,6.295924375,14.3916658125Q6.277074375,14.3461688125,6.249714375,14.3052228125Q6.222354375,14.2642768125,6.187534375,14.2294548125Q6.152714375,14.1946328125,6.111764375,14.1672728125Q6.070824375,14.1399138125,6.025324375,14.1210678125Q5.979824375,14.102222812499999,5.931524375,14.0926148125Q5.883234375,14.0830078125,5.833984375,14.0830078125Q5.7345243749999995,14.0830078125,5.642644375,14.1210678125Q5.550754375,14.1591278125,5.480434375,14.2294548125L5.480214375,14.2296678125L3.333984375,16.3758978125L2.437597375,15.4795138125L2.437537375,15.4794548125Q2.367211375,15.4091278125,2.275326375,15.3710678125Q2.183440575,15.3330078125,2.083984375,15.3330078125Q2.034738675,15.3330078125,1.986439275,15.3426148125Q1.938139375,15.352222812499999,1.8926423749999999,15.3710678125Q1.847145375,15.3899138125,1.806199375,15.4172728125Q1.765253375,15.444631812499999,1.730431375,15.4794548125Q1.695609375,15.5142758125,1.668249375,15.5552228125Q1.6408903750000001,15.5961678125,1.622044375,15.6416678125Q1.603199375,15.6871678125,1.593591375,15.7354578125Q1.583984375,15.7837578125,1.583984375,15.8330078125Q1.583984375,15.9324678125,1.622044375,16.0243478125Q1.660104375,16.1162378125,1.730431375,16.1865578125L2.980431375,17.4365578125Q3.015253375,17.4713878125,3.0561993750000003,17.4987378125Q3.097144375,17.5260978125,3.1426443749999997,17.5449478125Q3.1881443750000003,17.5637978125,3.236434375,17.5733978125Q3.284734375,17.5830078125,3.333984375,17.5830078125Q3.383234375,17.5830078125,3.431534375,17.5733978125Q3.4798243749999997,17.5637978125,3.5253243750000003,17.5449478125Q3.570824375,17.5260978125,3.611774375,17.4987478125Q3.652714375,17.4713878125,3.6875343750000003,17.4365578125L6.187324375,14.9367748125L6.187534375,14.9365608125L6.187534375,14.9365608125Z" fill-rule="evenodd" fill="" fill-opacity="1" style="mix-blend-mode:passthrough"/></g><g><path d="M8.75,9.5L17.91667,9.5Q17.96591,9.5,18.01421,9.509607Q18.06251,9.519214999999999,18.10801,9.53806Q18.1535,9.556906,18.19445,9.584265Q18.2354,9.611625,18.270220000000002,9.646447Q18.305039999999998,9.681269,18.3324,9.722215Q18.35976,9.763161,18.3786,9.808658Q18.39745,9.854155,18.40706,9.9024549Q18.41667,9.9507543,18.41667,10Q18.41667,10.0492457,18.40706,10.0975451Q18.39745,10.145845,18.3786,10.191342Q18.35976,10.236839,18.3324,10.277785Q18.305039999999998,10.318731,18.270220000000002,10.353553Q18.2354,10.388375,18.19445,10.415735Q18.1535,10.443094,18.10801,10.46194Q18.06251,10.480785000000001,18.01421,10.490393Q17.96591,10.5,17.91667,10.5L8.75,10.5Q8.7007543,10.5,8.6524549,10.490393Q8.604155,10.480785000000001,8.558658,10.46194Q8.513161,10.443094,8.472215,10.415735Q8.431269,10.388375,8.396447,10.353553Q8.361625,10.318731,8.334265,10.277785Q8.306906,10.236839,8.28806,10.191342Q8.269214999999999,10.145845,8.259607,10.0975451Q8.25,10.0492457,8.25,10Q8.25,9.9507543,8.259607,9.9024549Q8.269214999999999,9.854155,8.28806,9.808658Q8.306906,9.763161,8.334265,9.722215Q8.361625,9.681269,8.396447,9.646447Q8.431269,9.611625,8.472215,9.584265Q8.513161,9.556906,8.558658,9.53806Q8.604155,9.519214999999999,8.6524549,9.509607Q8.7007543,9.5,8.75,9.5Z" fill-rule="evenodd" fill="" fill-opacity="1" style="mix-blend-mode:passthrough"/></g><g><path d="M8.75,15.3330078125L17.91667,15.3330078125Q17.96591,15.3330078125,18.01421,15.3426148125Q18.06251,15.352222812499999,18.10801,15.3710678125Q18.1535,15.3899138125,18.19445,15.4172728125Q18.2354,15.4446328125,18.270220000000002,15.4794548125Q18.305039999999998,15.5142768125,18.3324,15.5552228125Q18.35976,15.5961688125,18.3786,15.6416658125Q18.39745,15.6871628125,18.40706,15.7354627125Q18.41667,15.7837621125,18.41667,15.8330078125Q18.41667,15.8822535125,18.40706,15.9305529125Q18.39745,15.9788528125,18.3786,16.0243498125Q18.35976,16.0698468125,18.3324,16.1107928125Q18.305039999999998,16.1517388125,18.270220000000002,16.1865608125Q18.2354,16.2213828125,18.19445,16.2487428125Q18.1535,16.2761018125,18.10801,16.2949478125Q18.06251,16.3137928125,18.01421,16.3234008125Q17.96591,16.3330078125,17.91667,16.3330078125L8.75,16.3330078125Q8.7007543,16.3330078125,8.6524549,16.3234008125Q8.604155,16.3137928125,8.558658,16.2949478125Q8.513161,16.2761018125,8.472215,16.2487428125Q8.431269,16.2213828125,8.396447,16.1865608125Q8.361625,16.1517388125,8.334265,16.1107928125Q8.306906,16.0698468125,8.28806,16.0243498125Q8.269214999999999,15.9788528125,8.259607,15.9305529125Q8.25,15.8822535125,8.25,15.8330078125Q8.25,15.7837621125,8.259607,15.7354627125Q8.269214999999999,15.6871628125,8.28806,15.6416658125Q8.306906,15.5961688125,8.334265,15.5552228125Q8.361625,15.5142768125,8.396447,15.4794548125Q8.431269,15.4446328125,8.472215,15.4172728125Q8.513161,15.3899138125,8.558658,15.3710678125Q8.604155,15.352222812499999,8.6524549,15.3426148125Q8.7007543,15.3330078125,8.75,15.3330078125Z" fill-rule="evenodd" fill="" fill-opacity="1" style="mix-blend-mode:passthrough"/></g><g><path d="M8.75,3.6669921875L17.91667,3.6669921875Q17.96591,3.6669921875,18.01421,3.6765991875Q18.06251,3.6862071875,18.10801,3.7050521874999998Q18.1535,3.7238981875,18.19445,3.7512571875Q18.2354,3.7786171875,18.270220000000002,3.8134391875Q18.305039999999998,3.8482611875,18.3324,3.8892071875Q18.35976,3.9301531875,18.3786,3.9756501875Q18.39745,4.0211471875,18.40706,4.0694470875Q18.41667,4.1177464875,18.41667,4.1669921875Q18.41667,4.2162378875,18.40706,4.2645372875Q18.39745,4.3128371875,18.3786,4.3583341875Q18.35976,4.4038311875,18.3324,4.4447771875Q18.305039999999998,4.4857231875,18.270220000000002,4.5205451875Q18.2354,4.5553671875,18.19445,4.5827271875Q18.1535,4.6100861875,18.10801,4.6289321875Q18.06251,4.6477771875,18.01421,4.6573851875Q17.96591,4.6669921875,17.91667,4.6669921875L8.75,4.6669921875Q8.7007543,4.6669921875,8.6524549,4.6573851875Q8.604155,4.6477771875,8.558658,4.6289321875Q8.513161,4.6100861875,8.472215,4.5827271875Q8.431269,4.5553671875,8.396447,4.5205451875Q8.361625,4.4857231875,8.334265,4.4447771875Q8.306906,4.4038311875,8.28806,4.3583341875Q8.269214999999999,4.3128371875,8.259607,4.2645372875Q8.25,4.2162378875,8.25,4.1669921875Q8.25,4.1177464875,8.259607,4.0694470875Q8.269214999999999,4.0211471875,8.28806,3.9756501875Q8.306906,3.9301531875,8.334265,3.8892071875Q8.361625,3.8482611875,8.396447,3.8134391875Q8.431269,3.7786171875,8.472215,3.7512571875Q8.513161,3.7238981875,8.558658,3.7050521874999998Q8.604155,3.6862071875,8.6524549,3.6765991875Q8.7007543,3.6669921875,8.75,3.6669921875Z" fill-rule="evenodd" fill="" fill-opacity="1" style="mix-blend-mode:passthrough"/></g></g></svg>
