<svg xmlns="http://www.w3.org/2000/svg" xmlns:xlink="http://www.w3.org/1999/xlink" fill="none" version="1.1" width="20" height="20" viewBox="0 0 20 20"><defs><clipPath id="master_svg0_69_06240"><rect x="0" y="0" width="20" height="20" rx="0"/></clipPath></defs><g clip-path="url(#master_svg0_69_06240)"><g><path d="M3.333984375,15.4997078125L16.667484375,15.4997078125Q16.716684375,15.4997078125,16.764984374999997,15.4901078125Q16.813284375000002,15.4804078125,16.858784375,15.4616078125Q16.904284375,15.4428078125,16.945184375,15.4154078125Q16.986184375,15.3880078125,17.020984374999998,15.3532078125Q17.055784375,15.3184078125,17.083184375000002,15.2774078125Q17.110484375,15.2365078125,17.129384375,15.1910078125Q17.148184375,15.1455078125,17.157784375,15.0972078125Q17.167484375,15.0489078125,17.167484375,14.9997078125L17.167484375,11.6840878125Q17.167484375,11.3044178125,16.898984374999998,11.0359278125Q16.630484375,10.7674278125,16.250784375000002,10.7674278125L12.284524375,10.7674278125Q12.275944375,10.5536778125,12.275944375,10.1160078125Q12.275944375,9.9212578125,12.788864375,9.372017812500001Q14.307584375,7.7457678125,14.307584375,5.7716778125Q14.307584375,3.5736078124999997,12.944874375,2.4698538125000002Q11.849974375,1.5830078125,10.133984375,1.5830078125Q8.395834375,1.5830078125,7.236064375,2.4594918125Q5.759854375,3.5751178125000003,5.759864374999999,5.7716778125Q5.759864374999999,7.8268178125,7.366124375,9.5596378125Q7.802194375,10.0300678125,7.802194375,10.1160078125L7.802194375,10.1288078125Q7.802194375,10.5787478125,7.785554375,10.7674278125L3.752271375,10.7674278125Q3.373046675,10.7678378125,3.104784375,11.0359478125Q2.8365243749999998,11.3040678125,2.835905375,11.6837978125L2.833984375,14.9994078125L2.833984375,14.9997078125Q2.833984375,15.0489078125,2.843591375,15.0972078125Q2.853199375,15.1455078125,2.8720443749999998,15.1910078125Q2.890890375,15.2365078125,2.918249375,15.2774078125Q2.945609375,15.3184078125,2.980431375,15.3532078125Q3.015253375,15.3880078125,3.056199375,15.4154078125Q3.097145375,15.4428078125,3.142642375,15.4616078125Q3.188139375,15.4804078125,3.236439275,15.4901078125Q3.284738675,15.4997078125,3.333984375,15.4997078125ZM16.167484375,14.4997078125L3.834274375,14.4997078125L3.835857375,11.7674278125L7.920274375,11.7674278125Q8.571984375,11.7674278125,8.738514375000001,11.1239978125Q8.802204374999999,10.8779278125,8.802194375,10.1287978125L8.802194375,10.1160078125Q8.802194375,9.637877812500001,8.099504375,8.8798278125Q6.759854375,7.4346178125,6.759864374999999,5.7716778125Q6.759854375,4.0728378124999995,7.838994375,3.2572878125Q8.731204375,2.5830078125,10.133984375,2.5830078125Q13.307564375,2.5830078125,13.307564375,5.7716778125Q13.307564375,6.8188078125,12.896634375,7.5947678125Q12.656034375,8.0491178125,12.058004375,8.689487812500001Q11.275944375,9.5269278125,11.275944375,10.1160078125Q11.275944375,10.9875078125,11.332414374999999,11.2066778125Q11.476904375,11.7674278125,12.101194375,11.7674278125L16.167484375,11.7674278125L16.167484375,14.4997078125Z" fill-rule="evenodd" fill="" fill-opacity="1" style="mix-blend-mode:passthrough"/></g><g><path d="M3.333984375,17L16.667284375,17Q16.716584375,17,16.764884375,17.009607Q16.813184375,17.019215,16.858684375,17.03806Q16.904184375,17.056906,16.945084375,17.084265Q16.986084375,17.111625,17.020884375,17.146447Q17.055684375,17.181269,17.083084375,17.222215Q17.110384375000002,17.263161,17.129284374999997,17.308658Q17.148084375,17.354155,17.157684375000002,17.4024549Q17.167284375,17.4507543,17.167284375,17.5Q17.167284375,17.5492457,17.157684375000002,17.5975451Q17.148084375,17.645845,17.129284374999997,17.691342Q17.110384375000002,17.736839,17.083084375,17.777785Q17.055684375,17.818731,17.020884375,17.853553Q16.986084375,17.888375,16.945084375,17.915735Q16.904184375,17.943094,16.858684375,17.96194Q16.813184375,17.980785,16.764884375,17.990393Q16.716584375,18,16.667284375,18L3.333984375,18Q3.284738675,18,3.236439275,17.990393Q3.188139375,17.980785,3.142642375,17.96194Q3.097145375,17.943094,3.056199375,17.915735Q3.015253375,17.888375,2.980431375,17.853553Q2.945609375,17.818731,2.918249375,17.777785Q2.890890375,17.736839,2.8720443749999998,17.691342Q2.853199375,17.645845,2.843591375,17.5975451Q2.833984375,17.5492457,2.833984375,17.5Q2.833984375,17.4507543,2.843591375,17.4024549Q2.853199375,17.354155,2.8720443749999998,17.308658Q2.890890375,17.263161,2.918249375,17.222215Q2.945609375,17.181269,2.980431375,17.146447Q3.015253375,17.111625,3.056199375,17.084265Q3.097145375,17.056906,3.142642375,17.03806Q3.188139375,17.019215,3.236439275,17.009607Q3.284738675,17,3.333984375,17Z" fill-rule="evenodd" fill="" fill-opacity="1" style="mix-blend-mode:passthrough"/></g></g></svg>
