<svg xmlns="http://www.w3.org/2000/svg" xmlns:xlink="http://www.w3.org/1999/xlink" fill="none" version="1.1" width="20" height="20" viewBox="0 0 20 20"><defs><clipPath id="master_svg0_77_06897"><rect x="0" y="0" width="20" height="20" rx="0"/></clipPath></defs><g clip-path="url(#master_svg0_77_06897)"><g><path d="M1.583984375,15.41682809375L1.583984375,17.50016609375Q1.583984375,18.05245609375,1.974510375,18.44297609375Q2.365032375,18.83349609375,2.917317375,18.83349609375L17.083984375,18.83349609375Q17.636284375000002,18.83349609375,18.026784375,18.44297609375Q18.417284375,18.05245609375,18.417284375,17.50016609375L18.417284375,15.41682809375Q18.417284375,14.86453409375,18.026784375,14.47401509375Q17.636284375000002,14.08349609375,17.083984375,14.08349609375L2.917317375,14.08349609375Q2.365032375,14.08349609375,1.974510375,14.47401309375Q1.583984375,14.86453509375,1.583984375,15.41682809375ZM2.681613375,17.73586609375Q2.583984375,17.63823609375,2.583984375,17.50016609375L2.583984375,15.41682809375Q2.583984375,15.27875209375,2.681613375,15.18112409375Q2.779242375,15.08349609375,2.917317375,15.08349609375L17.083984375,15.08349609375Q17.222084375,15.08349609375,17.319684375,15.18112309375Q17.417284375,15.27874909375,17.417284375,15.41682809375L17.417284375,17.50016609375Q17.417284375,17.63824609375,17.319684375,17.73586609375Q17.222084375,17.83349609375,17.083984375,17.83349609375L2.917317375,17.83349609375Q2.779242375,17.83349609375,2.681613375,17.73586609375Z" fill-rule="evenodd" fill="" fill-opacity="1" style="mix-blend-mode:passthrough"/></g><g><path d="M1.583984375,12.91682909375L1.583984375,17.50016609375Q1.583984375,18.05245609375,1.974510375,18.442976093749998Q2.365031375,18.83349609375,2.917317375,18.83349609375L17.083984375,18.83349609375Q17.636284375000002,18.83349609375,18.026784375,18.442976093749998Q18.417284375,18.05245609375,18.417284375,17.50016609375L18.417284375,12.91682909375Q18.417284375,12.36453409375,18.026784375,11.97401509375Q17.636284375000002,11.58349609375,17.083984375,11.58349609375L2.917317375,11.58349609375Q2.365032375,11.58349609375,1.974510375,11.97401409375Q1.583984375,12.36453509375,1.583984375,12.91682909375ZM2.917317375,17.83349609375Q2.583984375,17.83349609375,2.583984375,17.50016609375L2.583984375,12.91682909375Q2.583984375,12.58349609375,2.917317375,12.58349609375L17.083984375,12.58349609375Q17.417284375,12.58349609375,17.417284375,12.91682909375L17.417284375,17.50016609375Q17.417284375,17.83349609375,17.083984375,17.83349609375L2.917317375,17.83349609375Z" fill-rule="evenodd" fill="" fill-opacity="1" style="mix-blend-mode:passthrough"/></g><g><path d="M7.347694375,6.358372L5.363113375,11.91516Q5.333984375,11.99673,5.333984375,12.08333Q5.333984375,12.13258,5.343591375,12.18088Q5.353199375,12.22918,5.372044375,12.27467Q5.390890375,12.320170000000001,5.418249375,12.36112Q5.445609375,12.402059999999999,5.480431375,12.43689Q5.515253375,12.47171,5.556199375,12.49907Q5.597145375,12.526430000000001,5.642642375,12.54527Q5.688139375,12.564119999999999,5.736439275,12.573730000000001Q5.784738675,12.58333,5.833984375,12.58333L14.167314375,12.58333Q14.253924375,12.58333,14.335484375,12.5542Q14.381864375,12.53764,14.424114375,12.51235Q14.466374375,12.48705,14.502874375,12.454Q14.539384375,12.420950000000001,14.568744375,12.38142Q14.598104375,12.34188,14.619184375,12.29738Q14.640264375,12.25287,14.652264375,12.205110000000001Q14.664254375,12.15734,14.666704375,12.10816Q14.669144375,12.05897,14.661944375,12.010259999999999Q14.654754375,11.96154,14.638184375,11.91516L12.653624375,6.358421Q12.436394374999999,5.75,11.790364375,5.75L8.210944375,5.75Q7.564904375,5.75,7.347694375,6.358372ZM6.543488375,11.58333L13.457814375,11.58333L11.731604375,6.75L8.269694375,6.75L6.543488375,11.58333Z" fill-rule="evenodd" fill="" fill-opacity="1" style="mix-blend-mode:passthrough"/></g><g><rect x="6.25" y="1.66650390625" width="7.5" height="4.5" rx="2.25" fill-opacity="0" stroke-opacity="1" stroke="#9A9CAC" fill="none" stroke-width="1" style="mix-blend-mode:passthrough"/></g></g></svg>
