<svg xmlns="http://www.w3.org/2000/svg" xmlns:xlink="http://www.w3.org/1999/xlink" fill="" version="1.1" width="16" height="16" viewBox="0 0 16 16"><defs><clipPath id="master_svg0_69_06571"><rect x="0" y="0" width="16" height="16" rx="0"/></clipPath></defs><g clip-path="url(#master_svg0_69_06571)"><g><path d="M4.8330078125,4Q4.8330078125,3.9507543,4.8426148125,3.9024549Q4.8522228125,3.854155,4.8710678125,3.808658Q4.8899138125,3.763161,4.9172728125,3.722215Q4.9446328125,3.681269,4.9794548125,3.646447Q5.0142768125,3.611625,5.0552228125,3.584265Q5.0961688125,3.556906,5.1416658125,3.5380599999999998Q5.1871628125,3.519215,5.2354627125,3.509607Q5.2837621125,3.5,5.3330078125,3.5Q5.3822535125,3.5,5.4305529125,3.509607Q5.4788528125,3.519215,5.5243498125,3.5380599999999998Q5.5698468125,3.556906,5.6107928125,3.584265Q5.6517388125,3.611625,5.6865608125,3.646447Q5.7213828125,3.681269,5.7487428125,3.722215Q5.7761018125,3.763161,5.7949478125,3.808658Q5.8137928125,3.854155,5.8234008125,3.9024549Q5.8330078125,3.9507543,5.8330078125,4L5.8330078125,12Q5.8330078125,12.04924,5.8234008125,12.09754Q5.8137928125,12.14584,5.7949478125,12.19134Q5.7761018125,12.23684,5.7487428125,12.27778Q5.7213828125,12.31873,5.6865608125,12.35355Q5.6517388125,12.38837,5.6107928125,12.41573Q5.5698468125,12.44309,5.5243498125,12.46194Q5.4788528125,12.48078,5.4305529125,12.49039Q5.3822535125,12.5,5.3330078125,12.5Q5.2837621125,12.5,5.2354627125,12.49039Q5.1871628125,12.48078,5.1416658125,12.46194Q5.0961688125,12.44309,5.0552228125,12.41573Q5.0142768125,12.38837,4.9794548125,12.35355Q4.9446328125,12.31873,4.9172728125,12.27778Q4.8899138125,12.23684,4.8710678125,12.19134Q4.8522228125,12.14584,4.8426148125,12.09754Q4.8330078125,12.04924,4.8330078125,12L4.8330078125,4Z" fill-rule="evenodd" fill="" fill-opacity="1" style="mix-blend-mode:passthrough"/></g><g><path d="M10.1669921875,4Q10.1669921875,3.9507543,10.1765991875,3.9024549Q10.186207187499999,3.854155,10.2050521875,3.808658Q10.2238981875,3.763161,10.2512571875,3.722215Q10.2786171875,3.681269,10.3134391875,3.646447Q10.3482611875,3.611625,10.3892071875,3.584265Q10.4301531875,3.556906,10.4756501875,3.5380599999999998Q10.5211471875,3.519215,10.5694470875,3.509607Q10.6177464875,3.5,10.6669921875,3.5Q10.7162378875,3.5,10.7645372875,3.509607Q10.8128371875,3.519215,10.8583341875,3.5380599999999998Q10.9038311875,3.556906,10.9447771875,3.584265Q10.9857231875,3.611625,11.0205451875,3.646447Q11.0553671875,3.681269,11.0827271875,3.722215Q11.1100861875,3.763161,11.1289321875,3.808658Q11.147777187500001,3.854155,11.1573851875,3.9024549Q11.1669921875,3.9507543,11.1669921875,4L11.1669921875,12Q11.1669921875,12.04924,11.1573851875,12.09754Q11.147777187500001,12.14584,11.1289321875,12.19134Q11.1100861875,12.23684,11.0827271875,12.27778Q11.0553671875,12.31873,11.0205451875,12.35355Q10.9857231875,12.38837,10.9447771875,12.41573Q10.9038311875,12.44309,10.8583341875,12.46194Q10.8128371875,12.48078,10.7645372875,12.49039Q10.7162378875,12.5,10.6669921875,12.5Q10.6177464875,12.5,10.5694470875,12.49039Q10.5211471875,12.48078,10.4756501875,12.46194Q10.4301531875,12.44309,10.3892071875,12.41573Q10.3482611875,12.38837,10.3134391875,12.35355Q10.2786171875,12.31873,10.2512571875,12.27778Q10.2238981875,12.23684,10.2050521875,12.19134Q10.186207187499999,12.14584,10.1765991875,12.09754Q10.1669921875,12.04924,10.1669921875,12L10.1669921875,4Z" fill-rule="evenodd" fill="" fill-opacity="1" style="mix-blend-mode:passthrough"/></g></g></svg>
