<svg xmlns="http://www.w3.org/2000/svg" xmlns:xlink="http://www.w3.org/1999/xlink" fill="none" version="1.1" width="16" height="16" viewBox="0 0 16 16"><defs><clipPath id="master_svg0_69_07269"><rect x="0" y="0" width="16" height="16" rx="0"/></clipPath></defs><g clip-path="url(#master_svg0_69_07269)"><g><path d="M12.833366746139527,1.9999203836364745L12.833366746139527,7.999933383636475Q12.833366746139527,8.049183383636475,12.842966746139526,8.097483383636476Q12.852566746139527,8.145773383636474,12.871366746139527,8.191273383636474Q12.890266746139526,8.236773383636475,12.917566746139526,8.277713383636474Q12.944966746139526,8.318663383636475,12.979766746139527,8.353483383636474Q13.014566746139526,8.388303383636474,13.055566746139526,8.415663383636474Q13.096466746139527,8.443023383636476,13.141966746139527,8.461873383636474Q13.187466746139526,8.480713383636473,13.235766746139527,8.490323383636476Q13.284066746139526,8.499933383636474,13.333366746139527,8.499933383636474Q13.382566746139526,8.499933383636474,13.430866746139527,8.490323383636476Q13.479166746139526,8.480713383636473,13.524666746139527,8.461873383636474Q13.570166746139526,8.443023383636476,13.611166746139526,8.415663383636474Q13.652066746139527,8.388303383636474,13.686866746139527,8.353483383636474Q13.721666746139526,8.318663383636475,13.749066746139526,8.277713383636474Q13.776466746139526,8.236773383636475,13.795266746139527,8.191273383636474Q13.814066746139526,8.145773383636474,13.823766746139526,8.097473383636475Q13.833366746139527,8.049183383636475,13.833366746139527,7.999933383636475L13.833366746139527,1.9999203836364745Q13.833366746139527,1.5166703836364746,13.491666746139526,1.1749633836364746Q13.149966746139526,0.8332533836364746,12.666666746139526,0.8332533836364746L3.3333337461395263,0.8332533836364746Q2.8500837461395263,0.8332533836364746,2.508375746139526,1.1749623836364746Q2.1666667461395264,1.5166703836364746,2.1666667461395264,1.9999203836364745L2.1666667461395264,13.999953383636475Q2.1666667461395264,14.483153383636475,2.5083707461395264,14.824853383636475Q2.8500847461395264,15.166553383636474,3.3333337461395263,15.166553383636474L7.9999967461395265,15.166553383636474Q8.049246746139527,15.166553383636474,8.097546746139527,15.156953383636475Q8.145846746139526,15.147353383636474,8.191336746139527,15.128553383636474Q8.236836746139527,15.109653383636475,8.277786746139526,15.082353383636475Q8.318726746139525,15.054953383636475,8.353556746139526,15.020153383636474Q8.388376746139526,14.985353383636475,8.415736746139526,14.944353383636475Q8.443096746139528,14.903453383636474,8.461936746139527,14.857953383636474Q8.480786746139525,14.812453383636475,8.490396746139528,14.764153383636474Q8.499996746139526,14.715853383636475,8.499996746139526,14.666553383636474Q8.499996746139526,14.617353383636475,8.490396746139528,14.569053383636474Q8.480786746139525,14.520753383636475,8.461936746139527,14.475253383636474Q8.443096746139528,14.429753383636475,8.415736746139526,14.388853383636475Q8.388376746139526,14.347853383636474,8.353556746139526,14.313053383636474Q8.318726746139525,14.278253383636475,8.277786746139526,14.250853383636475Q8.236836746139527,14.223553383636474,8.191336746139527,14.204653383636474Q8.145846746139526,14.185853383636475,8.097546746139527,14.176253383636475Q8.049246746139527,14.166553383636474,7.9999967461395265,14.166553383636474L7.999026746139527,14.166553383636474L3.3333337461395263,14.166553383636474Q3.1666667461395264,14.166553383636474,3.1666667461395264,13.999953383636475L3.1666667461395264,1.9999203836364745Q3.1666667461395264,1.8332533836364746,3.3333337461395263,1.8332533836364746L12.666666746139526,1.8332533836364746Q12.833366746139527,1.8332533836364746,12.833366746139527,1.9999203836364745Z" fill-rule="evenodd" fill="#5B9CF8" fill-opacity="1" style="mix-blend-mode:passthrough"/></g><g><path d="M11.3330078125,10.333266258239746Q11.3330078125,10.284020558239746,11.3426148125,10.235721158239746Q11.352222812499999,10.187421258239747,11.3710678125,10.141924258239746Q11.3899138125,10.096427258239746,11.4172728125,10.055481258239746Q11.4446328125,10.014535258239746,11.4794548125,9.979713258239746Q11.5142768125,9.944891258239746,11.5552228125,9.917531258239746Q11.5961688125,9.890172258239746,11.6416658125,9.871326258239746Q11.6871628125,9.852481258239745,11.7354627125,9.842873258239747Q11.7837621125,9.833266258239746,11.8330078125,9.833266258239746Q11.8822535125,9.833266258239746,11.9305529125,9.842873258239747Q11.9788528125,9.852481258239745,12.0243498125,9.871326258239746Q12.0698468125,9.890172258239746,12.1107928125,9.917531258239746Q12.1517388125,9.944891258239746,12.1865608125,9.979713258239746Q12.2213828125,10.014535258239746,12.2487428125,10.055481258239746Q12.2761018125,10.096427258239746,12.2949478125,10.141924258239746Q12.313792812500001,10.187421258239747,12.3234008125,10.235721158239746Q12.3330078125,10.284020558239746,12.3330078125,10.333266258239746L12.3330078125,14.666596258239746Q12.3330078125,14.715846258239747,12.3234008125,14.764146258239746Q12.313792812500001,14.812446258239746,12.2949478125,14.857946258239746Q12.2761018125,14.903436258239747,12.2487428125,14.944386258239746Q12.2213828125,14.985326258239745,12.1865608125,15.020156258239746Q12.1517388125,15.054976258239746,12.1107928125,15.082336258239746Q12.0698468125,15.109696258239747,12.0243498125,15.128536258239746Q11.9788528125,15.147386258239745,11.9305529125,15.156996258239747Q11.8822535125,15.166596258239746,11.8330078125,15.166596258239746Q11.7837621125,15.166596258239746,11.7354627125,15.156996258239747Q11.6871628125,15.147386258239745,11.6416658125,15.128536258239746Q11.5961688125,15.109696258239747,11.5552228125,15.082336258239746Q11.5142768125,15.054976258239746,11.4794548125,15.020156258239746Q11.4446328125,14.985326258239745,11.4172728125,14.944386258239746Q11.3899138125,14.903436258239747,11.3710678125,14.857946258239746Q11.352222812499999,14.812446258239746,11.3426148125,14.764146258239746Q11.3330078125,14.715846258239747,11.3330078125,14.666596258239746L11.3330078125,10.333266258239746Z" fill-rule="evenodd" fill="#5B9CF8" fill-opacity="1" style="mix-blend-mode:passthrough"/></g><g><path d="M12.479783015441894,11.353483242797852L12.979623015441895,11.853333242797852L12.979783015441894,11.853483242797852Q13.050103015441895,11.923813242797852,13.141993015441894,11.961873242797852Q13.233873015441894,11.999933242797852,13.333333015441895,11.999933242797852Q13.382583015441895,11.999933242797852,13.430873015441895,11.990323242797851Q13.479173015441894,11.980723242797852,13.524673015441895,11.961873242797852Q13.570173015441895,11.943023242797851,13.611113015441894,11.915663242797851Q13.652063015441895,11.888313242797851,13.686883015441895,11.853483242797852Q13.721703015441895,11.818663242797852,13.749063015441894,11.777713242797851Q13.776423015441894,11.736773242797852,13.795273015441895,11.691273242797852Q13.814113015441894,11.645773242797851,13.823723015441894,11.597483242797852Q13.833333015441895,11.549183242797852,13.833333015441895,11.499933242797852Q13.833333015441895,11.400473242797851,13.795273015441895,11.308593242797851Q13.757213015441895,11.216703242797852,13.686883015441895,11.146383242797851L13.686733015441895,11.146223242797852L13.186883015441895,10.646380242797852L12.186883015441895,9.646380242797852Q12.116563015441894,9.576053242797851,12.024673015441895,9.537993242797851Q11.932793015441895,9.499933242797852,11.833333015441895,9.499933242797852Q11.733873015441894,9.499933242797852,11.641993015441894,9.537993242797851Q11.550103015441895,9.576053242797851,11.479783015441894,9.646380242797852L9.979780015441895,11.146383242797851Q9.909453015441894,11.216703242797852,9.871393015441894,11.308593242797851Q9.833333015441895,11.400473242797851,9.833333015441895,11.499933242797852Q9.833333015441895,11.549183242797852,9.842940015441895,11.597473242797852Q9.852548015441894,11.645773242797851,9.871393015441894,11.691273242797852Q9.890239015441894,11.736773242797852,9.917598015441895,11.777713242797851Q9.944958015441895,11.818663242797852,9.979780015441895,11.853483242797852Q10.014602015441895,11.888313242797851,10.055548015441895,11.915663242797851Q10.096494015441895,11.943023242797851,10.141991015441894,11.961873242797852Q10.187488015441895,11.980723242797852,10.235787915441895,11.990323242797851Q10.284087315441894,11.999933242797852,10.333333015441895,11.999933242797852Q10.432789215441895,11.999933242797852,10.524675015441895,11.961873242797852Q10.616560015441895,11.923813242797852,10.686886015441894,11.853483242797852L11.186886015441894,11.353483242797852L11.833333015441895,10.707040242797852L12.479783015441894,11.353483242797852Z" fill-rule="evenodd" fill="#5B9CF8" fill-opacity="1" style="mix-blend-mode:passthrough"/></g><g><path d="M5.3330078125,4.833266735076904L10.6663378125,4.833266735076904Q10.7155878125,4.833266735076904,10.7638878125,4.842873735076904Q10.8121878125,4.852481735076904,10.8576778125,4.871326735076904Q10.903177812500001,4.890172735076904,10.9441278125,4.9175317350769046Q10.985067812499999,4.944891735076904,11.0198978125,4.9797137350769045Q11.0547178125,5.014535735076905,11.0820778125,5.055481735076905Q11.109437812500001,5.0964277350769045,11.1282778125,5.141924735076905Q11.147127812499999,5.187421735076905,11.156737812500001,5.235721635076905Q11.1663378125,5.284021035076904,11.1663378125,5.333266735076904Q11.1663378125,5.3825124350769045,11.156737812500001,5.430811835076904Q11.147127812499999,5.479111735076904,11.1282778125,5.524608735076904Q11.109437812500001,5.570105735076904,11.0820778125,5.611051735076904Q11.0547178125,5.651997735076904,11.0198978125,5.686819735076904Q10.985067812499999,5.721641735076904,10.9441278125,5.749001735076904Q10.903177812500001,5.776360735076905,10.8576778125,5.7952067350769045Q10.8121878125,5.814051735076904,10.7638878125,5.823659735076904Q10.7155878125,5.833266735076904,10.6663378125,5.833266735076904L5.3330078125,5.833266735076904Q5.2837621125,5.833266735076904,5.2354627125,5.823659735076904Q5.1871628125,5.814051735076904,5.1416658125,5.7952067350769045Q5.0961688125,5.776360735076905,5.0552228125,5.749001735076904Q5.0142768125,5.721641735076904,4.9794548125,5.686819735076904Q4.9446328125,5.651997735076904,4.9172728125,5.611051735076904Q4.8899138125,5.570105735076904,4.8710678125,5.524608735076904Q4.8522228125,5.479111735076904,4.8426148125,5.430811835076904Q4.8330078125,5.3825124350769045,4.8330078125,5.333266735076904Q4.8330078125,5.284021035076904,4.8426148125,5.235721635076905Q4.8522228125,5.187421735076905,4.8710678125,5.141924735076905Q4.8899138125,5.0964277350769045,4.9172728125,5.055481735076905Q4.9446328125,5.014535735076905,4.9794548125,4.9797137350769045Q5.0142768125,4.944891735076904,5.0552228125,4.9175317350769046Q5.0961688125,4.890172735076904,5.1416658125,4.871326735076904Q5.1871628125,4.852481735076904,5.2354627125,4.842873735076904Q5.2837621125,4.833266735076904,5.3330078125,4.833266735076904Z" fill-rule="evenodd" fill="#5B9CF8" fill-opacity="1" style="mix-blend-mode:passthrough"/></g><g><path d="M5.3330078125,7.499933242797852L7.9996778125,7.499933242797852Q8.048917812500001,7.499933242797852,8.0972178125,7.5095402427978515Q8.1455178125,7.5191482427978515,8.1910178125,7.537993242797851Q8.2365178125,7.556839242797851,8.2774578125,7.584198242797852Q8.3184078125,7.611558242797852,8.3532278125,7.646380242797852Q8.3880478125,7.681202242797852,8.4154078125,7.722148242797852Q8.4427678125,7.763094242797852,8.4616178125,7.808591242797852Q8.4804578125,7.854088242797852,8.4900678125,7.902388142797852Q8.4996778125,7.950687542797851,8.4996778125,7.999933242797852Q8.4996778125,8.049178942797852,8.4900678125,8.097478342797851Q8.4804578125,8.145778242797851,8.4616178125,8.191275242797852Q8.4427678125,8.236772242797851,8.4154078125,8.277718242797851Q8.3880478125,8.318664242797851,8.3532278125,8.353486242797851Q8.3184078125,8.388308242797851,8.2774578125,8.415668242797851Q8.2365178125,8.443027242797852,8.1910178125,8.461873242797852Q8.1455178125,8.480718242797852,8.0972178125,8.49032624279785Q8.048917812500001,8.499933242797852,7.9996778125,8.499933242797852L5.3330078125,8.499933242797852Q5.2837621125,8.499933242797852,5.2354627125,8.49032624279785Q5.1871628125,8.480718242797852,5.1416658125,8.461873242797852Q5.0961688125,8.443027242797852,5.0552228125,8.415668242797851Q5.0142768125,8.388308242797851,4.9794548125,8.353486242797851Q4.9446328125,8.318664242797851,4.9172728125,8.277718242797851Q4.8899138125,8.236772242797851,4.8710678125,8.191275242797852Q4.8522228125,8.145778242797851,4.8426148125,8.097478342797851Q4.8330078125,8.049178942797852,4.8330078125,7.999933242797852Q4.8330078125,7.950687542797851,4.8426148125,7.902388142797852Q4.8522228125,7.854088242797852,4.8710678125,7.808591242797852Q4.8899138125,7.763094242797852,4.9172728125,7.722148242797852Q4.9446328125,7.681202242797852,4.9794548125,7.646380242797852Q5.0142768125,7.611558242797852,5.0552228125,7.584198242797852Q5.0961688125,7.556839242797851,5.1416658125,7.537993242797851Q5.1871628125,7.5191482427978515,5.2354627125,7.5095402427978515Q5.2837621125,7.499933242797852,5.3330078125,7.499933242797852Z" fill-rule="evenodd" fill="#5B9CF8" fill-opacity="1" style="mix-blend-mode:passthrough"/></g></g></svg>