<svg xmlns="http://www.w3.org/2000/svg" xmlns:xlink="http://www.w3.org/1999/xlink" fill="" version="1.1" width="20" height="20" viewBox="0 0 20 20"><defs><clipPath id="master_svg0_60_3085"><rect x="0" y="0" width="20" height="20" rx="0"/></clipPath></defs><g><g clip-path="url(#master_svg0_60_3085)"><g><g><path d="M16.8170520625,8.159423828125L16.8170520625,17.644093828125Q16.8170520625,17.689853828125003,16.8087470625,17.734853828125Q16.8004410625,17.779853828125,16.7841060625,17.822593828125Q16.7677710625,17.865333828125,16.7439490625,17.904403828124998Q16.7201270625,17.943473828125,16.6896090625,17.977563828125Q16.6590920625,18.011663828125002,16.6228920625,18.039653828124997Q16.5866930625,18.067643828125,16.5460150625,18.088593828125Q16.5053370625,18.109543828125,16.4615310625,18.122773828125Q16.4177250625,18.135993828125002,16.3722470625,18.141043828125L16.3296112625,18.145773828125L16.3296090625,18.145773828125Q16.3020961625,18.148833828125,16.2744140625,18.148833828125Q16.2251683625,18.148833828125,16.1768689625,18.139223828124997Q16.1285690625,18.129613828125002,16.0830720625,18.110773828124998Q16.0375750625,18.091923828124997,15.9966290625,18.064563828125Q15.9556830625,18.037203828125,15.9208610625,18.002383828124998Q15.8860390625,17.967563828125,15.8586790625,17.926613828125Q15.8313200625,17.885673828125,15.8124740625,17.840173828125Q15.793629062499999,17.794673828125,15.7840210625,17.746373828125Q15.7744140625,17.698083828125,15.7744140625,17.648833828125Q15.7744140625,17.543313828125,15.8170520625,17.446793828125L15.8170520625,8.159423828125Q15.8170520625,8.110178128125,15.8266590625,8.061878728125Q15.8362670625,8.013578828125,15.8551120625,7.968081828125Q15.8739580625,7.922584828125,15.9013170625,7.881638828125Q15.9286770625,7.840692828125,15.9634990625,7.805870828125Q15.9983210625,7.771048828125,16.0392670625,7.743688828125Q16.0802130625,7.716329828125,16.1257100625,7.697483828125Q16.1712070625,7.678638828125,16.2195069625,7.669030828125Q16.2678064425,7.659423828125,16.3170521625,7.659423828125Q16.3662978625,7.659423828125,16.4145970625,7.669030828125Q16.4628970625,7.678638828125,16.5083940625,7.697483828125Q16.5538910625,7.716329828125,16.5948370625,7.743688828125Q16.6357830625,7.771048828125,16.6706050625,7.805870828125Q16.7054270625,7.840692828125,16.7327870625,7.881638828125Q16.7601460625,7.922584828125,16.7789920625,7.968081828125Q16.7978370625,8.013578828125,16.8074450625,8.061878728125Q16.8170520625,8.110178128125,16.8170520625,8.159423828125Z" fill-rule="evenodd" fill="" fill-opacity="1" style="mix-blend-mode:passthrough"/></g><g><path d="M14.383613593749999,3.614013671875L14.383613593749999,6.780913671875Q14.383613593749999,6.830153671875,14.393223593750001,6.8784536718750005Q14.40282359375,6.926753671875,14.42167359375,6.972253671875Q14.440523593750001,7.017753671875,14.46787359375,7.058693671875Q14.49524359375,7.0996436718750005,14.53006359375,7.134463671875Q14.56488359375,7.169283671875,14.605833593749999,7.196643671875Q14.64677359375,7.224003671875,14.69227359375,7.242853671875Q14.73777359375,7.261693671875,14.78606359375,7.271303671875Q14.83436359375,7.280913671875,14.883613593749999,7.280913671875Q14.93286359375,7.280913671875,14.98116359375,7.271303671875Q15.029453593749999,7.261693671875,15.07495359375,7.242853671875Q15.12045359375,7.224003671875,15.161393593749999,7.196643671875Q15.202343593750001,7.169283671875,15.237163593750001,7.134463671875Q15.27199359375,7.0996436718750005,15.299343593749999,7.058693671875Q15.32670359375,7.017753671875,15.345553593750001,6.972253671875Q15.36439359375,6.926753671875,15.37400359375,6.8784536718750005Q15.383613593749999,6.830153671875,15.383613593749999,6.780913671875L15.383613593749999,3.114013671875Q15.383613593749999,3.064767971875,15.37400359375,3.016468571875Q15.36439359375,2.968168671875,15.345553593750001,2.922671671875Q15.32670359375,2.877174671875,15.299343593749999,2.836228671875Q15.27199359375,2.795282671875,15.237163593750001,2.760460671875Q15.202343593750001,2.725638671875,15.161393593749999,2.698278671875Q15.12045359375,2.670919671875,15.07495359375,2.6520736718749998Q15.029453593749999,2.633228671875,14.98116359375,2.623620671875Q14.93286359375,2.614013671875,14.883613593749999,2.614013671875L12.65221359375,2.614013671875Q12.602963593750001,2.614013671875,12.55466359375,2.623620671875Q12.506363593749999,2.633228671875,12.46086359375,2.6520736718749998Q12.415373593750001,2.670919671875,12.374423593749999,2.698278671875Q12.33347359375,2.725638671875,12.29865359375,2.760460671875Q12.26383359375,2.795282671875,12.23647359375,2.836228671875Q12.20911359375,2.877174671875,12.19026359375,2.922671671875Q12.17142359375,2.968168671875,12.16181359375,3.016468571875Q12.15220359375,3.064767971875,12.15220359375,3.114013671875L12.15220359375,4.757953671875Q12.15220359375,4.8072036718749995,12.16181359375,4.855503671875Q12.17142359375,4.903803671875,12.19026359375,4.949293671875Q12.20911359375,4.994793671875,12.23647359375,5.035743671875Q12.26383359375,5.076683671875,12.29865359375,5.1115136718750005Q12.33347359375,5.146333671875,12.374423593749999,5.173693671875Q12.415373593750001,5.201053671875,12.46086359375,5.219893671875Q12.506363593749999,5.238743671875,12.55466359375,5.248343671875Q12.602963593750001,5.257953671875001,12.65220359375,5.257953671875001Q12.70145359375,5.257953671875001,12.74975359375,5.248343671875Q12.79805359375,5.238743671875,12.84355359375,5.219893671875Q12.88904359375,5.201053671875,12.92999359375,5.173693671875Q12.97094359375,5.146333671875,13.00576359375,5.1115136718750005Q13.04058359375,5.076683671875,13.06794359375,5.035743671875Q13.09530359375,4.994793671875,13.11414359375,4.949293671875Q13.132993593750001,4.903803671875,13.14260359375,4.855503671875Q13.15220359375,4.8072036718749995,13.15220359375,4.757953671875L13.15221359375,3.614013671875L14.383613593749999,3.614013671875ZM11.53631359375,11.601603671875L11.53631359375,17.648913671875Q11.53631359375,17.698213671875,11.54592359375,17.746513671875Q11.555533593749999,17.794813671874998,11.57437359375,17.840313671875002Q11.59322359375,17.885813671875,11.62058359375,17.926713671875Q11.64794359375,17.967713671875,11.68276359375,18.002513671875Q11.71758359375,18.037313671874998,11.75853359375,18.064713671874998Q11.799473593750001,18.092013671875,11.84497359375,18.110913671875Q11.89047359375,18.129713671875002,11.93877359375,18.139313671875Q11.98707359375,18.148913671875,12.03631359375,18.148913671875Q12.085563593749999,18.148913671875,12.13386359375,18.139313671875Q12.182163593750001,18.129713671875002,12.22766359375,18.110913671875Q12.27315359375,18.092013671875,12.31410359375,18.064713671874998Q12.35505359375,18.037313671874998,12.38987359375,18.002513671875Q12.42469359375,17.967713671875,12.45205359375,17.926713671875Q12.47941359375,17.885813671875,12.49825359375,17.840313671875002Q12.51710359375,17.794813671874998,12.52671359375,17.746513671875Q12.53631359375,17.698213671875,12.53631359375,17.648913671875L12.53631359375,11.101603671875Q12.53631359375,11.052353671875,12.52671359375,11.004053671874999Q12.51710359375,10.955753671875,12.49825359375,10.910253671875001Q12.47941359375,10.864753671875,12.45205359375,10.823813671875001Q12.42469359375,10.782863671874999,12.38987359375,10.748043671875Q12.35505359375,10.713223671875,12.31410359375,10.685863671875001Q12.27315359375,10.658503671875,12.22766359375,10.639653671875Q12.182163593750001,10.620813671875,12.13386359375,10.611203671875Q12.085563593749999,10.601593671875001,12.03631359375,10.601593671875001L8.07568359375,10.601593671875001Q8.02643789375,10.601593671875001,7.97813849375,10.611203671875Q7.92983859375,10.620813671875,7.88434159375,10.639653671875Q7.83884459375,10.658503671875,7.79789859375,10.685863671875001Q7.75695259375,10.713223671875,7.72213059375,10.748043671875Q7.68730859375,10.782863671874999,7.65994859375,10.823813671875001Q7.63258959375,10.864753671875,7.61374359375,10.910253671875001Q7.59489859375,10.955753671875,7.58529059375,11.004053671874999Q7.57568359375,11.052353671875,7.57568359375,11.101603671875L7.57568359375,17.648913671875Q7.57568359375,17.698213671875,7.58529059375,17.746513671875Q7.59489859375,17.794813671874998,7.61374359375,17.840313671875002Q7.63258959375,17.885813671875,7.65994859375,17.926713671875Q7.68730859375,17.967713671875,7.72213059375,18.002513671875Q7.75695259375,18.037313671874998,7.79789859375,18.064713671874998Q7.83884459375,18.092013671875,7.88434159375,18.110913671875Q7.92983859375,18.129713671875002,7.97813849375,18.139313671875Q8.02643789375,18.148913671875,8.07568359375,18.148913671875Q8.12492929375,18.148913671875,8.17322869375,18.139313671875Q8.22152859375,18.129713671875002,8.26702559375,18.110913671875Q8.31252259375,18.092013671875,8.35346859375,18.064713671874998Q8.39441459375,18.037313671874998,8.42923659375,18.002513671875Q8.46405859375,17.967713671875,8.49141859375,17.926713671875Q8.51877759375,17.885813671875,8.53762359375,17.840313671875002Q8.556468593750001,17.794813671874998,8.56607659375,17.746513671875Q8.57568359375,17.698213671875,8.57568359375,17.648913671875L8.57568359375,11.601603671875L11.53631359375,11.601603671875Z" fill-rule="evenodd" fill="" fill-opacity="1" style="mix-blend-mode:passthrough"/></g><g><path d="M17.4175875,9.86077765625L17.4177875,9.86099765625Q17.487187499999997,9.92530765625,17.5751875,9.95985765625Q17.6632875,9.994397656250001,17.7577875,9.994397656250001Q17.8070875,9.994397656250001,17.8553875,9.984787656249999Q17.9036875,9.97517765625,17.9491875,9.95633765625Q17.994687499999998,9.93748765625,18.0355875,9.910127656250001Q18.076587500000002,9.88276765625,18.1113875,9.84794765625Q18.1461875,9.81312765625,18.1735875,9.772177656250001Q18.2008875,9.73123765625,18.219787500000002,9.68573765625Q18.2385875,9.640237656250001,18.2481875,9.59193765625Q18.2577875,9.543637656249999,18.2577875,9.494397656250001Q18.2577875,9.39003765625,18.2160875,9.29439765625Q18.1743875,9.198757656249999,18.097787500000003,9.12778765625L10.3944875,1.98349165625Q10.3602875,1.95177665625,10.3208175,1.92693265625Q10.2813475,1.9020886562500001,10.2379575,1.88497465625Q10.1945675,1.86786065625,10.1487675,1.85906665625Q10.102957499999999,1.85027165625,10.056317499999999,1.85010065625Q10.009677499999999,1.84992965625,9.963817500000001,1.85838865625Q9.9179475,1.86684665625,9.874437499999999,1.88364265625Q9.8309175,1.90043865625,9.7912675,1.92499165625Q9.7516175,1.94954565625,9.7171875,1.98100965625L1.9052255,9.12026765625L1.9048825,9.12057765625Q1.8271435,9.19161765625,1.7846655,9.28798765625Q1.7421875,9.38434765625,1.7421875,9.489667656249999Q1.7421875,9.53890765625,1.7517945,9.587207656250001Q1.7614025,9.635507656249999,1.7802475,9.68100765625Q1.7990935000000001,9.72649765625,1.8264525,9.767447656249999Q1.8538125,9.808397656250001,1.8886345,9.843217656250001Q1.9234565,9.878037656250001,1.9644025,9.905397656249999Q2.0053485,9.93275765625,2.0508455,9.95159765625Q2.0963425,9.97044765625,2.1446424,9.98005765625Q2.1929418,9.989667656249999,2.2421875,9.989667656249999Q2.3358136,9.989667656249999,2.4230964999999998,9.95578765625Q2.5103795,9.92190765625,2.5794915,9.85874765625L10.051997499999999,3.02971965625L17.4175875,9.86077765625Z" fill-rule="evenodd" fill="" fill-opacity="1" style="mix-blend-mode:passthrough"/></g><g><path d="M3.2060546875,8.14892578125Q3.2060546875,8.09968008125,3.2156616875,8.05138068125Q3.2252696875,8.00308078125,3.2441146874999998,7.95758378125Q3.2629606875,7.91208678125,3.2903196875,7.87114078125Q3.3176796875,7.83019478125,3.3525016875,7.79537278125Q3.3873236875,7.76055078125,3.4282696875,7.73319078125Q3.4692156875,7.70583178125,3.5147126875,7.68698578125Q3.5602096875,7.66814078125,3.6085095875,7.65853278125Q3.6568089875,7.64892578125,3.7060546875,7.64892578125Q3.7553003875,7.64892578125,3.8035997875,7.65853278125Q3.8518996875,7.66814078125,3.8973966875,7.68698578125Q3.9428936875,7.70583178125,3.9838396875,7.73319078125Q4.0247856875,7.76055078125,4.0596076875,7.79537278125Q4.0944296875,7.83019478125,4.1217896875,7.87114078125Q4.1491486875,7.91208678125,4.1679946875,7.95758378125Q4.1868396875,8.00308078125,4.1964476875,8.05138068125Q4.2060546875,8.09968008125,4.2060546875,8.14892578125L4.2060546875,17.14780578125L16.3222546875,17.14780578125Q16.3715546875,17.14780578125,16.4198546875,17.157415781250002Q16.4681546875,17.16702578125,16.5136546875,17.18586578125Q16.559154687499998,17.204715781250002,16.6000546875,17.23207578125Q16.641054687500002,17.259425781250002,16.6758546875,17.29425578125Q16.7106546875,17.329075781249998,16.7380546875,17.37001578125Q16.7653546875,17.41096578125,16.784254687500002,17.45646578125Q16.8030546875,17.50195578125,16.8126546875,17.55025578125Q16.8222546875,17.59855578125,16.8222546875,17.64780578125Q16.8222546875,17.69705578125,16.8126546875,17.745355781249998Q16.8030546875,17.79364578125,16.784254687500002,17.83914578125Q16.7653546875,17.88464578125,16.7380546875,17.92558578125Q16.7106546875,17.966535781250002,16.6758546875,18.00135578125Q16.641054687500002,18.03617578125,16.6000546875,18.06353578125Q16.559154687499998,18.090895781249998,16.5136546875,18.10974578125Q16.4681546875,18.128585781250003,16.4198546875,18.138195781249998Q16.3715546875,18.14780578125,16.3222546875,18.14780578125L3.7060546875,18.14780578125Q3.6568089875,18.14780578125,3.6085095875,18.138195781249998Q3.5602096875,18.128585781250003,3.5147126875,18.10974578125Q3.4692156875,18.090895781249998,3.4282696875,18.06353578125Q3.3873236875,18.03617578125,3.3525016875,18.00135578125Q3.3176796875,17.966535781250002,3.2903196875,17.92558578125Q3.2629606875,17.88464578125,3.2441146874999998,17.83914578125Q3.2252696875,17.79364578125,3.2156616875,17.745355781249998Q3.2060546875,17.69705578125,3.2060546875,17.64780578125L3.2060546875,8.14892578125Z" fill-rule="evenodd" fill="" fill-opacity="1" style="mix-blend-mode:passthrough"/></g></g></g></g></svg>
