<?xml version="1.0" standalone="no"?><!DOCTYPE svg PUBLIC "-//W3C//DTD SVG 1.1//EN" "http://www.w3.org/Graphics/SVG/1.1/DTD/svg11.dtd"><svg t="1739871357355" class="icon" viewBox="0 0 1024 1024" version="1.1" xmlns="http://www.w3.org/2000/svg" p-id="13958" xmlns:xlink="http://www.w3.org/1999/xlink" width="200" height="200"><path d="M938.666667 840.106667H85.333333c-11.946667 0-21.333333 9.386667-21.333333 21.333333s9.386667 21.333333 21.333333 21.333333h853.333334c11.946667 0 21.333333-9.386667 21.333333-21.333333s-9.386667-21.333333-21.333333-21.333333zM853.333333 141.226667H170.666667a106.666667 106.666667 0 0 0-106.666667 106.666666v426.666667a106.666667 106.666667 0 0 0 106.666667 106.666667h682.666666a106.666667 106.666667 0 0 0 106.666667-106.666667v-426.666667a106.666667 106.666667 0 0 0-106.666667-106.666666z m-682.666666 42.666666h682.666666c35.413333 0 64 28.586667 64 64v256h-107.946666l-109.226667-52.48a21.589333 21.589333 0 0 0-24.746667 4.693334l-125.44 135.253333-108.8-308.053333a21.333333 21.333333 0 0 0-17.92-14.08 20.864 20.864 0 0 0-20.48 9.813333L260.266667 503.893333H106.666667v-256c0-35.413333 28.586667-64 64-64z m682.666666 554.666667H170.666667c-35.413333 0-64-28.586667-64-64v-128h165.12c7.253333 0 14.08-3.84 17.92-9.813333l125.44-197.546667 105.813333 299.946667a20.565333 20.565333 0 0 0 20.053333 14.08c5.973333 0 11.52-2.56 15.786667-6.826667l138.666667-149.333333 99.413333 47.786666c2.986667 1.28 5.973333 2.133333 9.386667 2.133334h112.64v128c0.426667 34.56-28.16 63.573333-63.573334 63.573333z" fill="#666666" p-id="13959"></path></svg>