<svg xmlns="http://www.w3.org/2000/svg" xmlns:xlink="http://www.w3.org/1999/xlink" fill="none" version="1.1" width="20" height="20" viewBox="0 0 20 20"><defs><clipPath id="master_svg0_60_3097"><rect x="0" y="0" width="20" height="20" rx="0"/></clipPath></defs><g><g clip-path="url(#master_svg0_60_3097)"><g><path d="M8.523572187500001,16.698712109375002Q8.8680021875,15.621312109375,10.0003621875,15.621312109375Q11.1327221875,15.621312109375,11.4771521875,16.698712109375002Q11.4919521875,16.745012109375,11.5154021875,16.787612109375Q11.5388421875,16.830212109374997,11.5700521875,16.867412109375Q11.6012621875,16.904712109374998,11.6390721875,16.935312109374998Q11.6768721875,16.965812109375,11.7198621875,16.988512109375Q11.7628421875,17.011212109375002,11.8093921875,17.025212109374998Q11.8559521875,17.039212109375,11.9043321875,17.044012109375Q11.9527121875,17.048812109375,12.0011021875,17.044212109375Q12.0494921875,17.039512109375,12.0960821875,17.025612109375Q13.9420921875,16.476012109375,15.2847921875,15.080812109375Q15.3166921875,15.047712109375,15.3419921875,15.009312109375Q15.3672921875,14.970912109375,15.3851921875,14.928612109375Q15.4029921875,14.886212109375,15.4128921875,14.841312109375Q15.4227921875,14.796412109375,15.4242921875,14.750512109375Q15.4257921875,14.704512109375,15.4188921875,14.659112109375Q15.4119921875,14.613612109375,15.3968921875,14.570212109375Q15.3817921875,14.526712109375,15.3590921875,14.486812109375Q15.3362921875,14.446812109375,15.3066921875,14.411712109375Q14.9420921875,13.979512109375,14.9420921875,13.412912109375Q14.9420921875,12.770902109375,15.3960921875,12.316902109375Q15.8499921875,11.862922109375,16.4920921875,11.862922109375Q16.5692921875,11.862922109375,16.646092187500003,11.870462109375Q16.691892187500002,11.874962109375,16.737692187500002,11.871032109375Q16.783492187500002,11.867112109375,16.827792187500002,11.854902109375Q16.8720921875,11.842692109375,16.913492187499997,11.822602109375Q16.9548921875,11.802512109375,16.9917921875,11.775222109375Q17.028792187500002,11.747942109375,17.0601921875,11.714362109375Q17.091592187499998,11.680782109375,17.1163921875,11.642042109375Q17.1410921875,11.603302109375,17.1583921875,11.560692109375Q17.175692187499997,11.518092109375,17.184892187499997,11.473052109375Q17.3336921875,10.745252109375,17.3336921875,9.996242109375Q17.3336921875,8.865522109375,16.9978921875,7.796192109375Q16.973792187500003,7.719592109375,16.926992187499998,7.654362109375Q16.8800921875,7.589142109375,16.8151921875,7.541872109375Q16.7502921875,7.494592109375,16.6738921875,7.470022109375Q16.5973921875,7.445442109375,16.517092187499998,7.446042109375L16.4930921875,7.446232109375L16.4920921875,7.446232109375Q15.8499921875,7.446232109375,15.3960921875,6.992242109375Q14.9420921875,6.538252109375,14.9420921875,5.896222109375Q14.9420921875,5.533852109375,15.1007921875,5.211892109375Q15.1364921875,5.139532109375,15.1475921875,5.059622109375Q15.1586921875,4.979722109375,15.1440921875,4.900372109375Q15.1294921875,4.821032109375,15.0906921875,4.750302109375Q15.0518921875,4.679572109375,14.9927921875,4.624642109375Q13.6798921875,3.403863349375,11.9609621875,2.928034109375Q11.9196321875,2.9165921093750002,11.8769521875,2.912356109375Q11.8342721875,2.908121109375,11.7914921875,2.911215109375Q11.7487221875,2.914310109375,11.7070921875,2.924645109375Q11.6654621875,2.934980109375,11.6262121875,2.952253109375Q11.5869521875,2.969525109375,11.5512121875,2.993231109375Q11.5154721875,3.016937109375,11.4842821875,3.046384109375Q11.4531021875,3.075831109375,11.4273921875,3.110158109375Q11.4016821875,3.144485109375,11.3821821875,3.182690109375Q10.9501421875,4.029557109375,10.0003621875,4.029557109375Q9.0505821875,4.029557109375,8.618542187500001,3.182691109375Q8.5990521875,3.144486109375,8.5733421875,3.110159109375Q8.5476321875,3.075832109375,8.516442187500001,3.046385109375Q8.4852621875,3.016938109375,8.449522187500001,2.993232109375Q8.4137821875,2.969525109375,8.3745221875,2.952253109375Q8.3352621875,2.934980109375,8.2936421875,2.924645109375Q8.2520121875,2.914310109375,8.2092321875,2.911215109375Q8.1664521875,2.908121109375,8.1237821875,2.912356109375Q8.0811021875,2.9165921093750002,8.0397621875,2.928034109375Q6.320832187500001,3.403863059375,5.0079321875,4.624632109375Q4.9488521875,4.679572109375,4.9100521875,4.750302109375Q4.8712421875,4.821032109375,4.8566521875,4.900372109375Q4.8420621875,4.979722109375,4.8531721875,5.059632109375Q4.8642721875,5.139532109375,4.8999421875,5.211892109375Q5.0586721875,5.533852109375,5.0586721875,5.896222109375Q5.0586721875,6.538252109375,4.6046821875,6.992242109375Q4.1506961875,7.446232109375,3.5122191875,7.446242109375L3.4834471875,7.446042109375Q3.4031721875,7.445472109375,3.3267531875,7.470052109375Q3.2503339875,7.494642109375,3.1854521875,7.541912109375Q3.1205703875,7.589192109375,3.0737477875,7.654392109375Q3.0269251875,7.719602109375,3.0028681875,7.796192109375Q2.6669921875,8.865482109375,2.6669921875,9.996242109375Q2.6669921875,10.745272109375,2.8158481875,11.473052109375Q2.8250601875,11.518092109375,2.8423301875,11.560692109375Q2.8596001875,11.603302109375,2.8843491875,11.642042109375Q2.9090981875,11.680782109375,2.9404961875,11.714362109375Q2.9718941875000002,11.747942109375,3.0088891875,11.775232109375Q3.0458841875,11.802512109375,3.0872342875,11.822602109375Q3.1285848875,11.842692109375,3.1729049275,11.854902109375Q3.2172249875,11.867112109375,3.2630283875,11.871032109375Q3.3088321875,11.874962109375,3.3545831875,11.870462109375Q3.4314131875,11.862922109375,3.5086611875,11.862922109375Q4.1506951875,11.862922109375,4.6046821875,12.316912109375Q5.0586721875,12.770892109375,5.0586721875,13.412912109375Q5.0586721875,13.979512109375,4.6940421875,14.411712109375Q4.6644021875,14.446812109375,4.6416521875,14.486812109375Q4.6189121875,14.526712109375,4.6038321875,14.570212109375Q4.5887621875,14.613612109375,4.5818621875000005,14.659112109375Q4.5749521875,14.704512109375,4.5764621875,14.750512109375Q4.5779621875,14.796412109375,4.5878221875000005,14.841312109375Q4.5976721875,14.886212109375,4.6155521875000005,14.928612109375Q4.6334321875,14.970912109375,4.6587421875,15.009312109375Q4.6840421875,15.047712109375,4.7159221875,15.080812109375Q6.058632187500001,16.476012109375,7.9046421875,17.025612109375Q7.9512421875,17.039512109375,7.9996321875,17.044212109375Q8.048022187499999,17.048812109375,8.0964021875,17.044012109375Q8.144782187499999,17.039212109375,8.191332187499999,17.025212109374998Q8.2378821875,17.011212109375002,8.2808721875,16.988512109375Q8.3238521875,16.965812109375,8.361652187499999,16.935312109374998Q8.3994621875,16.904712109374998,8.4306721875,16.867412109375Q8.461882187499999,16.830212109374997,8.4853221875,16.787612109375Q8.5087721875,16.745012109375,8.523572187500001,16.698712109375002ZM11.5185921875,15.122312109375Q10.843262187499999,14.621312109375,10.0003621875,14.621312109375Q9.1574621875,14.621312109375,8.4821421875,15.122312109375Q8.030892187500001,15.457112109375,7.7712821875,15.927212109375Q6.6304621875,15.502012109375,5.7289321875,14.673412109375Q6.0586721875,14.103712109375,6.0586721875,13.412912109375Q6.0586721875,12.356682109375,5.3117921875,11.609802109375Q4.6432421875,10.941252109375,3.7268241875,10.871132109375Q3.6669921875,10.438152109375,3.6669921875,9.996242109375Q3.6669921875,9.191542109375,3.8635091875,8.423732109374999Q4.6945221875000005,8.316622109375,5.3117921875,7.699352109375Q6.0586721875,6.952472109375,6.0586721875,5.896222109375Q6.0586721875,5.500142109375,5.9428421875,5.132572109375Q6.841572187500001,4.3786651093749995,7.9456321875,4.002981109375Q8.6589721875,5.029562109375,10.0003621875,5.029552109375Q11.3417521875,5.029562109375,12.0551021875,4.002981109375Q13.1591621875,4.3786651093749995,14.0578921875,5.132572109375Q13.9420921875,5.500142109375,13.9420921875,5.896222109375Q13.9420921875,6.952472109375,14.6888921875,7.699352109375Q15.3071921875,8.317552109375,16.1372921875,8.424062109375Q16.3336921875,9.191742109375,16.3336921875,9.996242109375Q16.3336921875,10.438142109375,16.2738921875,10.871132109375Q15.3574921875,10.941252109375,14.6888921875,11.609802109375Q13.9420921875,12.356682109375,13.9420921875,13.412912109375Q13.9420921875,14.103712109375,14.2717921875,14.673412109375Q13.3702921875,15.502012109375,12.2294521875,15.927212109375Q11.9698421875,15.457112109375,11.5185921875,15.122312109375Z" fill-rule="evenodd" fill="#9A9CAC" fill-opacity="1" style="mix-blend-mode:passthrough"/></g><g><path d="M7.9553514375,7.951689328125Q7.1083984375,8.798646328125,7.1083984375,9.996416328125001Q7.1083984375,11.194186328125,7.9553514375,12.041146328125Q8.8023084375,12.888096328125,10.000078437500001,12.888096328125Q11.197858437499999,12.888096328125,12.0448084375,12.041146328125Q12.8917584375,11.194196328124999,12.8917584375,9.996416328125001Q12.8917584375,8.798646328125,12.0448084375,7.951689328125Q11.1978484375,7.104736328125,10.000078437500001,7.104736328125Q8.8023084375,7.104736328125,7.9553514375,7.951689328125ZM8.6624584375,11.334036328125Q8.1083984375,10.779976328125,8.1083984375,9.996416328125001Q8.1083984375,9.212856328125,8.6624584375,8.658796328125Q9.2165184375,8.104736328125,10.000078437500001,8.104736328125Q10.7836384375,8.104736328125,11.3376984375,8.658796328125Q11.8917584375,9.212856328125,11.8917584375,9.996416328125001Q11.8917584375,10.779976328125,11.3376984375,11.334036328125Q10.7836384375,11.888096328125,10.000078437500001,11.888096328125Q9.2165184375,11.888096328125,8.6624584375,11.334036328125Z" fill-rule="evenodd" fill="#9A9CAC" fill-opacity="1" style="mix-blend-mode:passthrough"/></g></g></g></svg>