<svg xmlns="http://www.w3.org/2000/svg" xmlns:xlink="http://www.w3.org/1999/xlink" fill="none" version="1.1" width="20" height="20" viewBox="0 0 20 20"><defs><clipPath id="master_svg0_77_07081"><rect x="0" y="0" width="20" height="20" rx="0"/></clipPath></defs><g clip-path="url(#master_svg0_77_07081)"><g><path d="M18,16.25L18,3.75Q18,3.025125,17.4874,2.5125663Q16.974899999999998,2,16.25,2L3.75,2Q3.025128,2,2.5125638,2.5125638Q2,3.025128,2,3.75L2,16.25Q2,16.974899999999998,2.512566,17.4874Q3.025125,18,3.75,18L16.25,18Q16.974899999999998,18,17.4874,17.4874Q18,16.974899999999998,18,16.25ZM16.25,3Q17,3,17,3.75L17,16.25Q17,17,16.25,17L3.75,17Q3,17,3,16.25L3,3.75Q3,3.4393409999999998,3.219671,3.219671Q3.4393409999999998,3,3.75,3L16.25,3Z" fill-rule="evenodd" fill="" fill-opacity="1" style="mix-blend-mode:passthrough"/></g><g><path d="M14.520589375,7.85288Q14.590599375,7.782595,14.628479375,7.690902Q14.666359375,7.5992088,14.666359375,7.5Q14.666359375,7.4507543,14.656749375,7.4024549Q14.647139375,7.354155,14.628299375,7.308658Q14.609449375,7.263161,14.582089375,7.222215Q14.554729375,7.181269,14.519909375,7.146447Q14.485089375,7.111625,14.444139375,7.084265Q14.403199375,7.056906,14.357699375,7.03806Q14.312199375,7.019215,14.263899375,7.009607Q14.215609375,7,14.166359375,7Q14.066659375,7,13.974579375,7.038243Q13.882499375,7.076485,13.812129375,7.14712L9.783899375,11.190719999999999L8.309789375,9.72007Q8.274949375,9.68532,8.234009375,9.65802Q8.193069375,9.63072,8.147589374999999,9.611930000000001Q8.102109375,9.59314,8.053839374999999,9.58358Q8.005569375,9.57401,7.956359375,9.57404Q7.9071493749999995,9.574069999999999,7.858889375,9.58369Q7.8106293749999995,9.593309999999999,7.765169375,9.61216Q7.719719375,9.631,7.678809375,9.65835Q7.637889375,9.685690000000001,7.603099375,9.72049L5.246314375,12.07727L5.246056375,12.07753Q5.175730375,12.14786,5.137669375,12.239740000000001Q5.099609375,12.33163,5.099609375,12.43108Q5.099609375,12.48033,5.109216375,12.52863Q5.118824375,12.57693,5.137669375,12.62242Q5.156515375,12.667919999999999,5.183874375,12.708870000000001Q5.211234375,12.74981,5.246056375,12.78464Q5.280878375,12.81946,5.321824375,12.846820000000001Q5.362770375,12.874179999999999,5.408267375,12.89302Q5.453764375,12.91187,5.502064275,12.921479999999999Q5.550363675,12.93108,5.599609375,12.93108Q5.699065575,12.93108,5.790951375,12.89302Q5.882836375,12.85496,5.953162375,12.78464L5.953421375,12.784379999999999L7.957069375,10.78073L9.431849375,12.25205L9.432109375,12.25231Q9.466989375,12.28706,9.507989375000001,12.314350000000001Q9.548989375,12.34163,9.594519375,12.360389999999999Q9.640049375,12.37914,9.688369375,12.38866Q9.736689375000001,12.39818,9.785939375,12.39808Q9.835179375,12.39799,9.883459375000001,12.38829Q9.931739375,12.378589999999999,9.977209375000001,12.35966Q10.022669375,12.34073,10.063559375,12.31329Q10.104459375000001,12.28585,10.139209375,12.25096L14.520589375,7.85288L14.520589375,7.85288Z" fill-rule="evenodd" fill="" fill-opacity="1" style="mix-blend-mode:passthrough"/></g><g><path d="M10.833984375,7L14.167314375,7Q14.216564375,7,14.264864375,7.009607Q14.313164375,7.019215,14.358654375,7.03806Q14.404154375000001,7.056906,14.445104375,7.084265Q14.486044375,7.111625,14.520874375,7.146447Q14.555694375,7.181269,14.583054375,7.222215Q14.610414375,7.263161,14.629254375,7.308658Q14.648104374999999,7.354155,14.657704375,7.4024549Q14.667314375,7.4507543,14.667314375,7.5L14.667314375,10.83333Q14.667314375,10.88258,14.657704375,10.93088Q14.648104374999999,10.97918,14.629254375,11.02467Q14.610414375,11.070170000000001,14.583054375,11.11112Q14.555694375,11.15206,14.520874375,11.18689Q14.486044375,11.22171,14.445104375,11.24907Q14.404154375000001,11.27643,14.358654375,11.29527Q14.313164375,11.314119999999999,14.264864375,11.32373Q14.216564375,11.33333,14.167314375,11.33333Q14.118074374999999,11.33333,14.069774375,11.32373Q14.021474375,11.314119999999999,13.975974375,11.29527Q13.930474375,11.27643,13.889534375,11.24907Q13.848584375,11.22171,13.813764375,11.18689Q13.778944375,11.15206,13.751584375,11.11112Q13.724224375,11.070170000000001,13.705374375,11.02468Q13.686534375,10.97918,13.676924375,10.93088Q13.667314375,10.88258,13.667314375,10.83333L13.667314375,8L10.833984375,8Q10.784738675,8,10.736439275,7.990393Q10.688139375,7.980785,10.642642375,7.96194Q10.597145375,7.943094,10.556199375,7.915735Q10.515253375,7.888375,10.480431375,7.853553Q10.445609375,7.818731,10.418249375,7.777785Q10.390890375,7.736839,10.372044375,7.691342Q10.353199374999999,7.645845,10.343591375,7.5975451Q10.333984375,7.5492457,10.333984375,7.5Q10.333984375,7.4507543,10.343591375,7.4024549Q10.353199374999999,7.354155,10.372044375,7.308658Q10.390890375,7.263161,10.418249375,7.222215Q10.445609375,7.181269,10.480431375,7.146447Q10.515253375,7.111625,10.556199375,7.084265Q10.597145375,7.056906,10.642642375,7.03806Q10.688139375,7.019215,10.736439275,7.009607Q10.784738675,7,10.833984375,7Z" fill-rule="evenodd" fill="" fill-opacity="1" style="mix-blend-mode:passthrough"/></g></g></svg>
