<svg xmlns="http://www.w3.org/2000/svg" xmlns:xlink="http://www.w3.org/1999/xlink" fill="none" version="1.1" width="20" height="20" viewBox="0 0 20 20"><defs><clipPath id="master_svg0_77_06890"><rect x="0" y="0" width="20" height="20" rx="0"/></clipPath></defs><g clip-path="url(#master_svg0_77_06890)"><g><path d="M8.83333,7.5L8.83333,3.333333Q8.83333,2.781048,8.44281,2.390526Q8.05229,2,7.5,2L3.333333,2Q2.781049,2,2.390524,2.390524Q2,2.781049,2,3.333333L2,7.5Q2,8.05229,2.390526,8.442820000000001Q2.781048,8.83333,3.333333,8.83333L7.5,8.83333Q8.05229,8.83333,8.44281,8.44281Q8.83333,8.05229,8.83333,7.5ZM7.7357,3.097629Q7.83333,3.195259,7.83333,3.333333L7.83333,7.5Q7.83333,7.83333,7.5,7.83333L3.333333,7.83333Q3,7.83333,3,7.5L3,3.333333Q3,3,3.333333,3L7.5,3Q7.63808,3,7.7357,3.097629Z" fill-rule="evenodd" fill="" fill-opacity="1" style="mix-blend-mode:passthrough"/></g><g><path d="M8.83333,16.66650390625L8.83333,12.49983790625Q8.83333,11.94754290625,8.44281,11.55702390625Q8.05229,11.16650390625,7.5,11.16650390625L3.333333,11.16650390625Q2.781048,11.16650390625,2.390526,11.55702190625Q2,11.94754390625,2,12.49983790625L2,16.66650390625Q2,17.21879390625,2.390526,17.60932390625Q2.781048,17.99983390625,3.333333,17.99983390625L7.5,17.99983390625Q8.05229,17.99983390625,8.44281,17.60931390625Q8.83333,17.21879390625,8.83333,16.66650390625ZM7.5,12.16650390625Q7.83333,12.16650390625,7.83333,12.49983790625L7.83333,16.66650390625Q7.83333,16.99983390625,7.5,16.99983390625L3.333333,16.99983390625Q3,16.99983390625,3,16.66650390625L3,12.49983790625Q3,12.16650390625,3.333333,12.16650390625L7.5,12.16650390625Z" fill-rule="evenodd" fill="" fill-opacity="1" style="mix-blend-mode:passthrough"/></g><g><path d="M12.166732625,3.000717Q11.166015625,4.0014400000000006,11.166015625,5.41667Q11.166015625,6.8319,12.166733624999999,7.83262Q13.167455625,8.83333,14.582685625,8.83333Q15.997915625000001,8.83333,16.998635625,7.83262Q17.999345625,6.8319,17.999345625,5.41667Q17.999345625,4.00143,16.998635625,3.000717Q15.997915625000001,2,14.582685625,2Q13.167445625,2,12.166732625,3.000717ZM12.873835625,7.12551Q12.166015625,6.41768,12.166015625,5.41667Q12.166015625,4.41565,12.873835625,3.70782Q13.581665625,3,14.582685625,3Q15.583695625,3,16.291525625,3.70782Q16.999345625,4.41565,16.999345625,5.41667Q16.999345625,6.41768,16.291525625,7.12551Q15.583695625,7.83333,14.582685625,7.83333Q13.581665625,7.83333,12.873835625,7.12551Z" fill-rule="evenodd" fill="" fill-opacity="1" style="mix-blend-mode:passthrough"/></g><g><path d="M17.999345625,16.66650390625L17.999345625,12.49983790625Q17.999345625,11.94754290625,17.608825625,11.55702390625Q17.218305625,11.16650390625,16.666015625,11.16650390625L12.499349625,11.16650390625Q11.947054625,11.16650390625,11.556535625,11.55702390625Q11.166015625,11.94754290625,11.166015625,12.49983790625L11.166015625,16.66650390625Q11.166015625,17.21879390625,11.556535625,17.60931390625Q11.947055625,17.99983390625,12.499349625,17.99983390625L16.666015625,17.99983390625Q17.218305625,17.99983390625,17.608825625,17.60931390625Q17.999345625,17.21879390625,17.999345625,16.66650390625ZM16.666015625,12.16650390625Q16.999345625,12.16650390625,16.999345625,12.49983790625L16.999345625,16.66650390625Q16.999345625,16.99983390625,16.666015625,16.99983390625L12.499349625,16.99983390625Q12.166015625,16.99983390625,12.166015625,16.66650390625L12.166015625,12.49983790625Q12.166015625,12.16650390625,12.499349625,12.16650390625L16.666015625,12.16650390625Z" fill-rule="evenodd" fill="" fill-opacity="1" style="mix-blend-mode:passthrough"/></g></g></svg>
