<svg xmlns="http://www.w3.org/2000/svg" xmlns:xlink="http://www.w3.org/1999/xlink" fill="" version="1.1" width="20" height="20" viewBox="0 0 20 20"><defs><clipPath id="master_svg0_60_3106"><rect x="5.50390625" y="4.236328125" width="8.880000114440918" height="8.880000114440918" rx="0"/></clipPath></defs><g><g><rect x="0" y="0" width="20" height="20" rx="0" fill="#D8D8D8" fill-opacity="0"/></g><g><g><g><rect x="2.7939453125" y="3.139404296875" width="14.2998046875" height="11.07373046875" rx="0.5" fill-opacity="0" stroke-opacity="1" stroke="#9A9CAC" fill="none" stroke-width="1"/></g><g><rect x="5.841796875" y="16" width="8" height="1" rx="0" fill="" fill-opacity="1"/></g></g><g clip-path="url(#master_svg0_60_3106)"><g><path d="M9.23760578125,12.334700859375001Q9.40202578125,11.820360859375,9.94267578125,11.820360859375Q10.483315781249999,11.820360859375,10.647735781249999,12.334700859375001Q10.65869578125,12.368960859375001,10.67604578125,12.400480859375001Q10.69338578125,12.431990859375,10.71648578125,12.459570859374999Q10.73957578125,12.487160859374999,10.76755578125,12.509770859375Q10.795535781249999,12.532390859374999,10.82733578125,12.549190859374999Q10.85914578125,12.565990859374999,10.89359578125,12.576360859375Q10.928045781249999,12.586720859375,10.96384578125,12.590250859375Q10.999645781249999,12.593780859375,11.03545578125,12.590350859375Q11.07126578125,12.586920859374999,11.10574578125,12.576650859375Q12.13034578125,12.271610859375,12.87550578125,11.497310859375Q12.89910578125,11.472800859374999,12.91782578125,11.444390859375Q12.93655578125,11.415990859375,12.94978578125,11.384640859375Q12.96301578125,11.353300859375,12.970305781250001,11.320070859375Q12.97760578125,11.286840859375001,12.97871578125,11.252830859374999Q12.97982578125,11.218830859375,12.97471578125,11.185200859375Q12.969615781249999,11.151560859375,12.958455781249999,11.119420859375001Q12.94729578125,11.087280859375,12.93046578125,11.057710859375Q12.913635781250001,11.028140859375,12.89169578125,11.002140859375Q12.71767578125,10.795890859375,12.71767578125,10.525370859375Q12.71767578125,10.218850859375,12.93441578125,10.002110859375Q13.15115578125,9.785370859375,13.45767578125,9.785370859375Q13.49462578125,9.785370859375,13.531405781250001,9.788980859375Q13.56526578125,9.792300859375,13.599155781250001,9.789400859375Q13.63304578125,9.786490859375,13.665845781249999,9.777460859375001Q13.69864578125,9.768420859375,13.72923578125,9.753560859375Q13.75983578125,9.738690859375,13.78721578125,9.718500859375Q13.814585781249999,9.698300859375,13.83781578125,9.673460859375Q13.86105578125,9.648610859375001,13.87936578125,9.619940859375Q13.897675781250001,9.591280859375,13.91045578125,9.559750859375Q13.92323578125,9.528220859375,13.930055781250001,9.494900859375Q14.01267578125,9.091000859375,14.01267578125,8.675370859375Q14.01267578125,8.047880859375,13.82624578125,7.454370859375Q13.808435781250001,7.397700859375,13.77379578125,7.3494508593750005Q13.73914578125,7.301200859375,13.69113578125,7.266220859375Q13.643135781249999,7.231240859375,13.586585781250001,7.213040859375Q13.53004578125,7.194850859375,13.47064578125,7.195270859375L13.45767578125,7.195370859375Q13.15115578125,7.195370859375,12.93441578125,6.978620859375Q12.71767578125,6.761890859375,12.71767578125,6.455370859375Q12.71767578125,6.282300859375,12.793385781249999,6.1287308593750005Q12.819785781250001,6.075185859375,12.82799578125,6.016053859375Q12.83621578125,5.956921859375,12.82542578125,5.898206859375Q12.814625781250001,5.839491859375,12.785905781250001,5.787150859375Q12.757195781250001,5.734810859375,12.71347578125,5.694158859375Q11.98484578125,5.016652759375,11.030745781250001,4.752540859375Q10.96911578125,4.735480859375,10.905335781249999,4.740095859375Q10.841555781250001,4.744709859375,10.78302578125,4.770462859375Q10.724495781249999,4.796215859375,10.67799578125,4.840120859375Q10.631505781249999,4.884024859375,10.602445781250001,4.940986859375Q10.39614578125,5.345373859375,9.94267578125,5.345373859375Q9.48920578125,5.345373859375,9.28289578125,4.940986859375Q9.25383578125,4.884024859375,9.20734578125,4.840120859375Q9.16085578125,4.796215859375,9.10232578125,4.770462859375Q9.043795781250001,4.744709859375,8.98001578125,4.740095859375Q8.91623578125,4.735480859375,8.854605781250001,4.752540859375Q7.90050578125,5.016652359375,7.17187578125,5.694157859375Q7.12815578125,5.734809859375,7.09943978125,5.787149859375Q7.07072378125,5.839489859375,7.05992778125,5.898204859375Q7.04913078125,5.956919859375,7.05734778125,6.0160508593749995Q7.06556578125,6.075182859375,7.09196378125,6.1287308593750005Q7.16767478125,6.282300859375,7.16767478125,6.455370859375Q7.16767478125,6.761890859375,6.95093478125,6.978630859375Q6.73419378125,7.195370859375,6.43027878125,7.195370859375L6.41469978125,7.195270859375Q6.35529978125,7.194850859375,6.29875488125,7.213040859375Q6.24220964825,7.231240859375,6.19420168125,7.266220859375Q6.14619378125,7.301200859375,6.11154778125,7.3494508593750005Q6.07690278125,7.397700859375,6.05910178125,7.454380859375Q5.87267578125,8.047880859375,5.87267578125,8.675370859375Q5.87267578125,9.090990859375001,5.95528878125,9.494890859375001Q5.96210578125,9.528220859375,5.97488478125,9.559750859375Q5.98766378125,9.591270859375001,6.00597778125,9.619940859375Q6.02429178125,9.648610859375001,6.04752578125,9.673460859375Q6.07075878125,9.698300859375,6.09813378125,9.718500859375Q6.12550878125,9.738690859375,6.15610758125,9.753560859375Q6.18670588125,9.768420859375,6.21950168125,9.777460859375001Q6.25229753125,9.786490859375,6.28619118125,9.789400859375Q6.32008478125,9.792300859375,6.35393978125,9.788980859375Q6.39072378125,9.785370859375,6.42767578125,9.785370859375Q6.73419278125,9.785370859375,6.95093378125,10.002110859375Q7.16767478125,10.218850859375,7.16767478125,10.525370859375Q7.16767478125,10.795880859375,6.99364378125,11.002140859375Q6.97170378125,11.028140859375,6.95487378125,11.057710859375Q6.93804478125,11.087280859375,6.92688878125,11.119420859375001Q6.91573278125,11.151560859375,6.91062478125,11.185200859375Q6.90551778125,11.218830859375,6.90662878125,11.252840859374999Q6.90774078125,11.286840859375001,6.91503478125,11.320070859375Q6.92232878125,11.353300859375,6.93556078125,11.384640859375Q6.94879278125,11.415990859375,6.96751778125,11.444390859375Q6.98624378125,11.472800859374999,7.00983478125,11.497310859375Q7.75500578125,12.271610859375,8.77960578125,12.576650859375Q8.81407578125,12.586920859374999,8.84988578125,12.590350859375Q8.88569578125,12.593780859375,8.92149578125,12.590250859375Q8.95729578125,12.586720859375,8.99174578125,12.576360859375Q9.02619578125,12.566000859375,9.05800578125,12.549190859374999Q9.08981578125,12.532390859374999,9.11778578125,12.509770859375Q9.14576578125,12.487160859374999,9.16885578125,12.459580859375Q9.19195578125,12.431990859375,9.20930578125,12.400480859375001Q9.226655781249999,12.368970859375,9.23760578125,12.334700859375001ZM10.823885781249999,11.371220859375Q10.43187578125,11.080360859375,9.94267578125,11.080360859375Q9.45346578125,11.080360859375,9.06146578125,11.371220859375Q8.83610578125,11.538430859375,8.69310578125,11.763790859375Q8.17574578125,11.556240859375,7.75453578125,11.186400859375Q7.90767578125,10.884010859375,7.90767578125,10.525370859375Q7.90767578125,9.912330859375,7.47419578125,9.478850859375001Q7.11569778125,9.120350859375,6.63439678125,9.058340859375Q6.61267578125,8.868490859375001,6.61267578125,8.675370859375Q6.61267578125,8.285470859375,6.70037778125,7.912120859374999Q7.14107278125,7.8350008593750005,7.47419578125,7.5018808593749995Q7.90767578125,7.068400859375,7.90767578125,6.455370859375Q7.90767578125,6.260250859375,7.85922578125,6.077021859375Q8.28367578125,5.734438859375,8.793135781250001,5.548550859375Q9.20368578125,6.085373859375,9.94267578125,6.085373859375Q10.68166578125,6.085373859375,11.09220578125,5.548551859375Q11.60166578125,5.734436859375,12.02612578125,6.077021859375Q11.97766578125,6.260250859375,11.97766578125,6.455370859375Q11.97766578125,7.068400859375,12.411155781249999,7.5018808593749995Q12.74488578125,7.8356108593750005,13.18503578125,7.912410859375Q13.272675781250001,8.285620859375,13.272675781250001,8.675370859375Q13.272675781250001,8.868490859375001,13.25095578125,9.058340859375Q12.76964578125,9.120360859375001,12.411155781249999,9.478850859375001Q11.97766578125,9.912330859375,11.97766578125,10.525370859375Q11.97766578125,10.884020859375,12.13081578125,11.186400859375Q11.70960578125,11.556240859375,11.19224578125,11.763800859375Q11.04924578125,11.538430859375,10.823885781249999,11.371220859375Z" fill-rule="evenodd" fill="" fill-opacity="1" style="mix-blend-mode:passthrough"/></g><g><path d="M8.7690341875,7.50096778125Q8.2813671875,7.98863378125,8.2813671875,8.67830078125Q8.2813671875,9.36797078125,8.7690341875,9.85563078125Q9.2567001875,10.34330078125,9.9463671875,10.34330078125Q10.6360371875,10.34330078125,11.1236971875,9.85563078125Q11.6113671875,9.36797078125,11.6113671875,8.67830078125Q11.6113671875,7.98863478125,11.1236971875,7.50096778125Q10.6360371875,7.01330078125,9.9463671875,7.01330078125Q9.2567001875,7.01330078125,8.7690341875,7.50096778125ZM9.2922931875,9.33237078125Q9.0213671875,9.06145078125,9.0213671875,8.67830078125Q9.0213671875,8.29515178125,9.2922931875,8.02422678125Q9.5632181875,7.75330078125,9.9463671875,7.75330078125Q10.3295171875,7.75330078125,10.6004371875,8.02422678125Q10.8713671875,8.29515178125,10.8713671875,8.67830078125Q10.8713671875,9.06145078125,10.6004371875,9.33237078125Q10.3295171875,9.60330078125,9.9463671875,9.60330078125Q9.5632181875,9.60330078125,9.2922931875,9.33237078125Z" fill-rule="evenodd" fill="" fill-opacity="1" style="mix-blend-mode:passthrough"/></g></g></g></g></svg>
