<svg xmlns="http://www.w3.org/2000/svg" xmlns:xlink="http://www.w3.org/1999/xlink" fill="none" version="1.1" width="20" height="20" viewBox="0 0 20 20"><g><g><rect x="0" y="0" width="20" height="20" rx="0" fill="#D8D8D8" fill-opacity="0"/></g><g><g><ellipse cx="8.081847190856934" cy="7.003233909606934" rx="2.8386831283569336" ry="2.8386831283569336" fill-opacity="0" stroke-opacity="1" stroke="#9A9CAC" fill="none" stroke-width="1"/></g><g><path d="" fill="#D8D8D8" fill-opacity="1"/><path d="M3.901499375,11.30813828125Q2.193359375,13.18871828125,2.193359375,15.83920828125Q2.193359375,15.88844828125,2.202966375,15.93674828125Q2.212574375,15.98504828125,2.2314193749999998,16.03054828125Q2.250265375,16.07603828125,2.277624375,16.116988281250002Q2.304984375,16.15793828125,2.339806375,16.19275828125Q2.374628375,16.22757828125,2.415574375,16.25493828125Q2.456520375,16.28229828125,2.502017375,16.30114828125Q2.547514375,16.319988281249998,2.595814275,16.32959828125Q2.644113675,16.339208281250002,2.693359375,16.339208281250002Q2.742605075,16.339208281250002,2.790904475,16.32959828125Q2.839204375,16.319988281249998,2.884701375,16.30114828125Q2.930198375,16.28229828125,2.971144375,16.25493828125Q3.012090375,16.22757828125,3.046912375,16.19275828125Q3.081734375,16.15793828125,3.109094375,16.116988281250002Q3.136453375,16.07603828125,3.1552993750000002,16.03054828125Q3.174144375,15.98504828125,3.183752375,15.93674828125Q3.193359375,15.88844828125,3.193359375,15.83920828125Q3.193359375,13.57507828125,4.641729375,11.98049828125Q6.071189374999999,10.40673828125,8.081869375,10.40673828125Q10.092559375,10.40673828125,11.522009375,11.98049828125Q12.970359375,13.57507828125,12.970359375,15.83920828125Q12.970359375,15.88844828125,12.979959375,15.93674828125Q12.989559375,15.98504828125,13.008459375,16.03054828125Q13.027259375,16.07603828125,13.054659375,16.116988281250002Q13.082059375,16.15793828125,13.116859375,16.19275828125Q13.151659375,16.22757828125,13.192559375,16.25493828125Q13.233559375,16.28229828125,13.279059375,16.30114828125Q13.324559375,16.319988281249998,13.372859375,16.32959828125Q13.421159375,16.339208281250002,13.470359375,16.339208281250002Q13.519659375,16.339208281250002,13.567959375,16.32959828125Q13.616259375,16.319988281249998,13.661759375,16.30114828125Q13.707259375,16.28229828125,13.748159375,16.25493828125Q13.789159375,16.22757828125,13.823959375,16.19275828125Q13.858759375,16.15793828125,13.886159375,16.116988281250002Q13.913459375,16.07603828125,13.932359375,16.03054828125Q13.951159375,15.98504828125,13.960759375,15.93674828125Q13.970359375,15.88844828125,13.970359375,15.83920828125Q13.970359375,13.18871828125,12.262239375,11.30813828125Q10.535179375,9.40673828125,8.081869375,9.40673828125Q5.628559375,9.40673828125,3.901499375,11.30813828125Z" fill-rule="evenodd" fill="#9A9CAC" fill-opacity="1"/></g><g><g><path d="M12.34106731414795,3.4619140625Q13.72399731414795,3.4619140625,14.70187731414795,4.4397920625000005Q15.67974731414795,5.4176740625,15.67974731414795,6.8005940625Q15.67974731414795,8.1835240625,14.70187731414795,9.1614040625Q13.724257314147948,10.1390140625,12.34180697514795,10.1392840625L12.34106731414795,10.1392840625Q12.291821614147949,10.1392840625,12.24352221414795,10.129674062500001Q12.19522231414795,10.1200640625,12.149725314147949,10.1012240625Q12.10422831414795,10.0823740625,12.06328231414795,10.0550140625Q12.02233631414795,10.0276540625,11.98751431414795,9.9928340625Q11.95269231414795,9.9580140625,11.92533231414795,9.9170640625Q11.897973314147949,9.876114062500001,11.879127314147949,9.8306240625Q11.860282314147948,9.7851240625,11.85067431414795,9.7368240625Q11.84106731414795,9.6885240625,11.84106731414795,9.6392840625Q11.84106731414795,9.5900340625,11.85067431414795,9.5417340625Q11.860282314147948,9.4934340625,11.879127314147949,9.4479340625Q11.897973314147949,9.402444062499999,11.92533231414795,9.3614940625Q11.95269231414795,9.3205440625,11.98751431414795,9.2857240625Q12.02233631414795,9.2509040625,12.06328231414795,9.2235440625Q12.10422831414795,9.1961840625,12.149725314147949,9.1773440625Q12.19522231414795,9.1584940625,12.24352221414795,9.148884062499999Q12.291821614147949,9.1392840625,12.34106731414795,9.1392840625Q13.309780314147948,9.1392840625,13.99476731414795,8.4542940625Q14.67974731414795,7.7693140624999995,14.67974731414795,6.8005940625Q14.67974731414795,5.8318840625,13.99476731414795,5.1468940624999995Q13.30978131414795,4.4619140625,12.34106731414795,4.4619140625Q12.291821614147949,4.4619140625,12.24352221414795,4.4523070625Q12.19522231414795,4.4426990625,12.149725314147949,4.4238540625Q12.10422831414795,4.4050080625,12.06328231414795,4.3776490625Q12.02233631414795,4.3502890625,11.98751431414795,4.3154670625Q11.95269231414795,4.2806450625,11.92533231414795,4.2396990625Q11.897973314147949,4.1987530625,11.879127314147949,4.1532560625Q11.860282314147948,4.1077590625,11.85067431414795,4.0594591625Q11.84106731414795,4.0111597625,11.84106731414795,3.9619140625Q11.84106731414795,3.9126683625,11.85067431414795,3.8643689625Q11.860282314147948,3.8160690625,11.879127314147949,3.7705720625Q11.897973314147949,3.7250750625,11.92533231414795,3.6841290625Q11.95269231414795,3.6431830625,11.98751431414795,3.6083610625Q12.02233631414795,3.5735390625,12.06328231414795,3.5461790625Q12.10422831414795,3.5188200625,12.149725314147949,3.4999740624999998Q12.19522231414795,3.4811290625,12.24352221414795,3.4715210625Q12.291821614147949,3.4619140625,12.34106731414795,3.4619140625Z" fill-rule="evenodd" fill="#9A9CAC" fill-opacity="1"/></g><g transform="matrix(0.9456611275672913,0.32515406608581543,-0.32515406608581543,0.9456611275672913,3.80526690457895,-3.4916903815859257)"><path d="" fill="#D8D8D8" fill-opacity="1"/><path d="M12.349442601203918,9.13916015625Q14.719602601203919,9.13916015625,16.23858260120392,10.65737015625Q17.63760260120392,12.05570015625,18.083602601203918,14.51414015625Q18.09163260120392,14.55841015625,18.09163260120392,14.60339015625Q18.09163260120392,14.652640156250001,18.082022601203917,14.700940156249999Q18.07241260120392,14.74924015625,18.053572601203918,14.79473015625Q18.034722601203917,14.84023015625,18.00736260120392,14.88118015625Q17.980002601203918,14.92212015625,17.945182601203918,14.956950156249999Q17.910362601203918,14.99177015625,17.86941260120392,15.01913015625Q17.82847260120392,15.04649015625,17.78297260120392,15.065330156249999Q17.73747260120392,15.08418015625,17.689172601203918,15.09379015625Q17.640872601203917,15.10339015625,17.59163260120392,15.10339015625Q17.548042601203917,15.10339015625,17.50511260120392,15.09585015625Q17.462182601203917,15.08831015625,17.42120260120392,15.07345015625Q17.38022260120392,15.05859015625,17.342432601203917,15.03687015625Q17.304642601203916,15.01514015625,17.27118260120392,14.98721015625Q17.23772260120392,14.95927015625,17.20960260120392,14.92597015625Q17.181482601203918,14.892660156249999,17.159542601203917,14.85499015625Q17.13761260120392,14.81732015625,17.12252260120392,14.776430156250001Q17.107442601203918,14.73553015625,17.099662601203917,14.69264015625L17.09954260120392,14.69201015625Q16.70931260120392,12.54173015625,15.531652601203918,11.36466015625Q14.305542601203918,10.13916015625,12.349442601203918,10.13916015625Q12.300196901203918,10.13916015625,12.251897501203919,10.12955315625Q12.203597601203919,10.119945156250001,12.158100601203918,10.10110015625Q12.112603601203919,10.08225415625,12.071657601203919,10.05489515625Q12.030711601203919,10.02753515625,11.995889601203919,9.99271315625Q11.961067601203919,9.95789115625,11.933707601203919,9.91694515625Q11.906348601203918,9.87599915625,11.887502601203918,9.83050215625Q11.868657601203918,9.78500515625,11.85904960120392,9.73670525625Q11.849442601203918,9.68840585625,11.849442601203918,9.63916015625Q11.849442601203918,9.58991445625,11.85904960120392,9.54161505625Q11.868657601203918,9.49331515625,11.887502601203918,9.44781815625Q11.906348601203918,9.40232115625,11.933707601203919,9.36137515625Q11.961067601203919,9.32042915625,11.995889601203919,9.28560715625Q12.030711601203919,9.25078515625,12.071657601203919,9.22342515625Q12.112603601203919,9.19606615625,12.158100601203918,9.17722015625Q12.203597601203919,9.158375156249999,12.251897501203919,9.14876715625Q12.300196901203918,9.13916015625,12.349442601203918,9.13916015625Z" fill-rule="evenodd" fill="#9A9CAC" fill-opacity="1"/></g></g></g></g></svg>