<svg xmlns="http://www.w3.org/2000/svg" xmlns:xlink="http://www.w3.org/1999/xlink" fill="none" version="1.1" width="20" height="20" viewBox="0 0 20 20"><defs><clipPath id="master_svg0_77_06862"><rect x="0" y="0" width="20" height="20" rx="0"/></clipPath></defs><g clip-path="url(#master_svg0_77_06862)"><g><path d="M1.666015625,1.16650390625L18.332715625,1.16650390625Q18.381915625,1.16650390625,18.430215625,1.17611090625Q18.478515625,1.18571890625,18.524015625,1.20456390625Q18.569515625,1.2234099062500001,18.610415625,1.25076890625Q18.651415625,1.27812890625,18.686215625,1.31295090625Q18.721015625,1.34777290625,18.748415625,1.38871890625Q18.775815625,1.42966490625,18.794615625,1.4751619062499999Q18.813515625,1.52065890625,18.823115625,1.56895880625Q18.832715625,1.61725820625,18.832715625,1.66650390625Q18.832715625,1.71574960625,18.823115625,1.76404900625Q18.813515625,1.81234890625,18.794615625,1.8578459062500001Q18.775815625,1.90334290625,18.748415625,1.94428890625Q18.721015625,1.98523490625,18.686215625,2.02005690625Q18.651415625,2.05487890625,18.610515625,2.08223890625Q18.569515625,2.10959790625,18.524015625,2.1284439062500002Q18.478515625,2.14728890625,18.430215625,2.15689690625Q18.381915625,2.16650390625,18.332715625,2.16650390625L1.666015625,2.16650390625Q1.616769925,2.16650390625,1.568470525,2.15689690625Q1.520170625,2.14728890625,1.4746736249999999,2.1284439062500002Q1.429176625,2.10959790625,1.388230625,2.08223890625Q1.347284625,2.05487890625,1.312462625,2.02005690625Q1.277640625,1.98523490625,1.250280625,1.94428890625Q1.2229216250000001,1.90334290625,1.204075625,1.8578459062500001Q1.185230625,1.81234890625,1.175622625,1.76404900625Q1.166015625,1.71574960625,1.166015625,1.66650390625Q1.166015625,1.61725820625,1.175622625,1.56895880625Q1.185230625,1.52065890625,1.204075625,1.4751619062499999Q1.2229216250000001,1.42966490625,1.250280625,1.38871890625Q1.277640625,1.34777290625,1.312462625,1.31295090625Q1.347284625,1.27812890625,1.388230625,1.25076890625Q1.429176625,1.2234099062500001,1.4746736249999999,1.20456390625Q1.520170625,1.18571890625,1.568470525,1.17611090625Q1.616769925,1.16650390625,1.666015625,1.16650390625Z" fill-rule="evenodd" fill="" fill-opacity="1" style="mix-blend-mode:passthrough"/></g><g><path d="M2.833984375,16.33320390625L2.833984375,3.66650390625Q2.833984375,2.63096990625,3.566217375,1.89873690625Q4.298450375,1.16650390625,5.333984375,1.16650390625L14.667284375,1.16650390625Q15.702884375,1.16650390625,16.435084375000002,1.89873690625Q17.167284375,2.63097090625,17.167284375,3.66650390625L17.167284375,16.33320390625Q17.167284375,17.368703906249998,16.435084375000002,18.10090390625Q15.702884375,18.83320390625,14.667284375,18.83320390625L5.333984375,18.83320390625Q4.298450375,18.83320390625,3.566217375,18.10090390625Q2.833984375,17.368703906249998,2.833984375,16.33320390625ZM3.833984375,16.33320390625Q3.833984375,16.95450390625,4.273324375,17.39380390625Q4.712664375,17.83320390625,5.333984375,17.83320390625L14.667284375,17.83320390625Q15.288684375,17.83320390625,15.727984375,17.39380390625Q16.167284375,16.95450390625,16.167284375,16.33320390625L16.167284375,3.66650390625Q16.167284375,3.04518390625,15.727984375,2.60584390625Q15.288684375,2.16650390625,14.667284375,2.16650390625L5.333984375,2.16650390625Q4.712664375,2.16650390625,4.273324375,2.60584390625Q3.833984375,3.04518390625,3.833984375,3.66650390625L3.833984375,16.33320390625Z" fill="" fill-opacity="1" style="mix-blend-mode:passthrough"/></g><g><path d="M7.833984375,13.33349609375L7.833984375,18.33349609375Q7.833984375,18.38274609375,7.843591375,18.43104609375Q7.853199375,18.47933609375,7.872044375,18.52483609375Q7.890890375,18.57033609375,7.918249375,18.61127609375Q7.945609375,18.652226093750002,7.980431375,18.68704609375Q8.015253375,18.721866093750002,8.056199375,18.74922609375Q8.097145375,18.776586093749998,8.142642375,18.79543609375Q8.188139375,18.81427609375,8.236439275,18.823886093749998Q8.284738675,18.83349609375,8.333984375,18.83349609375L11.667314375,18.83349609375Q11.716564375,18.83349609375,11.764864375,18.823886093749998Q11.813164375,18.81427609375,11.858654375,18.79543609375Q11.904154375000001,18.776586093749998,11.945104375,18.74922609375Q11.986044375,18.721866093750002,12.020874375,18.68704609375Q12.055694375,18.652226093750002,12.083054375,18.61127609375Q12.110414375,18.57033609375,12.129254375,18.52483609375Q12.148104374999999,18.47933609375,12.157704375,18.43104609375Q12.167314375,18.38274609375,12.167314375,18.33349609375L12.167314375,13.33349609375Q12.167314375,13.28425039375,12.157704375,13.23595099375Q12.148104374999999,13.18765109375,12.129254375,13.14215409375Q12.110414375,13.09665709375,12.083054375,13.05571109375Q12.055694375,13.01476509375,12.020874375,12.97994309375Q11.986044375,12.94512109375,11.945104375,12.91776109375Q11.904154375000001,12.89040209375,11.858654375,12.87155609375Q11.813164375,12.852711093749999,11.764864375,12.84310309375Q11.716564375,12.83349609375,11.667314375,12.83349609375L8.333984375,12.83349609375Q8.284738675,12.83349609375,8.236439275,12.84310309375Q8.188139375,12.852711093749999,8.142642375,12.87155609375Q8.097145375,12.89040209375,8.056199375,12.91776109375Q8.015253375,12.94512109375,7.980431375,12.97994309375Q7.945609375,13.01476509375,7.918249375,13.05571109375Q7.890890375,13.09665709375,7.872044375,13.14215409375Q7.853199375,13.18765109375,7.843591375,13.23595099375Q7.833984375,13.28425039375,7.833984375,13.33349609375ZM8.833984375,17.83349609375L8.833984375,13.83349609375L11.167314375,13.83349609375L11.167314375,17.83349609375L8.833984375,17.83349609375Z" fill-rule="evenodd" fill="" fill-opacity="1" style="mix-blend-mode:passthrough"/></g><g><path d="M6.25,4.5Q6.2007543,4.5,6.1524549,4.509607Q6.104155,4.519215,6.058658,4.53806Q6.013161,4.556906,5.972215,4.584265Q5.931269,4.611625,5.896447,4.646447Q5.861625,4.681269,5.834265,4.722215Q5.806906,4.763161,5.78806,4.808658Q5.769215,4.854155,5.759607,4.9024549Q5.75,4.9507543,5.75,5Q5.75,5.0492457,5.759607,5.0975451Q5.769215,5.145845,5.78806,5.191342Q5.806906,5.236839,5.834265,5.277785Q5.861625,5.318731,5.896447,5.353553Q5.931269,5.388375,5.972215,5.415735Q6.013161,5.443094,6.058658,5.46194Q6.104155,5.480785,6.1524549,5.490393Q6.2007543,5.5,6.25,5.5L7.083333,5.5Q7.132579,5.5,7.180878,5.490393Q7.229178,5.480785,7.27467,5.46194Q7.32017,5.443094,7.36112,5.415735Q7.4020600000000005,5.388375,7.43689,5.353553Q7.47171,5.318731,7.49907,5.277785Q7.5264299999999995,5.236839,7.54527,5.191342Q7.56412,5.145845,7.57373,5.0975451Q7.58333,5.0492457,7.58333,5Q7.58333,4.9507543,7.57373,4.9024549Q7.56412,4.854155,7.54527,4.808658Q7.5264299999999995,4.763161,7.49907,4.722215Q7.47171,4.681269,7.43689,4.646447Q7.4020600000000005,4.611625,7.36112,4.584265Q7.32017,4.556906,7.27467,4.53806Q7.229178,4.519215,7.180878,4.509607Q7.132579,4.5,7.083333,4.5L6.25,4.5Z" fill-rule="evenodd" fill="" fill-opacity="1" style="mix-blend-mode:passthrough"/></g><g><path d="M6.25,7Q6.2007543,7,6.1524549,7.009607Q6.104155,7.019215,6.058658,7.03806Q6.013161,7.056906,5.972215,7.084265Q5.931269,7.111625,5.896447,7.146447Q5.861625,7.181269,5.834265,7.222215Q5.806906,7.263161,5.78806,7.308658Q5.769215,7.354155,5.759607,7.4024549Q5.75,7.4507543,5.75,7.5Q5.75,7.5492457,5.759607,7.5975451Q5.769215,7.645845,5.78806,7.691342Q5.806906,7.736839,5.834265,7.777785Q5.861625,7.818731,5.896447,7.853553Q5.931269,7.888375,5.972215,7.915735Q6.013161,7.943094,6.058658,7.96194Q6.104155,7.980785,6.1524549,7.990393Q6.2007543,8,6.25,8L7.083333,8Q7.132579,8,7.180878,7.990393Q7.229178,7.980785,7.27467,7.96194Q7.32017,7.943094,7.36112,7.915735Q7.4020600000000005,7.888375,7.43689,7.853553Q7.47171,7.818731,7.49907,7.777785Q7.5264299999999995,7.736839,7.54527,7.691342Q7.56412,7.645845,7.57373,7.5975451Q7.58333,7.5492457,7.58333,7.5Q7.58333,7.4507543,7.57373,7.4024549Q7.56412,7.354155,7.54527,7.308658Q7.5264299999999995,7.263161,7.49907,7.222215Q7.47171,7.181269,7.43689,7.146447Q7.4020600000000005,7.111625,7.36112,7.084265Q7.32017,7.056906,7.27467,7.03806Q7.229178,7.019215,7.180878,7.009607Q7.132579,7,7.083333,7L6.25,7Z" fill-rule="evenodd" fill="" fill-opacity="1" style="mix-blend-mode:passthrough"/></g><g><path d="M9.583984375,4.5Q9.534738675,4.5,9.486439275,4.509607Q9.438139375,4.519215,9.392642375,4.53806Q9.347145375,4.556906,9.306199375,4.584265Q9.265253375,4.611625,9.230431375,4.646447Q9.195609375,4.681269,9.168249375,4.722215Q9.140890375,4.763161,9.122044375,4.808658Q9.103199374999999,4.854155,9.093591375,4.9024549Q9.083984375,4.9507543,9.083984375,5Q9.083984375,5.0492457,9.093591375,5.0975451Q9.103199374999999,5.145845,9.122044375,5.191342Q9.140890375,5.236839,9.168249375,5.277785Q9.195609375,5.318731,9.230431375,5.353553Q9.265253375,5.388375,9.306199375,5.415735Q9.347145375,5.443094,9.392642375,5.46194Q9.438139375,5.480785,9.486439275,5.490393Q9.534738675,5.5,9.583984375,5.5L10.417317375,5.5Q10.466563375,5.5,10.514862375,5.490393Q10.563162375,5.480785,10.608654375,5.46194Q10.654154375000001,5.443094,10.695104375,5.415735Q10.736044375,5.388375,10.770874375,5.353553Q10.805694375,5.318731,10.833054375,5.277785Q10.860414375,5.236839,10.879254375,5.191342Q10.898104374999999,5.145845,10.907714375,5.0975451Q10.917314375,5.0492457,10.917314375,5Q10.917314375,4.9507543,10.907714375,4.9024549Q10.898104374999999,4.854155,10.879254375,4.808658Q10.860414375,4.763161,10.833054375,4.722215Q10.805694375,4.681269,10.770874375,4.646447Q10.736044375,4.611625,10.695104375,4.584265Q10.654154375000001,4.556906,10.608654375,4.53806Q10.563162375,4.519215,10.514862375,4.509607Q10.466563375,4.5,10.417317375,4.5L9.583984375,4.5Z" fill-rule="evenodd" fill="" fill-opacity="1" style="mix-blend-mode:passthrough"/></g><g><path d="M9.583984375,7Q9.534738675,7,9.486439275,7.009607Q9.438139375,7.019215,9.392642375,7.03806Q9.347145375,7.056906,9.306199375,7.084265Q9.265253375,7.111625,9.230431375,7.146447Q9.195609375,7.181269,9.168249375,7.222215Q9.140890375,7.263161,9.122044375,7.308658Q9.103199374999999,7.354155,9.093591375,7.4024549Q9.083984375,7.4507543,9.083984375,7.5Q9.083984375,7.5492457,9.093591375,7.5975451Q9.103199374999999,7.645845,9.122044375,7.691342Q9.140890375,7.736839,9.168249375,7.777785Q9.195609375,7.818731,9.230431375,7.853553Q9.265253375,7.888375,9.306199375,7.915735Q9.347145375,7.943094,9.392642375,7.96194Q9.438139375,7.980785,9.486439275,7.990393Q9.534738675,8,9.583984375,8L10.417317375,8Q10.466563375,8,10.514862375,7.990393Q10.563162375,7.980785,10.608654375,7.96194Q10.654154375000001,7.943094,10.695104375,7.915735Q10.736044375,7.888375,10.770874375,7.853553Q10.805694375,7.818731,10.833054375,7.777785Q10.860414375,7.736839,10.879254375,7.691342Q10.898104374999999,7.645845,10.907714375,7.5975451Q10.917314375,7.5492457,10.917314375,7.5Q10.917314375,7.4507543,10.907714375,7.4024549Q10.898104374999999,7.354155,10.879254375,7.308658Q10.860414375,7.263161,10.833054375,7.222215Q10.805694375,7.181269,10.770874375,7.146447Q10.736044375,7.111625,10.695104375,7.084265Q10.654154375000001,7.056906,10.608654375,7.03806Q10.563162375,7.019215,10.514862375,7.009607Q10.466563375,7,10.417317375,7L9.583984375,7Z" fill-rule="evenodd" fill="" fill-opacity="1" style="mix-blend-mode:passthrough"/></g><g><path d="M12.916015625,4.5Q12.866769925,4.5,12.818470525,4.509607Q12.770170625,4.519215,12.724673625,4.53806Q12.679176625,4.556906,12.638230625,4.584265Q12.597284625,4.611625,12.562462625,4.646447Q12.527640625,4.681269,12.500280625,4.722215Q12.472921625,4.763161,12.454075625,4.808658Q12.435230624999999,4.854155,12.425622625,4.9024549Q12.416015625,4.9507543,12.416015625,5Q12.416015625,5.0492457,12.425622625,5.0975451Q12.435230624999999,5.145845,12.454075625,5.191342Q12.472921625,5.236839,12.500280625,5.277785Q12.527640625,5.318731,12.562462625,5.353553Q12.597284625,5.388375,12.638230625,5.415735Q12.679176625,5.443094,12.724673625,5.46194Q12.770170625,5.480785,12.818470525,5.490393Q12.866769925,5.5,12.916015625,5.5L13.749348625,5.5Q13.798594625,5.5,13.846893625,5.490393Q13.895193625,5.480785,13.940685625,5.46194Q13.986185625000001,5.443094,14.027135625,5.415735Q14.068075625,5.388375,14.102905625,5.353553Q14.137725625,5.318731,14.165085625,5.277785Q14.192445625,5.236839,14.211285625,5.191342Q14.230135624999999,5.145845,14.239745625,5.0975451Q14.249345625,5.0492457,14.249345625,5Q14.249345625,4.9507543,14.239745625,4.9024549Q14.230135624999999,4.854155,14.211285625,4.808658Q14.192445625,4.763161,14.165085625,4.722215Q14.137725625,4.681269,14.102905625,4.646447Q14.068075625,4.611625,14.027135625,4.584265Q13.986185625000001,4.556906,13.940685625,4.53806Q13.895193625,4.519215,13.846893625,4.509607Q13.798594625,4.5,13.749348625,4.5L12.916015625,4.5Z" fill-rule="evenodd" fill="" fill-opacity="1" style="mix-blend-mode:passthrough"/></g><g><path d="M12.916015625,7Q12.866769925,7,12.818470525,7.009607Q12.770170625,7.019215,12.724673625,7.03806Q12.679176625,7.056906,12.638230625,7.084265Q12.597284625,7.111625,12.562462625,7.146447Q12.527640625,7.181269,12.500280625,7.222215Q12.472921625,7.263161,12.454075625,7.308658Q12.435230624999999,7.354155,12.425622625,7.4024549Q12.416015625,7.4507543,12.416015625,7.5Q12.416015625,7.5492457,12.425622625,7.5975451Q12.435230624999999,7.645845,12.454075625,7.691342Q12.472921625,7.736839,12.500280625,7.777785Q12.527640625,7.818731,12.562462625,7.853553Q12.597284625,7.888375,12.638230625,7.915735Q12.679176625,7.943094,12.724673625,7.96194Q12.770170625,7.980785,12.818470525,7.990393Q12.866769925,8,12.916015625,8L13.749348625,8Q13.798594625,8,13.846893625,7.990393Q13.895193625,7.980785,13.940685625,7.96194Q13.986185625000001,7.943094,14.027135625,7.915735Q14.068075625,7.888375,14.102905625,7.853553Q14.137725625,7.818731,14.165085625,7.777785Q14.192445625,7.736839,14.211285625,7.691342Q14.230135624999999,7.645845,14.239745625,7.5975451Q14.249345625,7.5492457,14.249345625,7.5Q14.249345625,7.4507543,14.239745625,7.4024549Q14.230135624999999,7.354155,14.211285625,7.308658Q14.192445625,7.263161,14.165085625,7.222215Q14.137725625,7.181269,14.102905625,7.146447Q14.068075625,7.111625,14.027135625,7.084265Q13.986185625000001,7.056906,13.940685625,7.03806Q13.895193625,7.019215,13.846893625,7.009607Q13.798594625,7,13.749348625,7L12.916015625,7Z" fill-rule="evenodd" fill="" fill-opacity="1" style="mix-blend-mode:passthrough"/></g><g><path d="M1.666015625,17.83349609375L18.332715625,17.83349609375Q18.381915625,17.83349609375,18.430215625,17.84310309375Q18.478515625,17.85271109375,18.524015625,17.87155609375Q18.569515625,17.89040209375,18.610415625,17.91776109375Q18.651415625,17.94512109375,18.686215625,17.97994309375Q18.721015625,18.01476509375,18.748415625,18.05571109375Q18.775815625,18.09665709375,18.794615625,18.14215409375Q18.813515625,18.18765109375,18.823115625,18.23595099375Q18.832715625,18.28425039375,18.832715625,18.33349609375Q18.832715625,18.38274179375,18.823115625,18.43104119375Q18.813515625,18.47934109375,18.794615625,18.52483809375Q18.775815625,18.57033509375,18.748415625,18.61128109375Q18.721015625,18.65222709375,18.686215625,18.68704909375Q18.651415625,18.72187109375,18.610515625,18.74923109375Q18.569515625,18.77659009375,18.524015625,18.79543609375Q18.478515625,18.81428109375,18.430215625,18.82388909375Q18.381915625,18.83349609375,18.332715625,18.83349609375L1.666015625,18.83349609375Q1.616769925,18.83349609375,1.568470525,18.82388909375Q1.520170625,18.81428109375,1.4746736249999999,18.79543609375Q1.429176625,18.77659009375,1.388230625,18.74923109375Q1.347284625,18.72187109375,1.312462625,18.68704909375Q1.277640625,18.65222709375,1.250280625,18.61128109375Q1.2229216250000001,18.57033509375,1.204075625,18.52483809375Q1.185230625,18.47934109375,1.175622625,18.43104119375Q1.166015625,18.38274179375,1.166015625,18.33349609375Q1.166015625,18.28425039375,1.175622625,18.23595099375Q1.185230625,18.18765109375,1.204075625,18.14215409375Q1.2229216250000001,18.09665709375,1.250280625,18.05571109375Q1.277640625,18.01476509375,1.312462625,17.97994309375Q1.347284625,17.94512109375,1.388230625,17.91776109375Q1.429176625,17.89040209375,1.4746736249999999,17.87155609375Q1.520170625,17.85271109375,1.568470525,17.84310309375Q1.616769925,17.83349609375,1.666015625,17.83349609375Z" fill-rule="evenodd" fill="" fill-opacity="1" style="mix-blend-mode:passthrough"/></g><g><path d="M7.5003585,13.83349609375L8.3336875,13.83349609375Q8.3829375,13.83349609375,8.4312375,13.82388609375Q8.4795375,13.81427609375,8.5250375,13.79543609375Q8.5705275,13.77658609375,8.6114775,13.74922609375Q8.6524275,13.72186609375,8.6872475,13.68704609375Q8.7220675,13.65222609375,8.7494275,13.61127609375Q8.7767875,13.57033609375,8.7956275,13.52483609375Q8.8144775,13.47933609375,8.824087500000001,13.43103609375Q8.8336875,13.38274609375,8.8336875,13.33349609375Q8.8336875,13.28424609375,8.824087500000001,13.23594609375Q8.8144775,13.18765609375,8.7956275,13.14215609375Q8.7767875,13.09665609375,8.7494275,13.05570609375Q8.7220675,13.01476609375,8.6872475,12.97994609375Q8.6524275,12.94511609375,8.6114775,12.91775609375Q8.5705275,12.89040609375,8.5250375,12.87155609375Q8.4795375,12.852706093750001,8.4312375,12.84310609375Q8.3829375,12.83349609375,8.3336875,12.83349609375L7.6592795,12.83349609375Q7.8366945,12.24977609375,8.4015275,11.83583609375Q9.0869875,11.33349609375,10.0003575,11.33349609375Q10.9137275,11.33349609375,11.5991875,11.83583609375Q12.163987500000001,12.24975609375,12.3414275,12.83349609375L11.6670275,12.83349609375Q11.617777499999999,12.83349609375,11.5694775,12.84310609375Q11.5211775,12.852706093750001,11.4756775,12.87155609375Q11.430187499999999,12.89040609375,11.3892375,12.91775609375Q11.348297500000001,12.94511609375,11.3134675,12.97994609375Q11.2786475,13.01476609375,11.2512875,13.05570609375Q11.2239275,13.09665609375,11.205087500000001,13.14215609375Q11.1862375,13.18765609375,11.1766275,13.23594609375Q11.1670275,13.28424609375,11.1670275,13.33349609375Q11.1670275,13.38274609375,11.1766275,13.43103609375Q11.1862375,13.47933609375,11.205087500000001,13.52483609375Q11.2239275,13.57033609375,11.2512875,13.61127609375Q11.2786475,13.65222609375,11.3134675,13.68704609375Q11.348297500000001,13.72186609375,11.3892375,13.74922609375Q11.430187499999999,13.77658609375,11.4756775,13.79543609375Q11.5211775,13.81427609375,11.5694775,13.82388609375Q11.617777499999999,13.83349609375,11.6670275,13.83349609375L12.5003575,13.83349609375Q12.892217500000001,13.83349609375,13.1555475,13.55387609375Q13.4492875,13.24195609375,13.3679875,12.82374609375Q13.1566075,11.73741009375,12.1902975,11.02924809375Q11.2409275,10.33349609375,10.0003575,10.33349609375Q8.7597975,10.33349609375,7.8104175,11.02924809375Q6.8441075,11.73740909375,6.6327125,12.82383609375Q6.5514335,13.24195609375,6.8451725,13.55387609375Q7.10849445,13.83349609375,7.5003585,13.83349609375Z" fill-rule="evenodd" fill="" fill-opacity="1" style="mix-blend-mode:passthrough"/></g></g></svg>
