<svg xmlns="http://www.w3.org/2000/svg" xmlns:xlink="http://www.w3.org/1999/xlink" fill="none" version="1.1" width="20" height="20" viewBox="0 0 20 20"><defs><clipPath id="master_svg0_77_06855"><rect x="0" y="0" width="20" height="20" rx="0"/></clipPath></defs><g clip-path="url(#master_svg0_77_06855)"><g><path d="M6.730431375,5.35371609375L9.647094375,8.27038609375Q9.681924375,8.30520609375,9.722864375,8.33256609375Q9.763814374999999,8.359926093750001,9.809314375,8.37876609375Q9.854804375,8.397616093749999,9.903104375,8.407226093750001Q9.951404375,8.41682609375,10.000654375,8.41682609375Q10.049894375000001,8.41682609375,10.098194375,8.407226093750001Q10.146494375,8.397616093749999,10.191994375,8.37876609375Q10.237494375,8.359926093750001,10.278434375,8.33256609375Q10.319384375,8.30520609375,10.354204375,8.27038609375L13.270874375,5.35371609375Q13.305694375,5.31889609375,13.333054375,5.27794609375Q13.360414375000001,5.23700609375,13.379254375,5.19150609375Q13.398104374999999,5.14600609375,13.407714375000001,5.09770609375Q13.417314375,5.04940609375,13.417314375,5.00016609375Q13.417314375,4.95091609375,13.407714375000001,4.90261609375Q13.398104374999999,4.8543160937500005,13.379254375,4.80881609375Q13.360414375000001,4.76332609375,13.333054375,4.72237609375Q13.305694375,4.6814360937499995,13.270874375,4.64660609375L10.354204375,1.72994309375Q10.283874375,1.65961609375,10.191994375,1.62155609375Q10.100104375,1.58349609375,10.000654375,1.58349609375Q9.901194375,1.58349609375,9.809314375,1.62155609375Q9.717424375,1.65961609375,9.647094375,1.72994309375L6.730431375,4.64660609375Q6.660104375,4.71693609375,6.622044375,4.80882609375Q6.583984375,4.90070609375,6.583984375,5.00016609375Q6.583984375,5.09961609375,6.622044375,5.19150609375Q6.660104375,5.28338609375,6.730431375,5.35371609375ZM10.000654375,7.20972609375L12.210214375,5.00016609375L10.000654375,2.79060309375L7.791091375,5.00016609375L10.000654375,7.20972609375Z" fill-rule="evenodd" fill="" fill-opacity="1" style="mix-blend-mode:passthrough"/></g><g><path d="M6.730431375,15.35371609375L9.647094375,18.27038609375Q9.681924375,18.30520609375,9.722864375,18.33256609375Q9.763814374999999,18.35992609375,9.809314375,18.378766093750002Q9.854804375,18.39761609375,9.903104375,18.40722609375Q9.951404375,18.41682609375,10.000654375,18.41682609375Q10.049894375000001,18.41682609375,10.098194375,18.40722609375Q10.146494375,18.39761609375,10.191994375,18.378766093750002Q10.237494375,18.35992609375,10.278434375,18.33256609375Q10.319384375,18.30520609375,10.354204375,18.27038609375L13.270874375,15.35371609375Q13.305694375,15.31889609375,13.333054375,15.27794609375Q13.360414375000001,15.23700609375,13.379254375,15.19150609375Q13.398104374999999,15.14600609375,13.407714375000001,15.09770609375Q13.417314375,15.049406093750001,13.417314375,15.00016609375Q13.417314375,14.95091609375,13.407714375000001,14.90261609375Q13.398104374999999,14.85431609375,13.379254375,14.80881609375Q13.360414375000001,14.763326093749999,13.333054375,14.72237609375Q13.305694375,14.68143609375,13.270874375,14.64660609375L10.354204375,11.72994309375Q10.283874375,11.65961609375,10.191994375,11.62155609375Q10.100104375,11.58349609375,10.000654375,11.58349609375Q9.901194375,11.58349609375,9.809314375,11.62155609375Q9.717424375,11.65961609375,9.647094375,11.72994309375L6.730431375,14.64660609375Q6.660104375,14.71693609375,6.622044375,14.80882609375Q6.583984375,14.90070609375,6.583984375,15.00016609375Q6.583984375,15.09961609375,6.622044375,15.19150609375Q6.660104375,15.28338609375,6.730431375,15.35371609375ZM10.000654375,17.20972609375L12.210214375,15.00016609375L10.000654375,12.79060309375L7.791091375,15.00016609375L10.000654375,17.20972609375Z" fill-rule="evenodd" fill="" fill-opacity="1" style="mix-blend-mode:passthrough"/></g><g><path d="M11.730431375,10.35371609375L14.647094375,13.27038609375Q14.681924375,13.30520609375,14.722864375,13.33256609375Q14.763814374999999,13.359926093750001,14.809314375,13.37876609375Q14.854804375,13.397616093749999,14.903104375,13.407226093750001Q14.951404375,13.41682609375,15.000654375,13.41682609375Q15.049894375000001,13.41682609375,15.098194375,13.407226093750001Q15.146494375,13.397616093749999,15.191994375,13.37876609375Q15.237494375,13.359926093750001,15.278434375,13.33256609375Q15.319384375,13.30520609375,15.354204375,13.27038609375L18.270874375,10.35371609375Q18.305694375,10.31889609375,18.333054375,10.27794609375Q18.360414375,10.23700609375,18.379254375000002,10.19150609375Q18.398104375,10.14600609375,18.407714375,10.09770609375Q18.417314375,10.049406093750001,18.417314375,10.00016609375Q18.417314375,9.95091609375,18.407714375,9.90261609375Q18.398104375,9.85431609375,18.379254375000002,9.80881609375Q18.360414375,9.763326093749999,18.333054375,9.72237609375Q18.305694375,9.68143609375,18.270874375,9.64660609375L15.354204375,6.72994309375Q15.283874375,6.65961609375,15.191994375,6.62155609375Q15.100104375,6.58349609375,15.000654375,6.58349609375Q14.901194375,6.58349609375,14.809314375,6.62155609375Q14.717424375,6.65961609375,14.647094375,6.72994309375L11.730431375,9.64660609375Q11.660104375,9.71693609375,11.622044375,9.80882609375Q11.583984375,9.90070609375,11.583984375,10.00016609375Q11.583984375,10.09961609375,11.622044375,10.19150609375Q11.660104375,10.28338609375,11.730431375,10.35371609375ZM15.000654375,12.20972609375L17.210214375,10.00016609375L15.000654375,7.79060309375L12.791091375,10.00016609375L15.000654375,12.20972609375Z" fill-rule="evenodd" fill="" fill-opacity="1" style="mix-blend-mode:passthrough"/></g><g><path d="M1.730431375,10.35371609375L4.647094375,13.27038609375Q4.6819243749999995,13.30520609375,4.722864375,13.33256609375Q4.763814375,13.359926093750001,4.809314375,13.37876609375Q4.8548043750000005,13.397616093749999,4.903104375,13.407226093750001Q4.951404375,13.41682609375,5.000654375,13.41682609375Q5.049894375,13.41682609375,5.098194375,13.407226093750001Q5.146494375,13.397616093749999,5.191994375,13.37876609375Q5.237494375,13.359926093750001,5.278434375,13.33256609375Q5.319384375,13.30520609375,5.354204375,13.27038609375L8.270874375,10.35371609375Q8.305694375,10.31889609375,8.333054375,10.27794609375Q8.360414375000001,10.23700609375,8.379254375,10.19150609375Q8.398104374999999,10.14600609375,8.407714375000001,10.09770609375Q8.417314375,10.049406093750001,8.417314375,10.00016609375Q8.417314375,9.95091609375,8.407714375000001,9.90261609375Q8.398104374999999,9.85431609375,8.379254375,9.80881609375Q8.360414375000001,9.763326093749999,8.333054375,9.72237609375Q8.305694375,9.68143609375,8.270874375,9.64660609375L5.354204375,6.72994309375Q5.283874375,6.65961609375,5.191994375,6.62155609375Q5.100104375,6.58349609375,5.000654375,6.58349609375Q4.901194375,6.58349609375,4.809314375,6.62155609375Q4.717424375,6.65961609375,4.647094375,6.72994309375L1.730431375,9.64660609375Q1.660104375,9.71693609375,1.622044375,9.80882609375Q1.583984375,9.90070609375,1.583984375,10.00016609375Q1.583984375,10.09961609375,1.622044375,10.19150609375Q1.660104375,10.28338609375,1.730431375,10.35371609375ZM5.000654375,12.20972609375L7.210214375,10.00016609375L5.000654375,7.79060309375L2.791091375,10.00016609375L5.000654375,12.20972609375Z" fill-rule="evenodd" fill="" fill-opacity="1" style="mix-blend-mode:passthrough"/></g></g></svg>
