<svg xmlns="http://www.w3.org/2000/svg" xmlns:xlink="http://www.w3.org/1999/xlink" fill="none" version="1.1" width="16" height="16" viewBox="0 0 16 16"><defs><clipPath id="master_svg0_69_07337"><rect x="0" y="0" width="16" height="16" rx="0"/></clipPath></defs><g clip-path="url(#master_svg0_69_07337)"><g><path d="M3.8333334922790527,14.666633253860473L3.8333334922790527,3.3333332538604736Q3.8333334922790527,3.2840875538604735,3.8429404922790527,3.2357881538604736Q3.8525484922790527,3.1874882538604736,3.8713934922790525,3.1419912538604735Q3.890239492279053,3.096494253860474,3.9175984922790525,3.0555482538604735Q3.944958492279053,3.0146022538604735,3.979780492279053,2.979780253860474Q4.014602492279053,2.9449582538604737,4.055548492279053,2.9175982538604734Q4.096494492279053,2.8902392538604738,4.141991492279053,2.8713932538604734Q4.187488492279053,2.8525482538604736,4.235788392279053,2.8429402538604736Q4.284087792279053,2.8333332538604736,4.333333492279053,2.8333332538604736L13.666663492279053,2.8333332538604736Q13.715913492279054,2.8333332538604736,13.764213492279053,2.8429402538604736Q13.812513492279052,2.8525482538604736,13.858003492279053,2.8713932538604734Q13.903503492279052,2.8902392538604738,13.944453492279052,2.9175982538604734Q13.985393492279053,2.9449582538604737,14.020213492279053,2.979780253860474Q14.055043492279053,3.0146022538604735,14.082403492279052,3.0555482538604735Q14.109753492279053,3.096494253860474,14.128603492279053,3.1419912538604735Q14.147453492279054,3.1874882538604736,14.157053492279053,3.2357881538604736Q14.166663492279053,3.2840875538604735,14.166663492279053,3.3333332538604736L14.166663492279053,14.666633253860473Q14.166663492279053,14.715933253860474,14.157053492279053,14.764233253860473Q14.147453492279054,14.812533253860474,14.128603492279053,14.858033253860473Q14.109753492279053,14.903533253860473,14.082403492279052,14.944433253860474Q14.055043492279053,14.985433253860474,14.020213492279053,15.020233253860473Q13.985393492279053,15.055033253860474,13.944453492279052,15.082433253860474Q13.903503492279052,15.109733253860474,13.858003492279053,15.128633253860473Q13.812513492279052,15.147433253860473,13.764213492279053,15.157033253860474Q13.715913492279054,15.166633253860473,13.666663492279053,15.166633253860473L4.333333492279053,15.166633253860473Q4.284087792279053,15.166633253860473,4.235788392279053,15.157033253860474Q4.187488492279053,15.147433253860473,4.141991492279053,15.128633253860473Q4.096494492279053,15.109733253860474,4.055548492279053,15.082433253860474Q4.014602492279053,15.055033253860474,3.979780492279053,15.020233253860473Q3.944958492279053,14.985433253860474,3.9175984922790525,14.944433253860474Q3.890239492279053,14.903533253860473,3.8713934922790525,14.858033253860473Q3.8525484922790527,14.812533253860474,3.8429404922790527,14.764233253860473Q3.8333334922790527,14.715933253860474,3.8333334922790527,14.666633253860473ZM4.833333492279053,3.8333332538604736L4.833333492279053,14.166633253860473L13.166663492279053,14.166633253860473L13.166663492279053,3.8333332538604736L4.833333492279053,3.8333332538604736Z" fill="#4D5673" fill-opacity="1" style="mix-blend-mode:passthrough"/></g><g><path d="M2.3333332538604736,13.166633373069763L4.333333253860474,13.166633373069763Q4.382583253860473,13.166633373069763,4.430883253860474,13.157033373069764Q4.479173253860473,13.147433373069763,4.524673253860474,13.128633373069762Q4.570173253860474,13.109733373069764,4.611123253860473,13.082433373069764Q4.652063253860474,13.055033373069763,4.686883253860474,13.020233373069763Q4.721713253860473,12.985433373069764,4.749073253860473,12.944433373069764Q4.776423253860473,12.903533373069763,4.795273253860474,12.858033373069762Q4.8141232538604735,12.812533373069764,4.823723253860473,12.764233373069763Q4.833333253860474,12.715933373069763,4.833333253860474,12.666633373069763Q4.833333253860474,12.617433373069764,4.823723253860473,12.569133373069763Q4.8141232538604735,12.520833373069763,4.795273253860474,12.475333373069763Q4.776423253860473,12.429833373069764,4.749073253860473,12.388833373069764Q4.721713253860473,12.347933373069763,4.686883253860474,12.313133373069762Q4.652063253860474,12.278333373069763,4.611123253860473,12.250933373069763Q4.570173253860474,12.223533373069763,4.524673253860474,12.204733373069763Q4.479173253860473,12.185833373069762,4.430883253860474,12.176233373069763Q4.382583253860473,12.166633373069763,4.333333253860474,12.166633373069763L2.8333332538604736,12.166633373069763L2.8333332538604736,1.8333333730697632L11.166663253860474,1.8333333730697632L11.166663253860474,3.333333373069763Q11.166663253860474,3.382583373069763,11.176273253860474,3.430873373069763Q11.185883253860474,3.4791733730697634,11.204723253860474,3.524673373069763Q11.223573253860474,3.570173373069763,11.250933253860474,3.611113373069763Q11.278293253860474,3.652063373069763,11.313113253860474,3.686883373069763Q11.347933253860473,3.7217133730697634,11.388883253860474,3.749063373069763Q11.429823253860473,3.7764233730697634,11.475323253860473,3.795273373069763Q11.520823253860474,3.8141133730697634,11.569123253860473,3.8237233730697633Q11.617423253860474,3.833333373069763,11.666663253860474,3.833333373069763Q11.715913253860474,3.833333373069763,11.764213253860474,3.8237233730697633Q11.812513253860473,3.8141133730697634,11.858013253860474,3.795273373069763Q11.903503253860473,3.7764233730697634,11.944453253860473,3.749063373069763Q11.985403253860474,3.7217133730697634,12.020223253860474,3.686883373069763Q12.055043253860473,3.652063373069763,12.082403253860473,3.611123373069763Q12.109763253860473,3.570173373069763,12.128603253860474,3.524673373069763Q12.147453253860474,3.4791733730697634,12.157053253860473,3.430873373069763Q12.166663253860474,3.382583373069763,12.166663253860474,3.333333373069763L12.166663253860474,1.3333333730697632Q12.166663253860474,1.2840876730697632,12.157053253860473,1.2357882730697631Q12.147453253860474,1.1874883730697632,12.128603253860474,1.141991373069763Q12.109763253860473,1.0964943730697632,12.082403253860473,1.0555483730697632Q12.055043253860473,1.014602373069763,12.020223253860474,0.9797803730697632Q11.985403253860474,0.9449583730697632,11.944453253860473,0.9175983730697632Q11.903503253860473,0.8902393730697632,11.858013253860474,0.8713933730697632Q11.812513253860473,0.8525483730697632,11.764213253860474,0.8429403730697631Q11.715913253860474,0.8333333730697632,11.666663253860474,0.8333333730697632L2.6666672538604734,0.8333333730697632Q2.321489953860474,0.8333333730697632,2.0774112538604736,1.0774113730697632Q1.8333332538604736,1.3214897730697632,1.8333332538604736,1.6666663730697633L1.8333332538604736,12.666633373069763Q1.8333332538604736,12.715933373069763,1.8429402538604736,12.764233373069763Q1.8525482538604736,12.812533373069764,1.8713932538604736,12.858033373069762Q1.8902392538604738,12.903533373069763,1.9175982538604737,12.944433373069764Q1.9449582538604737,12.985433373069764,1.9797802538604736,13.020233373069763Q2.0146022538604735,13.055033373069763,2.0555482538604735,13.082433373069764Q2.096494253860474,13.109733373069764,2.1419912538604735,13.128633373069762Q2.1874882538604736,13.147433373069763,2.2357881538604736,13.157033373069764Q2.2840875538604735,13.166633373069763,2.3333332538604736,13.166633373069763Z" fill-rule="evenodd" fill="#4D5673" fill-opacity="1" style="mix-blend-mode:passthrough"/></g><g><path d="M7,6.833333492279053L11,6.833333492279053Q11.04925,6.833333492279053,11.09755,6.842940492279053Q11.14584,6.852548492279053,11.19134,6.8713934922790525Q11.23684,6.890239492279052,11.27778,6.917598492279053Q11.31873,6.944958492279053,11.35355,6.979780492279053Q11.38837,7.014602492279053,11.41573,7.055548492279053Q11.44309,7.096494492279053,11.46194,7.141991492279053Q11.48078,7.187488492279053,11.49039,7.235788392279053Q11.5,7.284087792279053,11.5,7.333333492279053Q11.5,7.382579192279053,11.49039,7.430878592279052Q11.48078,7.479178492279052,11.46194,7.524675492279052Q11.44309,7.5701724922790525,11.41573,7.6111184922790525Q11.38837,7.652064492279052,11.35355,7.6868864922790525Q11.31873,7.721708492279053,11.27778,7.7490684922790525Q11.23684,7.776427492279053,11.19134,7.795273492279053Q11.14584,7.814118492279053,11.09755,7.823726492279053Q11.04925,7.833333492279053,11,7.833333492279053L7,7.833333492279053Q6.9507543,7.833333492279053,6.9024549,7.823726492279053Q6.854155,7.814118492279053,6.808658,7.795273492279053Q6.763161,7.776427492279053,6.722215,7.7490684922790525Q6.681269,7.721708492279053,6.646447,7.6868864922790525Q6.611625,7.652064492279052,6.584265,7.6111184922790525Q6.556906,7.5701724922790525,6.53806,7.524675492279052Q6.519215,7.479178492279052,6.509607,7.430878592279052Q6.5,7.382579192279053,6.5,7.333333492279053Q6.5,7.284087792279053,6.509607,7.235788392279053Q6.519215,7.187488492279053,6.53806,7.141991492279053Q6.556906,7.096494492279053,6.584265,7.055548492279053Q6.611625,7.014602492279053,6.646447,6.979780492279053Q6.681269,6.944958492279053,6.722215,6.917598492279053Q6.763161,6.890239492279052,6.808658,6.8713934922790525Q6.854155,6.852548492279053,6.9024549,6.842940492279053Q6.9507543,6.833333492279053,7,6.833333492279053Z" fill-rule="evenodd" fill="#4D5673" fill-opacity="1" style="mix-blend-mode:passthrough"/></g><g><path d="M7,9.5L11,9.5Q11.04925,9.5,11.09755,9.509607Q11.14584,9.519214999999999,11.19134,9.53806Q11.23684,9.556906,11.27778,9.584265Q11.31873,9.611625,11.35355,9.646447Q11.38837,9.681269,11.41573,9.722215Q11.44309,9.763161,11.46194,9.808658Q11.48078,9.854155,11.49039,9.9024549Q11.5,9.9507543,11.5,10Q11.5,10.0492457,11.49039,10.0975451Q11.48078,10.145845,11.46194,10.191342Q11.44309,10.236839,11.41573,10.277785Q11.38837,10.318731,11.35355,10.353553Q11.31873,10.388375,11.27778,10.415735Q11.23684,10.443094,11.19134,10.46194Q11.14584,10.480785000000001,11.09755,10.490393Q11.04925,10.5,11,10.5L7,10.5Q6.9507543,10.5,6.9024549,10.490393Q6.854155,10.480785000000001,6.808658,10.46194Q6.763161,10.443094,6.722215,10.415735Q6.681269,10.388375,6.646447,10.353553Q6.611625,10.318731,6.584265,10.277785Q6.556906,10.236839,6.53806,10.191342Q6.519215,10.145845,6.509607,10.0975451Q6.5,10.0492457,6.5,10Q6.5,9.9507543,6.509607,9.9024549Q6.519215,9.854155,6.53806,9.808658Q6.556906,9.763161,6.584265,9.722215Q6.611625,9.681269,6.646447,9.646447Q6.681269,9.611625,6.722215,9.584265Q6.763161,9.556906,6.808658,9.53806Q6.854155,9.519214999999999,6.9024549,9.509607Q6.9507543,9.5,7,9.5Z" fill-rule="evenodd" fill="#4D5673" fill-opacity="1" style="mix-blend-mode:passthrough"/></g></g></svg>