<svg xmlns="http://www.w3.org/2000/svg" xmlns:xlink="http://www.w3.org/1999/xlink" fill="none" version="1.1" width="16" height="16" viewBox="0 0 16 16"><defs><clipPath id="master_svg0_69_06938"><rect x="0" y="0" width="16" height="16" rx="0"/></clipPath></defs><g clip-path="url(#master_svg0_69_06938)"><g><path d="M2.5,14.666633253860473L2.5,3.3333332538604736Q2.5,3.2840875538604735,2.509607,3.2357881538604736Q2.519215,3.1874882538604736,2.5380599999999998,3.1419912538604735Q2.556906,3.096494253860474,2.584265,3.0555482538604735Q2.611625,3.0146022538604735,2.646447,2.979780253860474Q2.681269,2.9449582538604737,2.722215,2.9175982538604734Q2.763161,2.8902392538604738,2.808658,2.8713932538604734Q2.854155,2.8525482538604736,2.9024549,2.8429402538604736Q2.9507543,2.8333332538604736,3,2.8333332538604736L13,2.8333332538604736Q13.0492,2.8333332538604736,13.0975,2.8429402538604736Q13.1458,2.8525482538604736,13.1913,2.8713932538604734Q13.2368,2.8902392538604738,13.2778,2.9175982538604734Q13.3187,2.9449582538604737,13.3536,2.979780253860474Q13.3884,3.0146022538604735,13.4157,3.0555482538604735Q13.4431,3.096494253860474,13.4619,3.1419912538604735Q13.4808,3.1874882538604736,13.4904,3.2357881538604736Q13.5,3.2840875538604735,13.5,3.3333332538604736L13.5,14.666633253860473Q13.5,14.715933253860474,13.4904,14.764233253860473Q13.4808,14.812533253860474,13.4619,14.858033253860473Q13.4431,14.903533253860473,13.4157,14.944433253860474Q13.3884,14.985433253860474,13.3536,15.020233253860473Q13.3187,15.055033253860474,13.2778,15.082433253860474Q13.2368,15.109733253860474,13.1913,15.128633253860473Q13.1458,15.147433253860473,13.0975,15.157033253860474Q13.0492,15.166633253860473,13,15.166633253860473L3,15.166633253860473Q2.9507543,15.166633253860473,2.9024549,15.157033253860474Q2.854155,15.147433253860473,2.808658,15.128633253860473Q2.763161,15.109733253860474,2.722215,15.082433253860474Q2.681269,15.055033253860474,2.646447,15.020233253860473Q2.611625,14.985433253860474,2.584265,14.944433253860474Q2.556906,14.903533253860473,2.5380599999999998,14.858033253860473Q2.519215,14.812533253860474,2.509607,14.764233253860473Q2.5,14.715933253860474,2.5,14.666633253860473ZM12.5,3.8333332538604736L3.5,3.8333332538604736L3.5,14.166633253860473L12.5,14.166633253860473L12.5,3.8333332538604736Z" fill-rule="evenodd" fill="#5B9CF8" fill-opacity="1" style="mix-blend-mode:passthrough"/></g><g><path d="M6.1669921875,6.666666507720947Q6.1669921875,6.617420807720947,6.1765991875,6.569121407720948Q6.1862071875,6.520821507720948,6.2050521875,6.475324507720948Q6.2238981875,6.4298275077209475,6.2512571875,6.3888815077209475Q6.2786171875,6.347935507720948,6.3134391875,6.3131135077209475Q6.3482611875,6.278291507720947,6.3892071875,6.2509315077209475Q6.4301531875,6.223572507720947,6.4756501875,6.204726507720947Q6.5211471875,6.185881507720947,6.5694470875,6.176273507720947Q6.6177464875,6.166666507720947,6.6669921875,6.166666507720947Q6.7162378875,6.166666507720947,6.7645372875,6.176273507720947Q6.8128371875,6.185881507720947,6.8583341875,6.204726507720947Q6.9038311875,6.223572507720947,6.9447771875,6.2509315077209475Q6.9857231875,6.278291507720947,7.0205451875,6.3131135077209475Q7.0553671875,6.347935507720948,7.0827271875,6.3888815077209475Q7.1100861875,6.4298275077209475,7.1289321875,6.475324507720948Q7.1477771875,6.520821507720948,7.1573851875,6.569121407720948Q7.1669921875,6.617420807720947,7.1669921875,6.666666507720947L7.1669921875,10.999996507720947Q7.1669921875,11.049246507720948,7.1573851875,11.097546507720947Q7.1477771875,11.145846507720947,7.1289321875,11.191336507720948Q7.1100861875,11.236836507720948,7.0827271875,11.277786507720947Q7.0553671875,11.318726507720946,7.0205451875,11.353556507720947Q6.9857231875,11.388376507720947,6.9447771875,11.415736507720947Q6.9038311875,11.443096507720949,6.8583341875,11.461936507720948Q6.8128371875,11.480786507720946,6.7645372875,11.490396507720948Q6.7162378875,11.499996507720947,6.6669921875,11.499996507720947Q6.6177464875,11.499996507720947,6.5694470875,11.490396507720948Q6.5211471875,11.480786507720946,6.4756501875,11.461936507720948Q6.4301531875,11.443096507720949,6.3892071875,11.415736507720947Q6.3482611875,11.388376507720947,6.3134391875,11.353556507720947Q6.2786171875,11.318726507720946,6.2512571875,11.277786507720947Q6.2238981875,11.236836507720948,6.2050521875,11.191336507720948Q6.1862071875,11.145846507720947,6.1765991875,11.097546507720947Q6.1669921875,11.049246507720948,6.1669921875,10.999996507720947L6.1669921875,6.666666507720947Z" fill-rule="evenodd" fill="#5B9CF8" fill-opacity="1" style="mix-blend-mode:passthrough"/></g><g><path d="M8.8330078125,6.666666507720947Q8.8330078125,6.617420807720947,8.8426148125,6.569121407720948Q8.852222812499999,6.520821507720948,8.8710678125,6.475324507720948Q8.8899138125,6.4298275077209475,8.9172728125,6.3888815077209475Q8.9446328125,6.347935507720948,8.9794548125,6.3131135077209475Q9.0142768125,6.278291507720947,9.0552228125,6.2509315077209475Q9.0961688125,6.223572507720947,9.1416658125,6.204726507720947Q9.1871628125,6.185881507720947,9.2354627125,6.176273507720947Q9.2837621125,6.166666507720947,9.3330078125,6.166666507720947Q9.3822535125,6.166666507720947,9.4305529125,6.176273507720947Q9.4788528125,6.185881507720947,9.5243498125,6.204726507720947Q9.5698468125,6.223572507720947,9.6107928125,6.2509315077209475Q9.6517388125,6.278291507720947,9.6865608125,6.3131135077209475Q9.7213828125,6.347935507720948,9.7487428125,6.3888815077209475Q9.7761018125,6.4298275077209475,9.7949478125,6.475324507720948Q9.813792812500001,6.520821507720948,9.8234008125,6.569121407720948Q9.8330078125,6.617420807720947,9.8330078125,6.666666507720947L9.8330078125,10.999996507720947Q9.8330078125,11.049246507720948,9.8234008125,11.097546507720947Q9.813792812500001,11.145846507720947,9.7949478125,11.191336507720948Q9.7761018125,11.236836507720948,9.7487428125,11.277786507720947Q9.7213828125,11.318726507720946,9.6865608125,11.353556507720947Q9.6517388125,11.388376507720947,9.6107928125,11.415736507720947Q9.5698468125,11.443096507720949,9.5243498125,11.461936507720948Q9.4788528125,11.480786507720946,9.4305529125,11.490396507720948Q9.3822535125,11.499996507720947,9.3330078125,11.499996507720947Q9.2837621125,11.499996507720947,9.2354627125,11.490396507720948Q9.1871628125,11.480786507720946,9.1416658125,11.461936507720948Q9.0961688125,11.443096507720949,9.0552228125,11.415736507720947Q9.0142768125,11.388376507720947,8.9794548125,11.353556507720947Q8.9446328125,11.318726507720946,8.9172728125,11.277786507720947Q8.8899138125,11.236836507720948,8.8710678125,11.191336507720948Q8.852222812499999,11.145846507720947,8.8426148125,11.097546507720947Q8.8330078125,11.049246507720948,8.8330078125,10.999996507720947L8.8330078125,6.666666507720947Z" fill-rule="evenodd" fill="#5B9CF8" fill-opacity="1" style="mix-blend-mode:passthrough"/></g><g><path d="M1.3330078125,2.8333332538604736L14.6663078125,2.8333332538604736Q14.7156078125,2.8333332538604736,14.7639078125,2.8429402538604736Q14.8122078125,2.8525482538604736,14.8577078125,2.8713932538604734Q14.9032078125,2.8902392538604738,14.9441078125,2.9175982538604734Q14.9851078125,2.9449582538604737,15.0199078125,2.979780253860474Q15.0547078125,3.0146022538604735,15.0821078125,3.0555482538604735Q15.1094078125,3.096494253860474,15.1283078125,3.1419912538604735Q15.1471078125,3.1874882538604736,15.1567078125,3.2357881538604736Q15.1663078125,3.2840875538604735,15.1663078125,3.3333332538604736Q15.1663078125,3.382578953860474,15.1567078125,3.4308783538604737Q15.1471078125,3.4791782538604736,15.1283078125,3.5246752538604738Q15.1094078125,3.5701722538604734,15.0821078125,3.611118253860474Q15.0547078125,3.6520642538604737,15.0199078125,3.6868862538604734Q14.9851078125,3.7217082538604735,14.9441078125,3.749068253860474Q14.9032078125,3.7764272538604735,14.8577078125,3.795273253860474Q14.8122078125,3.8141182538604737,14.7639078125,3.8237262538604737Q14.7156078125,3.8333332538604736,14.6663078125,3.8333332538604736L1.3330078125,3.8333332538604736Q1.2837621125,3.8333332538604736,1.2354627125,3.8237262538604737Q1.1871628125,3.8141182538604737,1.1416658124999999,3.795273253860474Q1.0961688125,3.7764272538604735,1.0552228125,3.749068253860474Q1.0142768125,3.7217082538604735,0.9794548125,3.6868862538604734Q0.9446328125,3.6520642538604737,0.9172728125,3.611118253860474Q0.8899138125,3.5701722538604734,0.8710678125,3.5246752538604738Q0.8522228125,3.4791782538604736,0.8426148124999999,3.4308783538604737Q0.8330078125,3.382578953860474,0.8330078125,3.3333332538604736Q0.8330078125,3.2840875538604735,0.8426148124999999,3.2357881538604736Q0.8522228125,3.1874882538604736,0.8710678125,3.1419912538604735Q0.8899138125,3.096494253860474,0.9172728125,3.0555482538604735Q0.9446328125,3.0146022538604735,0.9794548125,2.979780253860474Q1.0142768125,2.9449582538604737,1.0552228125,2.9175982538604734Q1.0961688125,2.8902392538604738,1.1416658124999999,2.8713932538604734Q1.1871628125,2.8525482538604736,1.2354627125,2.8429402538604736Q1.2837621125,2.8333332538604736,1.3330078125,2.8333332538604736Z" fill-rule="evenodd" fill="#5B9CF8" fill-opacity="1" style="mix-blend-mode:passthrough"/></g><g><path d="M5.333333492279053,3.833333373069763L10.666663492279053,3.833333373069763Q10.792453492279053,3.833333373069763,10.903273492279052,3.773813373069763Q10.946653492279053,3.7505033730697632,10.984653492279053,3.719183373069763Q11.022653492279053,3.687863373069763,11.053823492279053,3.649733373069763Q11.084983492279052,3.611603373069763,11.108113492279053,3.568123373069763Q11.131233492279053,3.5246433730697633,11.145433492279054,3.477493373069763Q11.159633492279053,3.4303433730697632,11.164353492279051,3.381323373069763Q11.169083492279054,3.332303373069763,11.164153492279052,3.283303373069763Q11.159233492279053,3.2343033730697632,11.144833492279052,3.1872133730697634Q11.130443492279053,3.140113373069763,11.107143492279054,3.096733373069763L10.032843492279053,1.0967313730697632Q10.000773492279052,1.0370223730697632,9.953963492279053,0.9880063730697632Q9.907143492279053,0.9389903730697632,9.848973492279054,0.9042053730697632Q9.790803492279053,0.8694203730697632,9.725473492279054,0.8513773730697631Q9.660143492279053,0.8333333730697632,9.592363492279052,0.8333333730697632L6.429663492279053,0.8333333730697632Q6.362433492279052,0.8333333730697632,6.297582492279052,0.8510953730697632Q6.232735492279053,0.8688563730697632,6.1748834922790525,0.9031173730697633Q6.117031492279053,0.9373793730697633,6.070285492279053,0.9857053730697631Q6.0235384922790525,1.0340323730697631,5.991219492279052,1.0929913730697631L4.894886492279053,3.0929933730697634Q4.833333492279053,3.205283373069763,4.833333492279053,3.333333373069763Q4.833333492279053,3.382583373069763,4.842940492279053,3.430873373069763Q4.852548492279053,3.4791733730697634,4.8713934922790525,3.524673373069763Q4.890239492279052,3.570173373069763,4.917598492279053,3.611113373069763Q4.944958492279053,3.652063373069763,4.979780492279053,3.686883373069763Q5.014602492279053,3.7217033730697633,5.055548492279053,3.749063373069763Q5.096494492279053,3.7764233730697634,5.141991492279053,3.795273373069763Q5.187488492279053,3.8141133730697634,5.235788392279053,3.8237233730697633Q5.284087792279053,3.833333373069763,5.333333492279053,3.833333373069763ZM9.830523492279053,2.833333373069763L6.177611492279053,2.833333373069763L6.725773492279052,1.8333333730697632L9.293373492279052,1.8333333730697632L9.830523492279053,2.833333373069763Z" fill-rule="evenodd" fill="#5B9CF8" fill-opacity="1" style="mix-blend-mode:passthrough"/></g></g></svg>