<svg xmlns="http://www.w3.org/2000/svg" xmlns:xlink="http://www.w3.org/1999/xlink" fill="none" version="1.1" width="16" height="16" viewBox="0 0 16 16"><defs><clipPath id="master_svg0_69_07852"><rect x="0" y="0" width="16" height="16" rx="0"/></clipPath></defs><g clip-path="url(#master_svg0_69_07852)"><g><path d="M2.3330078125,7.5L13.6663078125,7.5Q13.7156078125,7.5,13.7639078125,7.509607Q13.8122078125,7.519215,13.8577078125,7.53806Q13.9032078125,7.556906,13.9441078125,7.584265Q13.9851078125,7.611625,14.0199078125,7.646447Q14.0547078125,7.681269,14.0821078125,7.722215Q14.1094078125,7.763161,14.1283078125,7.808658Q14.1471078125,7.854155,14.1567078125,7.9024549Q14.1663078125,7.9507543,14.1663078125,8Q14.1663078125,8.0492457,14.1567078125,8.0975451Q14.1471078125,8.145845,14.1283078125,8.191342Q14.1094078125,8.236839,14.0821078125,8.277785Q14.0547078125,8.318731,14.0199078125,8.353553Q13.9851078125,8.388375,13.9441078125,8.415735Q13.9032078125,8.443094,13.8577078125,8.46194Q13.8122078125,8.480785000000001,13.7639078125,8.490393Q13.7156078125,8.5,13.6663078125,8.5L2.3330078125,8.5Q2.2837621125,8.5,2.2354627125,8.490393Q2.1871628125,8.480785000000001,2.1416658125,8.46194Q2.0961688125,8.443094,2.0552228125,8.415735Q2.0142768125,8.388375,1.9794548125,8.353553Q1.9446328125,8.318731,1.9172728125,8.277785Q1.8899138125000001,8.236839,1.8710678125,8.191342Q1.8522228125,8.145845,1.8426148125,8.0975451Q1.8330078125,8.0492457,1.8330078125,8Q1.8330078125,7.9507543,1.8426148125,7.9024549Q1.8522228125,7.854155,1.8710678125,7.808658Q1.8899138125000001,7.763161,1.9172728125,7.722215Q1.9446328125,7.681269,1.9794548125,7.646447Q2.0142768125,7.611625,2.0552228125,7.584265Q2.0961688125,7.556906,2.1416658125,7.53806Q2.1871628125,7.519215,2.2354627125,7.509607Q2.2837621125,7.5,2.3330078125,7.5Z" fill-rule="evenodd" fill="#FFFFFF" fill-opacity="1" style="mix-blend-mode:passthrough"/></g><g><path d="M7.5,2.3333332538604736Q7.5,2.2840875538604735,7.509607,2.2357881538604736Q7.519215,2.1874882538604736,7.53806,2.1419912538604735Q7.556906,2.096494253860474,7.584265,2.0555482538604735Q7.611625,2.0146022538604735,7.646447,1.9797802538604736Q7.681269,1.9449582538604737,7.722215,1.9175982538604737Q7.763161,1.8902392538604738,7.808658,1.8713932538604736Q7.854155,1.8525482538604736,7.9024549,1.8429402538604736Q7.9507543,1.8333332538604736,8,1.8333332538604736Q8.0492457,1.8333332538604736,8.0975451,1.8429402538604736Q8.145845,1.8525482538604736,8.191342,1.8713932538604736Q8.236839,1.8902392538604738,8.277785,1.9175982538604737Q8.318731,1.9449582538604737,8.353553,1.9797802538604736Q8.388375,2.0146022538604735,8.415735,2.0555482538604735Q8.443094,2.096494253860474,8.46194,2.1419912538604735Q8.480785000000001,2.1874882538604736,8.490393,2.2357881538604736Q8.5,2.2840875538604735,8.5,2.3333332538604736L8.5,13.666633253860473Q8.5,13.715933253860474,8.490393,13.764233253860473Q8.480785000000001,13.812533253860474,8.46194,13.858033253860473Q8.443094,13.903533253860473,8.415735,13.944433253860474Q8.388375,13.985433253860474,8.353553,14.020233253860473Q8.318731,14.055033253860474,8.277785,14.082433253860474Q8.236839,14.109733253860474,8.191342,14.128633253860473Q8.145845,14.147433253860473,8.0975451,14.157033253860474Q8.0492457,14.166633253860473,8,14.166633253860473Q7.9507543,14.166633253860473,7.9024549,14.157033253860474Q7.854155,14.147433253860473,7.808658,14.128633253860473Q7.763161,14.109733253860474,7.722215,14.082433253860474Q7.681269,14.055033253860474,7.646447,14.020233253860473Q7.611625,13.985433253860474,7.584265,13.944433253860474Q7.556906,13.903533253860473,7.53806,13.858033253860473Q7.519215,13.812533253860474,7.509607,13.764233253860473Q7.5,13.715933253860474,7.5,13.666633253860473L7.5,2.3333332538604736Z" fill-rule="evenodd" fill="#FFFFFF" fill-opacity="1" style="mix-blend-mode:passthrough"/></g></g></svg>