<svg xmlns="http://www.w3.org/2000/svg" xmlns:xlink="http://www.w3.org/1999/xlink" fill="none" version="1.1" width="16" height="16" viewBox="0 0 16 16"><defs><clipPath id="master_svg0_69_06930"><rect x="0" y="0" width="16" height="16" rx="0"/></clipPath></defs><g clip-path="url(#master_svg0_69_06930)"><g><path d="M12.83333,11Q12.83333,10.9507543,12.84294,10.9024549Q12.85255,10.854155,12.87139,10.808658Q12.89024,10.763161,12.9176,10.722215Q12.94496,10.681269,12.97978,10.646447Q13.0146,10.611625,13.05555,10.584265Q13.09649,10.556906,13.14199,10.53806Q13.18749,10.519214999999999,13.23579,10.509607Q13.284089999999999,10.5,13.33333,10.5Q13.38258,10.5,13.43088,10.509607Q13.47918,10.519214999999999,13.52467,10.53806Q13.570170000000001,10.556906,13.61112,10.584265Q13.65206,10.611625,13.68689,10.646447Q13.72171,10.681269,13.74907,10.722215Q13.77643,10.763161,13.79527,10.808658Q13.814119999999999,10.854155,13.82373,10.9024549Q13.83333,10.9507543,13.83333,11L13.83333,14Q13.83333,14.48326,13.49163,14.82496Q13.14992,15.16667,12.66667,15.16667L10.5,15.16667Q10.4507543,15.16667,10.4024549,15.157060000000001Q10.354155,15.14745,10.308658,15.12861Q10.263161,15.10976,10.222215,15.0824Q10.181269,15.05504,10.146447,15.02022Q10.111625,14.9854,10.084265,14.94445Q10.056906,14.90351,10.03806,14.85801Q10.019214999999999,14.81251,10.009607,14.76421Q10,14.715910000000001,10,14.66667Q10,14.61742,10.009607,14.56912Q10.019214999999999,14.52082,10.03806,14.47532Q10.056906,14.429829999999999,10.084265,14.38888Q10.111625,14.34793,10.146447,14.31311Q10.181269,14.27829,10.222215,14.25093Q10.263161,14.22357,10.308658,14.20473Q10.354155,14.185880000000001,10.4024549,14.17627Q10.4507543,14.16667,10.5,14.16667L12.66667,14.16667Q12.735710000000001,14.16667,12.78452,14.11786Q12.83333,14.069040000000001,12.83333,14L12.83333,11Z" fill-rule="evenodd" fill="#5B9CF8" fill-opacity="1" style="mix-blend-mode:passthrough"/></g><g><path d="M3.3333337461395263,15.166633373069763L5.333336746139526,15.166633373069763Q5.382576746139526,15.166633373069763,5.430876746139527,15.157033373069764Q5.479176746139526,15.147433373069763,5.5246767461395265,15.128633373069762Q5.570176746139526,15.109733373069764,5.611116746139526,15.082433373069764Q5.652066746139527,15.055033373069763,5.6868867461395265,15.020233373069763Q5.721706746139526,14.985433373069764,5.749066746139526,14.944433373069764Q5.776426746139526,14.903533373069763,5.7952767461395265,14.858033373069762Q5.8141167461395264,14.812533373069764,5.823726746139526,14.764233373069763Q5.833336746139526,14.715933373069763,5.833336746139526,14.666633373069763Q5.833336746139526,14.617433373069764,5.823726746139526,14.569133373069763Q5.8141167461395264,14.520833373069763,5.7952767461395265,14.475333373069763Q5.776426746139526,14.429833373069764,5.749066746139526,14.388833373069764Q5.721706746139526,14.347933373069763,5.6868867461395265,14.313133373069762Q5.652066746139527,14.278333373069763,5.611116746139526,14.250933373069763Q5.570176746139526,14.223533373069763,5.5246767461395265,14.204733373069763Q5.479176746139526,14.185833373069762,5.430876746139527,14.176233373069763Q5.382576746139526,14.166633373069763,5.333336746139526,14.166633373069763L3.3333337461395263,14.166633373069763Q3.1666667461395264,14.166633373069763,3.1666667461395264,14.000033373069764L3.1666667461395264,2.000000373069763Q3.1666667461395264,1.8333333730697632,3.3333337461395263,1.8333333730697632L12.666666746139526,1.8333333730697632Q12.833366746139527,1.8333333730697632,12.833366746139527,2.000000373069763L12.833366746139527,5.333333373069763Q12.833366746139527,5.382583373069763,12.842966746139526,5.430883373069763Q12.852566746139527,5.479173373069763,12.871366746139527,5.5246733730697635Q12.890266746139526,5.570173373069763,12.917566746139526,5.611113373069763Q12.944966746139526,5.652063373069764,12.979766746139527,5.686883373069763Q13.014566746139526,5.721703373069763,13.055566746139526,5.749063373069763Q13.096466746139527,5.776423373069763,13.141966746139527,5.795273373069763Q13.187466746139526,5.814113373069763,13.235766746139527,5.823723373069763Q13.284066746139526,5.833333373069763,13.333366746139527,5.833333373069763Q13.382566746139526,5.833333373069763,13.430866746139527,5.823723373069763Q13.479166746139526,5.814113373069763,13.524666746139527,5.795273373069763Q13.570166746139526,5.776423373069763,13.611166746139526,5.749063373069763Q13.652066746139527,5.721703373069763,13.686866746139527,5.686883373069763Q13.721666746139526,5.652063373069764,13.749066746139526,5.611113373069763Q13.776466746139526,5.570173373069763,13.795266746139527,5.5246733730697635Q13.814066746139526,5.479173373069763,13.823766746139526,5.430883373069763Q13.833366746139527,5.382583373069763,13.833366746139527,5.333333373069763L13.833366746139527,2.000000373069763Q13.833366746139527,1.5167503730697631,13.491666746139526,1.1750443730697633Q13.149966746139526,0.8333333730697632,12.666666746139526,0.8333333730697632L3.3333337461395263,0.8333333730697632Q2.8500837461395263,0.8333333730697632,2.508375746139526,1.1750423730697632Q2.1666667461395264,1.5167503730697631,2.1666667461395264,2.000000373069763L2.1666667461395264,14.000033373069764Q2.1666667461395264,14.483233373069764,2.5083777461395265,14.824933373069763Q2.8500847461395264,15.166633373069763,3.3333337461395263,15.166633373069763Z" fill-rule="evenodd" fill="#5B9CF8" fill-opacity="1" style="mix-blend-mode:passthrough"/></g><g><path d="M5.3330078125,4.833333492279053L9.9996778125,4.833333492279053Q10.048917812500001,4.833333492279053,10.0972178125,4.842940492279053Q10.1455178125,4.852548492279053,10.1910178125,4.8713934922790525Q10.236507812500001,4.890239492279052,10.2774578125,4.917598492279053Q10.3184078125,4.944958492279053,10.3532278125,4.979780492279053Q10.3880478125,5.014602492279053,10.4154078125,5.055548492279053Q10.4427678125,5.096494492279053,10.4616178125,5.141991492279053Q10.4804578125,5.187488492279053,10.490067812500001,5.235788392279053Q10.4996778125,5.284087792279053,10.4996778125,5.333333492279053Q10.4996778125,5.382579192279053,10.490067812500001,5.430878592279052Q10.4804578125,5.479178492279052,10.4616178125,5.524675492279052Q10.4427678125,5.5701724922790525,10.4154078125,5.6111184922790525Q10.3880478125,5.652064492279052,10.3532278125,5.6868864922790525Q10.3184078125,5.721708492279053,10.2774578125,5.7490684922790525Q10.236507812500001,5.776427492279053,10.1910178125,5.795273492279053Q10.1455178125,5.814118492279053,10.0972178125,5.823726492279053Q10.048917812500001,5.833333492279053,9.9996778125,5.833333492279053L5.3330078125,5.833333492279053Q5.2837621125,5.833333492279053,5.2354627125,5.823726492279053Q5.1871628125,5.814118492279053,5.1416658125,5.795273492279053Q5.0961688125,5.776427492279053,5.0552228125,5.7490684922790525Q5.0142768125,5.721708492279053,4.9794548125,5.6868864922790525Q4.9446328125,5.652064492279052,4.9172728125,5.6111184922790525Q4.8899138125,5.5701724922790525,4.8710678125,5.524675492279052Q4.8522228125,5.479178492279052,4.8426148125,5.430878592279052Q4.8330078125,5.382579192279053,4.8330078125,5.333333492279053Q4.8330078125,5.284087792279053,4.8426148125,5.235788392279053Q4.8522228125,5.187488492279053,4.8710678125,5.141991492279053Q4.8899138125,5.096494492279053,4.9172728125,5.055548492279053Q4.9446328125,5.014602492279053,4.9794548125,4.979780492279053Q5.0142768125,4.944958492279053,5.0552228125,4.917598492279053Q5.0961688125,4.890239492279052,5.1416658125,4.8713934922790525Q5.1871628125,4.852548492279053,5.2354627125,4.842940492279053Q5.2837621125,4.833333492279053,5.3330078125,4.833333492279053Z" fill-rule="evenodd" fill="#5B9CF8" fill-opacity="1" style="mix-blend-mode:passthrough"/></g><g><path d="M13.721956507720947,7.981265507720948Q13.833336507720947,7.843681507720947,13.833336507720947,7.666666507720947Q13.833336507720947,7.617420807720947,13.823726507720949,7.569121407720948Q13.814116507720946,7.520821507720948,13.795276507720947,7.475324507720948Q13.776426507720947,7.4298275077209475,13.749066507720947,7.3888815077209475Q13.721706507720947,7.347935507720948,13.686886507720947,7.3131135077209475Q13.652066507720948,7.278291507720947,13.611116507720947,7.2509315077209475Q13.570166507720948,7.223572507720947,13.524676507720947,7.204726507720947Q13.479176507720947,7.185881507720947,13.430876507720948,7.176273507720947Q13.382576507720948,7.166666507720947,13.333336507720947,7.166666507720947Q13.220176507720947,7.166666507720947,13.118046507720948,7.215390507720947Q13.015906507720947,7.264115507720947,12.944706507720948,7.352067507720947L7.278183507720947,14.351896507720948L7.2780445077209475,14.352066507720947Q7.166666507720947,14.489656507720948,7.166666507720947,14.666666507720947Q7.166666507720947,14.715916507720948,7.176273507720947,14.764216507720947Q7.185881507720947,14.812506507720947,7.204726507720947,14.858006507720948Q7.223572507720947,14.903506507720948,7.2509315077209475,14.944446507720947Q7.278291507720947,14.985396507720948,7.3131135077209475,15.020216507720948Q7.347935507720948,15.055036507720947,7.3888815077209475,15.082396507720947Q7.4298275077209475,15.109756507720947,7.475324507720948,15.128606507720948Q7.520821507720948,15.147446507720947,7.569121407720948,15.157056507720947Q7.617420807720947,15.166666507720947,7.666666507720947,15.166666507720947Q7.779825507720947,15.166666507720947,7.881957507720947,15.117946507720948Q7.984089507720947,15.069216507720947,8.055289507720948,14.981266507720948L8.055660507720948,14.980806507720947L13.721726507720948,7.981542507720947L13.721956507720947,7.981265507720948L13.721956507720947,7.981265507720948Z" fill-rule="evenodd" fill="#5B9CF8" fill-opacity="1" style="mix-blend-mode:passthrough"/></g><g><path d="M5.3330078125,7.5L7.9996778125,7.5Q8.048917812500001,7.5,8.0972178125,7.509607Q8.1455178125,7.519215,8.1910178125,7.53806Q8.2365178125,7.556906,8.2774578125,7.584265Q8.3184078125,7.611625,8.3532278125,7.646447Q8.3880478125,7.681269,8.4154078125,7.722215Q8.4427678125,7.763161,8.4616178125,7.808658Q8.4804578125,7.854155,8.4900678125,7.9024549Q8.4996778125,7.9507543,8.4996778125,8Q8.4996778125,8.0492457,8.4900678125,8.0975451Q8.4804578125,8.145845,8.4616178125,8.191342Q8.4427678125,8.236839,8.4154078125,8.277785Q8.3880478125,8.318731,8.3532278125,8.353553Q8.3184078125,8.388375,8.2774578125,8.415735Q8.2365178125,8.443094,8.1910178125,8.46194Q8.1455178125,8.480785000000001,8.0972178125,8.490393Q8.048917812500001,8.5,7.9996778125,8.5L5.3330078125,8.5Q5.2837621125,8.5,5.2354627125,8.490393Q5.1871628125,8.480785000000001,5.1416658125,8.46194Q5.0961688125,8.443094,5.0552228125,8.415735Q5.0142768125,8.388375,4.9794548125,8.353553Q4.9446328125,8.318731,4.9172728125,8.277785Q4.8899138125,8.236839,4.8710678125,8.191342Q4.8522228125,8.145845,4.8426148125,8.0975451Q4.8330078125,8.0492457,4.8330078125,8Q4.8330078125,7.9507543,4.8426148125,7.9024549Q4.8522228125,7.854155,4.8710678125,7.808658Q4.8899138125,7.763161,4.9172728125,7.722215Q4.9446328125,7.681269,4.9794548125,7.646447Q5.0142768125,7.611625,5.0552228125,7.584265Q5.0961688125,7.556906,5.1416658125,7.53806Q5.1871628125,7.519215,5.2354627125,7.509607Q5.2837621125,7.5,5.3330078125,7.5Z" fill-rule="evenodd" fill="#5B9CF8" fill-opacity="1" style="mix-blend-mode:passthrough"/></g></g></svg>