<svg xmlns="http://www.w3.org/2000/svg" xmlns:xlink="http://www.w3.org/1999/xlink" fill="none" version="1.1" width="16" height="16" viewBox="0 0 16 16"><defs><clipPath id="master_svg0_69_07830"><rect x="0" y="0" width="16" height="16" rx="0"/></clipPath></defs><g clip-path="url(#master_svg0_69_07830)"><g><path d="M13.5,2.6666667461395264Q13.5,2.617421046139526,13.509607,2.5691216461395263Q13.519214999999999,2.5208217461395264,13.53806,2.4753247461395262Q13.556906,2.4298277461395266,13.584265,2.388881746139526Q13.611625,2.3479357461395263,13.646447,2.3131137461395266Q13.681269,2.2782917461395265,13.722215,2.250931746139526Q13.763161,2.2235727461395265,13.808658,2.204726746139526Q13.854155,2.1858817461395263,13.9024549,2.1762737461395263Q13.9507543,2.1666667461395264,14,2.1666667461395264Q14.0492457,2.1666667461395264,14.0975451,2.1762737461395263Q14.145845,2.1858817461395263,14.191342,2.204726746139526Q14.236839,2.2235727461395265,14.277785,2.250931746139526Q14.318731,2.2782917461395265,14.353553,2.3131137461395266Q14.388375,2.3479357461395263,14.415735,2.388881746139526Q14.443094,2.4298277461395266,14.46194,2.4753247461395262Q14.480785000000001,2.5208217461395264,14.490393,2.5691216461395263Q14.5,2.617421046139526,14.5,2.6666667461395264L14.5,7.9999967461395265Q14.5,8.049246746139527,14.490393,8.097546746139527Q14.480785000000001,8.145846746139526,14.46194,8.191336746139527Q14.443094,8.236836746139527,14.415735,8.277786746139526Q14.388375,8.318726746139525,14.353553,8.353556746139526Q14.318731,8.388376746139526,14.277785,8.415736746139526Q14.236839,8.443096746139528,14.191342,8.461936746139527Q14.145845,8.480786746139525,14.0975451,8.490396746139528Q14.0492457,8.499996746139526,14,8.499996746139526Q13.9507543,8.499996746139526,13.9024549,8.490396746139528Q13.854155,8.480786746139525,13.808658,8.461936746139527Q13.763161,8.443096746139528,13.722215,8.415736746139526Q13.681269,8.388376746139526,13.646447,8.353556746139526Q13.611625,8.318726746139525,13.584265,8.277786746139526Q13.556906,8.236836746139527,13.53806,8.191336746139527Q13.519214999999999,8.145846746139526,13.509607,8.097546746139527Q13.5,8.049246746139527,13.5,7.9999967461395265L13.5,2.6666667461395264Z" fill-rule="evenodd" fill="#3F82F7" fill-opacity="1" style="mix-blend-mode:passthrough"/></g><g><path d="M1.5,8Q1.5,7.9507543,1.509607,7.9024549Q1.519215,7.854155,1.53806,7.808658Q1.5569060000000001,7.763161,1.584265,7.722215Q1.611625,7.681269,1.646447,7.646447Q1.681269,7.611625,1.722215,7.584265Q1.763161,7.556906,1.8086579999999999,7.53806Q1.854155,7.519215,1.9024549,7.509607Q1.9507543,7.5,2,7.5Q2.0492457,7.5,2.0975451,7.509607Q2.145845,7.519215,2.191342,7.53806Q2.236839,7.556906,2.277785,7.584265Q2.318731,7.611625,2.353553,7.646447Q2.388375,7.681269,2.415735,7.722215Q2.443094,7.763161,2.4619400000000002,7.808658Q2.480785,7.854155,2.490393,7.9024549Q2.5,7.9507543,2.5,8L2.5,13.33333Q2.5,13.38258,2.490393,13.43088Q2.480785,13.47918,2.4619400000000002,13.52467Q2.443094,13.570170000000001,2.415735,13.61112Q2.388375,13.652059999999999,2.353553,13.68689Q2.318731,13.72171,2.277785,13.74907Q2.236839,13.776430000000001,2.191342,13.79527Q2.145845,13.814119999999999,2.0975451,13.823730000000001Q2.0492457,13.83333,2,13.83333Q1.9507543,13.83333,1.9024549,13.823730000000001Q1.854155,13.814119999999999,1.8086579999999999,13.79527Q1.763161,13.776430000000001,1.722215,13.74907Q1.681269,13.72171,1.646447,13.68689Q1.611625,13.652059999999999,1.584265,13.61112Q1.5569060000000001,13.570170000000001,1.53806,13.52467Q1.519215,13.47918,1.509607,13.43088Q1.5,13.38258,1.5,13.33333L1.5,8Z" fill-rule="evenodd" fill="#3F82F7" fill-opacity="1" style="mix-blend-mode:passthrough"/></g><g><path d="M3.3230500000000003,3.48598L3.3229699999999998,3.48607Q3.25548,3.55598,3.21909,3.64607Q3.1827,3.73617,3.1827,3.83333Q3.1827,3.88258,3.19231,3.93088Q3.20191,3.97918,3.2207600000000003,4.02467Q3.23961,4.07017,3.2669699999999997,4.11112Q3.29432,4.1520600000000005,3.3291500000000003,4.18689Q3.36397,4.22171,3.40491,4.24907Q3.4458599999999997,4.2764299999999995,3.4913600000000002,4.29527Q3.53686,4.31412,3.58515,4.323729999999999Q3.63345,4.33333,3.6827,4.33333Q3.78445,4.33333,3.87811,4.29357Q3.9717599999999997,4.2538,4.0424299999999995,4.1806Q5.66478,2.5,8,2.5Q10.27817,2.5,11.88908,4.11092Q13.5,5.721830000000001,13.5,8Q13.5,8.04925,13.5096,8.09755Q13.5192,8.14584,13.5381,8.19134Q13.5569,8.23684,13.5843,8.27778Q13.6116,8.31873,13.6464,8.35355Q13.6813,8.38837,13.7222,8.41573Q13.7632,8.44309,13.8087,8.46194Q13.8542,8.48078,13.9025,8.49039Q13.9508,8.5,14,8.5Q14.0492,8.5,14.0975,8.49039Q14.1458,8.48078,14.1913,8.46194Q14.2368,8.44309,14.2778,8.41573Q14.3187,8.38837,14.3536,8.35355Q14.3884,8.31873,14.4157,8.27778Q14.4431,8.23684,14.4619,8.19134Q14.4808,8.14584,14.4904,8.09755Q14.5,8.04925,14.5,8Q14.5,5.30762,12.5962,3.40381Q10.69238,1.5,8,1.5Q5.24053,1.5,3.3234399999999997,3.4855799999999997L3.3230500000000003,3.48598ZM2.499999,8.000810000000001Q2.500288,10.27846,4.11092,11.88908Q5.721830000000001,13.5,8,13.5Q10.22155,13.5,11.81941,11.95756Q11.88932,11.89008,11.97941,11.85369Q12.0695,11.8173,12.1667,11.8173Q12.2159,11.8173,12.2642,11.82691Q12.3125,11.83651,12.358,11.85536Q12.4035,11.8742,12.4445,11.90156Q12.4854,11.92892,12.5202,11.96375Q12.555,11.99857,12.5824,12.0395Q12.6098,12.0805,12.6286,12.126Q12.6475,12.1715,12.6571,12.2198Q12.6667,12.2681,12.6667,12.3173Q12.6667,12.4191,12.6269,12.5127Q12.5871,12.6064,12.5139,12.677Q10.62546,14.5,8,14.5Q5.30762,14.5,3.40381,12.5962Q1.4999989999999999,10.69238,1.4999989999999999,8Q1.4999989999999999,7.95075,1.509607,7.90245Q1.519214,7.85415,1.53806,7.80866Q1.556905,7.76316,1.584265,7.72221Q1.611624,7.68127,1.646446,7.64645Q1.681268,7.61162,1.722215,7.58426Q1.763161,7.55691,1.8086579999999999,7.53806Q1.854155,7.51921,1.9024548000000001,7.50961Q1.9507543,7.5,2,7.5Q2.0492457,7.5,2.0975451,7.50961Q2.145845,7.51921,2.191342,7.53806Q2.236839,7.55691,2.277785,7.58426Q2.318731,7.61162,2.353553,7.64645Q2.388375,7.68127,2.415735,7.72221Q2.443094,7.76316,2.4619400000000002,7.80866Q2.480785,7.85415,2.490393,7.90245Q2.5,7.95075,2.5,8L2.499999,8.000810000000001Z" fill-rule="evenodd" fill="#3F82F7" fill-opacity="1" style="mix-blend-mode:passthrough"/></g></g></svg>