<svg xmlns="http://www.w3.org/2000/svg" xmlns:xlink="http://www.w3.org/1999/xlink" fill="none" version="1.1" width="16" height="16" viewBox="0 0 16 16"><defs><clipPath id="master_svg0_69_06946"><rect x="0" y="0" width="16" height="16" rx="0"/></clipPath></defs><g clip-path="url(#master_svg0_69_06946)"><g><path d="M1.5,3L1.5,13Q1.5,13.6213,1.9393429,14.0607Q2.378679,14.5,3,14.5L13,14.5Q13.6213,14.5,14.0607,14.0607Q14.5,13.6213,14.5,13L14.5,4.40217Q14.5,4.2982499999999995,14.4586,4.20293Q14.4172,4.10762,14.3412,4.0367L11.76836,1.634531Q11.69891,1.569694,11.61053,1.534847Q11.52214,1.5,11.42713,1.5L3,1.5Q2.378681,1.5,1.9393404,1.9393404Q1.5,2.378681,1.5,3ZM3,13.5Q2.5,13.5,2.5,13L2.5,3Q2.5,2.5,3,2.5L11.23,2.5L13.5,4.61939L13.5,13Q13.5,13.5,13,13.5L3,13.5Z" fill-rule="evenodd" fill="#FFFFFF" fill-opacity="1" style="mix-blend-mode:passthrough"/></g><g></g><g><path d="M8.002766507720947,1.5L4.666666507720947,1.5Q4.617420807720947,1.5,4.569121407720948,1.509607Q4.520821507720948,1.519215,4.475324507720948,1.53806Q4.4298275077209475,1.5569060000000001,4.3888815077209475,1.584265Q4.347935507720948,1.611625,4.3131135077209475,1.646447Q4.278291507720947,1.681269,4.2509315077209475,1.722215Q4.223572507720947,1.763161,4.204726507720947,1.8086579999999999Q4.185881507720947,1.854155,4.176273507720947,1.9024549Q4.166666507720947,1.9507543,4.166666507720947,2L4.166666507720947,4.46153Q4.166666507720947,4.8259,4.502245507720947,5.03242Q4.720401507720947,5.16667,5.000000507720947,5.16667L7.666666507720947,5.16667Q7.946266507720948,5.16667,8.164416507720947,5.03242Q8.499996507720947,4.8259,8.499996507720947,4.4620999999999995L8.502766507720947,2.000561968L8.502766507720947,2Q8.502766507720947,1.9507543,8.493156507720947,1.9024549Q8.483546507720947,1.854155,8.464706507720948,1.8086579999999999Q8.445856507720947,1.763161,8.418496507720947,1.722215Q8.391146507720947,1.681269,8.356316507720948,1.646447Q8.321496507720948,1.611625,8.280546507720947,1.584265Q8.239606507720946,1.5569060000000001,8.194106507720948,1.53806Q8.148606507720947,1.519215,8.100316507720947,1.509607Q8.052016507720946,1.5,8.002766507720947,1.5ZM5.166666507720947,2.5L5.166666507720947,4.16667L7.500326507720947,4.16667L7.502206507720947,2.5L5.166666507720947,2.5Z" fill-rule="evenodd" fill="#FFFFFF" fill-opacity="1" style="mix-blend-mode:passthrough"/></g><g><path d="M3,1.5L11.42713,1.5Q11.47638,1.5,11.52468,1.509607Q11.57298,1.519215,11.61847,1.53806Q11.66397,1.5569060000000001,11.70492,1.584265Q11.74586,1.611625,11.78069,1.646447Q11.81551,1.681269,11.84287,1.722215Q11.87023,1.763161,11.88907,1.8086579999999999Q11.90792,1.854155,11.91753,1.9024549Q11.92713,1.9507543,11.92713,2Q11.92713,2.0492457,11.91753,2.0975451Q11.90792,2.145845,11.88907,2.191342Q11.87023,2.236839,11.84287,2.277785Q11.81551,2.318731,11.78069,2.353553Q11.74586,2.388375,11.70492,2.415735Q11.66397,2.443094,11.61847,2.4619400000000002Q11.57298,2.480785,11.52468,2.490393Q11.47638,2.5,11.42713,2.5L3,2.5Q2.9507543,2.5,2.9024549,2.490393Q2.854155,2.480785,2.808658,2.4619400000000002Q2.763161,2.443094,2.722215,2.415735Q2.681269,2.388375,2.646447,2.353553Q2.611625,2.318731,2.584265,2.277785Q2.556906,2.236839,2.5380599999999998,2.191342Q2.519215,2.145845,2.509607,2.0975451Q2.5,2.0492457,2.5,2Q2.5,1.9507543,2.509607,1.9024549Q2.519215,1.854155,2.5380599999999998,1.8086579999999999Q2.556906,1.763161,2.584265,1.722215Q2.611625,1.681269,2.646447,1.646447Q2.681269,1.611625,2.722215,1.584265Q2.763161,1.5569060000000001,2.808658,1.53806Q2.854155,1.519215,2.9024549,1.509607Q2.9507543,1.5,3,1.5Z" fill-rule="evenodd" fill="#FFFFFF" fill-opacity="1" style="mix-blend-mode:passthrough"/></g><g><path d="M4.6669921875,8.166666984558105L11.3336621875,8.166666984558105Q11.382902187500001,8.166666984558105,11.4312021875,8.176273984558106Q11.4795021875,8.185881984558105,11.5250021875,8.204726984558105Q11.570492187500001,8.223572984558105,11.6114421875,8.250931984558106Q11.6523921875,8.278291984558106,11.6872121875,8.313113984558106Q11.7220321875,8.347935984558106,11.7493921875,8.388881984558106Q11.7767521875,8.429827984558106,11.795592187499999,8.475324984558105Q11.8144421875,8.520821984558106,11.824052187500001,8.569121884558106Q11.8336621875,8.617421284558105,11.8336621875,8.666666984558105Q11.8336621875,8.715912684558106,11.824052187500001,8.764212084558105Q11.8144421875,8.812511984558105,11.795592187499999,8.858008984558106Q11.7767521875,8.903505984558105,11.7493921875,8.944451984558105Q11.7220321875,8.985397984558105,11.6872121875,9.020219984558105Q11.6523921875,9.055041984558105,11.6114421875,9.082401984558105Q11.570492187500001,9.109760984558106,11.5250021875,9.128606984558106Q11.4795021875,9.147451984558106,11.4312021875,9.157059984558105Q11.382902187500001,9.166666984558105,11.3336621875,9.166666984558105L4.6669921875,9.166666984558105Q4.6177464875,9.166666984558105,4.5694470875,9.157059984558105Q4.5211471875,9.147451984558106,4.4756501875,9.128606984558106Q4.4301531875,9.109760984558106,4.3892071875,9.082401984558105Q4.3482611875,9.055041984558105,4.3134391875,9.020219984558105Q4.2786171875,8.985397984558105,4.2512571875,8.944451984558105Q4.2238981875,8.903505984558105,4.2050521875,8.858008984558106Q4.1862071875,8.812511984558105,4.1765991875,8.764212084558105Q4.1669921875,8.715912684558106,4.1669921875,8.666666984558105Q4.1669921875,8.617421284558105,4.1765991875,8.569121884558106Q4.1862071875,8.520821984558106,4.2050521875,8.475324984558105Q4.2238981875,8.429827984558106,4.2512571875,8.388881984558106Q4.2786171875,8.347935984558106,4.3134391875,8.313113984558106Q4.3482611875,8.278291984558106,4.3892071875,8.250931984558106Q4.4301531875,8.223572984558105,4.4756501875,8.204726984558105Q4.5211471875,8.185881984558105,4.5694470875,8.176273984558106Q4.6177464875,8.166666984558105,4.6669921875,8.166666984558105Z" fill-rule="evenodd" fill="#FFFFFF" fill-opacity="1" style="mix-blend-mode:passthrough"/></g><g><path d="M4.6669921875,10.833333015441895L8.0030921875,10.833333015441895Q8.052342187499999,10.833333015441895,8.1006421875,10.842940015441895Q8.1489321875,10.852548015441894,8.1944321875,10.871393015441894Q8.2399321875,10.890239015441894,8.2808721875,10.917598015441895Q8.3218221875,10.944958015441895,8.3566421875,10.979780015441895Q8.3914721875,11.014602015441895,8.4188221875,11.055548015441895Q8.4461821875,11.096494015441895,8.4650321875,11.141991015441894Q8.4838721875,11.187488015441895,8.4934821875,11.235787915441895Q8.5030921875,11.284087315441894,8.5030921875,11.333333015441895Q8.5030921875,11.382578715441895,8.4934821875,11.430878115441894Q8.4838721875,11.479178015441894,8.4650321875,11.524675015441895Q8.4461821875,11.570172015441894,8.4188221875,11.611118015441894Q8.3914721875,11.652064015441894,8.3566421875,11.686886015441894Q8.3218221875,11.721708015441894,8.2808721875,11.749068015441894Q8.2399321875,11.776427015441895,8.1944321875,11.795273015441895Q8.1489321875,11.814118015441895,8.1006421875,11.823726015441894Q8.052342187499999,11.833333015441895,8.0030921875,11.833333015441895L4.6669921875,11.833333015441895Q4.6177464875,11.833333015441895,4.5694470875,11.823726015441894Q4.5211471875,11.814118015441895,4.4756501875,11.795273015441895Q4.4301531875,11.776427015441895,4.3892071875,11.749068015441894Q4.3482611875,11.721708015441894,4.3134391875,11.686886015441894Q4.2786171875,11.652064015441894,4.2512571875,11.611118015441894Q4.2238981875,11.570172015441894,4.2050521875,11.524675015441895Q4.1862071875,11.479178015441894,4.1765991875,11.430878115441894Q4.1669921875,11.382578715441895,4.1669921875,11.333333015441895Q4.1669921875,11.284087315441894,4.1765991875,11.235787915441895Q4.1862071875,11.187488015441895,4.2050521875,11.141991015441894Q4.2238981875,11.096494015441895,4.2512571875,11.055548015441895Q4.2786171875,11.014602015441895,4.3134391875,10.979780015441895Q4.3482611875,10.944958015441895,4.3892071875,10.917598015441895Q4.4301531875,10.890239015441894,4.4756501875,10.871393015441894Q4.5211471875,10.852548015441894,4.5694470875,10.842940015441895Q4.6177464875,10.833333015441895,4.6669921875,10.833333015441895Z" fill-rule="evenodd" fill="#FFFFFF" fill-opacity="1" style="mix-blend-mode:passthrough"/></g></g></svg>